<svg id="calculator_1" data-name="calculator 1" xmlns="http://www.w3.org/2000/svg" xmlns:xlink="http://www.w3.org/1999/xlink" width="40" height="37.393" viewBox="0 0 40 37.393">
  <defs>
    <clipPath id="clip-path">
      <rect id="calculator_1_Background_Mask_" data-name="calculator 1 (Background/Mask)" width="40" height="37.393" fill="none"/>
    </clipPath>
  </defs>
  <rect id="calculator_1_Background_Mask_2" data-name="calculator 1 (Background/Mask)" width="40" height="37.393" fill="none"/>
  <g id="calculator_1-2" data-name="calculator 1" clip-path="url(#clip-path)">
    <g id="Group" transform="translate(3.333 0.779)">
      <path id="Vector" d="M30,35.834H3.334A3.234,3.234,0,0,1,0,32.719V3.116A3.234,3.234,0,0,1,3.334,0H30a3.234,3.234,0,0,1,3.334,3.116v29.6A3.234,3.234,0,0,1,30,35.834ZM24.167,21.812a.809.809,0,0,0-.833.779v7.789a.809.809,0,0,0,.833.779H27.5a.808.808,0,0,0,.833-.779V22.592a.808.808,0,0,0-.833-.779ZM15,28.044a.809.809,0,0,0-.833.779v1.558a.809.809,0,0,0,.833.779h3.333a.809.809,0,0,0,.833-.779V28.823a.809.809,0,0,0-.833-.779Zm-9.167,0A.808.808,0,0,0,5,28.823v1.558a.808.808,0,0,0,.833.779H9.167A.809.809,0,0,0,10,30.381V28.823a.809.809,0,0,0-.833-.779ZM15,21.812a.809.809,0,0,0-.833.779V24.15a.808.808,0,0,0,.833.778h3.333a.808.808,0,0,0,.833-.778V22.592a.809.809,0,0,0-.833-.779Zm-9.167,0A.808.808,0,0,0,5,22.592V24.15a.808.808,0,0,0,.833.778H9.167A.808.808,0,0,0,10,24.15V22.592a.809.809,0,0,0-.833-.779ZM24.167,15.58a.809.809,0,0,0-.833.779v1.558a.809.809,0,0,0,.833.779H27.5a.808.808,0,0,0,.833-.779V16.359a.808.808,0,0,0-.833-.779ZM15,15.58a.809.809,0,0,0-.833.779v1.558A.809.809,0,0,0,15,18.7h3.333a.809.809,0,0,0,.833-.779V16.359a.809.809,0,0,0-.833-.779Zm-9.167,0A.808.808,0,0,0,5,16.359v1.558a.808.808,0,0,0,.833.779H9.167A.809.809,0,0,0,10,17.917V16.359a.809.809,0,0,0-.833-.779Zm0-10.906A.808.808,0,0,0,5,5.453v6.233a.808.808,0,0,0,.833.778H27.5a.808.808,0,0,0,.833-.778V5.453a.808.808,0,0,0-.833-.779Z" fill="#fd9e2a"/>
    </g>
  </g>
</svg>
