<svg xmlns="http://www.w3.org/2000/svg" width="40" height="41.44" viewBox="0 0 40 41.44">
  <g id="np_broker_2472633_000000" transform="translate(-13.218 -11.899)">
    <path id="Path_19619" data-name="Path 19619" d="M56.9,75.672h3.25v6.76H56.9Z" transform="translate(-19.926 -29.092)" fill="#f15048"/>
    <path id="Path_19620" data-name="Path 19620" d="M64.863,69.086h3.25V79.427h-3.25Z" transform="translate(-23.56 -26.088)" fill="#f15048"/>
    <path id="Path_19621" data-name="Path 19621" d="M72.832,64.992h3.252V77.557H72.832Z" transform="translate(-27.195 -24.22)" fill="#f15048"/>
    <path id="Path_19622" data-name="Path 19622" d="M80.8,58.473h3.248V74.586H80.8Z" transform="translate(-30.83 -21.246)" fill="#f15048"/>
    <path id="Path_19623" data-name="Path 19623" d="M46.443,21.615c0,5.366-3.96,9.716-8.846,9.716s-8.848-4.351-8.848-9.716S32.711,11.9,37.6,11.9s8.846,4.351,8.846,9.716" transform="translate(-7.085)" fill="#f15048"/>
    <path id="Path_19624" data-name="Path 19624" d="M40.15,59.7h4.331V57.474H47.8V55.851c0-3.639-9.7-4.809-9.7-4.809l-5.035,9.2L31.8,55.069l1.869-1.13a.457.457,0,0,0,0-.852l-2.454-1.481a1.507,1.507,0,0,0-1.411,0l-2.451,1.481a.457.457,0,0,0,0,.852l1.871,1.13-1.266,5.168-5.035-9.2s-9.7,1.173-9.7,4.809V70.128H35.812V63.279h4.331Z" transform="translate(0 -17.855)" fill="#f15048"/>
    <path id="Path_19625" data-name="Path 19625" d="M79.444,36.594a2.693,2.693,0,0,0-.225-1.136,3.082,3.082,0,0,0-.625-.892,5.05,5.05,0,0,0-.952-.739c-.372-.225-.771-.452-1.2-.678-.287-.151-.584-.3-.89-.452a4.38,4.38,0,0,1-.828-.516,1.4,1.4,0,0,1-.554-1.094,1.1,1.1,0,0,1,.408-.89,1.781,1.781,0,0,1,1.164-.34,2.471,2.471,0,0,1,1.1.225,3.392,3.392,0,0,1,.85.595L79.164,29.6a5.408,5.408,0,0,0-1.283-.8,5.332,5.332,0,0,0-1.608-.387l0-1H75.109v1a4.421,4.421,0,0,0-1.272.327,3.229,3.229,0,0,0-.958.62,2.6,2.6,0,0,0-.591.839,2.462,2.462,0,0,0-.2,1,2.318,2.318,0,0,0,.387,1.347,4.169,4.169,0,0,0,.969.984,8.5,8.5,0,0,0,1.258.763c.452.225.867.452,1.253.686a4.533,4.533,0,0,1,.962.752,1.341,1.341,0,0,1,.387.964,1.214,1.214,0,0,1-.378.9,1.542,1.542,0,0,1-1.122.37,3.114,3.114,0,0,1-.767-.085,2.481,2.481,0,0,1-.612-.24,3.243,3.243,0,0,1-.523-.357c-.166-.136-.334-.276-.51-.425l-1.5,1.032A7.061,7.061,0,0,0,73.284,38.9a4.794,4.794,0,0,0,1.821.512v1.245h1.162V39.43a3.837,3.837,0,0,0,2.369-.909,2.549,2.549,0,0,0,.809-1.927Z" transform="translate(-26.765 -7.074)" fill="#f15048"/>
  </g>
</svg>
