<svg xmlns="http://www.w3.org/2000/svg" width="40.61" height="28.894" viewBox="0 0 40.61 28.894">
  <g id="np_online_2862319_000000" transform="translate(-2.09 -15.937)">
    <path id="Path_19674" data-name="Path 19674" d="M42.386,39.964a1.082,1.082,0,0,0-.768-.322H40.3V16.433a.5.5,0,0,0-.5-.5H5a.5.5,0,0,0-.5.5V39.642H3.181A1.09,1.09,0,0,0,2.09,40.733v1.5a2.6,2.6,0,0,0,2.594,2.594H40.105A2.6,2.6,0,0,0,42.7,42.237v-1.5a1.041,1.041,0,0,0-.314-.768ZM5.494,16.929H39.312V39.642H5.494ZM3.082,42.237v-1.5a.107.107,0,0,1,.1-.1H22.25a1.611,1.611,0,0,0-.016,3.206H4.685a1.6,1.6,0,0,1-1.6-1.6ZM22.4,41.625a.62.62,0,0,1,0,1.239.62.62,0,1,1,0-1.239Zm19.31.611a1.6,1.6,0,0,1-1.6,1.6H22.565a1.611,1.611,0,0,0-.025-3.206h19.07a.074.074,0,0,1,.066.033c.008.017.033.033.033.066Z" transform="translate(0 0)" fill="#4f4f4f"/>
    <path id="Path_19675" data-name="Path 19675" d="M59.246,38.671H49.513l-2.322-8.659a.5.5,0,0,0-.479-.364h-3.4a.5.5,0,1,0,0,.992h3.024L48.654,39.3a.5.5,0,0,0,.479.364H59.254a.5.5,0,1,0-.008-.992Z" transform="translate(-23.495 -7.911)" fill="#4f4f4f"/>
    <path id="Path_19676" data-name="Path 19676" d="M59.957,53.887a1.421,1.421,0,1,0,1.429,1.421,1.421,1.421,0,0,0-1.429-1.421Zm0,1.859a.427.427,0,0,1-.43-.43.434.434,0,0,1,.868,0A.429.429,0,0,1,59.957,55.746Z" transform="translate(-32.567 -21.896)" fill="#4f4f4f"/>
    <path id="Path_19677" data-name="Path 19677" d="M76.851,53.887a1.421,1.421,0,1,0,1.429,1.421A1.439,1.439,0,0,0,76.851,53.887Zm0,1.859a.43.43,0,1,1,0-.859.434.434,0,0,1,.438.43A.445.445,0,0,1,76.851,55.746Z" transform="translate(-42.314 -21.896)" fill="#4f4f4f"/>
    <path id="Path_19678" data-name="Path 19678" d="M59.735,39.948a.486.486,0,0,0,.471.364l6.618.149h.008a.492.492,0,0,0,.413-.223.518.518,0,0,0,.041-.479l-2.041-4.511a.5.5,0,0,0-.446-.289l-5.751-.017a.523.523,0,0,0-.4.19.5.5,0,0,0-.083.43Zm4.734-4,1.586,3.5-5.461-.124-.909-3.4Z" transform="translate(-32.577 -10.964)" fill="#4f4f4f"/>
    <path id="Path_19679" data-name="Path 19679" d="M26.832,34.277H17.859a.5.5,0,0,0,0,.992h8.973a.5.5,0,1,0,0-.992Z" transform="translate(-8.812 -10.581)" fill="#4f4f4f"/>
    <path id="Path_19680" data-name="Path 19680" d="M24.9,43.965h-7.04a.5.5,0,0,0,0,.992H24.9a.5.5,0,1,0,0-.992Z" transform="translate(-8.812 -16.171)" fill="#4f4f4f"/>
    <path id="Path_19681" data-name="Path 19681" d="M23.378,53.652H17.859a.5.5,0,1,0,0,.992h5.527a.5.5,0,0,0,.5-.5.5.5,0,0,0-.5-.5Z" transform="translate(-8.812 -21.76)" fill="#4f4f4f"/>
  </g>
</svg>
