<svg xmlns="http://www.w3.org/2000/svg" width="72.513" height="58.812" viewBox="0 0 72.513 58.812">
  <g id="Group_10865" data-name="Group 10865" transform="translate(-5930.823 -899.722)">
    <path id="Path_18652" data-name="Path 18652" d="M5953.942,911.01l22.2-6.063,1.028.346.367,1.585,7.369,27.945-1.606-.965-1.561-.46H5980.1l-.56.46-1.429.965-.373,1.618.608,2.262,1.193,2v.32l-15.2,4.146H5963.3l-.738-.255-8.623-32.838-.188-.565Z" transform="translate(-2.49 -0.568)" fill="#fff"/>
    <rect id="Rectangle_5974" data-name="Rectangle 5974" width="5.347" height="5.347" rx="1" transform="matrix(0.966, -0.259, 0.259, 0.966, 5960.682, 910.556)" fill="#e6c67c"/>
    <path id="np_hand-holding-secured-credit-card-over-pos-terminal_2326747_000000" d="M33.569,57.815,32.8,67.643c-.362,4.6-27,4.608-27.351,0L3.495,42.308l0-.03V16.582c0-5.713,31.25-5.747,31.25,0v3.045l11.384-3.052a1.268,1.268,0,0,1,1.547.892L54.5,42.95a31.5,31.5,0,0,1,6.152.506c2.844.387,8.506.649,10.827,1.8a16.831,16.831,0,0,1,4.4,3.658.419.419,0,0,1-.6.582,16.088,16.088,0,0,0-4.172-3.487c-2.15-1.066-7.885-1.355-10.568-1.721a32.976,32.976,0,0,0-5.82-.509l.813,3.039c1.766,1.4,3.347,2.991,5.442,3.892a6.4,6.4,0,0,0,2.293.585,4.231,4.231,0,0,1,.454-1.029.419.419,0,0,1,.719.432,4.274,4.274,0,0,0-.4,3.1c.244.186.487.369.734.545a2.889,2.889,0,0,0,2.1-1.514.251.251,0,0,1,.423.271,3.728,3.728,0,0,1-1.934,1.642c.289.189.585.365.889.53a2.434,2.434,0,0,0,1.407-.466.252.252,0,0,1,.3.405,3.094,3.094,0,0,1-.923.451,9.046,9.046,0,0,0,3.423.813.419.419,0,0,1-.03.837c-4.681-.164-7.425-3.454-10.824-6.051-1.584-1.212-3.1-2.616-4.687-3.865-.009-.006-.018-.015-.027-.021-.2-.161-.4-.311-.582-.451-3.923-2.988-8.076.174-4.8,4.681a19.914,19.914,0,0,0,2.43,2.808c1.032.975,2.175,1.839,3.213,2.82A55.731,55.731,0,0,1,59.3,61.613c.646.758,1.27,1.578,1.9,2.406,1.693,2.217,3.451,4.513,5.738,5.832a.418.418,0,0,1-.417.725,15.827,15.827,0,0,1-4.087-3.642,3.051,3.051,0,0,1-.46,1.182,2.019,2.019,0,0,1-3.448-.356,6.278,6.278,0,0,1-.661-2.924,9.021,9.021,0,0,1,.481-3.042c-.128-.146-.256-.3-.387-.442a3.928,3.928,0,0,0-.71,2.29c1.188,4.212-2.643,6.983-4.242,4.017a10.673,10.673,0,0,1-.9-3.578c-1.489,2.08-4.285,2.077-4.614-1.032a10.951,10.951,0,0,1,.055-2.51c.061-.445-.018-.445-.362-.542a3.49,3.49,0,0,1-.563-.2c-1.456-.682-1.115-2.144-.707-3.889.107-.46.219-.941.3-1.422l-12.249,3.3a1.2,1.2,0,0,1-.4.04Zm29.547-5.692a6.181,6.181,0,0,1-1.441-.271c.475.4.947.8,1.428,1.194a5.752,5.752,0,0,1,.012-.923ZM38.944,34.557a.167.167,0,0,1-.289-.167l0-.006a.834.834,0,0,1,1.13-.3l.009.006a.167.167,0,0,1-.167.289l-.006,0a.5.5,0,0,0-.673.18l0,.006Zm-.761-.445a.167.167,0,0,1-.289-.167,1.718,1.718,0,0,1,2.339-.624.167.167,0,0,1-.167.289,1.387,1.387,0,0,0-1.882.5Zm-.777-.454a.167.167,0,0,1-.289-.167,2.623,2.623,0,0,1,3.566-.95.167.167,0,0,1-.167.289,2.289,2.289,0,0,0-3.109.828Zm-.819-.457a.168.168,0,0,1-.292-.168,3.572,3.572,0,0,1,4.848-1.313.168.168,0,0,1-.168.292A3.233,3.233,0,0,0,36.587,33.2Zm-1.042-8.539-1.081.289.158.591,1.081-.289Zm-1.209-.2,1.081-.289-.189-.707-.545.146a.558.558,0,0,0-.393.679Zm1.5,1.273-1.081.289.167.624.728-.195c.335-.088.335-.161.253-.472Zm-.122-2.4.542,2.025.131.49c.155.582.006.926-.609,1.09l-.728.195.107.4a.558.558,0,0,0,.679.393l2.1-.56-.6-2.251-.143-.536a.731.731,0,0,1,.6-1.038l.862-.231L38.6,23.14a.556.556,0,0,0-.679-.393l-2.211.591Zm2.324,2.479,1.2-.32-.158-.591-1.2.32Zm1.328.164-1.2.32.25.932.661-.177a.556.556,0,0,0,.393-.679ZM37.75,24.739l1.2-.32-.167-.624-.865.231c-.3.079-.323.122-.244.42Zm6.064-3.655a.252.252,0,0,1,.487-.131l1.705,6.365a.252.252,0,0,1-.487.131Zm-9.261,2.044,3.24-.868a1.06,1.06,0,0,1,1.294.749l.868,3.24a1.06,1.06,0,0,1-.749,1.294l-3.24.868a1.06,1.06,0,0,1-1.294-.749l-.868-3.24a1.06,1.06,0,0,1,.749-1.294Zm.442,25.207a.252.252,0,0,1,.487-.131l1.212,4.52a.252.252,0,0,1-.487.131ZM32.92,40.6a.252.252,0,0,1,.487-.131l1.212,4.52a.252.252,0,0,1-.487.131Zm-2.074-7.739a.252.252,0,0,1,.487-.131l1.212,4.52a.252.252,0,0,1-.487.131Zm-2.074-7.739a.252.252,0,0,1,.487-.131l1.212,4.52a.252.252,0,0,1-.487.131Zm5.138-5.263V16.586c0-4.583-29.569-4.556-29.569,0V42.268L6.287,67.479c.131,1.712,6.67,2.829,12.895,2.838,6.584.012,12.642-1.124,12.782-2.908l.8-9.958a1.245,1.245,0,0,1-.332-.57l-3.17-11.832H8.148a.251.251,0,0,1,0-.5H29.125l-.551-2.056a10.608,10.608,0,0,1-3.033.356,1.09,1.09,0,0,1-1.087-1.087V39.737a1.09,1.09,0,0,1,1.087-1.087h2l-.518-1.931H8.7a1.08,1.08,0,0,1-1.078-1.078V17.6A1.08,1.08,0,0,1,8.7,16.525H29.558A1.08,1.08,0,0,1,30.636,17.6v3.122l3.277-.877ZM49.938,53.485l-2.829.761a18.443,18.443,0,0,1-.365,1.852c-.323,1.386-.594,2.549.244,2.942a1.806,1.806,0,0,0,2.126-.393,5.38,5.38,0,0,0,1.173-1.687,7.762,7.762,0,0,0,.688-2.354q-.539-.539-1.035-1.118Zm-21.581-11.8L27.77,39.5H25.541a.25.25,0,0,0-.247.247v2.022a.25.25,0,0,0,.247.247,9.76,9.76,0,0,0,2.817-.326Zm-1.553-5.8L25,29.148a6.135,6.135,0,0,1-5.9,3.767,6.289,6.289,0,1,1,4.876-10.26,1.283,1.283,0,0,1,.515-.28L29.8,20.953V17.606a.24.24,0,0,0-.238-.238H8.7a.24.24,0,0,0-.238.238V35.645a.24.24,0,0,0,.238.238H26.8Zm-2.053-7.656-1.154-4.3a1.258,1.258,0,0,1,.07-.847A5.785,5.785,0,1,0,19.1,32.413a5.556,5.556,0,0,0,5.652-4.185Zm29.7,17.764-7.583-28.3a.424.424,0,0,0-.518-.3q-10.822,2.9-21.644,5.8a.424.424,0,0,0-.3.518l8.832,32.958a.424.424,0,0,0,.518.3l15.593-4.194c-.177-.222-.347-.445-.512-.673-3.7-5.086.962-9.234,5.616-6.106ZM59,62.548a8.437,8.437,0,0,0-.283,2.281,5.446,5.446,0,0,0,.554,2.525,1.192,1.192,0,0,0,2.028.286,3.062,3.062,0,0,0,.4-1.632c-.39-.49-.767-.987-1.145-1.48-.518-.676-1.029-1.346-1.547-1.98Zm-2.881-8.089a.251.251,0,0,1-.265-.426,2.559,2.559,0,0,0,.953-1.011.251.251,0,0,1,.445.231,3.054,3.054,0,0,1-1.13,1.206Zm-6.56-4.608a.251.251,0,0,1,.451-.219A2.327,2.327,0,0,0,52.5,51.094c.981-.259,2.3-1.8,1.264-2.774a.251.251,0,0,1,.344-.365c1.346,1.267-.11,3.262-1.48,3.627a2.807,2.807,0,0,1-3.073-1.73Zm7.056,12.435a4.344,4.344,0,0,1,.789-1.571c-.862-.944-1.754-1.861-2.68-2.741a8.1,8.1,0,0,0-.947,1.766,16.434,16.434,0,0,0-.877,3.088,11.149,11.149,0,0,0,.862,4.431c1.169,2.171,3.965-.475,2.421-4.175a.42.42,0,0,1,.225-.548c.21-.088.128.027.2-.25Zm-3.46-3.222a8.252,8.252,0,0,1,.953-1.666c-.786-.722-1.614-1.38-2.4-2.092a9.1,9.1,0,0,1-.667,2,6.223,6.223,0,0,1-1.367,1.955,3.336,3.336,0,0,1-.728.515c-.527.262-.478.262-.551.807a10.489,10.489,0,0,0-.058,2.375c.283,2.674,2.516,1.87,3.426.094a7.248,7.248,0,0,0,.716-3.012,5.216,5.216,0,0,0-.018-.621.422.422,0,0,1,.384-.454.414.414,0,0,1,.3.1ZM16.4,25.993a.251.251,0,0,1,.356-.353l.012.012a1.421,1.421,0,0,1,0,1.986l-.012.012a.251.251,0,0,1-.353-.356l.009-.009a.916.916,0,0,0,0-1.279L16.4,26Zm1.1-1.087a.251.251,0,0,1,.356-.353,2.979,2.979,0,0,1,0,4.178.251.251,0,0,1-.356-.353,2.475,2.475,0,0,0,0-3.469ZM18.621,23.8a.251.251,0,0,1,.356-.353,4.565,4.565,0,0,1-.009,6.4.251.251,0,0,1-.356-.353,4.058,4.058,0,0,0,.009-5.689Zm1.142-1.182a.251.251,0,0,1,.353-.356,6.222,6.222,0,0,1,.024,8.731.251.251,0,0,1-.356-.353,5.712,5.712,0,0,0-.024-8.019ZM11.635,34.834a.168.168,0,0,1-.238.238l-1.91-1.91a.168.168,0,0,1,.238-.238Zm-1.163.006a.168.168,0,0,1-.238.238l-.783-.783a.168.168,0,0,1,.238-.238ZM12.755,39.5H8.723a.25.25,0,0,0-.247.247,1.774,1.774,0,0,0,.506,1.45c.539.472,1.626.819,3.773.819A.25.25,0,0,0,13,41.765V39.743a.25.25,0,0,0-.247-.247Zm-4.032-.841h4.032a1.09,1.09,0,0,1,1.087,1.087v2.022a1.09,1.09,0,0,1-1.087,1.087c-2.382,0-3.645-.436-4.325-1.029a2.494,2.494,0,0,1-.795-2.08A1.09,1.09,0,0,1,8.723,38.656Zm8.4,0h4.032a1.09,1.09,0,0,1,1.087,1.087v2.022a1.09,1.09,0,0,1-1.087,1.087H17.122a1.09,1.09,0,0,1-1.087-1.087V39.743A1.09,1.09,0,0,1,17.122,38.656Zm4.032.841H17.122a.25.25,0,0,0-.247.247v2.022a.25.25,0,0,0,.247.247h4.032a.25.25,0,0,0,.247-.247V39.743A.25.25,0,0,0,21.155,39.5Zm3.776,23.59h3.652a1.026,1.026,0,0,1,1.023,1.023v1.83a1.026,1.026,0,0,1-1.023,1.023H24.931a1.026,1.026,0,0,1-1.023-1.023V64.11A1.026,1.026,0,0,1,24.931,63.087Zm3.652.841H24.931a.183.183,0,0,0-.183.183v1.83a.183.183,0,0,0,.183.183h3.652a.183.183,0,0,0,.183-.183V64.11A.183.183,0,0,0,28.583,63.927Zm-11.268-.841h3.652a1.026,1.026,0,0,1,1.023,1.023v1.83a1.026,1.026,0,0,1-1.023,1.023H17.314a1.026,1.026,0,0,1-1.023-1.023V64.11A1.026,1.026,0,0,1,17.314,63.087Zm3.652.841H17.314a.183.183,0,0,0-.183.183v1.83a.183.183,0,0,0,.183.183h3.652a.183.183,0,0,0,.183-.183V64.11A.183.183,0,0,0,20.966,63.927ZM9.7,63.087h3.652a1.026,1.026,0,0,1,1.023,1.023v1.83a1.026,1.026,0,0,1-1.023,1.023H9.7a1.026,1.026,0,0,1-1.023-1.023V64.11A1.026,1.026,0,0,1,9.7,63.087Zm3.652.841H9.7a.183.183,0,0,0-.183.183v1.83a.183.183,0,0,0,.183.183h3.652a.183.183,0,0,0,.183-.183V64.11A.183.183,0,0,0,13.349,63.927Zm11.585-6.054h3.652A1.025,1.025,0,0,1,29.609,58.9v1.83a1.026,1.026,0,0,1-1.023,1.023H24.934a1.026,1.026,0,0,1-1.023-1.023V58.9a1.025,1.025,0,0,1,1.023-1.023Zm3.652.841H24.934a.183.183,0,0,0-.183.183v1.83a.183.183,0,0,0,.183.183h3.652a.183.183,0,0,0,.183-.183V58.9A.183.183,0,0,0,28.586,58.714Zm-11.268-.841h3.652A1.025,1.025,0,0,1,21.992,58.9v1.83a1.026,1.026,0,0,1-1.023,1.023H17.317a1.026,1.026,0,0,1-1.023-1.023V58.9A1.025,1.025,0,0,1,17.317,57.873Zm3.652.841H17.317a.183.183,0,0,0-.183.183v1.83a.183.183,0,0,0,.183.183h3.652a.183.183,0,0,0,.183-.183V58.9A.183.183,0,0,0,20.969,58.714ZM9.7,57.873h3.652A1.025,1.025,0,0,1,14.376,58.9v1.83a1.026,1.026,0,0,1-1.023,1.023H9.7a1.026,1.026,0,0,1-1.023-1.023V58.9A1.025,1.025,0,0,1,9.7,57.873Zm3.652.841H9.7a.183.183,0,0,0-.183.183v1.83a.183.183,0,0,0,.183.183h3.652a.183.183,0,0,0,.183-.183V58.9A.183.183,0,0,0,13.352,58.714Zm11.585-6.054h3.652a1.025,1.025,0,0,1,1.023,1.023v1.83a1.026,1.026,0,0,1-1.023,1.023H24.937a1.026,1.026,0,0,1-1.023-1.023v-1.83a1.026,1.026,0,0,1,1.023-1.023Zm3.652.841H24.937a.183.183,0,0,0-.183.183v1.83a.183.183,0,0,0,.183.183h3.652a.183.183,0,0,0,.183-.183v-1.83A.183.183,0,0,0,28.589,53.5ZM17.32,52.659h3.652A1.026,1.026,0,0,1,22,53.682v1.83a1.026,1.026,0,0,1-1.023,1.023H17.32A1.026,1.026,0,0,1,16.3,55.513v-1.83A1.026,1.026,0,0,1,17.32,52.659Zm3.652.841H17.32a.183.183,0,0,0-.183.183v1.83a.183.183,0,0,0,.183.183h3.652a.183.183,0,0,0,.183-.183v-1.83A.183.183,0,0,0,20.972,53.5ZM9.7,52.659h3.652a1.026,1.026,0,0,1,1.023,1.023v1.83a1.026,1.026,0,0,1-1.023,1.023H9.7A1.026,1.026,0,0,1,8.68,55.513v-1.83A1.026,1.026,0,0,1,9.7,52.659Zm3.652.841H9.7a.183.183,0,0,0-.183.183v1.83A.183.183,0,0,0,9.7,55.7h3.652a.183.183,0,0,0,.183-.183v-1.83A.183.183,0,0,0,13.355,53.5ZM24.94,47.445h3.652a1.026,1.026,0,0,1,1.023,1.023V50.3a1.026,1.026,0,0,1-1.023,1.023H24.94A1.026,1.026,0,0,1,23.917,50.3v-1.83a1.026,1.026,0,0,1,1.023-1.023Zm3.652.841H24.94a.183.183,0,0,0-.183.183V50.3a.183.183,0,0,0,.183.183h3.652a.183.183,0,0,0,.183-.183v-1.83A.183.183,0,0,0,28.591,48.286Zm-11.268-.841h3.652A1.026,1.026,0,0,1,22,48.469V50.3a1.026,1.026,0,0,1-1.023,1.023H17.323A1.026,1.026,0,0,1,16.3,50.3v-1.83A1.026,1.026,0,0,1,17.323,47.445Zm3.652.841H17.323a.183.183,0,0,0-.183.183V50.3a.183.183,0,0,0,.183.183h3.652a.183.183,0,0,0,.183-.183v-1.83A.183.183,0,0,0,20.975,48.286ZM9.707,47.445h3.652a1.026,1.026,0,0,1,1.023,1.023V50.3a1.026,1.026,0,0,1-1.023,1.023H9.707A1.026,1.026,0,0,1,8.683,50.3v-1.83a1.026,1.026,0,0,1,1.023-1.023Zm3.652.841H9.707a.183.183,0,0,0-.183.183V50.3a.183.183,0,0,0,.183.183h3.652a.183.183,0,0,0,.183-.183v-1.83A.183.183,0,0,0,13.358,48.286Z" transform="translate(5927.331 887.437)"/>
  </g>
</svg>
