<svg xmlns="http://www.w3.org/2000/svg" width="47.148" height="47.148" viewBox="0 0 47.148 47.148">
  <g id="np_employee_3264808_000000" transform="translate(-10 -10)">
    <path id="Path_19682" data-name="Path 19682" d="M51.138,13.734a3.753,3.753,0,1,0-3.753,3.734A3.748,3.748,0,0,0,51.138,13.734Zm-6.326,0a2.574,2.574,0,1,1,2.574,2.555A2.568,2.568,0,0,1,44.812,13.734Z" transform="translate(-13.811)"/>
    <path id="Path_19683" data-name="Path 19683" d="M71.188,19.844h-.012a3.743,3.743,0,0,0,.023,7.487h.012a3.734,3.734,0,0,0,2.625-6.384,3.751,3.751,0,0,0-2.648-1.1Zm1.826,5.564a2.533,2.533,0,0,1-1.81.746,2.586,2.586,0,0,1-2.576-2.576,2.547,2.547,0,0,1,2.548-2.555h.007A2.586,2.586,0,0,1,73.759,23.6a2.529,2.529,0,0,1-.746,1.81Z" transform="translate(-23.591 -4.042)"/>
    <path id="Path_19684" data-name="Path 19684" d="M84.8,47.385a3.734,3.734,0,1,0-3.734,3.753A3.748,3.748,0,0,0,84.8,47.385Zm-6.29,0a2.555,2.555,0,1,1,2.555,2.574A2.568,2.568,0,0,1,78.507,47.385Z" transform="translate(-27.648 -13.811)"/>
    <path id="Path_19685" data-name="Path 19685" d="M71.178,74.939h.012a3.765,3.765,0,0,0,3.75-3.75A3.726,3.726,0,0,0,71.2,67.453a3.751,3.751,0,0,0-2.659,6.4,3.691,3.691,0,0,0,2.634,1.091Zm-1.789-5.551a2.571,2.571,0,0,1,1.819-.757h.007a2.547,2.547,0,0,1,2.548,2.555,2.586,2.586,0,0,1-2.576,2.576H71.18a2.557,2.557,0,0,1-1.791-4.374Z" transform="translate(-23.592 -23.593)"/>
    <path id="Path_19686" data-name="Path 19686" d="M43.633,81.062a3.753,3.753,0,1,0,3.753-3.734A3.748,3.748,0,0,0,43.633,81.062Zm6.326,0a2.574,2.574,0,1,1-2.574-2.555A2.568,2.568,0,0,1,49.959,81.062Z" transform="translate(-13.811 -27.648)"/>
    <path id="Path_19687" data-name="Path 19687" d="M23.6,74.94h.012a3.743,3.743,0,0,0-.023-7.487,3.791,3.791,0,0,0-2.645,1.091,3.741,3.741,0,0,0,.011,5.293,3.742,3.742,0,0,0,2.645,1.1ZM21.77,69.375a2.532,2.532,0,0,1,1.8-.746h.007a2.586,2.586,0,0,1,2.576,2.576,2.547,2.547,0,0,1-2.548,2.555H23.6a2.586,2.586,0,0,1-2.576-2.576A2.529,2.529,0,0,1,21.77,69.375Z" transform="translate(-4.044 -23.593)"/>
    <path id="Path_19688" data-name="Path 19688" d="M13.734,51.138A3.753,3.753,0,1,0,10,47.385,3.748,3.748,0,0,0,13.734,51.138Zm0-6.326a2.574,2.574,0,1,1-2.555,2.574A2.568,2.568,0,0,1,13.734,44.812Z" transform="translate(0 -13.811)"/>
    <path id="Path_19689" data-name="Path 19689" d="M23.567,27.331h.012a3.743,3.743,0,1,0,.023-7.487H23.59a3.765,3.765,0,0,0-3.75,3.75,3.726,3.726,0,0,0,3.727,3.736ZM21.778,21.78a2.571,2.571,0,0,1,1.819-.757H23.6a2.547,2.547,0,0,1,2.548,2.555,2.586,2.586,0,0,1-2.576,2.576h-.007A2.547,2.547,0,0,1,21.021,23.6,2.574,2.574,0,0,1,21.778,21.78Z" transform="translate(-4.041 -4.042)"/>
    <path id="Path_19690" data-name="Path 19690" d="M33.212,19.592a.58.58,0,0,0,.285-.074,19.308,19.308,0,0,1,3.863-1.63.589.589,0,0,0-.336-1.128,20.265,20.265,0,0,0-4.1,1.731.588.588,0,0,0-.228.8.6.6,0,0,0,.518.3Z" transform="translate(-9.288 -2.766)"/>
    <path id="Path_19691" data-name="Path 19691" d="M62.449,19.318a.589.589,0,0,0,.562-1.036,20.307,20.307,0,0,0-4.123-1.676.589.589,0,0,0-.322,1.133,19.171,19.171,0,0,1,3.884,1.579Z" transform="translate(-19.767 -2.704)"/>
    <path id="Path_19692" data-name="Path 19692" d="M78.594,32.573a.588.588,0,0,0-.228.8A19.308,19.308,0,0,1,80,37.237a.59.59,0,0,0,.564.421.607.607,0,0,0,.168-.025.586.586,0,0,0,.4-.732,20.266,20.266,0,0,0-1.731-4.1.585.585,0,0,0-.8-.226Z" transform="translate(-28.043 -9.238)"/>
    <path id="Path_19693" data-name="Path 19693" d="M79.639,62.886a20.307,20.307,0,0,0,1.676-4.123.589.589,0,1,0-1.133-.322A19.17,19.17,0,0,1,78.6,62.324a.589.589,0,1,0,1.036.562Z" transform="translate(-28.142 -19.716)"/>
    <path id="Path_19694" data-name="Path 19694" d="M62.906,78.245a19.308,19.308,0,0,1-3.863,1.63.589.589,0,0,0,.168,1.153A.607.607,0,0,0,59.379,81a20.265,20.265,0,0,0,4.1-1.731.589.589,0,1,0-.576-1.027Z" transform="translate(-19.966 -27.993)"/>
    <path id="Path_19695" data-name="Path 19695" d="M33.941,78.478a.589.589,0,0,0-.562,1.036A20.307,20.307,0,0,0,37.5,81.19a.557.557,0,0,0,.161.023.589.589,0,0,0,.161-1.156,19.17,19.17,0,0,1-3.884-1.579Z" transform="translate(-9.474 -28.091)"/>
    <path id="Path_19696" data-name="Path 19696" d="M19.414,63.582a.588.588,0,0,0,.228-.8,19.308,19.308,0,0,1-1.63-3.863.589.589,0,0,0-1.128.336,20.266,20.266,0,0,0,1.731,4.1.589.589,0,0,0,.516.3.622.622,0,0,0,.283-.076Z" transform="translate(-2.817 -19.915)"/>
    <path id="Path_19697" data-name="Path 19697" d="M18.406,33.254a20.307,20.307,0,0,0-1.676,4.123.587.587,0,0,0,.405.728.557.557,0,0,0,.161.023.59.59,0,0,0,.566-.428,19.171,19.171,0,0,1,1.579-3.884.589.589,0,1,0-1.036-.562Z" transform="translate(-2.754 -9.423)"/>
    <path id="Path_19698" data-name="Path 19698" d="M41.543,29.406a12.137,12.137,0,1,0,8.4,20.881.515.515,0,0,0,.1-.09,12.125,12.125,0,0,0-8.493-20.791Zm0,1.179A10.94,10.94,0,0,1,49.737,48.8a9.324,9.324,0,0,0-16.389,0,10.942,10.942,0,0,1,8.2-18.211Zm-7.321,19.09a8.146,8.146,0,0,1,14.644,0,10.9,10.9,0,0,1-14.644,0Z" transform="translate(-7.969 -7.969)"/>
    <path id="Path_19699" data-name="Path 19699" d="M46.757,44.512A4.656,4.656,0,1,0,42.1,39.854,4.66,4.66,0,0,0,46.757,44.512Zm0-8.134a3.477,3.477,0,1,1-3.476,3.479,3.481,3.481,0,0,1,3.476-3.479Z" transform="translate(-13.182 -10.348)"/>
  </g>
</svg>
