<svg xmlns="http://www.w3.org/2000/svg" width="39.205" height="37.004" viewBox="0 0 39.205 37.004">
  <g id="np_academy_3155609_000000" transform="translate(-3.125 -5.265)">
    <path id="Path_19646" data-name="Path 19646" d="M47.555,54.971h1.411l.544-6.534h-2.5Z" transform="translate(-25.534 -25.118)" fill="#0bbfd6"/>
    <path id="Path_19647" data-name="Path 19647" d="M48.466,42.841a.655.655,0,0,0-.653-.653H41.278a.653.653,0,1,0,0,1.307h6.534A.655.655,0,0,0,48.466,42.841Z" transform="translate(-21.818 -21.482)" fill="#0bbfd6"/>
    <path id="Path_19648" data-name="Path 19648" d="M46.432,31.819c-.188-2.561-1.248-10.581-2.156-17.072h-.653a12.141,12.141,0,0,1-6.31-1.754A12.137,12.137,0,0,1,31,14.747h-.653c-.908,6.492-1.968,14.512-2.156,17.072,1.024,1.161,4.739,3.8,9.12,6.232,4.381-2.427,8.1-5.071,9.12-6.232Zm-11.682-4h-.706a1.955,1.955,0,0,1-.879-3.7,3.695,3.695,0,0,1-.519-4.571l2.111-3.378a3.012,3.012,0,0,1,5.108,0l2.111,3.378a3.695,3.695,0,0,1-.519,4.571,1.955,1.955,0,0,1-.877,3.7h-.706l-.653,7.841H35.4Z" transform="translate(-14.584 -4.496)" fill="#0bbfd6"/>
    <path id="Path_19649" data-name="Path 19649" d="M15.7,60.043c-.136,1.068-.2,2.973.792,4.1a5.26,5.26,0,0,1,.737.328,4.783,4.783,0,0,1,.567.372c.152.036.3.07.436.09a5.667,5.667,0,0,0-1.227-3.97,5.18,5.18,0,0,0-1.305-.925Z" transform="translate(-7.275 -31.87)" fill="#0bbfd6"/>
    <path id="Path_19650" data-name="Path 19650" d="M84.56,21.875h-6.1a6.515,6.515,0,0,0-1.627.209c.322,2.346.688,5.053,1.008,7.558a6.549,6.549,0,0,0,.933.074h1.214A2.613,2.613,0,0,0,82.6,27.1v-.35l0-.01a2.6,2.6,0,0,0,1.312-2.254v-.121a1.954,1.954,0,0,0,1.307-1.839.653.653,0,0,0-.653-.653Z" transform="translate(-42.883 -9.664)" fill="#0bbfd6"/>
    <path id="Path_19651" data-name="Path 19651" d="M23.673,30.1a5.722,5.722,0,0,1,1.083-.784,8.794,8.794,0,0,1-1.436-1.4l-.139-.189.013-.234c.136-2.347,1.3-11.159,2.262-17.992l.08-.562h1.79a10.813,10.813,0,0,0,5.951-1.768l.358-.234.358.235a10.828,10.828,0,0,0,5.953,1.766h1.79l.078.562c.959,6.832,2.127,15.643,2.262,17.992l.013.234-.139.189a8.771,8.771,0,0,1-1.434,1.4A5.763,5.763,0,0,1,43.6,30.1c1.7-1.462,1.8-2.088,1.8-2.205,0-2.284-2.089-17.164-2.527-20.256H39.946a9.505,9.505,0,0,1-6.31-2.372,9.505,9.505,0,0,1-6.31,2.372H24.4c-.438,3.092-2.527,17.973-2.527,20.256,0,.118.1.745,1.8,2.209Z" transform="translate(-10.909)" fill="#0bbfd6"/>
    <path id="Path_19652" data-name="Path 19652" d="M43.019,28.153h3.055A2.392,2.392,0,0,0,48.1,24.492l-2.111-3.378a1.7,1.7,0,0,0-2.891,0L40.99,24.491a2.393,2.393,0,0,0,2.029,3.662Z" transform="translate(-21.818 -8.755)" fill="#0bbfd6"/>
    <path id="Path_19653" data-name="Path 19653" d="M79.152,64.473a5.259,5.259,0,0,1,.737-.328c.931-1.068.944-2.919.8-4.105a5.16,5.16,0,0,0-1.31.925,5.659,5.659,0,0,0-1.227,3.97c.132-.02.286-.054.438-.09a4.821,4.821,0,0,1,.565-.371Z" transform="translate(-43.648 -31.868)" fill="#0bbfd6"/>
    <path id="Path_19654" data-name="Path 19654" d="M15.708,72.63a5.626,5.626,0,0,0-1.614-.536c.057,1.032.35,2.914,1.683,3.649a1.439,1.439,0,0,0,.448.121c-.016-.292-.01-.488-.01-.521l.026-.506.5-.1c.026,0,.309-.059.719-.1a4.316,4.316,0,0,0-1.748-2.009Z" transform="translate(-6.382 -38.882)" fill="#0bbfd6"/>
    <path id="Path_19655" data-name="Path 19655" d="M27.578,69.123a10.733,10.733,0,0,0-.885-2.8,5.931,5.931,0,0,0-1.444,1.634c-.359.59-.32,1.8.1,3.344a5.247,5.247,0,0,1,.733.134,4.655,4.655,0,0,1,.952.381,3.363,3.363,0,0,1,.016-1.473,4.293,4.293,0,0,1,.531-1.22Z" transform="translate(-12.73 -35.525)" fill="#0bbfd6"/>
    <path id="Path_19656" data-name="Path 19656" d="M70.359,71.432a5.249,5.249,0,0,1,.733-.134c.415-1.545.456-2.754.1-3.344a5.98,5.98,0,0,0-1.444-1.634,10.672,10.672,0,0,0-.885,2.8,4.276,4.276,0,0,1,.531,1.219,3.362,3.362,0,0,1,.016,1.473,4.747,4.747,0,0,1,.952-.379Z" transform="translate(-38.245 -35.523)" fill="#0bbfd6"/>
    <path id="Path_19657" data-name="Path 19657" d="M54.846,78.725a2.435,2.435,0,0,0-.673-1.815c-.784.56-2.594,2.037-2.594,3.775a3.014,3.014,0,0,0,.647,1.583l1.258-1.045A4.517,4.517,0,0,0,54.846,78.725Z" transform="translate(-28.191 -41.684)" fill="#0bbfd6"/>
    <path id="Path_19658" data-name="Path 19658" d="M39.523,69.934l-.314-.172a71.8,71.8,0,0,1-7.217-4.521,14.088,14.088,0,0,1,.768,2.143,2.736,2.736,0,0,1,.794-.338l.353-.072.25.258a10.483,10.483,0,0,1,1.34,1.831,2.463,2.463,0,0,1,.47-.333l.32-.16.307.185a9.364,9.364,0,0,1,2.934,2.911,9.364,9.364,0,0,1,2.934-2.911l.307-.185.32.16a2.554,2.554,0,0,1,.47.333,10.24,10.24,0,0,1,1.34-1.831l.25-.258.353.072a2.755,2.755,0,0,1,.794.338,14.264,14.264,0,0,1,.771-2.153,71.775,71.775,0,0,1-7.227,4.53Z" transform="translate(-16.795 -34.889)" fill="#0bbfd6"/>
    <path id="Path_19659" data-name="Path 19659" d="M62.687,77.736c.085,0,.17.01.255.015.087-.123.181-.245.281-.371a4.661,4.661,0,0,0,.732-2.838,2.44,2.44,0,0,0-1.119-1.578A8.89,8.89,0,0,0,61.7,74.749a4.124,4.124,0,0,1,.335,1.681,3.411,3.411,0,0,1-.346,1.415,4.73,4.73,0,0,1,1-.108Z" transform="translate(-34.072 -39.388)" fill="#0bbfd6"/>
    <path id="Path_19660" data-name="Path 19660" d="M56.491,88.382l-1.191.99a3.183,3.183,0,0,0,1.71.742c1.553,0,2.9-1.447,3.568-2.315a5.232,5.232,0,0,0-1.607-.3,4.364,4.364,0,0,0-2.48.882Z" transform="translate(-30.356 -47.845)" fill="#0bbfd6"/>
    <path id="Path_19661" data-name="Path 19661" d="M26.312,82.817a4.372,4.372,0,0,0-2.125-1.449,5.55,5.55,0,0,0-1.851-.109,3.776,3.776,0,0,0,2.022,3.3,1.894,1.894,0,0,0,.8.1c-.183-.256-.294-.435-.312-.466l-.363-.6.631-.315a8.188,8.188,0,0,1,1.2-.451Z" transform="translate(-11.177 -44.196)" fill="#0bbfd6"/>
    <path id="Path_19662" data-name="Path 19662" d="M70.3,81.366a4.38,4.38,0,0,0-2.125,1.449,7.952,7.952,0,0,1,1.194.451l.631.315-.363.6c-.018.031-.129.209-.312.466a1.92,1.92,0,0,0,.8-.1,3.754,3.754,0,0,0,2.026-3.3,5.477,5.477,0,0,0-1.852.109Z" transform="translate(-37.845 -44.194)" fill="#0bbfd6"/>
    <path id="Path_19663" data-name="Path 19663" d="M77.883,74.643c.41.038.693.091.719.1l.5.1.025.506c0,.033.008.229-.01.521a1.44,1.44,0,0,0,.448-.121c1.333-.735,1.625-2.617,1.683-3.649a5.486,5.486,0,0,0-1.614.536,4.331,4.331,0,0,0-1.746,2.009Z" transform="translate(-43.495 -38.884)" fill="#0bbfd6"/>
    <path id="Path_19664" data-name="Path 19664" d="M41.3,76.91a2.44,2.44,0,0,0-.671,1.815,4.444,4.444,0,0,0,1.362,2.5l1.258,1.047a3.014,3.014,0,0,0,.647-1.583c0-1.738-1.812-3.216-2.6-3.775Z" transform="translate(-21.82 -41.684)" fill="#0bbfd6"/>
    <path id="Path_19665" data-name="Path 19665" d="M33.7,87.5a5.233,5.233,0,0,0-1.607.3c.668.867,2.014,2.315,3.568,2.315a3.188,3.188,0,0,0,1.71-.742l-1.193-.992A4.365,4.365,0,0,0,33.7,87.5Z" transform="translate(-16.855 -47.845)" fill="#0bbfd6"/>
    <path id="Path_19666" data-name="Path 19666" d="M33.965,72.961a2.442,2.442,0,0,0-1.119,1.58,4.638,4.638,0,0,0,.73,2.836c.1.126.194.248.283.372.085,0,.168-.015.253-.015a4.729,4.729,0,0,1,1,.108,3.38,3.38,0,0,1-.346-1.415,4.084,4.084,0,0,1,.337-1.683,8.937,8.937,0,0,0-1.137-1.784Z" transform="translate(-17.265 -39.386)" fill="#0bbfd6"/>
    <path id="Path_19667" data-name="Path 19667" d="M9.566,29.716a6.569,6.569,0,0,0,.933-.074c.32-2.506.684-5.214,1.008-7.558a6.505,6.505,0,0,0-1.627-.209h-6.1a.653.653,0,0,0-.653.653,1.953,1.953,0,0,0,1.307,1.839v.121a2.6,2.6,0,0,0,1.312,2.254l0,.01v.35a2.613,2.613,0,0,0,2.614,2.614Z" transform="translate(0 -9.664)" fill="#0bbfd6"/>
  </g>
</svg>
