<svg xmlns="http://www.w3.org/2000/svg" width="67" height="68.866" viewBox="0 0 67 68.866">
  <g id="Group_46493" data-name="Group 46493" transform="translate(-293.694 -6467.098)">
    <path id="Path_29112" data-name="Path 29112" d="M36.242,10.623C48.293,42.149,67,15,67,33.5a33.5,33.5,0,0,1-67,0C0,15,24.191-20.9,36.242,10.623Z" transform="translate(293.694 6468.964)" fill="#cbffed" opacity="0.408"/>
    <path id="np_wallet_1800967_000000" d="M11.736,15A2.739,2.739,0,0,0,9,17.736V40.014a2.348,2.348,0,0,0,2.345,2.345H38.7a2.348,2.348,0,0,0,2.345-2.345V22.035A2.348,2.348,0,0,0,38.7,19.69H36.359v-4.3A.406.406,0,0,0,35.968,15Zm0,.782H35.577V19.69H11.736a1.954,1.954,0,1,1,0-3.908Zm-1.954,3.86a2.723,2.723,0,0,0,1.954.831H38.7a1.551,1.551,0,0,1,1.563,1.563v5.081H28.542a1.568,1.568,0,0,0-1.563,1.563v4.69a1.568,1.568,0,0,0,1.563,1.563H40.268v5.081A1.551,1.551,0,0,1,38.7,41.577H11.345a1.551,1.551,0,0,1-1.563-1.563ZM28.542,27.9H40.268v6.254H28.542a.772.772,0,0,1-.782-.782V28.68A.772.772,0,0,1,28.542,27.9Zm3.908,1.551a1.563,1.563,0,1,0,1.563,1.563A1.568,1.568,0,0,0,32.451,29.449Zm0,.782a.782.782,0,1,1-.782.782A.775.775,0,0,1,32.451,30.231Z" transform="translate(302.169 6472.852)" fill="#646684" stroke="#776fd8" stroke-width="1"/>
  </g>
</svg>
