<svg xmlns="http://www.w3.org/2000/svg" xmlns:xlink="http://www.w3.org/1999/xlink" width="57.124" height="41.726" viewBox="0 0 57.124 41.726">
  <defs>
    <linearGradient id="linear-gradient" x1="0.5" x2="0.5" y2="1" gradientUnits="objectBoundingBox">
      <stop offset="0" stop-color="#80f0d2"/>
      <stop offset="1" stop-color="#a4d7fd"/>
      <stop offset="1" stop-color="#eeffa5"/>
    </linearGradient>
  </defs>
  <g id="Group_755" data-name="Group 755" transform="translate(-16405.828 -13932.75)">
    <g id="Group_754" data-name="Group 754" transform="translate(16405.828 13932.75)">
      <rect id="Rectangle_5990" data-name="Rectangle 5990" width="34.741" height="21.231" rx="5" transform="translate(0 20.702) rotate(-8)" fill="#d6feee"/>
      <path id="Path_18840" data-name="Path 18840" d="M3.217,0H31.524a3.217,3.217,0,0,1,3.217,3.217V17.371a3.217,3.217,0,0,1-3.217,3.217H3.217A3.217,3.217,0,0,1,0,17.371V3.217A3.217,3.217,0,0,1,3.217,0Z" transform="translate(32.558 0) rotate(45)" fill="#eefff9"/>
      <rect id="Rectangle_5992" data-name="Rectangle 5992" width="7.077" height="7.077" rx="1" transform="translate(32.372 2.838) rotate(45)" fill="url(#linear-gradient)"/>
      <g id="np_credit-cards_861599_000000" transform="translate(0.111 0.804)">
        <path id="Path_18720" data-name="Path 18720" d="M41.332,21.674a2.333,2.333,0,0,0-1.8-.772,2.633,2.633,0,0,0-1.8.709L26.214,32.933a2.432,2.432,0,0,0-.772,1.8,2.518,2.518,0,0,0,.709,1.8L27.5,37.889,9.3,40.784a2.951,2.951,0,0,0-1.8,1.093,2.646,2.646,0,0,0-.515,2.058l2.445,15.44a2.951,2.951,0,0,0,1.093,1.8,2.817,2.817,0,0,0,1.608.515,1.077,1.077,0,0,0,.45-.065L41.27,57.059a2.951,2.951,0,0,0,1.8-1.093,2.884,2.884,0,0,0,.515-1.737l3.282,3.345a2.575,2.575,0,0,0,1.865.772,2.758,2.758,0,0,0,1.8-.709L62.05,46.313a2.561,2.561,0,0,0,0-3.667ZM9.358,54.741,7.622,43.932a2.321,2.321,0,0,1,.387-1.608,2.038,2.038,0,0,1,1.415-.837l18.657-2.96L39.339,49.979Zm33.261,1.03a2.038,2.038,0,0,1-1.415.837L12.509,61.177A2.321,2.321,0,0,1,10.9,60.79a2.038,2.038,0,0,1-.837-1.415V59.31L43.006,54.1v.065a2.324,2.324,0,0,1-.387,1.608Zm19.045-9.844L50.149,57.25a1.921,1.921,0,0,1-2.7,0l-20.781-21.1a1.85,1.85,0,0,1-.578-1.352,1.758,1.758,0,0,1,.578-1.352L38.181,22.121a1.85,1.85,0,0,1,1.352-.578,1.758,1.758,0,0,1,1.352.578L61.663,43.226A1.921,1.921,0,0,1,61.663,45.928Z" transform="translate(-6.939 -20.903)" fill="#40415d"/>
        <path id="Path_18722" data-name="Path 18722" d="M68.446,36.512c.036.037.072.037.143.037a.21.21,0,0,0,.143-.037.174.174,0,0,0,0-.251L64.85,32.307a.178.178,0,0,0-.251.251Z" transform="translate(-25.938 -21.091)" fill="#40415d"/>
        <path id="Path_18723" data-name="Path 18723" d="M61.854,35.205a.178.178,0,1,0-.251.251l5.679,5.788c.037.037.072.037.143.037a.21.21,0,0,0,.143-.037.174.174,0,0,0,0-.251Z" transform="translate(-24.019 -22.947)" fill="#40415d"/>
        <path id="Path_18724" data-name="Path 18724" d="M58.712,38.354l5.032,5.14c.037.037.072.037.143.037a.21.21,0,0,0,.143-.037.174.174,0,0,0,0-.251L59,38.1a.174.174,0,0,0-.251,0A.152.152,0,0,0,58.712,38.354Z" transform="translate(-22.169 -24.804)" fill="#40415d"/>
        <path id="Path_18725" data-name="Path 18725" d="M40.6,39.748a.318.318,0,0,0-.45.45l3.41,3.473c.065.065.128.065.256.065a.376.376,0,0,0,.256-.065.311.311,0,0,0,0-.45Z" transform="translate(-18.748 -27.59)" fill="#40415d"/>
        <path id="Path_18726" data-name="Path 18726" d="M47.8,47.049a.318.318,0,0,0-.45.45l3.41,3.473c.065.065.128.065.256.065a.376.376,0,0,0,.256-.065.311.311,0,0,0,0-.45Z" transform="translate(-21.317 -30.193)" fill="#40415d"/>
        <path id="Path_18727" data-name="Path 18727" d="M54.9,54.248a.318.318,0,0,0-.45.45l3.41,3.473c.065.065.128.065.256.065a.376.376,0,0,0,.256-.065.311.311,0,0,0,0-.45Z" transform="translate(-23.848 -32.761)" fill="#40415d"/>
        <path id="Path_18728" data-name="Path 18728" d="M62.1,61.549a.318.318,0,0,0-.45.45l3.41,3.473c.065.065.128.065.256.065a.376.376,0,0,0,.256-.065.311.311,0,0,0,0-.45Z" transform="translate(-26.416 -35.365)" fill="#40415d"/>
        <path id="Path_18729" data-name="Path 18729" d="M69.3,68.845a.318.318,0,0,0-.45.45l3.41,3.473c.065.065.128.065.256.065a.376.376,0,0,0,.256-.065.311.311,0,0,0,0-.45Z" transform="translate(-28.985 -37.967)" fill="#40415d"/>
      </g>
    </g>
    <path id="np_chip_364411_000000" d="M6.6,0H.628A.63.63,0,0,0,0,.628V6.6a.63.63,0,0,0,.628.628H6.6A.63.63,0,0,0,7.227,6.6V.628A.63.63,0,0,0,6.6,0ZM.21.628A.42.42,0,0,1,.628.21H3.509V2.626H2.782l-.99-.99H.21ZM4.392,2.835V4.392H2.835V2.835ZM.21,1.845H1.7l.921.921v.742H.21Zm0,1.873H2.626v.742L1.7,5.382H.21Zm3.3,3.3H.628A.42.42,0,0,1,.21,6.6V5.591H1.792l.99-.99h.727ZM7.018,6.6a.42.42,0,0,1-.419.419H3.719V4.6h.727l.99.99H7.018V6.6Zm0-1.217h-1.5L4.6,4.461V3.718H7.018Zm0-1.873H4.6V2.766l.921-.921h1.5Zm0-1.873H5.436l-.99.99H3.719V.21H6.6a.42.42,0,0,1,.419.419V1.636Z" transform="translate(16438.303 13935.521) rotate(45)"/>
  </g>
</svg>
