<svg xmlns="http://www.w3.org/2000/svg" width="67" height="68.866" viewBox="0 0 67 68.866">
  <g id="Group_46240" data-name="Group 46240" transform="translate(-0.001 3.866)">
    <path id="Path_18876" data-name="Path 18876" d="M36.242,10.623C48.293,42.149,67,15,67,33.5a33.5,33.5,0,0,1-67,0C0,15,24.191-20.9,36.242,10.623Z" transform="translate(0.001 -2)" fill="#cbffed" opacity="0.408"/>
    <g id="Group_1145" data-name="Group 1145" transform="translate(45.41 13.745) rotate(30)">
      <g id="Group_988" data-name="Group 988" transform="translate(0 0)">
        <g id="Path_18821" data-name="Path 18821" fill="#ebedfd">
          <path d="M 18.82504463195801 32.69382476806641 L 3.137504577636719 32.69382476806641 C 1.545334577560425 32.69382476806641 0.2500046193599701 31.39849472045898 0.2500046193599701 29.80632400512695 L 0.2500046193599701 3.13750433921814 C 0.2500046193599701 1.545334339141846 1.545334577560425 0.2500042915344238 3.137504577636719 0.2500042915344238 L 18.82504463195801 0.2500042915344238 C 20.4172248840332 0.2500042915344238 21.71255493164062 1.545334339141846 21.71255493164062 3.13750433921814 L 21.71255493164062 29.80632400512695 C 21.71255493164062 31.39849472045898 20.4172248840332 32.69382476806641 18.82504463195801 32.69382476806641 Z" stroke="none"/>
          <path d="M 3.137504577636719 0.5000038146972656 C 1.683174133300781 0.5000038146972656 0.4999942779541016 1.683183670043945 0.4999942779541016 3.137504577636719 L 0.4999942779541016 29.80632400512695 C 0.4999942779541016 31.26064491271973 1.683174133300781 32.44382476806641 3.137504577636719 32.44382476806641 L 18.82504463195801 32.44382476806641 C 20.27936553955078 32.44382476806641 21.46254539489746 31.26064491271973 21.46254539489746 29.80632400512695 L 21.46254539489746 3.137504577636719 C 21.46254539489746 1.683183670043945 20.27936553955078 0.5000038146972656 18.82504463195801 0.5000038146972656 L 3.137504577636719 0.5000038146972656 M 3.137504577636719 3.814697265625e-06 L 18.82504463195801 3.814697265625e-06 C 20.5578441619873 3.814697265625e-06 21.96254539489746 1.404705047607422 21.96254539489746 3.137504577636719 L 21.96254539489746 29.80632400512695 C 21.96254539489746 31.53911399841309 20.5578441619873 32.94382476806641 18.82504463195801 32.94382476806641 L 3.137504577636719 32.94382476806641 C 1.404705047607422 32.94382476806641 -5.7220458984375e-06 31.53911399841309 -5.7220458984375e-06 29.80632400512695 L -5.7220458984375e-06 3.137504577636719 C -5.7220458984375e-06 1.404705047607422 1.404705047607422 3.814697265625e-06 3.137504577636719 3.814697265625e-06 Z" stroke="none" fill="#4236c5"/>
        </g>
        <line id="Line_70" data-name="Line 70" x2="12.55" transform="translate(4.706 22.224)" fill="none" stroke="#403cc5" stroke-width="0.5"/>
        <line id="Line_71" data-name="Line 71" x2="12.55" transform="translate(4.706 24.839)" fill="none" stroke="#403cc5" stroke-width="0.5"/>
        <line id="Line_72" data-name="Line 72" x2="12.55" transform="translate(4.706 27.453)" fill="none" stroke="#403cc5" stroke-width="0.5"/>
        <g id="Path_18822" data-name="Path 18822" transform="translate(4.706 5.229)" fill="#e7e5ff">
          <path d="M 6.275013446807861 12.05002307891846 C 3.090663433074951 12.05002307891846 0.500003457069397 9.459362983703613 0.500003457069397 6.275013446807861 C 0.500003457069397 3.090663433074951 3.090663433074951 0.500003457069397 6.275013446807861 0.500003457069397 C 9.459362983703613 0.500003457069397 12.05002307891846 3.090663433074951 12.05002307891846 6.275013446807861 C 12.05002307891846 9.459362983703613 9.459362983703613 12.05002307891846 6.275013446807861 12.05002307891846 Z" stroke="none"/>
          <path d="M 6.275013446807861 1.000003814697266 C 3.366363525390625 1.000003814697266 1.000003814697266 3.366363525390625 1.000003814697266 6.275013446807861 C 1.000003814697266 9.183663368225098 3.366363525390625 11.55002307891846 6.275013446807861 11.55002307891846 C 9.183663368225098 11.55002307891846 11.55002307891846 9.183663368225098 11.55002307891846 6.275013446807861 C 11.55002307891846 3.366363525390625 9.183663368225098 1.000003814697266 6.275013446807861 1.000003814697266 M 6.275013446807861 3.814697265625e-06 C 9.740603446960449 3.814697265625e-06 12.55002307891846 2.809423446655273 12.55002307891846 6.275013446807861 C 12.55002307891846 9.740603446960449 9.740603446960449 12.55002307891846 6.275013446807861 12.55002307891846 C 2.809423446655273 12.55002307891846 3.814697265625e-06 9.740603446960449 3.814697265625e-06 6.275013446807861 C 3.814697265625e-06 2.809423446655273 2.809423446655273 3.814697265625e-06 6.275013446807861 3.814697265625e-06 Z" stroke="none" fill="#463bc6"/>
        </g>
        <g id="Ellipse_246" data-name="Ellipse 246" transform="translate(8.549 5.411)" fill="#e7e5ff" stroke="#463bc6" stroke-width="1">
          <ellipse cx="2.332" cy="6.218" rx="2.332" ry="6.218" stroke="none"/>
          <ellipse cx="2.332" cy="6.218" rx="1.832" ry="5.718" fill="none"/>
        </g>
        <line id="Line_73" data-name="Line 73" x2="11.504" transform="translate(4.968 11.766)" fill="none" stroke="#463bc6" stroke-width="1"/>
      </g>
    </g>
    <g id="Group_1014" data-name="Group 1014" transform="translate(16.639 11.51)">
      <g id="Group_1013" data-name="Group 1013" transform="translate(4.403 0)">
        <g id="Path_18821-2" data-name="Path 18821" transform="translate(0)" fill="#e7e5ff">
          <path d="M 25.13162422180176 43.73034286499023 L 4.188603401184082 43.73034286499023 C 2.016853332519531 43.73034286499023 0.2500033378601074 41.96349334716797 0.2500033378601074 39.79174423217773 L 0.2500033378601074 4.188603401184082 C 0.2500033378601074 2.016853332519531 2.016853332519531 0.2500033378601074 4.188603401184082 0.2500033378601074 L 25.13162422180176 0.2500033378601074 C 27.30337333679199 0.2500033378601074 29.07022285461426 2.016853332519531 29.07022285461426 4.188603401184082 L 29.07022285461426 39.79174423217773 C 29.07022285461426 41.96349334716797 27.30337333679199 43.73034286499023 25.13162422180176 43.73034286499023 Z" stroke="none"/>
          <path d="M 4.188602447509766 0.5000038146972656 C 2.154703140258789 0.5000038146972656 0.5000038146972656 2.154705047607422 0.5000038146972656 4.188602447509766 L 0.5000038146972656 39.79174423217773 C 0.5000038146972656 41.82564163208008 2.154703140258789 43.48034286499023 4.188602447509766 43.48034286499023 L 25.13162231445312 43.48034286499023 C 27.16552352905273 43.48034286499023 28.82022285461426 41.82564163208008 28.82022285461426 39.79174423217773 L 28.82022285461426 4.188602447509766 C 28.82022285461426 2.154705047607422 27.16552352905273 0.5000038146972656 25.13162231445312 0.5000038146972656 L 4.188602447509766 0.5000038146972656 M 4.188602447509766 3.814697265625e-06 L 25.13162231445312 3.814697265625e-06 C 27.44492340087891 3.814697265625e-06 29.32022285461426 1.87530517578125 29.32022285461426 4.188602447509766 L 29.32022285461426 39.79174423217773 C 29.32022285461426 42.10504150390625 27.44492340087891 43.98034286499023 25.13162231445312 43.98034286499023 L 4.188602447509766 43.98034286499023 C 1.875303268432617 43.98034286499023 3.814697265625e-06 42.10504150390625 3.814697265625e-06 39.79174423217773 L 3.814697265625e-06 4.188602447509766 C 3.814697265625e-06 1.87530517578125 1.875303268432617 3.814697265625e-06 4.188602447509766 3.814697265625e-06 Z" stroke="none" fill="#4236c5"/>
        </g>
      </g>
      <g id="Group_988-2" data-name="Group 988" transform="translate(0 0)">
        <g id="Path_18821-3" data-name="Path 18821" fill="#fff">
          <path d="M 25.13162422180176 43.73034286499023 L 4.188603401184082 43.73034286499023 C 2.016853332519531 43.73034286499023 0.2500033378601074 41.96349334716797 0.2500033378601074 39.79174423217773 L 0.2500033378601074 4.188603401184082 C 0.2500033378601074 2.016853332519531 2.016853332519531 0.2500033378601074 4.188603401184082 0.2500033378601074 L 25.13162422180176 0.2500033378601074 C 27.30337333679199 0.2500033378601074 29.07022285461426 2.016853332519531 29.07022285461426 4.188603401184082 L 29.07022285461426 39.79174423217773 C 29.07022285461426 41.96349334716797 27.30337333679199 43.73034286499023 25.13162422180176 43.73034286499023 Z" stroke="none"/>
          <path d="M 4.188602447509766 0.5000038146972656 C 2.154703140258789 0.5000038146972656 0.5000038146972656 2.154705047607422 0.5000038146972656 4.188602447509766 L 0.5000038146972656 39.79174423217773 C 0.5000038146972656 41.82564163208008 2.154703140258789 43.48034286499023 4.188602447509766 43.48034286499023 L 25.13162231445312 43.48034286499023 C 27.16552352905273 43.48034286499023 28.82022285461426 41.82564163208008 28.82022285461426 39.79174423217773 L 28.82022285461426 4.188602447509766 C 28.82022285461426 2.154705047607422 27.16552352905273 0.5000038146972656 25.13162231445312 0.5000038146972656 L 4.188602447509766 0.5000038146972656 M 4.188602447509766 3.814697265625e-06 L 25.13162231445312 3.814697265625e-06 C 27.44492340087891 3.814697265625e-06 29.32022285461426 1.87530517578125 29.32022285461426 4.188602447509766 L 29.32022285461426 39.79174423217773 C 29.32022285461426 42.10504150390625 27.44492340087891 43.98034286499023 25.13162231445312 43.98034286499023 L 4.188602447509766 43.98034286499023 C 1.875303268432617 43.98034286499023 3.814697265625e-06 42.10504150390625 3.814697265625e-06 39.79174423217773 L 3.814697265625e-06 4.188602447509766 C 3.814697265625e-06 1.87530517578125 1.875303268432617 3.814697265625e-06 4.188602447509766 3.814697265625e-06 Z" stroke="none" fill="#4236c5"/>
        </g>
        <line id="Line_70-2" data-name="Line 70" x2="16.754" transform="translate(6.283 29.669)" fill="none" stroke="#403cc5" stroke-width="0.5"/>
        <line id="Line_71-2" data-name="Line 71" x2="16.754" transform="translate(6.283 33.16)" fill="none" stroke="#403cc5" stroke-width="0.5"/>
        <line id="Line_72-2" data-name="Line 72" x2="16.754" transform="translate(6.283 36.65)" fill="none" stroke="#403cc5" stroke-width="0.5"/>
        <g id="Path_18822-2" data-name="Path 18822" transform="translate(6.283 6.981)" fill="#e7e5ff">
          <path d="M 8.377206802368164 16.25441741943359 C 4.03369665145874 16.25441741943359 0.4999968111515045 12.72071647644043 0.4999968111515045 8.377206802368164 C 0.4999968111515045 4.03369665145874 4.03369665145874 0.4999968111515045 8.377206802368164 0.4999968111515045 C 12.72071647644043 0.4999968111515045 16.25441741943359 4.03369665145874 16.25441741943359 8.377206802368164 C 16.25441741943359 12.72071647644043 12.72071647644043 16.25441741943359 8.377206802368164 16.25441741943359 Z" stroke="none"/>
          <path d="M 8.377206802368164 0.9999971389770508 C 4.309396743774414 0.9999971389770508 0.9999971389770508 4.309396743774414 0.9999971389770508 8.377206802368164 C 0.9999971389770508 12.44501686096191 4.309396743774414 15.75441646575928 8.377206802368164 15.75441646575928 C 12.44501686096191 15.75441646575928 15.75441646575928 12.44501686096191 15.75441646575928 8.377206802368164 C 15.75441646575928 4.309396743774414 12.44501686096191 0.9999971389770508 8.377206802368164 0.9999971389770508 M 8.377206802368164 -3.814697265625e-06 C 13.00380706787109 -3.814697265625e-06 16.75441741943359 3.750606536865234 16.75441741943359 8.377206802368164 C 16.75441741943359 13.00380706787109 13.00380706787109 16.75441741943359 8.377206802368164 16.75441741943359 C 3.750606536865234 16.75441741943359 -3.814697265625e-06 13.00380706787109 -3.814697265625e-06 8.377206802368164 C -3.814697265625e-06 3.750606536865234 3.750606536865234 -3.814697265625e-06 8.377206802368164 -3.814697265625e-06 Z" stroke="none" fill="#463bc6"/>
        </g>
        <g id="Ellipse_246-2" data-name="Ellipse 246" transform="translate(11.413 7.224)" fill="#e7e5ff" stroke="#463bc6" stroke-width="1">
          <ellipse cx="3.113" cy="8.3" rx="3.113" ry="8.3" stroke="none"/>
          <ellipse cx="3.113" cy="8.3" rx="2.613" ry="7.8" fill="none"/>
        </g>
        <line id="Line_73-2" data-name="Line 73" x2="15.358" transform="translate(6.632 15.707)" fill="none" stroke="#463bc6" stroke-width="1"/>
      </g>
    </g>
  </g>
</svg>
