<svg xmlns="http://www.w3.org/2000/svg" width="80" height="80" viewBox="0 0 80 80">
  <g id="Group_46508" data-name="Group 46508" transform="translate(-21461 8384)">
    <g id="Path_18942" data-name="Path 18942" transform="translate(21461 -8384)" fill="none" opacity="0.999">
      <path d="M40,0A40,40,0,1,1,0,40,40,40,0,0,1,40,0Z" stroke="none"/>
      <path d="M 40 2 C 34.8691520690918 2 29.89284515380859 3.004432678222656 25.20929336547852 4.98541259765625 C 20.68452835083008 6.899223327636719 16.62044525146484 9.639450073242188 13.12994384765625 13.12994384765625 C 9.639450073242188 16.62044525146484 6.899223327636719 20.68452835083008 4.98541259765625 25.20929336547852 C 3.004432678222656 29.89284515380859 2 34.8691520690918 2 40 C 2 45.1308479309082 3.004432678222656 50.10715484619141 4.98541259765625 54.79070663452148 C 6.899223327636719 59.31546783447266 9.639450073242188 63.37955474853516 13.12994384765625 66.87005615234375 C 16.62044525146484 70.36054992675781 20.68452835083008 73.10077667236328 25.20929336547852 75.01458740234375 C 29.89284515380859 76.99556732177734 34.8691520690918 78 40 78 C 45.1308479309082 78 50.10715484619141 76.99556732177734 54.79070663452148 75.01458740234375 C 59.31546783447266 73.10077667236328 63.37955474853516 70.36054992675781 66.87005615234375 66.87005615234375 C 70.36054992675781 63.37955474853516 73.10077667236328 59.31546783447266 75.01458740234375 54.79070663452148 C 76.99556732177734 50.10715484619141 78 45.1308479309082 78 40 C 78 34.8691520690918 76.99556732177734 29.89284515380859 75.01458740234375 25.20929336547852 C 73.10077667236328 20.68452835083008 70.36054992675781 16.62044525146484 66.87005615234375 13.12994384765625 C 63.37955474853516 9.639450073242188 59.31546783447266 6.899223327636719 54.79070663452148 4.98541259765625 C 50.10715484619141 3.004432678222656 45.1308479309082 2 40 2 M 40 0 C 62.09138870239258 0 80 17.90861129760742 80 40 C 80 62.09138870239258 62.09138870239258 80 40 80 C 17.90861129760742 80 0 62.09138870239258 0 40 C 0 17.90861129760742 17.90861129760742 0 40 0 Z" stroke="none" fill="#4535cd"/>
    </g>
    <path id="np_bill_783564_000000" d="M42.142,21.292v3.749H45.4a4.189,4.189,0,0,1,4.185,4.185V46.939A4.19,4.19,0,0,1,45.4,51.124H18.768a4.19,4.19,0,0,1-4.187-4.185V29.226a4.189,4.189,0,0,1,4.187-4.185H22.02V17.409a2.982,2.982,0,0,1,3.108-2.827H41.1v0a3.343,3.343,0,0,1,2.5,1.05c1.491,1.579,1.371,4.363,1.354,4.675l-.059.985Zm0-4.144V19.2h.679A4.082,4.082,0,0,0,42.142,17.148Zm-2.092,2.78v9.052H24.113V17.409c0-.4.463-.734,1.014-.734H40.051Zm2.092,9.052V27.132H45.4a2.1,2.1,0,0,1,2.092,2.093V46.939A2.093,2.093,0,0,1,45.4,49.03H18.768a2.1,2.1,0,0,1-2.093-2.092V29.226a2.1,2.1,0,0,1,2.093-2.093H22.02v1.848h-.975v2.092h22.1V28.981Zm-11.68-7.228H36.98V19.661H30.462Zm0,4.356H36.98V24.017H30.462Zm-3.738-4.356h2.039V19.661H26.724Zm0,4.356h2.039V24.017H26.724Zm14.65,19.233a1.886,1.886,0,1,1,1.885-1.885A1.885,1.885,0,0,1,41.375,45.342Zm-20.33-.84H32.083V42.408H21.044Z" transform="translate(21469.154 -8377.138)" fill="#4535cd"/>
  </g>
</svg>
