<svg xmlns="http://www.w3.org/2000/svg" width="46.724" height="42.212" viewBox="0 0 46.724 42.212">
  <g id="Group_1190" data-name="Group 1190" transform="translate(0.295 0.25)">
    <path id="Path_18917" data-name="Path 18917" d="M22536.525-5420.975l-14.049,6.883v9.979l-9.5-4.881.693-9.468,14.162-7.405Z" transform="translate(-22503.137 5439.509)" fill="#99e9f8"/>
    <g id="np_money_2796496_000000" transform="translate(0 0)">
      <path id="Path_18910" data-name="Path 18910" d="M8.766,41.983,17.25,46.4v-1.43l-9.2-4.787a.774.774,0,1,1,.718-1.371l8.484,4.421v-1.53l-9.2-4.791a.775.775,0,1,1,.718-1.373l8.484,4.415v-1.44l-9.045-4.7a.776.776,0,0,1,.016-1.381l14.087-6.966a.75.75,0,0,1,.685,0L53.333,40.293a.779.779,0,0,1,0,1.4L38.163,49.059a.741.741,0,0,1-.335.078.76.76,0,0,1-.356-.09l-9.789-5.1v1.44l10.159,5.291,14.822-7.195a.773.773,0,0,1,.669,1.393L38.161,52.244a.741.741,0,0,1-.336.078.76.76,0,0,1-.356-.09l-9.789-5.1v1.524L37.84,53.947l14.822-7.195a.759.759,0,0,1,1.027.364.768.768,0,0,1-.356,1.033L38.161,55.512a.747.747,0,0,1-.336.084.719.719,0,0,1-.356-.094l-9.789-5.1v1.42L37.84,57.116l14.822-7.191a.772.772,0,0,1,.671,1.391L38.161,58.68a.7.7,0,0,1-.335.084.719.719,0,0,1-.356-.094L26.545,52.994l-18.5-9.632a.777.777,0,0,1,.718-1.379ZM26.912,41.8l12.946-6.373L32.509,31.84,19.789,38.1ZM22.659,27.026,10.277,33.143l7.809,4.065,12.659-6.233ZM37.836,47.494l13.387-6.506-9.6-4.693-12.993,6.4ZM24.2,42.136c-.006-.006-.016-.006-.02-.01L18.8,39.33v7.876l7.326,3.817V43.147Z" transform="translate(-7.63 -17.051)" fill="#00b6db" stroke="#e6f8fb" stroke-width="0.5"/>
      <path id="Path_18911" data-name="Path 18911" d="M24.111,19.841c-6.254,0-10.978-2.232-10.978-5.184s4.72-5.184,10.978-5.184,10.982,2.232,10.982,5.184-4.722,5.184-10.982,5.184Zm0-8.819c-5.556,0-9.427,1.917-9.427,3.635s3.871,3.635,9.427,3.635,9.427-1.917,9.427-3.635S29.669,11.022,24.111,11.022Z" transform="translate(8.164 -9.473)" fill="#00b6db" stroke="#e6f8fb" stroke-width="0.5"/>
      <path id="Path_18912" data-name="Path 18912" d="M13.426,26.993a.775.775,0,1,1,1.414-.634c.534,1.184,4.267,2.467,9.374,2.467s8.842-1.283,9.38-2.471a.776.776,0,0,1,1.416.638c-1.054,2.326-6.332,3.39-10.8,3.39s-9.746-1.064-10.788-3.39Z" transform="translate(8.062 -17.296)" fill="#00b6db" stroke="#e6f8fb" stroke-width="0.5"/>
      <path id="Path_18913" data-name="Path 18913" d="M13.356,35.2a.772.772,0,0,1,.769-.775c5.106,0,8.84-1.283,9.38-2.477a.786.786,0,0,1,1.031-.383.777.777,0,0,1,.389,1.027c-1.054,2.326-6.332,3.388-10.8,3.388a.775.775,0,0,1-.773-.779Z" transform="translate(18.146 -19.962)" fill="#00b6db" stroke="#e6f8fb" stroke-width="0.5"/>
      <path id="Path_18914" data-name="Path 18914" d="M14.133,40.948a.773.773,0,0,1-.115-1.538c3.253-.487,4.5-1.315,4.7-1.675a.776.776,0,0,1,1.362.743c-.786,1.43-3.6,2.132-5.828,2.467-.043,0-.08,0-.117,0Z" transform="translate(22.966 -22.741)" fill="#00b6db" stroke="#e6f8fb" stroke-width="0.5"/>
      <path id="Path_18915" data-name="Path 18915" d="M16.071,43.138a.776.776,0,0,1,1.277.884c-.43.618-1.418,1.111-3.026,1.5a.707.707,0,0,1-.184.02.775.775,0,0,1-.184-1.528c1.8-.434,2.107-.853,2.117-.874Z" transform="translate(25.654 -25.348)" fill="#00b6db" stroke="#e6f8fb" stroke-width="0.5"/>
      <path id="Path_18916" data-name="Path 18916" d="M47.15,44.016c-.282.683.933,1.837,2.715,2.576s3.455.784,3.74.1-.931-1.837-2.713-2.576-3.457-.784-3.742-.1" transform="translate(-28.183 -25.694)" fill="#00b6db" stroke="#e6f8fb" stroke-width="0.5"/>
    </g>
  </g>
</svg>
