<svg xmlns="http://www.w3.org/2000/svg" width="95" height="95" viewBox="0 0 95 95">
  <g id="Group_46244" data-name="Group 46244" transform="translate(-911 -4428)">
    <path id="Path_19167" data-name="Path 19167" d="M65.8,47.5,42.7,32.1a2.962,2.962,0,0,0-4.6,2.5V65.4a2.978,2.978,0,0,0,4.6,2.5l23.1-15.4a2.993,2.993,0,0,0,0-5Z" transform="translate(908.5 4425.5)" fill="#fdc805"/>
    <path id="Path_19168" data-name="Path 19168" d="M50,2.5A47.5,47.5,0,1,0,97.5,50,47.544,47.544,0,0,0,50,2.5Zm0,87.6A40.1,40.1,0,1,1,90.1,50,40.161,40.161,0,0,1,50,90.1Z" transform="translate(908.5 4425.5)" fill="#fdc805"/>
  </g>
</svg>
