<svg xmlns="http://www.w3.org/2000/svg" width="363.388" height="53.513" viewBox="0 0 363.388 53.513">
  <g id="Group_1796" data-name="Group 1796" transform="translate(0 0.125)">
    <g id="Group_1755" data-name="Group 1755" transform="translate(102.999)">
      <rect id="Rectangle" width="53.388" height="53.388" rx="26.694" fill="#c3f5ff"/>
      <path id="Path" d="M25.211,5.688c.018.25.018.5.018.749,0,7.613-5.794,16.385-16.385,16.385A16.275,16.275,0,0,1,0,20.236a11.928,11.928,0,0,0,1.391.071,11.533,11.533,0,0,0,7.15-2.46,5.769,5.769,0,0,1-5.384-3.994,7.27,7.27,0,0,0,1.088.089,6.1,6.1,0,0,0,1.516-.2A5.76,5.76,0,0,1,1.141,8.095V8.023a5.8,5.8,0,0,0,2.6.731,5.767,5.767,0,0,1-1.783-7.7A16.369,16.369,0,0,0,13.836,7.078a6.493,6.493,0,0,1-.143-1.319,5.764,5.764,0,0,1,9.967-3.94A11.338,11.338,0,0,0,27.315.428,5.742,5.742,0,0,1,24.783,3.6,11.542,11.542,0,0,0,28.1,2.71,12.379,12.379,0,0,1,25.211,5.688Z" transform="translate(12.645 15.454)" fill="#015ffb"/>
    </g>
    <g id="Group_12" data-name="Group 12">
      <rect id="Rectangle-2" data-name="Rectangle" width="53.388" height="53.388" rx="26.694" fill="#c3f5ff"/>
      <path id="Path-2" data-name="Path" d="M13.129,14.756l.728-4.747H9.3V6.927a2.374,2.374,0,0,1,2.676-2.565H14.05V.321A25.252,25.252,0,0,0,10.373,0c-3.751,0-6.2,2.274-6.2,6.39v3.618H0v4.747H4.17V26.232H9.3V14.756Z" transform="translate(19.669 14.05)" fill="#015ffb"/>
    </g>
    <g id="Group_1794" data-name="Group 1794" transform="translate(207.001)">
      <rect id="Rectangle-3" data-name="Rectangle" width="53.388" height="53.388" rx="26.694" transform="translate(-0.001 -0.125)" fill="#c3f5ff"/>
      <g id="Group_46259" data-name="Group 46259" transform="translate(4052.719 1828.595)">
        <path id="whatsapp" d="M21.946,3.705a12.643,12.643,0,0,0-19.9,15.244L.25,25.5l6.7-1.757A12.64,12.64,0,0,0,13,25.277H13A12.637,12.637,0,0,0,21.946,3.705ZM13,23.143h0A10.5,10.5,0,0,1,7.647,21.68l-.384-.228L3.286,22.494,4.348,18.62l-.25-.4A10.512,10.512,0,1,1,13,23.143Zm5.765-7.865c-.316-.158-1.869-.922-2.159-1.027s-.5-.158-.711.158-.816,1.027-1,1.238-.369.237-.685.079a8.631,8.631,0,0,1-2.541-1.567,9.524,9.524,0,0,1-1.758-2.187c-.184-.316,0-.471.139-.644a8.93,8.93,0,0,0,.79-1.08.58.58,0,0,0-.026-.553c-.079-.158-.711-1.712-.974-2.344-.257-.615-.517-.532-.711-.542S8.735,6.8,8.524,6.8a1.161,1.161,0,0,0-.843.4A3.539,3.539,0,0,0,6.576,9.827a6.138,6.138,0,0,0,1.29,3.266,14.079,14.079,0,0,0,5.4,4.766,18.1,18.1,0,0,0,1.8.665,4.335,4.335,0,0,0,1.99.125,3.255,3.255,0,0,0,2.133-1.5,2.636,2.636,0,0,0,.184-1.5c-.079-.132-.29-.211-.605-.369Zm0,0" transform="translate(-4038.25 -1815)" fill="#015ffb"/>
        <rect id="Rectangle_6372" data-name="Rectangle 6372" width="32" height="32" transform="translate(-4041.72 -1817.72)" fill="none"/>
      </g>
    </g>
    <g id="Group_1795" data-name="Group 1795" transform="translate(310)">
      <rect id="Rectangle-4" data-name="Rectangle" width="53.388" height="53.388" rx="26.694" fill="#c3f5ff"/>
      <g id="linkedin" transform="translate(16 13.875)">
        <path id="Path_19546" data-name="Path 19546" d="M22.115,22.009h.005V14.273c0-3.784-.815-6.7-5.238-6.7a4.592,4.592,0,0,0-4.136,2.273h-.062V7.927H8.489V22.008h4.368V15.036c0-1.836.348-3.611,2.621-3.611,2.24,0,2.273,2.1,2.273,3.729v6.855Z" transform="translate(-1.029 -0.918)" fill="#015ffa"/>
        <path id="Path_19547" data-name="Path 19547" d="M.4,7.977H4.769V22.058H.4Z" transform="translate(-0.048 -0.967)" fill="#015ffa"/>
        <path id="Path_19548" data-name="Path 19548" d="M2.533,0A2.545,2.545,0,1,0,5.065,2.533,2.533,2.533,0,0,0,2.533,0Z" fill="#015ffa"/>
      </g>
    </g>
  </g>
</svg>
