<svg xmlns="http://www.w3.org/2000/svg" xmlns:xlink="http://www.w3.org/1999/xlink" width="554.131" height="518.903" viewBox="0 0 554.131 518.903">
  <defs>
    <clipPath id="clip-path">
      <path id="BG" d="M294.382,517.109C177.943,506.958,0,413.4,0,266.317S126.185,0,281.842,0,554.131,103.944,554.131,251.027,514.755,536.321,294.382,517.109Z" fill="#fae2da"/>
    </clipPath>
    <filter id="Rectangle_6090" x="185.809" y="347.77" width="432" height="580" filterUnits="userSpaceOnUse">
      <feOffset dy="1" input="SourceAlpha"/>
      <feGaussianBlur stdDeviation="3" result="blur"/>
      <feFlood flood-opacity="0.161"/>
      <feComposite operator="in" in2="blur"/>
      <feComposite in="SourceGraphic"/>
    </filter>
    <clipPath id="clip-path-2">
      <rect width="402" height="366" fill="none"/>
    </clipPath>
    <filter id="Path_18818" x="164.809" y="831.77" width="474" height="116" filterUnits="userSpaceOnUse">
      <feOffset input="SourceAlpha"/>
      <feGaussianBlur stdDeviation="10" result="blur-2"/>
      <feFlood flood-color="#7b7b7b" flood-opacity="0.2"/>
      <feComposite operator="in" in2="blur-2"/>
      <feComposite in="SourceGraphic"/>
    </filter>
    <filter id="Ellipse_186" x="374.309" y="862.27" width="55" height="55" filterUnits="userSpaceOnUse">
      <feOffset dy="2" input="SourceAlpha"/>
      <feGaussianBlur stdDeviation="1.5" result="blur-3"/>
      <feFlood flood-color="#4535cd" flood-opacity="0.2"/>
      <feComposite operator="in" in2="blur-3"/>
      <feComposite in="SourceGraphic"/>
    </filter>
    <filter id="Rectangle_6084" x="201.809" y="427.77" width="138" height="66" filterUnits="userSpaceOnUse">
      <feOffset input="SourceAlpha"/>
      <feGaussianBlur stdDeviation="5" result="blur-4"/>
      <feFlood flood-color="#d9d9d9" flood-opacity="0.161"/>
      <feComposite operator="in" in2="blur-4"/>
      <feComposite in="SourceGraphic"/>
    </filter>
  </defs>
  <g id="IMG" transform="translate(0)">
    <path id="BG-2" data-name="BG" d="M294.382,517.109C177.943,506.958,0,413.4,0,266.317S126.185,0,281.842,0,554.131,103.944,554.131,251.027,514.755,536.321,294.382,517.109Z" transform="translate(0)" fill="#fae2da" opacity="0.4"/>
    <g id="Mask_Group" data-name="Mask Group" transform="translate(0)">
      <path id="BG-3" data-name="BG" d="M294.382,517.109C177.943,506.958,0,413.4,0,266.317S126.185,0,281.842,0,554.131,103.944,554.131,251.027,514.755,536.321,294.382,517.109Z" fill="#d5eae3"/>
      <g id="Mask_Group-2" data-name="Mask Group" clip-path="url(#clip-path)">
        <g id="Group_46238" data-name="Group 46238" transform="translate(194.809 99.77)">
          <rect id="Rectangle_6362" data-name="Rectangle 6362" width="414" height="818" rx="22" fill="#fff"/>
          <text id="Manage_Employees_" data-name="Manage Employees " transform="translate(211 37)" fill="#646684" font-size="18" font-family="Poppins-SemiBold, Poppins" font-weight="600"><tspan x="-92" y="0">Manage Employees </tspan></text>
          <g transform="matrix(1, 0, 0, 1, -194.81, -99.77)" filter="url(#Rectangle_6090)">
            <path id="Rectangle_6090-2" data-name="Rectangle 6090" d="M20,0H394a20,20,0,0,1,20,20V562a0,0,0,0,1,0,0H0a0,0,0,0,1,0,0V20A20,20,0,0,1,20,0Z" transform="translate(194.81 355.77)" fill="#fff"/>
          </g>
          <g id="Group_1059" data-name="Group 1059" transform="translate(8 107)">
            <text id="Employee" transform="translate(24 332)" fill="#9a9cb8" font-size="10" font-family="Montserrat-SemiBold, Montserrat" font-weight="600"><tspan x="0" y="0">Employee</tspan></text>
            <text id="Salary_" data-name="Salary " transform="translate(165 332)" fill="#9a9cb8" font-size="10" font-family="Montserrat-SemiBold, Montserrat" font-weight="600"><tspan x="0" y="0">Salary </tspan></text>
            <text id="Passport" transform="translate(263 332)" fill="#9a9cb8" font-size="10" font-family="Montserrat-SemiBold, Montserrat" font-weight="600"><tspan x="0" y="0">Passport</tspan></text>
            <text id="QID_visa" data-name="QID/visa" transform="translate(328 332)" fill="#9a9cb8" font-size="10" font-family="Montserrat-SemiBold, Montserrat" font-weight="600"><tspan x="0" y="0">QID/visa</tspan></text>
          </g>
          <path id="Path_18841" data-name="Path 18841" d="M0,0H414.5" transform="translate(-0.5 324)" fill="none" stroke="#e9e9e9" stroke-width="0.5"/>
          <g id="Group_1103" data-name="Group 1103" transform="translate(6 108)">
            <g id="Group_459" data-name="Group 459" transform="translate(16 76)">
              <rect id="Rectangle_690" data-name="Rectangle 690" width="370" height="40" rx="6" fill="#fff"/>
              <text id="Name_ID_IBN_Number" data-name="Name / ID / IBN Number" transform="translate(35 25)" fill="#9a9cb8" font-size="13" font-family="Montserrat-Medium, Montserrat" font-weight="500" opacity="0.772"><tspan x="0" y="0">Name / ID / IBN Number</tspan></text>
              <path id="np_search_3548595_000000" d="M24.781,30.589a5.767,5.767,0,0,0,3.575-1.238L32.2,33.194l.982-.982-3.843-3.843a5.795,5.795,0,1,0-4.557,2.22Zm0-10.2a4.405,4.405,0,1,1-3.114,1.29,4.4,4.4,0,0,1,3.114-1.29Z" transform="translate(-7.483 -5.804)" fill="#9a9cb8"/>
            </g>
          </g>
          <text id="Employees" transform="translate(22 300)" fill="#262626" font-size="18" font-family="Montserrat-Bold, Montserrat" font-weight="700"><tspan x="0" y="0">Employees</tspan></text>
          <g id="Repeat_Grid_46" data-name="Repeat Grid 46" transform="translate(6 452)" clip-path="url(#clip-path-2)">
            <g id="Group_1104" data-name="Group 1104" transform="translate(-6 -338)">
              <path id="Path_18852" data-name="Path 18852" d="M5,0H397c2.761,0,5,2.824,5,6.307V71.9c0,3.484-2.239,6.307-5,6.307H5c-2.761,0-5-2.824-5-6.307V6.307C0,2.824,2.239,0,5,0Z" transform="translate(6 341)" fill="#fafafa"/>
              <g id="Group_1078" data-name="Group 1078" transform="translate(3 5.195)">
                <text id="Md._Ali_Ansari_Sheikh" data-name="Md. Ali Ansari Sheikh" transform="translate(35 351.805)" fill="#605656" font-size="12" font-family="Montserrat-Medium, Montserrat" font-weight="500"><tspan x="0" y="12">Md. Ali Ansari </tspan><tspan x="0" y="27">Sheikh</tspan></text>
                <g id="Rectangle_6091" data-name="Rectangle 6091" transform="translate(13 357)" fill="#fff" stroke="#d9d9d9" stroke-width="1">
                  <rect width="13" height="13" rx="3" stroke="none"/>
                  <rect x="0.5" y="0.5" width="12" height="12" rx="2.5" fill="none"/>
                </g>
                <text id="_2000" data-name="$2000" transform="translate(165 368.805)" fill="#605656" font-size="12" font-family="Montserrat-SemiBold, Montserrat" font-weight="600"><tspan x="0" y="0">$2000</tspan></text>
                <g id="Approved" transform="translate(281.902 355.992)">
                  <path id="np_approve_1672728_000000" d="M25.837,28.273a.478.478,0,0,1-.321-.124l-2.67-2.45a.48.48,0,0,1,.643-.713l2.319,2.14,6.7-7.355a.479.479,0,1,1,.713.64L26.2,28.119a.478.478,0,0,1-.331.154Zm6.069-5.024a6.674,6.674,0,1,1-1.664-2.419l.64-.713a7.6,7.6,0,1,0,1.738,2.361Z" transform="translate(-18.149 -18.119)" fill="#5bc160" stroke="#5bc15f" stroke-width="0.5"/>
                </g>
                <g id="Approved-2" data-name="Approved" transform="translate(346.688 355.992)">
                  <path id="np_approve_1672728_000000-2" data-name="np_approve_1672728_000000" d="M25.837,28.273a.478.478,0,0,1-.321-.124l-2.67-2.45a.48.48,0,0,1,.643-.713l2.319,2.14,6.7-7.355a.479.479,0,1,1,.713.64L26.2,28.119a.478.478,0,0,1-.331.154Zm6.069-5.024a6.674,6.674,0,1,1-1.664-2.419l.64-.713a7.6,7.6,0,1,0,1.738,2.361Z" transform="translate(-18.149 -18.119)" fill="#5bc160" stroke="#5bc15f" stroke-width="0.5"/>
                </g>
                <text id="Employee_ID" data-name="Employee ID" transform="translate(35 394)" fill="#605656" font-size="9" font-family="Montserrat-Regular, Montserrat"><tspan x="0" y="0">Employee ID</tspan></text>
                <text id="IBN_9081_0009_9876.." data-name="IBN 9081 0009 9876.." transform="translate(146 388)" fill="#605656" font-size="9" font-family="Montserrat-Regular, Montserrat"><tspan x="0" y="0">IBN 9081 0009 9876..</tspan></text>
                <text id="Approved-3" data-name="Approved" transform="translate(268 388)" fill="#605656" font-size="9" font-family="Montserrat-Regular, Montserrat"><tspan x="0" y="0">Approved</tspan></text>
                <text id="Approved-4" data-name="Approved" transform="translate(332.785 388)" fill="#605656" font-size="9" font-family="Montserrat-Regular, Montserrat"><tspan x="0" y="0">Approved</tspan></text>
                <g id="Down_arrow_small_" data-name="Down arrow small  " transform="translate(393 371) rotate(90)">
                  <g id="Down_arrow_small_2" data-name="Down arrow small  " transform="translate(-0.14 6.317) rotate(-90)">
                    <path id="Path_36" data-name="Path 36" d="M2.969,3.853,0,.884.884,0,2.969,2.085,5.053,0l.884.884Z" transform="translate(0 1.108)" fill="#9d9d9d"/>
                    <rect id="Rectangle_1467" data-name="Rectangle 1467" width="6" height="6" transform="translate(0.317 0.14)" fill="none"/>
                  </g>
                </g>
              </g>
            </g>
            <g id="Group_1104-2" data-name="Group 1104" transform="translate(-6 -254)">
              <path id="Path_18852-2" data-name="Path 18852" d="M5,0H397c2.761,0,5,2.824,5,6.307V71.9c0,3.484-2.239,6.307-5,6.307H5c-2.761,0-5-2.824-5-6.307V6.307C0,2.824,2.239,0,5,0Z" transform="translate(6 341)" fill="#fafafa"/>
              <g id="Group_1078-2" data-name="Group 1078" transform="translate(3 5.195)">
                <text id="Mohammed_Ansari_" data-name="Mohammed Ansari " transform="translate(35 351.805)" fill="#605656" font-size="12" font-family="Montserrat-Medium, Montserrat" font-weight="500"><tspan x="0" y="12">Mohammed </tspan><tspan x="0" y="27">Ansari </tspan></text>
                <g id="Rectangle_6091-2" data-name="Rectangle 6091" transform="translate(13 357)" fill="#fff" stroke="#d9d9d9" stroke-width="1">
                  <rect width="13" height="13" rx="3" stroke="none"/>
                  <rect x="0.5" y="0.5" width="12" height="12" rx="2.5" fill="none"/>
                </g>
                <text id="_2000-2" data-name="$2000" transform="translate(165 368.805)" fill="#605656" font-size="12" font-family="Montserrat-SemiBold, Montserrat" font-weight="600"><tspan x="0" y="0">$2000</tspan></text>
                <g id="Approved-5" data-name="Approved" transform="translate(281.902 355.992)">
                  <path id="np_approve_1672728_000000-3" data-name="np_approve_1672728_000000" d="M26.03,28.527A.49.49,0,0,1,25.7,28.4L22.963,25.89a.492.492,0,0,1,.659-.731L26,27.352l6.866-7.539a.491.491,0,1,1,.731.656l-7.2,7.9a.49.49,0,0,1-.339.158Zm6.221-5.15a6.841,6.841,0,1,1-1.706-2.48l.656-.731a7.789,7.789,0,1,0,1.782,2.421Z" transform="translate(-18.149 -18.119)" fill="#5bc160" stroke="#5bc15f" stroke-width="0.5"/>
                </g>
                <g id="Approved-6" data-name="Approved" transform="translate(346.688 355.992)">
                  <path id="np_approve_1672728_000000-4" data-name="np_approve_1672728_000000" d="M25.837,28.273a.478.478,0,0,1-.321-.124l-2.67-2.45a.48.48,0,0,1,.643-.713l2.319,2.14,6.7-7.355a.479.479,0,1,1,.713.64L26.2,28.119a.478.478,0,0,1-.331.154Zm6.069-5.024a6.674,6.674,0,1,1-1.664-2.419l.64-.713a7.6,7.6,0,1,0,1.738,2.361Z" transform="translate(-18.149 -18.119)" fill="#5bc160" stroke="#5bc15f" stroke-width="0.5"/>
                </g>
                <text id="Employee_ID-2" data-name="Employee ID" transform="translate(35 394)" fill="#605656" font-size="9" font-family="Montserrat-Regular, Montserrat"><tspan x="0" y="0">Employee ID</tspan></text>
                <text id="IBN_9081_0009_9876..-2" data-name="IBN 9081 0009 9876.." transform="translate(146 388)" fill="#605656" font-size="9" font-family="Montserrat-Regular, Montserrat"><tspan x="0" y="0">IBN 9081 0009 9876..</tspan></text>
                <text id="Approved-7" data-name="Approved" transform="translate(268 388)" fill="#605656" font-size="9" font-family="Montserrat-Regular, Montserrat"><tspan x="0" y="0">Approved</tspan></text>
                <text id="Approved-8" data-name="Approved" transform="translate(332.785 388)" fill="#605656" font-size="9" font-family="Montserrat-Regular, Montserrat"><tspan x="0" y="0">Approved</tspan></text>
                <g id="Down_arrow_small_3" data-name="Down arrow small  " transform="translate(393 371) rotate(90)">
                  <g id="Down_arrow_small_4" data-name="Down arrow small  " transform="translate(-0.14 6.317) rotate(-90)">
                    <path id="Path_36-2" data-name="Path 36" d="M2.969,3.853,0,.884.884,0,2.969,2.085,5.053,0l.884.884Z" transform="translate(0 1.108)" fill="#9d9d9d"/>
                    <rect id="Rectangle_1467-2" data-name="Rectangle 1467" width="6" height="6" transform="translate(0.317 0.14)" fill="none"/>
                  </g>
                </g>
              </g>
            </g>
            <g id="Group_1104-3" data-name="Group 1104" transform="translate(-6 -170)">
              <path id="Path_18852-3" data-name="Path 18852" d="M5,0H397c2.761,0,5,2.824,5,6.307V71.9c0,3.484-2.239,6.307-5,6.307H5c-2.761,0-5-2.824-5-6.307V6.307C0,2.824,2.239,0,5,0Z" transform="translate(6 341)" fill="#fafafa"/>
              <g id="Group_1078-3" data-name="Group 1078" transform="translate(3 5.195)">
                <text id="Mohammed_Ansari_2" data-name="Mohammed Ansari " transform="translate(35 351.805)" fill="#605656" font-size="12" font-family="Montserrat-Medium, Montserrat" font-weight="500"><tspan x="0" y="12">Mohammed </tspan><tspan x="0" y="27">Ansari </tspan></text>
                <g id="Rectangle_6091-3" data-name="Rectangle 6091" transform="translate(13 357)" fill="#fff" stroke="#d9d9d9" stroke-width="1">
                  <rect width="13" height="13" rx="3" stroke="none"/>
                  <rect x="0.5" y="0.5" width="12" height="12" rx="2.5" fill="none"/>
                </g>
                <text id="_2000-3" data-name="$2000" transform="translate(165 368.805)" fill="#605656" font-size="12" font-family="Montserrat-SemiBold, Montserrat" font-weight="600"><tspan x="0" y="0">$2000</tspan></text>
                <g id="Approved-9" data-name="Approved" transform="translate(281.902 355.992)">
                  <path id="np_approve_1672728_000000-5" data-name="np_approve_1672728_000000" d="M26.03,28.527A.49.49,0,0,1,25.7,28.4L22.963,25.89a.492.492,0,0,1,.659-.731L26,27.352l6.866-7.539a.491.491,0,1,1,.731.656l-7.2,7.9a.49.49,0,0,1-.339.158Zm6.221-5.15a6.841,6.841,0,1,1-1.706-2.48l.656-.731a7.789,7.789,0,1,0,1.782,2.421Z" transform="translate(-18.149 -18.119)" fill="#5bc160" stroke="#5bc15f" stroke-width="0.5"/>
                </g>
                <g id="Approved-10" data-name="Approved" transform="translate(346.688 355.992)">
                  <path id="np_approve_1672728_000000-6" data-name="np_approve_1672728_000000" d="M25.837,28.273a.478.478,0,0,1-.321-.124l-2.67-2.45a.48.48,0,0,1,.643-.713l2.319,2.14,6.7-7.355a.479.479,0,1,1,.713.64L26.2,28.119a.478.478,0,0,1-.331.154Zm6.069-5.024a6.674,6.674,0,1,1-1.664-2.419l.64-.713a7.6,7.6,0,1,0,1.738,2.361Z" transform="translate(-18.149 -18.119)" fill="#5bc160" stroke="#5bc15f" stroke-width="0.5"/>
                </g>
                <text id="Employee_ID-3" data-name="Employee ID" transform="translate(35 394)" fill="#605656" font-size="9" font-family="Montserrat-Regular, Montserrat"><tspan x="0" y="0">Employee ID</tspan></text>
                <text id="IBN_9081_0009_9876..-3" data-name="IBN 9081 0009 9876.." transform="translate(146 388)" fill="#605656" font-size="9" font-family="Montserrat-Regular, Montserrat"><tspan x="0" y="0">IBN 9081 0009 9876..</tspan></text>
                <text id="Approved-11" data-name="Approved" transform="translate(268 388)" fill="#605656" font-size="9" font-family="Montserrat-Regular, Montserrat"><tspan x="0" y="0">Approved</tspan></text>
                <text id="Approved-12" data-name="Approved" transform="translate(332.785 388)" fill="#605656" font-size="9" font-family="Montserrat-Regular, Montserrat"><tspan x="0" y="0">Approved</tspan></text>
                <g id="Down_arrow_small_5" data-name="Down arrow small  " transform="translate(393 371) rotate(90)">
                  <g id="Down_arrow_small_6" data-name="Down arrow small  " transform="translate(-0.14 6.317) rotate(-90)">
                    <path id="Path_36-3" data-name="Path 36" d="M2.969,3.853,0,.884.884,0,2.969,2.085,5.053,0l.884.884Z" transform="translate(0 1.108)" fill="#9d9d9d"/>
                    <rect id="Rectangle_1467-3" data-name="Rectangle 1467" width="6" height="6" transform="translate(0.317 0.14)" fill="none"/>
                  </g>
                </g>
              </g>
            </g>
            <g id="Group_1104-4" data-name="Group 1104" transform="translate(-6 -86)">
              <path id="Path_18852-4" data-name="Path 18852" d="M5,0H397c2.761,0,5,2.824,5,6.307V71.9c0,3.484-2.239,6.307-5,6.307H5c-2.761,0-5-2.824-5-6.307V6.307C0,2.824,2.239,0,5,0Z" transform="translate(6 341)" fill="#fafafa"/>
              <g id="Group_1078-4" data-name="Group 1078" transform="translate(3 5.195)">
                <text id="Mohammed_Ansari_3" data-name="Mohammed Ansari " transform="translate(35 351.805)" fill="#605656" font-size="12" font-family="Montserrat-Medium, Montserrat" font-weight="500"><tspan x="0" y="12">Mohammed </tspan><tspan x="0" y="27">Ansari </tspan></text>
                <g id="Rectangle_6091-4" data-name="Rectangle 6091" transform="translate(13 357)" fill="#fff" stroke="#d9d9d9" stroke-width="1">
                  <rect width="13" height="13" rx="3" stroke="none"/>
                  <rect x="0.5" y="0.5" width="12" height="12" rx="2.5" fill="none"/>
                </g>
                <text id="_2000-4" data-name="$2000" transform="translate(165 368.805)" fill="#605656" font-size="12" font-family="Montserrat-SemiBold, Montserrat" font-weight="600"><tspan x="0" y="0">$2000</tspan></text>
                <g id="Approved-13" data-name="Approved" transform="translate(281.902 355.992)">
                  <path id="np_approve_1672728_000000-7" data-name="np_approve_1672728_000000" d="M26.03,28.527A.49.49,0,0,1,25.7,28.4L22.963,25.89a.492.492,0,0,1,.659-.731L26,27.352l6.866-7.539a.491.491,0,1,1,.731.656l-7.2,7.9a.49.49,0,0,1-.339.158Zm6.221-5.15a6.841,6.841,0,1,1-1.706-2.48l.656-.731a7.789,7.789,0,1,0,1.782,2.421Z" transform="translate(-18.149 -18.119)" fill="#5bc160" stroke="#5bc15f" stroke-width="0.5"/>
                </g>
                <g id="Approved-14" data-name="Approved" transform="translate(346.688 355.992)">
                  <path id="np_approve_1672728_000000-8" data-name="np_approve_1672728_000000" d="M25.837,28.273a.478.478,0,0,1-.321-.124l-2.67-2.45a.48.48,0,0,1,.643-.713l2.319,2.14,6.7-7.355a.479.479,0,1,1,.713.64L26.2,28.119a.478.478,0,0,1-.331.154Zm6.069-5.024a6.674,6.674,0,1,1-1.664-2.419l.64-.713a7.6,7.6,0,1,0,1.738,2.361Z" transform="translate(-18.149 -18.119)" fill="#5bc160" stroke="#5bc15f" stroke-width="0.5"/>
                </g>
                <text id="Employee_ID-4" data-name="Employee ID" transform="translate(35 394)" fill="#605656" font-size="9" font-family="Montserrat-Regular, Montserrat"><tspan x="0" y="0">Employee ID</tspan></text>
                <text id="IBN_9081_0009_9876..-4" data-name="IBN 9081 0009 9876.." transform="translate(146 388)" fill="#605656" font-size="9" font-family="Montserrat-Regular, Montserrat"><tspan x="0" y="0">IBN 9081 0009 9876..</tspan></text>
                <text id="Approved-15" data-name="Approved" transform="translate(268 388)" fill="#605656" font-size="9" font-family="Montserrat-Regular, Montserrat"><tspan x="0" y="0">Approved</tspan></text>
                <text id="Approved-16" data-name="Approved" transform="translate(332.785 388)" fill="#605656" font-size="9" font-family="Montserrat-Regular, Montserrat"><tspan x="0" y="0">Approved</tspan></text>
                <g id="Down_arrow_small_7" data-name="Down arrow small  " transform="translate(393 371) rotate(90)">
                  <g id="Down_arrow_small_8" data-name="Down arrow small  " transform="translate(-0.14 6.317) rotate(-90)">
                    <path id="Path_36-4" data-name="Path 36" d="M2.969,3.853,0,.884.884,0,2.969,2.085,5.053,0l.884.884Z" transform="translate(0 1.108)" fill="#9d9d9d"/>
                    <rect id="Rectangle_1467-4" data-name="Rectangle 1467" width="6" height="6" transform="translate(0.317 0.14)" fill="none"/>
                  </g>
                </g>
              </g>
            </g>
            <g id="Group_1104-5" data-name="Group 1104" transform="translate(-6 -2)">
              <path id="Path_18852-5" data-name="Path 18852" d="M5,0H397c2.761,0,5,2.824,5,6.307V71.9c0,3.484-2.239,6.307-5,6.307H5c-2.761,0-5-2.824-5-6.307V6.307C0,2.824,2.239,0,5,0Z" transform="translate(6 341)" fill="#fafafa"/>
              <g id="Group_1078-5" data-name="Group 1078" transform="translate(3 5.195)">
                <text id="Mohammed_Ansari_4" data-name="Mohammed Ansari " transform="translate(35 351.805)" fill="#605656" font-size="12" font-family="Montserrat-Medium, Montserrat" font-weight="500"><tspan x="0" y="12">Mohammed </tspan><tspan x="0" y="27">Ansari </tspan></text>
                <g id="Rectangle_6091-5" data-name="Rectangle 6091" transform="translate(13 357)" fill="#fff" stroke="#d9d9d9" stroke-width="1">
                  <rect width="13" height="13" rx="3" stroke="none"/>
                  <rect x="0.5" y="0.5" width="12" height="12" rx="2.5" fill="none"/>
                </g>
                <text id="_2000-5" data-name="$2000" transform="translate(165 368.805)" fill="#605656" font-size="12" font-family="Montserrat-SemiBold, Montserrat" font-weight="600"><tspan x="0" y="0">$2000</tspan></text>
                <g id="Approved-17" data-name="Approved" transform="translate(281.902 355.992)">
                  <path id="np_approve_1672728_000000-9" data-name="np_approve_1672728_000000" d="M26.03,28.527A.49.49,0,0,1,25.7,28.4L22.963,25.89a.492.492,0,0,1,.659-.731L26,27.352l6.866-7.539a.491.491,0,1,1,.731.656l-7.2,7.9a.49.49,0,0,1-.339.158Zm6.221-5.15a6.841,6.841,0,1,1-1.706-2.48l.656-.731a7.789,7.789,0,1,0,1.782,2.421Z" transform="translate(-18.149 -18.119)" fill="#5bc160" stroke="#5bc15f" stroke-width="0.5"/>
                </g>
                <g id="Approved-18" data-name="Approved" transform="translate(346.688 355.992)">
                  <path id="np_approve_1672728_000000-10" data-name="np_approve_1672728_000000" d="M25.837,28.273a.478.478,0,0,1-.321-.124l-2.67-2.45a.48.48,0,0,1,.643-.713l2.319,2.14,6.7-7.355a.479.479,0,1,1,.713.64L26.2,28.119a.478.478,0,0,1-.331.154Zm6.069-5.024a6.674,6.674,0,1,1-1.664-2.419l.64-.713a7.6,7.6,0,1,0,1.738,2.361Z" transform="translate(-18.149 -18.119)" fill="#5bc160" stroke="#5bc15f" stroke-width="0.5"/>
                </g>
                <text id="Employee_ID-5" data-name="Employee ID" transform="translate(35 394)" fill="#605656" font-size="9" font-family="Montserrat-Regular, Montserrat"><tspan x="0" y="0">Employee ID</tspan></text>
                <text id="IBN_9081_0009_9876..-5" data-name="IBN 9081 0009 9876.." transform="translate(146 388)" fill="#605656" font-size="9" font-family="Montserrat-Regular, Montserrat"><tspan x="0" y="0">IBN 9081 0009 9876..</tspan></text>
                <text id="Approved-19" data-name="Approved" transform="translate(268 388)" fill="#605656" font-size="9" font-family="Montserrat-Regular, Montserrat"><tspan x="0" y="0">Approved</tspan></text>
                <text id="Approved-20" data-name="Approved" transform="translate(332.785 388)" fill="#605656" font-size="9" font-family="Montserrat-Regular, Montserrat"><tspan x="0" y="0">Approved</tspan></text>
                <g id="Down_arrow_small_9" data-name="Down arrow small  " transform="translate(393 371) rotate(90)">
                  <g id="Down_arrow_small_10" data-name="Down arrow small  " transform="translate(-0.14 6.317) rotate(-90)">
                    <path id="Path_36-5" data-name="Path 36" d="M2.969,3.853,0,.884.884,0,2.969,2.085,5.053,0l.884.884Z" transform="translate(0 1.108)" fill="#9d9d9d"/>
                    <rect id="Rectangle_1467-5" data-name="Rectangle 1467" width="6" height="6" transform="translate(0.317 0.14)" fill="none"/>
                  </g>
                </g>
              </g>
            </g>
          </g>
          <text id="Showing:_Employees_allowed_Card_300_" data-name="Showing: Employees allowed Card (300)" transform="translate(22 403)" font-size="12" font-family="Montserrat-SemiBold, Montserrat" font-weight="600"><tspan x="0" y="0">Showing: Employees allowed Card (300)</tspan></text>
          <g id="Group_1106" data-name="Group 1106" transform="translate(14280 6351)">
            <g id="Group_936" data-name="Group 936" transform="translate(-14290 -6321)">
              <g transform="matrix(1, 0, 0, 1, -184.81, -129.77)" filter="url(#Path_18818)">
                <path id="Path_18818-2" data-name="Path 18818" d="M15,0H399c8.284,0,15,5.223,15,11.667V56H0V11.667C0,5.223,6.716,0,15,0Z" transform="translate(194.81 861.77)" fill="#fff"/>
              </g>
              <g id="Group_525" data-name="Group 525" transform="translate(42 749.408)">
                <path id="np_home_1560062_000000" d="M21,17a1.031,1.031,0,0,0-.54.183L9.338,25.963a1.047,1.047,0,0,0-.192,1.271.909.909,0,0,0,1.271.11L21,18.994l10.582,8.35a.9.9,0,0,0,1.271-.11,1,1,0,0,0-.192-1.271l-11.122-8.78A.9.9,0,0,0,21,17Zm-7.024,8.57-1.756,1.39v8.479a.878.878,0,0,0,.878.878h5.561a.878.878,0,0,0,.878-.878V31.926a1.463,1.463,0,0,1,2.927,0v3.512a.878.878,0,0,0,.878.878H28.9a.878.878,0,0,0,.878-.878V26.96l-1.756-1.39V34.56h-3.8V31.926a3.219,3.219,0,1,0-6.439,0V34.56h-3.8Z" transform="translate(-9 -17)" fill="#4535cd"/>
              </g>
              <g id="Group_524" data-name="Group 524" transform="translate(119.471 751.333)">
                <path id="np_people_1188645_000000" d="M10.528,25.995a3.917,3.917,0,0,0-3.91,3.9,3.677,3.677,0,0,0,1.588,3.039A6.518,6.518,0,0,0,4,39.043a.688.688,0,0,0,.672.651.688.688,0,0,0,.652-.671,5.182,5.182,0,0,1,5.162-5.234,5.24,5.24,0,0,1,4.308,2.2,6.482,6.482,0,0,0-2.322,5,.662.662,0,0,0,1.325-.02A5.2,5.2,0,1,1,24.2,40.923a.737.737,0,0,0,.662.68.7.7,0,0,0,.662-.7,6.478,6.478,0,0,0-2.3-4.9,5.2,5.2,0,0,1,9.449,2.988.662.662,0,0,0,1.325,0,6.511,6.511,0,0,0-3.115-5.529,6.726,6.726,0,0,0-1.058-.529,3.7,3.7,0,0,0,1.558-3.039,3.91,3.91,0,0,0-7.82,0,3.7,3.7,0,0,0,1.568,3.029,6.469,6.469,0,0,0-2.983,2.327,6.37,6.37,0,0,0-.785-.366,3.727,3.727,0,0,0,1.548-3.039,3.91,3.91,0,0,0-7.82,0,3.719,3.719,0,0,0,1.578,3.039,6.647,6.647,0,0,0-.8.366,6.5,6.5,0,0,0-3-2.327,3.671,3.671,0,0,0,1.578-3.029,3.916,3.916,0,0,0-3.91-3.9Zm0,1.3a2.6,2.6,0,1,1-2.607,2.6A2.595,2.595,0,0,1,10.528,27.3Zm16.944,0a2.6,2.6,0,1,1-2.607,2.6A2.595,2.595,0,0,1,27.472,27.3ZM19,29.247a2.6,2.6,0,1,1,0,5.2,2.529,2.529,0,0,1-2.607-2.6A2.6,2.6,0,0,1,19,29.247Z" transform="translate(-4.001 -25.992)" fill="#c4c4c4"/>
              </g>
              <g id="Group_526" data-name="Group 526" transform="translate(369.644 748.32)">
                <path id="np_company_2853797_000000" d="M24.392,13.392H14.858V3.858a.732.732,0,0,0-.733-.733H3.858a.733.733,0,0,0-.733.733V24.392a.732.732,0,0,0,.733.733H24.392a.732.732,0,0,0,.733-.733V14.125a.732.732,0,0,0-.733-.733Zm-19.8-8.8h8.8V23.658h-2.2V20.725a.732.732,0,0,0-.733-.733H7.525a.733.733,0,0,0-.733.733v2.933h-2.2ZM8.258,23.658v-2.2H9.725v2.2Zm15.4,0h-8.8v-8.8h8.8ZM7.525,7.525H6.058V6.058H7.525Zm2.2,0H8.258V6.058H9.725Zm2.2,0H10.458V6.058h1.467Zm-4.4,2.2H6.058V8.258H7.525Zm2.2,0H8.258V8.258H9.725Zm2.2,0H10.458V8.258h1.467Zm-4.4,2.2H6.058V10.458H7.525Zm2.2,0H8.258V10.458H9.725Zm2.2,0H10.458V10.458h1.467Zm-4.4,2.2H6.058V12.658H7.525Zm2.2,0H8.258V12.658H9.725Zm2.2,0H10.458V12.658h1.467Zm-4.4,2.2H6.058V14.858H7.525Zm2.2,0H8.258V14.858H9.725Zm2.2,0H10.458V14.858h1.467Zm-4.4,2.2H6.058V17.058H7.525Zm2.2,0H8.258V17.058H9.725Zm2.2,0H10.458V17.058h1.467Zm5.867-.733H16.325V16.325h1.467Zm2.2,0H18.525V16.325h1.467Zm2.2,0H20.725V16.325h1.467Zm-4.4,2.2H16.325V18.525h1.467Zm2.2,0H18.525V18.525h1.467Zm2.2,0H20.725V18.525h1.467Zm-4.4,2.2H16.325V20.725h1.467Zm2.2,0H18.525V20.725h1.467Zm2.2,0H20.725V20.725h1.467Z" transform="translate(-3.125 -3.125)" fill="#c4c4c4"/>
              </g>
              <g id="Group_523" data-name="Group 523" transform="translate(293.932 749.308)">
                <path id="np_purse_1614248_000000" d="M10.1,14A2.168,2.168,0,0,0,8,16.222V32.056A1.9,1.9,0,0,0,9.833,34H28.167A1.9,1.9,0,0,0,30,32.056V19.278a1.9,1.9,0,0,0-1.833-1.944h-1.31V14.556A.562.562,0,0,0,26.333,14Zm0,1.111H25.81v2.222H10.1a1.113,1.113,0,0,1,0-2.222ZM9.048,18.141a1.988,1.988,0,0,0,1.048.3c5.9-.005,13,0,18.071,0a.8.8,0,0,1,.786.833v2.778h-7.6a1.36,1.36,0,0,0-1.31,1.389v4.444a1.36,1.36,0,0,0,1.31,1.389h7.6v2.778a.8.8,0,0,1-.786.833H9.833a.8.8,0,0,1-.786-.833Zm12.31,5.026h7.6v5h-7.6a.258.258,0,0,1-.262-.278V23.444A.258.258,0,0,1,21.357,23.167Zm2.619,1.1a1.391,1.391,0,1,0,1.31,1.389A1.359,1.359,0,0,0,23.976,24.269Zm0,1.111a.278.278,0,1,1-.262.278A.263.263,0,0,1,23.976,25.38Z" transform="translate(-8 -14)" fill="#c4c4c4"/>
              </g>
            </g>
            <g id="Group_1047" data-name="Group 1047" transform="translate(14.47 16.47)">
              <g id="Group_867" data-name="Group 867" transform="translate(-14110 -5602)">
                <g transform="matrix(1, 0, 0, 1, -379.28, -865.24)" filter="url(#Ellipse_186)">
                  <circle id="Ellipse_186-2" data-name="Ellipse 186" cx="23" cy="23" r="23" transform="translate(378.81 864.77)" fill="#4535cd"/>
                </g>
              </g>
              <g id="Group_1046" data-name="Group 1046" transform="translate(-14099.038 -5589.162)">
                <path id="np_purse_1614248_000000-2" data-name="np_purse_1614248_000000" d="M10.072,14A2.123,2.123,0,0,0,8,16.158V31.534a1.859,1.859,0,0,0,1.813,1.888H27.94a1.859,1.859,0,0,0,1.813-1.888V19.125a1.859,1.859,0,0,0-1.813-1.888H26.645v-2.7a.55.55,0,0,0-.518-.54Zm0,1.079H25.609v2.158H10.072a1.08,1.08,0,0,1,0-2.158ZM9.036,18.021a1.992,1.992,0,0,0,1.036.3c5.833-.005,12.855,0,17.868,0a.781.781,0,0,1,.777.809v2.7h-7.51a1.332,1.332,0,0,0-1.295,1.349v4.316a1.332,1.332,0,0,0,1.295,1.349h7.51v2.7a.781.781,0,0,1-.777.809H9.813a.781.781,0,0,1-.777-.809ZM21.207,22.9h7.51v4.856h-7.51a.253.253,0,0,1-.259-.27V23.172A.253.253,0,0,1,21.207,22.9Zm2.59,1.071a1.35,1.35,0,1,0,1.295,1.349A1.331,1.331,0,0,0,23.8,23.972Zm0,1.079a.27.27,0,1,1-.259.27A.257.257,0,0,1,23.8,25.051Z" transform="translate(-8 -14)" fill="#fff"/>
              </g>
              <g id="Group_1036" data-name="Group 1036" transform="translate(-14084.239 -5594.674)">
                <circle id="Ellipse_267" data-name="Ellipse 267" cx="4.273" cy="4.273" r="4.273" transform="translate(2.774 2.773)" fill="#fff"/>
                <path id="np_wrong_2721404_000000" d="M0,4.858A4.858,4.858,0,1,1,4.858,9.715,4.858,4.858,0,0,1,0,4.858ZM2.81,2.81a.684.684,0,0,1,.965,0L4.857,3.892,5.94,2.81a.682.682,0,0,1,.965.965L5.823,4.857,6.9,5.94A.682.682,0,0,1,5.94,6.9L4.857,5.823,3.775,6.9A.682.682,0,0,1,2.81,5.94L3.892,4.857,2.81,3.775A.684.684,0,0,1,2.81,2.81Z" transform="matrix(0.719, 0.695, -0.695, 0.719, 6.748, 0)" fill="#58c085"/>
              </g>
            </g>
          </g>
          <path id="Path_18930" data-name="Path 18930" d="M0,0H122.934a6.187,6.187,0,0,1,6.359,6V34a6.187,6.187,0,0,1-6.359,6H0Z" transform="translate(262.708 184)" fill="#e9e9e9" opacity="0.5"/>
          <text id="All_departments" data-name="All departments" transform="translate(274 208)" fill="#555" font-size="11" font-family="Montserrat-Bold, Montserrat" font-weight="700"><tspan x="0" y="0">All departments</tspan></text>
          <g id="Down_arrow_small_11" data-name="Down arrow small  " transform="translate(374 199.091)">
            <rect id="Rectangle_1467-6" data-name="Rectangle 1467" width="10" height="10" transform="translate(0 -0.091)" fill="none"/>
            <path id="Path_36-6" data-name="Path 36" d="M6.7,8.1,2,3.4,3.4,2,6.7,5.3,10,2l1.4,1.4Z" transform="translate(-2)" fill="#4535cd"/>
          </g>
          <path id="np_back_1144365_000000" d="M44.972,28.45a1.142,1.142,0,0,0-1.615-1.615l-6.522,6.522a1.145,1.145,0,0,0,0,1.615l6.522,6.522a1.142,1.142,0,0,0,1.615-1.615l-5.718-5.717Z" transform="translate(-13.404 -3.501)" fill="#646684"/>
          <g id="Group_1499" data-name="Group 1499" transform="translate(0 -3)">
            <text id="_Employee" data-name="+ Employee" transform="translate(392 129)" fill="#4535cd" stroke="rgba(0,0,0,0)" stroke-width="1" font-size="16" font-family="Poppins-SemiBold, Poppins" font-weight="600"><tspan x="-94" y="0">+ Employee</tspan></text>
            <g id="Group_1498" data-name="Group 1498" transform="translate(5)">
              <text id="Total_Employees" data-name="Total Employees" transform="translate(86 153)" fill="#646684" font-size="16" font-family="Montserrat-Medium, Montserrat" font-weight="500"><tspan x="0" y="0">Total Employees</tspan></text>
              <text id="_5000" data-name="5000" transform="translate(86 128)" font-size="40" font-family="Poppins-SemiBold, Poppins" font-weight="600"><tspan x="0" y="0">5000</tspan></text>
            </g>
            <rect id="Rectangle_5967" data-name="Rectangle 5967" width="57" height="57" rx="16" transform="translate(22 95)" fill="#f3f4f8" opacity="0.6"/>
            <path id="_Icon_Сolor" data-name="🎨 Icon Сolor" d="M18.055,25a1.39,1.39,0,0,1-1.389-1.389,6.944,6.944,0,1,0-13.889,0,1.389,1.389,0,1,1-2.777,0A9.717,9.717,0,0,1,16.584,16.73a6.944,6.944,0,0,1,11.194,5.493,1.389,1.389,0,0,1-2.777,0,4.158,4.158,0,0,0-6.745-3.265,9.726,9.726,0,0,1,1.19,4.654A1.391,1.391,0,0,1,18.055,25Zm2.779-11.111A4.167,4.167,0,1,1,25,9.722,4.172,4.172,0,0,1,20.834,13.889Zm0-5.555a1.389,1.389,0,1,0,1.389,1.389A1.39,1.39,0,0,0,20.834,8.334ZM9.722,11.111a5.556,5.556,0,1,1,5.555-5.556A5.563,5.563,0,0,1,9.722,11.111Zm0-8.334A2.778,2.778,0,1,0,12.5,5.555,2.781,2.781,0,0,0,9.722,2.777Z" transform="translate(36.611 111)" fill="#646684"/>
          </g>
          <g id="Group_1746" data-name="Group 1746">
            <g id="Component_1_3" data-name="Component 1 – 3" transform="translate(217 271)">
              <g id="Rectangle_6007" data-name="Rectangle 6007" fill="none" stroke="#e9e9e9" stroke-width="1">
                <rect width="175" height="35" rx="5" stroke="none"/>
                <rect x="0.5" y="0.5" width="174" height="34" rx="4.5" fill="none"/>
              </g>
              <g id="Down_arrow_small_12" data-name="Down arrow small  " transform="translate(96 13.091)">
                <path id="Path_36-7" data-name="Path 36" d="M6.7,8.1,2,3.4,3.4,2,6.7,5.3,10,2l1.4,1.4Z" transform="translate(-2)" fill="#4535cd"/>
                <rect id="Rectangle_1467-7" data-name="Rectangle 1467" width="10" height="10" transform="translate(0 -0.091)" fill="none"/>
              </g>
              <text id="Card" transform="translate(21 22)" fill="#555" font-size="11" font-family="Montserrat-Bold, Montserrat" font-weight="700"><tspan x="0" y="0">Card</tspan></text>
            </g>
            <g id="Group_46237" data-name="Group 46237">
              <path id="Rectangle_6129" data-name="Rectangle 6129" d="M0,0H47a5,5,0,0,1,5,5V30a5,5,0,0,1-5,5H0a0,0,0,0,1,0,0V0A0,0,0,0,1,0,0Z" transform="translate(340 271)" fill="#fafaff"/>
              <g id="np_filter_3212569_000000" transform="translate(357.5 269.301)">
                <path id="Path_570" data-name="Path 570" d="M13.607,14.7H3.466a.966.966,0,0,0,0,1.932H13.62a.966.966,0,0,0,.966-.966.977.977,0,0,0-.979-.966Z" fill="#434343"/>
                <path id="Path_571" data-name="Path 571" d="M22.63,42.4H15.564a.966.966,0,1,0,0,1.932h7.079a.966.966,0,0,0,.966-.966.977.977,0,0,0-.979-.966Z" transform="translate(-10.56 -24.179)" fill="#434343"/>
                <path id="Path_572" data-name="Path 572" d="M31.656,70.2H27.666a.966.966,0,1,0,0,1.932h4a.966.966,0,0,0,.966-.966.977.977,0,0,0-.979-.966Z" transform="translate(-21.124 -48.446)" fill="#434343"/>
              </g>
            </g>
            <text id="Advance_filter" data-name="Advance filter" transform="translate(330 318)" fill="#262626" font-size="7" font-family="Montserrat-Medium, Montserrat" font-weight="500"><tspan x="0" y="0">ADVANCE FILTER</tspan></text>
            <line id="Line_92" data-name="Line 92" y2="34" transform="translate(340.5 271.5)" fill="none" stroke="#e9e9e9" stroke-width="1"/>
          </g>
          <g id="Group_1748" data-name="Group 1748" transform="translate(13924 4764)">
            <g transform="matrix(1, 0, 0, 1, -14118.81, -4863.77)" filter="url(#Rectangle_6084)">
              <rect id="Rectangle_6084-2" data-name="Rectangle 6084" width="108" height="36" rx="4" transform="translate(216.81 442.77)" fill="#4535cd"/>
            </g>
            <text id="Allowed" transform="translate(-13860 -4399)" fill="#fff" font-size="12" font-family="Montserrat-SemiBold, Montserrat" font-weight="600"><tspan x="0" y="0">Allowed</tspan></text>
          </g>
          <g id="Group_1749" data-name="Group 1749" transform="translate(13940 4767)" opacity="0.748" style="mix-blend-mode: luminosity;isolation: isolate">
            <rect id="Rectangle_6085" data-name="Rectangle 6085" width="104" height="31" rx="4" transform="translate(-13794 -4421)" fill="#e9e9e9" opacity="0.5"/>
            <text id="Not_Allowed" data-name="Not Allowed" transform="translate(-13764 -4402)" fill="#7c828a" font-size="10" font-family="Montserrat-SemiBold, Montserrat" font-weight="600"><tspan x="0" y="0">Not Allowed</tspan></text>
          </g>
          <g id="Approved-21" data-name="Approved" transform="translate(38 353.5)">
            <path id="np_approve_1672728_000000-11" data-name="np_approve_1672728_000000" d="M25.45,27.761a.454.454,0,0,1-.305-.117l-2.536-2.326a.456.456,0,0,1,.61-.677l2.2,2.032,6.361-6.984a.455.455,0,1,1,.677.608l-6.666,7.319a.454.454,0,0,1-.314.146Zm5.763-4.771a6.337,6.337,0,1,1-1.581-2.3l.608-.677a7.216,7.216,0,1,0,1.65,2.242Z" transform="translate(-18.149 -18.119)" fill="#fff" stroke="#fff" stroke-width="0.5"/>
          </g>
          <g id="Reject" transform="translate(160 358.154)">
            <path id="Path_564" data-name="Path 564" d="M16.232,62.794a1.263,1.263,0,0,0-1.676,0l-2.111,1.936-2.111-1.936h0a1.267,1.267,0,0,0-1.675,0,1.013,1.013,0,0,0,0,1.528l2.124,1.925L8.658,68.173h0a1.009,1.009,0,0,0,0,1.527,1.259,1.259,0,0,0,1.674,0l2.111-1.936L14.555,69.7h0a1.261,1.261,0,0,0,1.676,0,1.011,1.011,0,0,0,0-1.527l-2.124-1.926,2.124-1.925a1.012,1.012,0,0,0,0-1.528Z" transform="translate(-8.309 -62.477)" fill="#9fa0a3"/>
          </g>
        </g>
      </g>
    </g>
  </g>
</svg>
