<?xml version="1.0" encoding="utf-8"?>
<!-- Generator: Adobe Illustrator 26.2.0, SVG Export Plug-In . SVG Version: 6.00 Build 0)  -->
<svg version="1.1" id="Group_10937" xmlns="http://www.w3.org/2000/svg" xmlns:xlink="http://www.w3.org/1999/xlink" x="0px"
	 y="0px" viewBox="0 0 46.5 46.5" style="enable-background:new 0 0 46.5 46.5;" xml:space="preserve">
<style type="text/css">
	.st0{fill:none;stroke:#D5FDEE;stroke-width:5;}
	.st1{fill:#06C380;}
</style>
<path class="st0" d="M19.1,7.7l22.3,0c0,0,2.5,0.6,2.5,2.3s0,17.8,0,17.8s-0.4,2.2-2.1,2.3C40.1,30,25,29.7,25,29.7s2.5-4.2,2.2-5.5
	c-0.3-1.3,0.9-3.8-2.2-3.4c-3.1,0.4-6.4,2.4-6.4,2.4l-1.3-2.4l0.2-11.4L19.1,7.7z"/>
<g id="tfQEmY.tif">
</g>
<g>
	<path class="st1" d="M26.7,38.8c-0.2,0-0.4,0-0.6,0c-0.2-0.1-0.5-0.1-0.6-0.2c-0.6-0.3-1.1-0.6-1.7-1c-1,0.9-2.3,1.1-3.6,0.4
		c-1.3-0.7-1.7-1.9-1.5-3.5c-0.4,0.3-0.8,0.6-1.2,0.9c-1.2,1.1-2.8,1.6-4.4,1.7c-3.8,0.4-7.6,0.1-11.4,0c-0.9,0-1.5-0.7-1.5-1.6
		C0.1,31,0,26.4,0,21.8c0-0.6,0.2-1.1,0.6-1.5c3.2-2.8,6.4-5.6,9.6-8.4c0.2-0.2,0.5-0.4,0.8-0.4c0.9-0.1,1.9-0.2,2.8-0.2
		c0.4,0,0.9,0.2,1.4,0.3c0-0.3,0-0.6,0-0.9c0-1.8,1.1-3,2.9-3c8.5,0,17,0,25.5,0c1,0,1.8,0.3,2.4,1.2c0.2,0.3,0.3,0.7,0.5,1.1
		c0,5.9,0,11.9,0,17.8c-0.7,1.9-1.4,2.3-3.4,2.3c-3.9,0-7.7,0-11.6,0c-0.2,0-0.3,0-0.5,0c0.8,1.3,0.5,2.5-0.2,3.7
		c-0.6,1.1-1.1,2.2-1.7,3.3c-0.3,0.6-0.7,1.2-1.4,1.5C27.4,38.6,27.1,38.7,26.7,38.8z M25.1,22.6c-0.3,0-0.5,0-0.6,0
		c-1.5,0.2-2.9,0.7-4.3,1.4c-1.2,0.6-2.5,1.2-3.7,1.7c-1.1,0.5-2.2-0.1-2.2-1.4c0-0.1,0-0.2,0-0.4c0-3.1,0-6.1,0-9.2
		c0-0.2,0-0.4-0.1-0.5c-0.4-0.4-1.9-0.3-2.4,0.1c-2.8,2.5-5.7,5-8.5,7.4c-0.2,0.2-0.3,0.4-0.3,0.7c0,3.8,0,7.5,0,11.3
		c0,0.1,0,0.3,0,0.4C3,34.3,3,34.4,3,34.4c3.2,0,6.4,0,9.6-0.1c1.2,0,2.2-0.5,3.2-1.2c2.3-1.9,4.7-3.7,6.7-5.9
		c0.9-1,1.8-2.1,2.3-3.4C25,23.4,25,23,25.1,22.6z M25.5,28.2c0.2,0,0.3,0,0.4,0c5.8,0,11.7,0,17.5,0c0.9,0,1.2-0.3,1.2-1.2
		c0-2.8,0-5.6,0-8.4c0-0.2,0-0.3,0-0.5c-9.2,0-18.3,0-27.4,0c0,1.3,0,2.6,0,4c0.2-0.1,0.3-0.1,0.5-0.2c1.1-0.4,2.1-0.9,3.2-1.3
		c1.3-0.5,2.7-0.9,4.2-0.9c1.5,0,2.5,0.9,2.8,2.4c0.2,1.3-0.2,2.5-0.8,3.6C26.6,26.6,26.1,27.4,25.5,28.2z M17,12.7
		c9.2,0,18.4,0,27.7,0c0-0.7,0-1.3,0-2c0-1-0.3-1.3-1.3-1.3c-8.4,0-16.8,0-25.1,0c-0.2,0-0.5,0-0.7,0.1C17.2,9.6,17,9.9,17,10.2
		C17,11.1,17,11.9,17,12.7z M26.4,36.8c0.4,0,0.7-0.2,0.9-0.6c0.7-1.4,1.4-2.7,2.1-4.1c0.3-0.6,0-1.2-0.5-1.5
		c-0.5-0.3-1.2-0.1-1.5,0.4c-0.7,1.4-1.5,2.8-2.2,4.3C24.9,36,25.5,36.9,26.4,36.8z M24.8,31.5c0-0.6-0.3-1-0.7-1.2
		c-0.4-0.2-0.8,0-1.1,0.3c-0.2,0.2-0.4,0.5-0.6,0.8c-0.6,1.1-1.2,2.3-1.7,3.4c-0.3,0.7-0.1,1.4,0.5,1.7c0.6,0.3,1.3,0,1.6-0.6
		c0.7-1.3,1.3-2.6,2-3.9C24.7,31.8,24.8,31.6,24.8,31.5z"/>
	<path class="st1" d="M35.5,24.1c2.4,0,4.7,0,7.1,0c0,0.8,0,1.6,0,2.4c-0.1,0-0.3,0-0.4,0c-2.1,0-4.1,0-6.2,0
		c-0.4,0-0.5-0.1-0.5-0.5C35.5,25.4,35.5,24.8,35.5,24.1z"/>
</g>
</svg>
