<?xml version="1.0" encoding="utf-8"?>
<!-- Generator: Adobe Illustrator 26.2.0, SVG Export Plug-In . SVG Version: 6.00 Build 0)  -->
<svg version="1.1" id="Group_10936" xmlns="http://www.w3.org/2000/svg" xmlns:xlink="http://www.w3.org/1999/xlink" x="0px"
	 y="0px" viewBox="0 0 48.2 48.2" style="enable-background:new 0 0 48.2 48.2;" xml:space="preserve">
<style type="text/css">
	.st0{fill:#0ABFE2;}
	.st1{opacity:0.706;fill:#AAF1FF;enable-background:new    ;}
</style>
<g id="np_reverse_708993_000000" transform="translate(0 0)">
	<path id="Path_18639" class="st0" d="M24.1,0c13.3,0,24.1,10.8,24.1,24.1S37.5,48.3,24.1,48.3C10.8,48.3,0,37.5,0,24.1
		c0-4.8,1.4-9.5,4.2-13.5l1.2,1.2C-1.4,22.1,1.6,36,11.9,42.7s24.1,3.8,30.9-6.5c6.7-10.3,3.8-24.1-6.5-30.9c-6.6-4.3-15-4.8-22-1.3
		l2.6,2.9l-9,1.9L10.6,0l2.4,2.7C16.5,0.9,20.3,0,24.1,0z"/>
</g>
<g id="Group_919" transform="translate(9.791 11.141)">
	<path id="Path_18650" class="st1" d="M0.9,8.7L19,22.5l9.9-8.3L10.4,0.3L0.9,8.7z"/>
	<g id="np_bills_2335595_000000">
		<path id="Path_18642" class="st0" d="M19,23L0,8.7L10.5,0l19,14.3L19,23z M1.3,8.6l17.6,13.3l9.2-7.6L10.5,1L1.3,8.6z"/>
		<path id="Path_18643" class="st0" d="M19,26L0.4,12l0.5-0.7l18.1,13.6l9.6-7.9l0.5,0.6L19,26z"/>
		<path id="Path_18644" class="st0" d="M19,28.8l-18.6-14l0.5-0.6l18.1,13.6l9.6-7.9l0.5,0.6L19,28.8z"/>
		<path id="Path_18645" class="st0" d="M17.5,5.8L7.7,14l-1.3,4.9l4.3,3.2l1.3-4.9l9.3-8.6L17.5,5.8z"/>
		<g>
			<path class="st0" d="M6.4,6.5l2.1-2.1l0,0C8.6,4.8,8.7,5,8.7,5L8.1,5.5c0.2,0,0.3,0.1,0.5,0.2l0.6-0.6c0,0,0,0,0,0
				c0.1,0.4,0.1,0.5,0.1,0.5L9,6.1c0.1,0.1,0.2,0.3,0.3,0.6c0,0.3,0,0.5,0,0.6C9.1,7.6,9,7.8,8.8,8l0,0c0,0,1,0.1,2.9,0.4L11.1,9
				C9.2,8.7,8.3,8.6,8.3,8.6L8,8.3l0,0C8.1,8.2,8.2,8.1,8.3,8c0.5-0.5,0.6-0.9,0.4-1.3c0-0.1-0.1-0.1-0.1-0.2L7.3,7.8c0,0,0,0,0,0
				C7.2,7.4,7.1,7.2,7.1,7.2l1-1l0,0c-0.2-0.1-0.4-0.1-0.6,0C7.3,6.3,7.2,6.4,7.1,6.5L6.6,7.1l0,0C6.5,6.7,6.4,6.5,6.4,6.5z"/>
		</g>
		<g>
			<path class="st0" d="M17.1,14.8l2.1-2.1l0,0c0.1,0.3,0.1,0.5,0.1,0.5l-0.6,0.6c0.2,0,0.3,0.1,0.5,0.2l0.6-0.6c0,0,0,0,0,0
				C20,13.8,20,14,20,14l-0.4,0.4c0.1,0.1,0.2,0.3,0.3,0.6c0,0.3,0,0.5,0,0.6c-0.1,0.3-0.2,0.6-0.4,0.7l0,0c0,0,1,0.1,2.9,0.4
				l-0.6,0.5C19.9,17,19,16.9,19,16.9l-0.3-0.3l0,0c0.1-0.1,0.2-0.1,0.3-0.2c0.5-0.5,0.6-0.9,0.4-1.3c0-0.1-0.1-0.1-0.1-0.2
				l-1.2,1.2c0,0,0,0,0,0c-0.1-0.4-0.1-0.5-0.1-0.5l1-1l0,0c-0.2-0.1-0.4-0.1-0.6,0c-0.2,0.1-0.3,0.2-0.4,0.2l-0.6,0.5l0,0
				C17.1,15,17.1,14.8,17.1,14.8z"/>
		</g>
	</g>
</g>
</svg>
