<?xml version="1.0" encoding="utf-8"?>
<!-- Generator: Adobe Illustrator 26.2.0, SVG Export Plug-In . SVG Version: 6.00 Build 0)  -->
<svg version="1.1" id="Layer_1" xmlns="http://www.w3.org/2000/svg" xmlns:xlink="http://www.w3.org/1999/xlink" x="0px" y="0px"
	 viewBox="0 0 47 47.1" style="enable-background:new 0 0 47 47.1;" xml:space="preserve">
<style type="text/css">
	.st0{fill:#58D9AC;}
	.st1{fill:#58D9AC;stroke:#57D9AB;stroke-width:0.5;}
	.st2{fill:#FFFFFF;}
	.st3{fill:#CAFFED;}
</style>
<rect x="38.1" y="19" class="st0" width="4.4" height="24.6"/>
<g>
	<g>
		<circle class="st1" cx="17.6" cy="18.7" r="15.3"/>
		<g>
			<path class="st2" d="M23.7,18.7c0-2.7-0.6-5.3-1.9-7.8c-0.2-0.3-0.3-0.7-0.5-1c-0.2-0.5-0.1-1,0.4-1.2c0.5-0.3,1.2-0.2,1.4,0.3
				c0.4,0.8,0.9,1.5,1.2,2.3c2.3,5.6,2,11.1-0.8,16.5c-0.1,0.2-0.3,0.5-0.4,0.7c-0.3,0.4-0.9,0.5-1.3,0.3c-0.4-0.3-0.7-0.8-0.4-1.3
				c0.4-0.8,0.8-1.6,1.2-2.5C23.4,23,23.7,20.9,23.7,18.7z"/>
			<path class="st2" d="M21.4,18.7c-0.1,2.4-0.6,4.6-1.7,6.7c-0.2,0.4-0.4,0.7-0.7,1.1c-0.4,0.4-0.9,0.5-1.3,0.2
				c-0.4-0.3-0.6-0.8-0.3-1.3c0.7-1.3,1.3-2.7,1.6-4.1c0.6-2.9,0.2-5.6-1.1-8.2c-0.2-0.3-0.3-0.6-0.5-1c-0.2-0.6-0.1-1,0.4-1.3
				c0.5-0.3,1.1-0.1,1.4,0.4c1,1.5,1.6,3.1,1.9,4.9C21.2,16.8,21.3,17.8,21.4,18.7z"/>
			<path class="st2" d="M16.7,18.7c0,2-0.5,3.7-1.4,5.3c-0.3,0.5-0.6,0.9-1.3,0.8c-0.6-0.1-1-0.6-0.8-1.3c0.1-0.3,0.3-0.6,0.4-0.8
				c1.3-2.5,1.3-5.1,0.1-7.7c-0.1-0.3-0.3-0.6-0.4-0.9c-0.2-0.6-0.1-0.9,0.4-1.3c0.4-0.3,1-0.2,1.4,0.2c0.2,0.2,0.3,0.4,0.4,0.6
				C16.3,15.2,16.8,16.9,16.7,18.7z"/>
			<path class="st2" d="M12.5,18.4c0,1.5-0.4,2.6-1,3.6c-0.1,0.2-0.3,0.3-0.4,0.5c-0.4,0.4-1,0.4-1.4,0.1c-0.5-0.4-0.6-0.8-0.2-1.4
				c0.5-0.8,0.9-1.7,0.8-2.7c0-0.7-0.2-1.4-0.5-2c-0.1-0.2-0.2-0.4-0.3-0.6c-0.3-0.5-0.2-1,0.3-1.3c0.5-0.3,1.1-0.3,1.4,0.2
				c0.4,0.6,0.8,1.3,1.1,2C12.4,17.4,12.4,18.1,12.5,18.4z"/>
		</g>
	</g>
	<g>
		<path class="st3" d="M38.1,43.7c-0.2,0-0.4,0-0.5,0c-2.4,0-4.9,0-7.3,0c-1.6,0-2.6-1-2.6-2.6c0-6.5,0-12.9,0-19.4
			c0-1.6,1-2.6,2.6-2.6c2.4,0,4.9,0,7.3,0c0.2,0,0.3,0,0.5,0C38.1,27.2,38.1,35.4,38.1,43.7z"/>
		<path class="st3" d="M42.5,19.1c1-0.1,2,0.8,2.2,1.9c0,0.2,0,0.4,0,0.7c0,6.5,0,13,0,19.4c0,1.3-0.8,2.3-1.9,2.5
			c-0.1,0-0.2,0-0.3,0C42.5,35.4,42.5,27.3,42.5,19.1z"/>
	</g>
</g>
</svg>
