<?xml version="1.0" encoding="utf-8"?>
<!-- Generator: Adobe Illustrator 26.2.0, SVG Export Plug-In . SVG Version: 6.00 Build 0)  -->
<svg version="1.1" id="Layer_1" xmlns="http://www.w3.org/2000/svg" xmlns:xlink="http://www.w3.org/1999/xlink" x="0px" y="0px"
	 viewBox="0 0 46.9 46" style="enable-background:new 0 0 46.9 46;" xml:space="preserve">
<style type="text/css">
	.st0{fill:#65C318;}
	.st1{opacity:0.465;fill:#C1E3A5;enable-background:new    ;}
</style>
<g>
	<path class="st0" d="M32.4,5.4c-8,0-15.9,0-23.8,0c0,10.8,0,21.6,0,32.5c1-0.4,2-1.3,2.9-1.1c0.9,0.1,1.8,1.2,2.7,1.9
		c0.2-0.1,0.5-0.2,0.7-0.4c1.7-1.4,3.4-2.3,5.2,0c0.2,0.2,0.9,0.2,1.3,0c0.8-0.4,1.4-1,2.2-1.3c0.3-0.1,0.8,0.1,1.2,0.1
		c-0.1,0.3-0.1,0.9-0.3,1c-1.1,0.8-2.1,1.5-3.3,2.1c-0.3,0.2-1,0-1.4-0.2c-0.7-0.4-1.4-1-2.1-1.7c-2,1.7-4.1,3.2-6.2,0
		c-1.1,0.7-2,1.2-2.9,1.8C7.5,40.7,7,40.4,7,39.1c0-0.3,0-0.6,0-0.9C7,27.6,7,16.8,7,6.1c0-2.3,0-2.3,2.2-2.3c7.6,0,15.2,0,22.8,0
		c1.6,0,2.1,0.4,2.1,2c-0.1,6.4,0,12.8,0,19.2c0,0.5,0,0.9-0.1,1.4c-0.1,0.2-0.4,0.5-0.7,0.6c-0.2,0-0.5-0.3-0.6-0.5
		c-0.1-0.5-0.1-1-0.1-1.5c0-5.8,0-11.6,0-17.5C32.4,6.8,32.4,6.2,32.4,5.4z"/>
	<path class="st1" d="M40,35.4c0,3.7-2.9,6.8-6.7,6.8c-3.7,0.1-6.8-3-6.8-6.7c0-3.7,3-6.8,6.7-6.8C36.9,28.7,39.9,31.7,40,35.4z
		 M33.2,40.7c2.9,0,5.2-2.3,5.2-5.2c0-2.9-2.3-5.2-5.2-5.2c-2.9,0-5.3,2.3-5.3,5.2C28,38.4,30.3,40.7,33.2,40.7z"/>
	<path class="st0" d="M16,16.3c-1.5,0-3,0-4.4,0c-0.3,0-0.7-0.5-1-0.7c0.3-0.3,0.6-0.8,0.9-0.8c3-0.1,6-0.1,9.1,0
		c0.3,0,0.7,0.5,1,0.7c-0.4,0.3-0.7,0.7-1.1,0.8C19,16.4,17.5,16.3,16,16.3z"/>
	<path class="st0" d="M16,27.2c-1.5,0-3,0-4.4,0c-0.3,0-0.6-0.5-1-0.7c0.3-0.3,0.6-0.7,0.9-0.7c3-0.1,6-0.1,9.1,0
		c0.3,0,0.6,0.5,1,0.7c-0.3,0.3-0.6,0.7-0.9,0.7C19.1,27.2,17.6,27.2,16,27.2z"/>
	<path class="st0" d="M16,18.4c1.5,0,3-0.1,4.4,0c0.4,0,0.8,0.5,1.1,0.7c-0.4,0.3-0.7,0.7-1.1,0.7c-2.9,0.1-5.8,0.1-8.7,0
		c-0.4,0-0.8-0.5-1.1-0.7c0.4-0.3,0.7-0.7,1.1-0.7C13.1,18.4,14.6,18.4,16,18.4z"/>
	<path class="st0" d="M16,23.6c-1.4,0-2.7,0.1-4.1,0c-0.4,0-0.8-0.5-1.3-0.7c0.4-0.2,0.7-0.7,1.1-0.7c2.9-0.1,5.8-0.1,8.7,0
		c0.4,0,0.7,0.5,1.1,0.7c-0.4,0.2-0.8,0.7-1.1,0.7C19,23.6,17.5,23.5,16,23.6z"/>
	<path class="st0" d="M14.2,9.5c0.8,0,1.6-0.1,2.4,0c0.3,0,0.6,0.5,0.9,0.7c-0.3,0.2-0.5,0.7-0.8,0.7c-1.8,0.1-3.5,0.1-5.3,0
		c-0.3,0-0.6-0.4-0.8-0.6c0.3-0.3,0.6-0.7,0.9-0.8C12.4,9.4,13.3,9.5,14.2,9.5z"/>
	<path class="st0" d="M26.5,25.4c0.7,0.3,1.3,0.7,2,1c-0.7,0.3-1.4,0.5-2.1,0.8c-0.1,0.1-0.4,0.1-0.5,0c-0.5-0.3-1-0.6-1.5-0.8
		c0.5-0.2,1-0.5,1.5-0.7c0.1-0.1,0.3,0,0.5,0C26.4,25.5,26.5,25.5,26.5,25.4z"/>
	<path class="st0" d="M26.5,16.3c-0.3,0-0.7,0.1-1,0c-0.4-0.1-0.7-0.4-1-0.7c0.3-0.3,0.6-0.7,1-0.8c0.6-0.1,1.3-0.2,1.9,0
		c0.4,0.1,0.8,0.5,1.2,0.8c-0.4,0.2-0.8,0.5-1.2,0.7C27.1,16.4,26.7,16.3,26.5,16.3z"/>
	<path class="st0" d="M26.3,19.9c-0.3,0-0.7,0.1-1,0c-0.3-0.2-0.6-0.5-0.9-0.8c0.3-0.2,0.5-0.6,0.8-0.6c0.7-0.1,1.5-0.1,2.2,0
		c0.4,0.1,0.7,0.5,1.1,0.8c-0.3,0.2-0.7,0.5-1,0.7C27.1,20,26.7,19.9,26.3,19.9C26.3,19.9,26.3,19.9,26.3,19.9z"/>
	<path class="st0" d="M26.4,23.6c-0.3,0-0.7,0.1-1,0c-0.4-0.1-0.7-0.5-1-0.7c0.3-0.3,0.6-0.7,0.9-0.7c0.7-0.1,1.4-0.1,2,0
		c0.4,0.1,0.8,0.4,1.2,0.7c-0.4,0.3-0.8,0.6-1.3,0.8C27,23.6,26.7,23.6,26.4,23.6z"/>
	<path class="st0" d="M32.5,36.4c0.9-1,1.6-2,2.5-2.8c0.3-0.3,0.9-0.4,1.4-0.5c-0.1,0.5,0,1.1-0.2,1.4c-0.8,1.1-1.8,2.1-2.6,3.1
		c-0.7,0.8-1.3,0.8-1.9,0.1c-0.5-0.5-1.1-0.9-1.4-1.4C29.9,35.9,30,35.4,30,35c0.4,0,0.8,0,1.1,0.1C31.5,35.4,31.9,35.9,32.5,36.4z"
		/>
</g>
</svg>
