<?xml version="1.0" encoding="utf-8"?>
<!-- Generator: Adobe Illustrator 26.2.0, SVG Export Plug-In . SVG Version: 6.00 Build 0)  -->
<svg version="1.1" id="Group_10938" xmlns="http://www.w3.org/2000/svg" xmlns:xlink="http://www.w3.org/1999/xlink" x="0px"
	 y="0px" viewBox="0 0 39.4 45" style="enable-background:new 0 0 39.4 45;" xml:space="preserve">
<style type="text/css">
	.st0{opacity:0.561;fill:#BCC1FF;enable-background:new    ;}
	.st1{fill:#505BE0;}
	.st2{fill:#FFFFFF;stroke:#255EBA;stroke-miterlimit:10;}
</style>
<path id="Path_18649" class="st0" d="M9.5,6.8V6.7l0.6-3.1L12.2,1l16.5-0.4l9.9,10.8v24l-1.9,1.9l-2.7-2.5l-2.2,2.5l-2.1-1.9V17.1
	L19.3,7L9.5,6.8z"/>
<g id="np_invoice_2628928_000000" transform="translate(0 0)">
	<path id="Path_18621" class="st1" d="M1.7,44.7C1.8,44.8,2,45,2.2,45c0,0,0.1,0,0.1,0c0.2,0,0.3-0.1,0.4-0.2l2.1-2.2l1.9,2.1
		c0.2,0.3,0.6,0.3,0.9,0c0,0,0,0,0,0l2.4-2.2l1.9,2.2c0.2,0.3,0.6,0.3,0.9,0.1c0,0,0,0,0,0l2.1-2.2l2,2.2c0.2,0.2,0.6,0.3,0.9,0
		l2.5-2.2l2.1,2.2l0,0c0.2,0.2,0.6,0.3,0.9,0c0,0,0,0,0,0l1.9-2.1l1.8,2.1c0.1,0.1,0.3,0.2,0.5,0.2c0.2,0,0.4-0.1,0.5-0.2l2.3-2.9
		l0,0c0.1-0.1,0.1-0.2,0.1-0.4v-4.8l1,1c0.2,0.2,0.6,0.3,0.9,0c0,0,0,0,0,0l1.9-2l2,2c0.2,0.2,0.6,0.2,0.9,0l2.1-2.1l0,0
		c0.1-0.1,0.2-0.3,0.2-0.4V11.1c0-0.2-0.1-0.3-0.2-0.4L28.8,0.2l0,0C28.7,0,28.5,0,28.3,0h0c0,0,0,0-0.1,0H13.7
		C11,0,8.9,2.1,8.9,4.8v1.5H4.7C2.1,6.3,0,8.4,0,11v30.4c0,0.1,0,0.2,0.1,0.3L1.7,44.7z M20,8.4l8.4,8.3h-4.8
		c-1.9,0-3.5-1.6-3.5-3.5V8.4z M29,2.1l8.4,8.3h-4.8c-1.9,0-3.5-1.6-3.5-3.5V2.1z M10.2,4.7c0-1.9,1.6-3.5,3.5-3.5h14.1v5.7
		c0,2.6,2.1,4.7,4.7,4.7h5.7v23.2l-1.5,1.5l-2-2l0,0c-0.2-0.2-0.6-0.2-0.9,0c0,0,0,0,0,0l-1.9,2l-1.5-1.5V17.3
		c0-0.2-0.1-0.3-0.2-0.4L19.9,6.5l0,0l0,0c-0.1-0.1-0.3-0.2-0.5-0.2h0c0,0,0,0-0.1,0h-9.1V4.7z M1.2,11c0-1.9,1.6-3.5,3.5-3.5h14.1
		v5.7c0,2.6,2.1,4.7,4.7,4.7h5.7v23.3l-1.7,2.2l-1.7-2.1c-0.1-0.1-0.3-0.2-0.5-0.2c-0.2,0-0.3,0.1-0.5,0.2l-1.9,2.1l-2-2.2
		c-0.2-0.2-0.6-0.3-0.9,0l-2.5,2.2l-2-2.2l0,0c-0.1-0.1-0.3-0.2-0.4-0.2h0c-0.2,0-0.3,0.1-0.4,0.2l-2.1,2.2l-1.9-2.1
		c-0.1-0.1-0.3-0.2-0.4-0.2c-0.2,0-0.3,0-0.5,0.2l-2.4,2.2l-2-2.2l0,0c-0.2-0.3-0.6-0.3-0.9,0c0,0,0,0,0,0l-2,2l-1.2-2.1V11z"/>
	<path id="Path_18622" class="st1" d="M7,21.6h16.6c0.3,0,0.6-0.3,0.6-0.6c0-0.3-0.3-0.6-0.6-0.6c0,0,0,0,0,0H7
		c-0.3,0-0.6,0.3-0.6,0.6C6.3,21.3,6.6,21.6,7,21.6z"/>
	<path id="Path_18623" class="st1" d="M7,25.2h16.6c0.3,0,0.6-0.3,0.6-0.6c0-0.3-0.3-0.6-0.6-0.6c0,0,0,0,0,0H7
		c-0.3,0-0.6,0.3-0.6,0.6C6.3,24.9,6.6,25.2,7,25.2z"/>
	<path id="Path_18624" class="st1" d="M7,28.8h16.6c0.3,0,0.6-0.3,0.6-0.6c0-0.3-0.3-0.6-0.6-0.6c0,0,0,0,0,0H7
		c-0.3,0-0.6,0.3-0.6,0.6C6.3,28.5,6.6,28.8,7,28.8z"/>
	<path id="Path_18625" class="st1" d="M23.5,36.4h-0.7c-0.3,0-0.6,0.3-0.6,0.6c0,0.3,0.3,0.6,0.6,0.6h0.7c0.3,0,0.6-0.3,0.6-0.6
		C24.2,36.7,23.9,36.4,23.5,36.4z"/>
	<path id="Path_18626" class="st1" d="M20.4,36.4h-4.2c-0.3,0-0.6,0.3-0.6,0.6c0,0.3,0.3,0.6,0.6,0.6h4.2c0.3,0,0.6-0.3,0.6-0.6
		C21,36.7,20.7,36.4,20.4,36.4z"/>
	<g>
		<path class="st1" d="M6.1,31.2h5.6v0c-0.3,0.5-0.5,0.8-0.6,0.8H9.7c0.2,0.2,0.3,0.5,0.4,0.9h1.6c0,0,0,0,0,0
			c-0.4,0.5-0.5,0.8-0.6,0.8h-1c0,0.3-0.2,0.6-0.4,1c-0.3,0.4-0.6,0.7-0.9,0.8c-0.5,0.3-1.1,0.4-1.6,0.4v0c0,0,1.1,1.4,3.4,4H9.2
			C7,37.3,5.9,36,5.9,36v-0.8l0,0c0.2,0,0.4,0,0.7,0c1.2,0,2-0.4,2.3-1.2c0-0.1,0.1-0.2,0.1-0.4H5.6c0,0,0,0,0,0
			c0.4-0.5,0.6-0.8,0.6-0.8h2.7v0c-0.2-0.3-0.4-0.5-0.9-0.7C7.6,32,7.3,32,7.1,32H5.6v0C5.9,31.4,6.1,31.2,6.1,31.2z"/>
	</g>
</g>
<g>
	<circle class="st2" cx="8.7" cy="9.7" r="5.5"/>
	<path class="st1" d="M4.5,11.5c0.1-0.4,0.3-0.7,0.6-1c0.1-0.1,0.1-0.3,0.1-0.4c0-1,0.3-1.9,1-2.6c0.1-0.1,0.1-0.2,0.2-0.2
		c0.5-0.3,0.8-0.7,1.2-1.2c0.6-0.9,2-0.6,2.3,0.4c0,0.1,0.1,0.3,0.2,0.3C11.4,7.5,12,8.5,12,9.9c0,0.4,0.1,0.7,0.4,1
		c0.4,0.3,0.5,0.9,0.3,1.2c-0.2,0.5-0.6,0.8-1.1,0.8c-0.3,0-0.7,0-1,0c-0.2,0-0.3,0-0.4,0.2c-0.7,1.2-2.6,1.2-3.3,0
		c-0.1-0.1-0.2-0.2-0.3-0.2c-0.2,0-0.5,0-0.7,0c-0.9,0-1.2-0.2-1.5-1C4.5,11.7,4.5,11.6,4.5,11.5z M8.7,12c1,0,2,0,2.9,0
		c0.1,0,0.3-0.1,0.4-0.2c0.1-0.2,0-0.3-0.1-0.4c-0.1-0.1-0.2-0.2-0.3-0.3c-0.2-0.1-0.3-0.3-0.3-0.5c0-0.3,0-0.6,0-0.9
		c-0.1-1-0.6-1.8-1.6-2.2C9.4,7.3,9.2,7.2,9.2,6.9c0-0.3-0.3-0.5-0.6-0.5c-0.4,0-0.6,0.2-0.6,0.5c0,0.3-0.2,0.5-0.4,0.6
		C7,7.7,6.5,8.2,6.3,8.8c-0.1,0.5-0.2,0.9-0.2,1.4c0,0.4-0.1,0.7-0.4,0.9c0,0-0.1,0.1-0.1,0.1c-0.1,0.1-0.3,0.3-0.2,0.5
		C5.4,12,5.6,12,5.8,12C6.8,12,7.7,12,8.7,12z M7.8,12.8c0.4,0.4,1.2,0.4,1.5,0C8.9,12.8,8.4,12.8,7.8,12.8z"/>
</g>
</svg>
