<?xml version="1.0" encoding="utf-8"?>
<!-- Generator: Adobe Illustrator 26.2.0, SVG Export Plug-In . SVG Version: 6.00 Build 0)  -->
<svg version="1.1" id="Layer_1" xmlns="http://www.w3.org/2000/svg" xmlns:xlink="http://www.w3.org/1999/xlink" x="0px" y="0px"
	 viewBox="0 0 46.9 46" style="enable-background:new 0 0 46.9 46;" xml:space="preserve">
<style type="text/css">
	.st0{fill:none;}
	.st1{fill:none;stroke:#65C318;stroke-width:1.5;}
	.st2{opacity:0.465;enable-background:new    ;}
	.st3{fill:#85B557;}
	.st4{fill:#65C318;}
	.st5{fill:#FFFFFF;}
</style>
<g id="Ellipse_3" transform="translate(-0.177 0.108)">
	<circle class="st0" cx="23.6" cy="22.9" r="23"/>
	<circle class="st1" cx="23.6" cy="22.9" r="22.2"/>
</g>
<g id="FqfggS.tif">
	
		<image style="overflow:visible;" width="512" height="512" id="Layer_0_00000078764041075787958100000006936454004775560849_" xlink:href="E8AB68B2A8C0C1EB.png"  transform="matrix(1 0 0 1 -912.6481 -167.8267)">
	</image>
</g>
<g>
	<g class="st2">
		<path class="st3" d="M15.5,24.4V7c0,0,0.2-1.1,1.1-1.3c0.9-0.2,13.6,0,13.6,0s1.1,0.1,1.1,1s0,13.5,0,13.5L15.5,24.4z"/>
		<path class="st3" d="M31.4,21.6V39c0,0-0.2,1.1-1.1,1.3c-0.9,0.2-13.6,0-13.6,0s-1.1-0.1-1.1-1s0-13.5,0-13.5L31.4,21.6z"/>
	</g>
	<g>
		<path class="st4" d="M35,24.7c-0.1-0.1-0.2-0.1-0.3-0.2c-0.6-0.4-1.3-0.8-1.9-1.2c-0.4-0.2-0.4-0.6-0.2-0.9
			c0.2-0.3,0.5-0.5,0.8-0.4c0.2,0.1,0.3,0.1,0.5,0.2c1.6,0.8,3.2,1.6,4.8,2.3c1.4,0.6,2,1.7,2.1,3.1c0.2,2.5-1.5,4.5-4.1,4.6
			c-0.9,0.1-1.8,0-2.7,0c-1.3,0-2.6,0.1-3.9,0.1c-0.2,0-0.3,0-0.5,0c-0.5-0.1-0.8-0.4-0.7-0.9c0-0.5,0.3-0.8,0.8-0.8
			c1,0,2.1,0.1,3.1,0.1c0.1,0,0.2,0,0.3,0c0.1-0.1,0.3-0.2,0.4-0.3c-0.1-0.1-0.3-0.2-0.4-0.2c-1.6,0-3.1,0-4.7,0c-0.2,0-0.3,0-0.5,0
			c-0.5,0-0.8-0.3-0.7-0.8c0-0.5,0.2-0.7,0.8-0.7c1.6,0,3.2,0,4.8,0c0.1,0,0.2,0,0.3,0c0.1-0.1,0.3-0.2,0.4-0.2
			c-0.1-0.1-0.3-0.2-0.4-0.2c-1.1,0-2.2,0-3.3,0c-0.8,0-1.5,0-2.3,0c-0.2,0-0.4,0-0.5-0.1c-0.4-0.1-0.5-0.4-0.5-0.8
			c0-0.4,0.2-0.6,0.6-0.7c0.2-0.1,0.5-0.1,0.7-0.1c0.7,0,1.4,0,2.1,0c1,0,2,0.1,3,0.1c0.1,0,0.3,0,0.4,0c0.1,0,0.1-0.2,0.2-0.3
			c-0.1-0.1-0.2-0.2-0.3-0.2c-0.5,0-0.9,0-1.4,0c-1.2,0-2.5,0-3.7,0.1c-0.5,0-0.9-0.3-0.9-0.7c0-0.5,0.4-0.8,0.9-0.8
			c1.2,0,2.5,0,3.7,0.1c0.9,0,1.8,0,2.6,0c0.1,0,0.3-0.1,0.4-0.1C35,24.8,35,24.7,35,24.7z"/>
		<path class="st4" d="M12.7,13.6c1.4,0,2.7,0,4.1,0c0.2,0,0.3,0,0.5,0c0.5,0,0.8,0.4,0.8,0.8c0,0.5-0.4,0.8-0.8,0.8
			c-1.1,0-2.1,0-3.2-0.1c-0.1,0-0.3,0-0.4,0c-0.1,0-0.2,0.2-0.3,0.3c0.1,0.1,0.2,0.2,0.3,0.2c0.5,0,0.9,0,1.4,0c1.3,0,2.5,0,3.8,0
			c0.5,0,0.7,0.3,0.8,0.7c0,0.5-0.3,0.8-0.8,0.8c-1.3,0-2.5,0-3.8-0.1c-0.4,0-0.9,0-1.3,0c-0.1,0-0.2,0.2-0.4,0.2
			c0.1,0.1,0.2,0.2,0.4,0.2c0.6,0,1.1,0,1.7,0c1.4,0,2.8,0,4.2,0c0.6,0,0.9,0.4,0.8,1c-0.1,0.4-0.4,0.6-0.8,0.6c-1.4,0-2.9,0-4.3,0
			c-0.5,0-1,0-1.5,0c-0.1,0-0.3,0.2-0.4,0.3c0.1,0.1,0.3,0.2,0.4,0.2c0.6,0,1.3-0.1,1.9-0.1c1,0,1.9,0,2.9,0c0,0,0.1,0,0.1,0
			c0.6,0,1,0.3,1,0.8c0,0.5-0.4,0.8-1,0.8c-2,0-4-0.1-6-0.1c-0.2,0-0.5,0.1-0.7,0.2c0.2,0.1,0.3,0.3,0.5,0.4c0.5,0.3,1.1,0.7,1.6,1
			c0.4,0.2,0.5,0.5,0.3,0.9c-0.1,0.4-0.5,0.5-0.9,0.4c-0.2,0-0.3-0.1-0.5-0.2c-1.6-0.8-3.2-1.6-4.8-2.3c-1.2-0.6-1.8-1.5-2-2.8
			c-0.4-2.7,1.4-4.9,4.2-4.9C11.2,13.7,11.9,13.7,12.7,13.6C12.7,13.7,12.7,13.6,12.7,13.6z"/>
	</g>
	<g>
		<path class="st5" d="M22.8,8.8h6.2v0c-0.4,0.6-0.6,0.9-0.6,0.9h-1.6c0.2,0.3,0.4,0.6,0.5,1h1.8c0,0,0,0,0,0
			c-0.4,0.6-0.6,0.9-0.6,0.9h-1.1c0,0.3-0.2,0.7-0.4,1.1c-0.4,0.4-0.7,0.7-1,0.8C25.1,13.9,24.6,14,24,14v0c0,0,1.2,1.5,3.7,4.4
			h-1.6c-2.4-2.8-3.6-4.2-3.6-4.2v-0.9l0,0c0.2,0,0.5,0,0.7,0c1.3,0,2.2-0.4,2.5-1.3c0.1-0.1,0.1-0.3,0.1-0.4h-3.7c0,0,0,0,0,0
			c0.4-0.6,0.6-0.9,0.6-0.9h2.9v0c-0.2-0.3-0.5-0.6-1-0.8c-0.3-0.1-0.6-0.2-0.9-0.2h-1.6v0C22.6,9.1,22.8,8.8,22.8,8.8z"/>
	</g>
	<g>
		<path class="st5" d="M18.1,28.4h6.2v0c-0.4,0.6-0.6,0.9-0.6,0.9H22c0.2,0.3,0.4,0.6,0.5,1h1.8c0,0,0,0,0,0
			c-0.4,0.6-0.6,0.9-0.6,0.9h-1.1c0,0.3-0.2,0.7-0.4,1.1c-0.4,0.4-0.7,0.7-1,0.8c-0.6,0.3-1.2,0.4-1.7,0.4v0c0,0,1.2,1.5,3.7,4.4
			h-1.6c-2.4-2.8-3.6-4.2-3.6-4.2v-0.9l0,0c0.2,0,0.5,0,0.7,0c1.3,0,2.2-0.4,2.5-1.3c0.1-0.1,0.1-0.3,0.1-0.4h-3.7c0,0,0,0,0,0
			c0.4-0.6,0.6-0.9,0.6-0.9H21v0c-0.2-0.3-0.5-0.6-1-0.8c-0.3-0.1-0.6-0.2-0.9-0.2h-1.6v0C17.9,28.7,18.1,28.4,18.1,28.4z"/>
	</g>
</g>
</svg>
