<svg xmlns="http://www.w3.org/2000/svg" width="61.683" height="55.092" viewBox="0 0 61.683 55.092">
  <g id="Group_10939" data-name="Group 10939" transform="translate(0)">
    <g id="Rectangle_6000" data-name="Rectangle 6000" transform="translate(14.143 0) rotate(21)" fill="#c3f5ff" stroke="rgba(10,191,226,0.5)" stroke-width="0.5">
      <rect width="50.922" height="39.465" rx="8" stroke="none"/>
      <rect x="0.25" y="0.25" width="50.422" height="38.965" rx="7.75" fill="none"/>
    </g>
    <g id="Rectangle_5999" data-name="Rectangle 5999" transform="translate(4.173 6.819)" fill="#fff" stroke="#0abfe2" stroke-width="1.5">
      <rect width="51.549" height="40.302" rx="7" stroke="none"/>
      <rect x="0.75" y="0.75" width="50.049" height="38.802" rx="6.25" fill="none"/>
    </g>
    <path id="Path_18699" data-name="Path 18699" d="M59.734,44.582a.472.472,0,0,0,.472.472H74.327a.472.472,0,1,0,0-.945H60.2a.47.47,0,0,0-.47.472Z" transform="translate(-26.206 -23.446)" fill="#0abfe2" stroke="#0abfe2" stroke-width="1"/>
    <path id="Path_18700" data-name="Path 18700" d="M60.824,51.956H73.816a.472.472,0,0,0,0-.945l-12.992,0a.471.471,0,1,0,0,.942Z" transform="translate(-26.431 -25.955)" fill="#0abfe2" stroke="#0abfe2" stroke-width="1"/>
    <path id="Path_18701" data-name="Path 18701" d="M73.864,57.918H60.949a.472.472,0,1,0,0,.945H73.864a.472.472,0,0,0,0-.945Z" transform="translate(-26.476 -28.465)" fill="#0abfe2" stroke="#0abfe2" stroke-width="1"/>
    <path id="Path_18702" data-name="Path 18702" d="M69.449,64.82H60.577a.472.472,0,0,0,0,.945h8.872a.472.472,0,0,0,0-.945Z" transform="translate(-26.341 -30.974)" fill="#0abfe2" stroke="#0abfe2" stroke-width="1"/>
    <g id="Group_31" data-name="Group 31" transform="translate(9.777 17.601)">
      <path id="Path_18704" data-name="Path 18704" d="M14342.408-7050.069v8.063h8.488l-.349-2.663-1.485-2.419-2.12-2-2.937-1.135Z" transform="translate(-14331.044 7050.698)" fill="#0abfe2"/>
      <path id="Path_18703" data-name="Path 18703" d="M14310.036-7040.78l-.17,8.484h8.617l-.534,2.93-2.09,3.1-2.306,1.494-2.586.8h-2.588l-2.453-1.1-2.051-1.672-1.222-1.864-.845-1.374-.091-2.617.438-2.658,1.279-2.159,1.591-1.738,2.279-1.2Z" transform="translate(-14301.258 7043.788)" fill="#c3f5ff"/>
      <path id="np_pi-chart_1820790_000000" d="M21.537,15.078h-.4a8.737,8.737,0,1,0,8.737,8.737v-.4H21.537Zm7.5,9.139a7.925,7.925,0,1,1-8.308-8.308v8.308ZM23.815,12.4h-.4v9.139h9.112v-.4A8.716,8.716,0,0,0,23.815,12.4Zm.4,8.335v-7.5a7.942,7.942,0,0,1,7.5,7.5Z" transform="translate(-12.398 -12.398)" fill="#0abfe2"/>
    </g>
  </g>
</svg>
