<?xml version="1.0" encoding="utf-8"?>
<!-- Generator: Adobe Illustrator 26.2.0, SVG Export Plug-In . SVG Version: 6.00 Build 0)  -->
<svg version="1.1" id="Group_46515" xmlns="http://www.w3.org/2000/svg" xmlns:xlink="http://www.w3.org/1999/xlink" x="0px"
	 y="0px" viewBox="0 0 100.1 100.1" style="enable-background:new 0 0 100.1 100.1;" xml:space="preserve">
<style type="text/css">
	.st0{opacity:0.4;fill:#FAE2DA;enable-background:new    ;}
	.st1{fill:#EF7851;}
</style>
<circle id="Ellipse_10" class="st0" cx="50.1" cy="50.1" r="50.1"/>
<g>
	<path class="st1" d="M23.1,57.7c0.2-1.1,0.5-2.3,1.3-3.2c2.7-3.4,7.1-3.7,10.2-0.6c1.4,1.3,2.7,2.7,4,4c0.2,0.2,0.3,0.3,0.6,0.5
		c0.2-3.5,1.5-6.3,4.2-8.4c2-1.6,4.3-2.3,6.9-2.3c2.9,0.1,5.4,1.1,7.5,3.2c2,2,3.1,4.6,3.2,7.6c0.5-0.5,0.9-0.9,1.3-1.3
		c1.3-1.3,2.5-2.7,3.9-3.8c3.9-3.3,9.7-1.2,10.8,3.8c0.5,2.4-0.3,4.5-2,6.2c-4.4,4.4-8.7,8.7-13.1,13.1c-0.4,0.4-0.6,0.8-0.5,1.4
		c0,1.9,0,3.7,0,5.6c0.1,1.3-0.4,2.3-1.6,2.8c-6.4,0-12.8,0-19.2,0c-1.2-0.5-1.7-1.4-1.6-2.7c0.1-1.9,0-3.8,0-5.8
		c0-0.5-0.1-0.9-0.5-1.2c-4.1-4.1-8.1-8.2-12.3-12.2c-1.5-1.5-2.8-3-3.1-5.1C23.1,58.6,23.1,58.2,23.1,57.7z M57,81.9
		c0-1.8,0-3.6,0-5.3c0-1,0.3-1.7,1-2.4c4.6-4.6,9.2-9.2,13.8-13.7c0.2-0.2,0.5-0.5,0.7-0.7c0.6-0.8,0.6-1.7,0.2-2.5
		c-0.4-0.8-1.2-1.3-2.1-1.3c-0.8,0-1.5,0.4-2,1c-3.8,3.8-7.7,7.7-11.5,11.5c-0.6,0.6-1.3,0.9-2.3,0.9c-3.1,0-6.1,0-9.2,0
		c-1,0-1.7-0.3-2.4-1c-3.8-3.8-7.6-7.6-11.4-11.4c-0.2-0.2-0.4-0.4-0.6-0.6c-1.3-1-3.3-0.4-3.8,1.2c-0.3,1.1,0.1,1.9,0.9,2.7
		c4.6,4.6,9.1,9.1,13.7,13.7c0.8,0.8,1.2,1.7,1.1,2.8c-0.1,1.4,0,2.9,0,4.3c0,0.2,0,0.5,0,0.8C47.8,81.9,52.4,81.9,57,81.9z
		 M43.4,58.5c0,3.7,3,6.6,6.6,6.6c3.6,0,6.6-3,6.6-6.6c0-3.6-3-6.7-6.7-6.6C46.4,51.9,43.4,54.9,43.4,58.5z"/>
	<path class="st1" d="M39.2,43c0.3-2,0.6-3.9,1-5.7c0.2-0.9,0.4-1.8,0.5-2.7c0-0.3-0.1-0.7-0.3-1c-1.9-1.9-3.8-3.7-5.7-5.6
		c-1-1-1.1-2.3-0.1-3.2c0.3-0.3,0.8-0.5,1.3-0.6c2.6-0.4,5.2-0.8,7.8-1.1c0.5-0.1,0.8-0.3,1-0.8c1.1-2.4,2.3-4.7,3.5-7.1
		c0.8-1.5,2.5-1.8,3.5-0.6c0.2,0.3,0.4,0.6,0.5,0.9c1.1,2.3,2.3,4.5,3.4,6.8c0.2,0.4,0.5,0.6,0.9,0.7c2.6,0.4,5.2,0.8,7.8,1.1
		c0.9,0.1,1.6,0.6,1.9,1.5c0.3,0.9,0,1.7-0.7,2.3c-1.9,1.9-3.8,3.7-5.7,5.6c-0.3,0.3-0.4,0.5-0.3,1c0.5,2.7,0.9,5.3,1.4,8
		c0.2,0.9-0.1,1.6-0.8,2.2c-0.8,0.6-1.6,0.5-2.4,0.1c-2.3-1.2-4.7-2.4-7-3.7c-0.5-0.3-0.8-0.2-1.3,0c-2.3,1.2-4.6,2.4-6.9,3.6
		c-1.2,0.6-2.4,0.3-3-0.7C39.3,43.7,39.3,43.3,39.2,43z M40.5,27.8c0.2,0.2,0.4,0.4,0.5,0.6c1.1,1.1,2.1,2.1,3.2,3.1
		c0.7,0.6,0.9,1.3,0.8,2.2c-0.1,0.7-0.2,1.4-0.4,2.2c-0.2,1-0.3,2.1-0.5,3.2c1.2-0.6,2.3-1.2,3.3-1.7c2.7-1.4,2.5-1.5,5.2,0
		c1.1,0.6,2.1,1.1,3.3,1.8c-0.3-1.8-0.6-3.5-0.9-5.1c-0.2-1,0-1.8,0.8-2.5c1.1-1.1,2.2-2.1,3.3-3.2c0.1-0.1,0.3-0.3,0.4-0.5
		c-1.8-0.3-3.5-0.5-5.1-0.7c-1-0.1-1.6-0.6-2.1-1.5c-0.4-0.9-0.9-1.8-1.3-2.7c-0.3-0.6-0.6-1.3-1-2c-0.8,1.7-1.6,3.2-2.4,4.8
		c-0.4,0.9-1.1,1.3-2,1.4C44,27.3,42.3,27.6,40.5,27.8z"/>
</g>
</svg>
