<?xml version="1.0" encoding="utf-8"?>
<!-- Generator: Adobe Illustrator 26.2.0, SVG Export Plug-In . SVG Version: 6.00 Build 0)  -->
<svg version="1.1" id="icon" xmlns="http://www.w3.org/2000/svg" xmlns:xlink="http://www.w3.org/1999/xlink" x="0px" y="0px"
	 viewBox="0 0 100.1 100.1" style="enable-background:new 0 0 100.1 100.1;" xml:space="preserve">
<style type="text/css">
	.st0{opacity:0.4;fill:#D6EBE4;enable-background:new    ;}
	.st1{fill:#3BB5A3;}
</style>
<circle id="Ellipse_10" class="st0" cx="50.1" cy="50.1" r="50.1"/>
<path class="st1" d="M19.2,72.3c0.9-0.6,1.8-1.1,2.7-1.7c2-1.2,3.9-2.5,5.9-3.7c2.8-1.8,5.9-3,9.1-3.7c0.8-0.2,1.5-0.4,2.2-0.6
	c0.6-0.2,1.2,0.2,1.3,0.8c0.1,0.6-0.2,1.1-0.8,1.3c-0.1,0-0.2,0-0.2,0.1c-1.7,0.5-3.3,0.9-5,1.4c-2,0.6-3.9,1.5-5.6,2.6
	c-3.4,2.1-6.7,4.2-10.1,6.3c-0.7,0.4-1.4,0.2-1.7-0.5C17,74.4,17,74.2,17,74c0-2.5,0-4.9-0.1-7.4c0-5-0.1-10-0.1-15
	c0-0.6,0.2-0.9,0.7-1.2c0.9-0.5,1.8-1.1,2.7-1.7c0.2-0.1,0.3-0.3,0.4-0.5c0.5-2,1.1-4,1.6-5.9c0.7-2.5,2.1-4.4,4.2-5.8
	c2.9-1.8,5.9-3.7,8.8-5.5c1.9-1.2,4.3-1,5.8,0.5c0.8,0.8,1.3,1.7,1.4,3.3c0.1-0.1,0.2-0.1,0.3-0.2c2-1.2,4-2.5,6-3.7
	c2.1-1.3,4.7-0.6,5.7,1.6c0.1,0.3,0.2,0.7,0.3,1.1c0.4-0.3,0.8-0.5,1.2-0.8c1.2-0.8,2.6-1.3,4.1-1.5c1.4-0.2,2.7,0,4.1,0.3
	c1.7,0.3,3.4,0.7,5.1,1c0.2,0,0.4,0,0.5-0.1c3.8-2.4,7.6-4.7,11.3-7.1c0.2-0.1,0.4-0.2,0.6-0.3c0.7-0.2,1.3,0.3,1.3,1
	c0,1.2,0,2.3,0,3.5c0.1,6.4,0.1,12.9,0.2,19.3c0,0.5-0.2,0.9-0.6,1.2c-1.5,1.1-2.8,2.3-4,3.7c-2,2.4-4.4,4.3-7,6
	c-4.2,2.6-8.4,5.3-12.7,7.9c-1.7,1-3.7,0.8-5-0.5c-0.6-0.6-0.9-1.3-1-2.2c-0.6,0.4-1.2,0.8-1.8,1.1c-1,0.6-2,0.8-3.1,0.5
	c-1.5-0.4-2.4-1.4-2.7-2.9c0-0.1-0.1-0.3-0.1-0.5c-1,0.3-2,0.3-3-0.2c-0.7-0.3-1.2-0.8-1.6-1.5c-0.7-1.2-0.8-3,0.6-4.6
	c0,0-0.1-0.1-0.1-0.1c-2.4-1.7-2.3-4.9,0.2-6.5c2-1.2,3.9-2.5,5.9-3.7c0.1-0.1,0.3-0.2,0.4-0.3c-1.6-0.9-2.5-2.3-2.6-4.2
	c-0.9,0.6-1.8,1.2-2.7,1.7c-0.5,0.3-1,0.2-1.4-0.2c-0.3-0.4-0.4-1-0.1-1.4c0.1-0.2,0.3-0.3,0.5-0.4c3.4-2.2,6.9-4.3,10.3-6.5
	c0.7-0.4,1-1.1,0.9-1.8c-0.2-1.2-1.5-1.7-2.6-1c-1.2,0.8-2.5,1.5-3.7,2.3c-4.6,2.9-9.2,5.8-13.9,8.7c-0.3,0.2-0.3,0.3-0.2,0.6
	c0.6,2.5,0.2,4.8-1.6,6.7c-0.3,0.3-0.7,0.6-1.1,0.9c-0.5,0.3-1.1,0.2-1.4-0.2c-0.3-0.5-0.3-1.1,0.2-1.5c2.1-1.5,2.4-4,1.6-6.3
	c-0.1-0.3-0.1-0.7,0-1c0.1-0.2,0.3-0.4,0.5-0.5c2.9-1.8,5.9-3.7,8.8-5.5c1.3-0.8,1.6-2.5,0.6-3.7c-0.8-0.9-2.2-1.1-3.3-0.4
	c-1.1,0.7-2.3,1.4-3.4,2.1c-1.8,1.2-3.7,2.3-5.5,3.5c-1.7,1-2.8,2.5-3.3,4.4c-0.6,2.2-1.2,4.3-1.7,6.5c-0.1,0.4-0.3,0.8-0.7,1
	c-0.9,0.5-1.7,1.1-2.6,1.6C19.1,51.9,19,52,19,52.2c0,6.6,0.1,13.2,0.2,19.8C19.2,72.1,19.2,72.2,19.2,72.3z M81,27.8
	c-0.2,0.1-0.3,0.2-0.5,0.3c-3.3,2.1-6.7,4.2-10,6.3c-0.3,0.2-0.7,0.3-1,0.2c-2.1-0.4-4.2-0.8-6.3-1.2c-2.2-0.5-4.2-0.1-6.1,1.1
	c-2.8,1.8-5.7,3.6-8.6,5.4c-0.2,0.1-0.4,0.2-0.5,0.4c-0.7,0.7-1,1.5-0.8,2.5c0.2,0.9,0.9,1.5,1.8,1.7c0.7,0.2,1.3,0,1.9-0.3
	c2.5-1.6,4.9-3.1,7.4-4.6c0.2-0.2,0.6-0.3,0.9-0.2c0.4,0,0.8,0.4,0.9,0.8c0.1,0.5-0.1,0.9-0.6,1.2C54.4,44.5,49.2,47.7,44,51
	c-0.6,0.4-1.1,0.7-1.7,1.1c-0.8,0.6-1.1,1.6-0.5,2.4c0.5,0.8,1.5,1,2.4,0.4c2.4-1.5,4.7-3,7.1-4.5c1.1-0.7,2.3-1.4,3.4-2.1
	c0.4-0.3,0.8-0.3,1.2,0c0.4,0.3,0.5,0.6,0.4,1.1c-0.1,0.4-0.3,0.6-0.6,0.8c-3.1,1.9-6.2,3.9-9.2,5.8c-1.2,0.7-2.3,1.4-3.5,2.2
	c-0.6,0.4-0.9,1.1-0.7,1.8c0.2,0.7,0.7,1.1,1.4,1.2c0.5,0.1,0.9-0.1,1.4-0.4c2.7-1.7,5.4-3.4,8.1-5.1c1.5-0.9,3-1.9,4.5-2.8
	c0.4-0.3,0.9-0.3,1.3,0c0.4,0.3,0.5,0.7,0.4,1.1c-0.1,0.3-0.3,0.6-0.6,0.7c-2.2,1.4-4.5,2.8-6.8,4.3c-1.3,0.8-2.5,1.6-3.8,2.4
	c-0.6,0.4-0.9,1.1-0.8,1.8c0.2,0.7,0.7,1.2,1.5,1.2c0.5,0,0.9-0.1,1.3-0.4c3.5-2.2,6.9-4.3,10.4-6.5c0.6-0.4,1.3-0.3,1.6,0.3
	c0.3,0.5,0.2,1.2-0.4,1.5c-0.9,0.5-1.7,1.1-2.6,1.6c-1.1,0.7-2.2,1.3-3.2,2c-0.7,0.4-0.9,1.3-0.7,2c0.3,0.8,1,1.2,1.8,1
	c0.3-0.1,0.6-0.2,0.9-0.4C62,63,66,60.5,70,58c2.6-1.6,4.9-3.4,6.9-5.7c1.2-1.4,2.5-2.6,3.9-3.7c0.2-0.2,0.3-0.4,0.3-0.6
	C81.1,42,81,36,81,30C81,29.3,81,28.6,81,27.8z"/>
</svg>
