<svg xmlns="http://www.w3.org/2000/svg" width="55.84" height="55.84" viewBox="0 0 55.84 55.84">
  <g id="Group_46244" data-name="Group 46244" transform="translate(-911 -4428)">
    <path id="Path_19167" data-name="Path 19167" d="M54.381,40.948,40.8,31.9a1.741,1.741,0,0,0-2.7,1.469v18.1a1.75,1.75,0,0,0,2.7,1.469L54.381,43.89a1.759,1.759,0,0,0,0-2.941Z" transform="translate(893.826 4413.502)" fill="#fdc805"/>
    <path id="Path_19168" data-name="Path 19168" d="M30.42,2.5A27.92,27.92,0,1,0,58.34,30.42,27.946,27.946,0,0,0,30.42,2.5Zm0,51.491A23.571,23.571,0,1,1,53.991,30.42,23.606,23.606,0,0,1,30.42,53.991Z" transform="translate(908.5 4425.5)" fill="#fdc805"/>
  </g>
</svg>
