<svg xmlns="http://www.w3.org/2000/svg" width="109.16" height="109.16" viewBox="0 0 109.16 109.16">
  <g id="Group_46252" data-name="Group 46252" transform="translate(-911 -4428)">
    <path id="Path_19167" data-name="Path 19167" d="M69.93,49.869,43.385,32.176A3.4,3.4,0,0,0,38.1,35.049V70.441a3.422,3.422,0,0,0,5.287,2.873L69.93,55.62a3.439,3.439,0,0,0,0-5.75Z" transform="translate(913.806 4429.838)" fill="#fdc805"/>
    <path id="Path_19168" data-name="Path 19168" d="M57.08,2.5a54.58,54.58,0,1,0,54.58,54.58A54.631,54.631,0,0,0,57.08,2.5Zm0,100.659A46.079,46.079,0,1,1,103.159,57.08,46.147,46.147,0,0,1,57.08,103.159Z" transform="translate(908.5 4425.5)" fill="#fdc805"/>
  </g>
</svg>
