<?xml version="1.0" encoding="utf-8"?>
<!-- Generator: Adobe Illustrator 26.2.0, SVG Export Plug-In . SVG Version: 6.00 Build 0)  -->
<svg version="1.1" id="Layer_1" xmlns="http://www.w3.org/2000/svg" xmlns:xlink="http://www.w3.org/1999/xlink" x="0px" y="0px"
	 viewBox="0 0 46.7 42.2" style="enable-background:new 0 0 46.7 42.2;" xml:space="preserve">
<style type="text/css">
	.st0{opacity:0.408;fill:#CBFFED;enable-background:new    ;}
	.st1{fill:#029AAF;}
</style>
<path id="Path_29112" class="st0" d="M21.5,8.1c7.2,18.7,18.3,2.6,18.3,13.6s-8.9,19.9-19.9,19.9S0,32.6,0,21.7
	C0,10.7,14.4-10.6,21.5,8.1z"/>
<g>
	<path class="st1" d="M35.2,34.7c-7.9,0-15.7,0-23.6,0c0-0.3,0-0.6,0.1-0.9c0.1-1.5,0.2-3,0.6-4.5c0.1-0.5,0.4-1.1,0.6-1.6
		c0.2-0.4,0.5-0.6,0.9-0.8c1.7-0.7,3.5-1.4,5.2-2.1c0.1,0,0.2-0.1,0.3-0.2c0.4-0.3,0.7-0.6,1.1-0.9c0.4-0.3,0.9-0.3,1.3,0.1
		c0.5,0.5,1.1,1,1.6,1.6c0.1,0.1,0.1,0.1,0.2,0.2c0.6-0.6,1.1-1.2,1.7-1.7c0.5-0.5,0.9-0.5,1.4-0.1c0.8,0.7,1.7,1.2,2.6,1.6
		c1.3,0.5,2.6,1,3.9,1.6c0.4,0.2,0.7,0.4,0.9,0.8c0.4,0.7,0.6,1.5,0.7,2.3c0.2,1.4,0.3,2.7,0.4,4.1C35.1,34.3,35.1,34.5,35.2,34.7z"
		/>
	<path class="st1" d="M28,20.2c-0.7,1.5-1.7,2.7-3.4,3c-2.5,0.5-4.7-0.6-5.9-2.9c-0.3-0.6-0.5-1.3-0.7-2C18,18.1,17.9,18,17.8,18
		c-0.3,0-0.6,0-0.9,0c-0.6,0-1-0.5-1.1-1.1c0-0.9,0-1.8,0-2.7c0-0.3,0.2-0.6,0.4-0.8c0.1-0.1,0.1-0.1,0.1-0.2
		c0.4-2.7,2.6-4.9,5.4-5.5c2.5-0.5,4.8,0.1,6.7,1.9c1,0.9,1.6,2.1,1.8,3.5c0,0.1,0.1,0.2,0.2,0.3c0.2,0.2,0.4,0.5,0.4,0.9
		c0,0.9,0,1.7,0,2.6c0,0.6-0.4,1.1-1.1,1.1c-0.3,0-0.6,0-0.9,0c-0.1,0-0.2,0.1-0.3,0.1c-0.8,1.3-2,2-3.5,2.2c-0.2,0-0.3,0-0.4-0.1
		c-0.1-0.1-0.2-0.1-0.4-0.1c-0.3,0-0.6,0-0.9,0c-0.4,0-0.6,0.3-0.6,0.7c0,0.4,0.2,0.7,0.6,0.7c0.3,0,0.6,0,0.9,0
		c0.1,0,0.2-0.1,0.3-0.1c0.1-0.2,0.3-0.2,0.5-0.2c1-0.1,1.8-0.4,2.6-1C27.9,20.2,27.9,20.2,28,20.2z M28.7,13.4
		c0.4-0.2,0.4-0.2,0.3-0.6c-0.2-0.7-0.5-1.3-1-1.9c-1.6-1.9-4.3-2.6-6.7-1.7c-1.7,0.6-2.9,1.8-3.4,3.6c-0.1,0.4-0.1,0.4,0.3,0.6
		c0-0.1,0.1-0.1,0.1-0.2c0.5-1.3,1.4-2.2,2.6-2.7c1.4-0.6,2.8-0.7,4.2-0.3C26.7,10.5,28,11.5,28.7,13.4
		C28.6,13.3,28.6,13.3,28.7,13.4z"/>
	<path class="st1" d="M14.6,23.4c-1,2.4-3.8,2.6-5.2,1c-0.6-0.6-1-1.4-1.1-2.2C8.2,22,8.1,22,7.9,22c-0.2,0-0.3,0-0.5,0
		c-0.4,0-0.6-0.3-0.7-0.7c0-0.6,0-1.2,0-1.8c0-0.1,0.1-0.3,0.2-0.4c0.1-0.1,0.2-0.3,0.2-0.4c0.4-1.8,1.6-2.9,3.4-3.3
		c1.9-0.4,3.5,0.1,4.7,1.6c0.4,0.5,0.7,1.1,0.8,1.8c0,0.1,0.1,0.2,0.1,0.3c0.1,0.2,0.2,0.4,0.2,0.6c0,0.5,0,1.1,0,1.6
		c0,0.5-0.3,0.8-0.8,0.8c-0.5,0-0.7,0.1-1,0.5c-0.5,0.7-1.2,0.9-2,1c0,0-0.1,0-0.1,0c-0.2-0.2-0.5-0.2-0.8-0.2
		c-0.3,0-0.5,0.2-0.5,0.5c0,0.2,0.2,0.5,0.5,0.5c0.3,0,0.6,0.1,0.8-0.2c0,0,0.1,0,0.1,0C13.3,24,14,23.8,14.6,23.4z M15.2,18.9
		c-0.1-0.5-0.3-1-0.7-1.4c-1.1-1.2-2.4-1.6-3.9-1.3c-1.3,0.3-2.3,1.1-2.7,2.4c-0.1,0.2,0,0.3,0.2,0.3c0-0.1,0-0.1,0.1-0.2
		c0.3-0.9,1-1.4,1.8-1.7c0.7-0.3,1.4-0.3,2.1-0.2c1.3,0.2,2.3,0.8,2.8,2.1c0,0,0,0,0.1,0.1C15.1,18.9,15.1,18.9,15.2,18.9z"/>
	<path class="st1" d="M38.1,23.4c-1,2.4-3.7,2.5-5.2,1.1c-0.7-0.6-1-1.4-1.2-2.3c0-0.1-0.1-0.2-0.2-0.2c-0.2,0-0.4,0-0.5,0
		c-0.4,0-0.7-0.3-0.7-0.7c0-0.6,0-1.2,0-1.8c0-0.1,0.1-0.3,0.1-0.4c0.2-0.2,0.2-0.4,0.3-0.6c0.4-1.7,1.5-2.7,3.1-3.1
		c1.9-0.5,3.9,0.1,5,1.6c0.4,0.5,0.7,1.1,0.8,1.8c0,0.1,0,0.2,0.1,0.2c0.2,0.2,0.3,0.4,0.3,0.7c0,0.5,0,1,0,1.5
		c0,0.5-0.3,0.8-0.8,0.8c-0.4,0-0.7,0.1-1,0.5c-0.5,0.7-1.2,1-2,1.1c0,0-0.1,0-0.1,0c-0.2-0.2-0.5-0.2-0.8-0.2
		c-0.3,0-0.5,0.2-0.5,0.5c0,0.3,0.2,0.5,0.4,0.5c0.3,0,0.6,0.1,0.8-0.2c0,0,0.1,0,0.1,0C36.9,24,37.5,23.8,38.1,23.4z M38.5,19
		c0.2,0,0.2-0.2,0.2-0.3c-0.1-0.5-0.4-1-0.8-1.4c-1.5-1.6-4.2-1.6-5.6,0c-0.4,0.5-0.7,1-0.8,1.6c0.1,0,0.1,0.1,0.2,0.1
		c0.9-1.6,1.7-2.2,3.4-2.2C36.7,16.8,37.9,17.4,38.5,19z"/>
	<path class="st1" d="M10.9,32.7c-2.3,0-4.6,0-6.9,0C4,32.5,4,32.2,4,32c0.1-1,0.2-2,0.4-3c0.1-0.2,0.1-0.4,0.2-0.6
		c0.1-0.3,0.4-0.5,0.7-0.7c1-0.4,1.9-0.8,2.9-1.2C8.7,26.5,9,26.3,9.2,26c0.1-0.1,0.2-0.2,0.4-0.3c0.3-0.3,0.6-0.2,0.9,0
		c0.4,0.4,0.7,0.7,1.1,1.1c0.2-0.2,0.5-0.5,0.7-0.7c0.1-0.1,0.2-0.2,0.3-0.3c0.5-0.6,0.8-0.5,1.4,0.1c-0.2,0.1-0.3,0.1-0.5,0.2
		c-0.6,0.2-1.1,0.6-1.4,1.2c-0.4,0.8-0.7,1.7-0.8,2.5c-0.1,0.9-0.2,1.7-0.3,2.6C10.9,32.6,10.9,32.6,10.9,32.7z"/>
	<path class="st1" d="M42.7,32.7c-2.3,0-4.6,0-6.9,0c-0.1-0.6-0.1-1.2-0.2-1.7c-0.1-1-0.3-2.1-0.7-3.1c-0.1-0.3-0.3-0.5-0.4-0.8
		c-0.3-0.4-0.6-0.7-1.1-0.9c-0.2-0.1-0.4-0.1-0.6-0.2c0.2-0.1,0.3-0.3,0.5-0.4c0.2-0.1,0.5-0.1,0.7,0.1c0.4,0.4,0.7,0.8,1.1,1.2
		c0.4-0.4,0.7-0.7,1-1c0.4-0.4,0.6-0.4,1.1,0c0.4,0.4,0.9,0.7,1.5,0.9c0.9,0.3,1.7,0.7,2.6,1c0.4,0.1,0.7,0.4,0.8,0.8
		c0.2,0.6,0.4,1.2,0.4,1.8C42.6,31.1,42.7,31.9,42.7,32.7z"/>
</g>
</svg>
