<?xml version="1.0" encoding="utf-8"?>
<!-- Generator: Adobe Illustrator 26.2.0, SVG Export Plug-In . SVG Version: 6.00 Build 0)  -->
<svg version="1.1" id="Layer_1" xmlns="http://www.w3.org/2000/svg" xmlns:xlink="http://www.w3.org/1999/xlink" x="0px" y="0px"
	 viewBox="0 0 67 68.9" style="enable-background:new 0 0 67 68.9;" xml:space="preserve">
<style type="text/css">
	.st0{opacity:0.408;fill:#CBFFED;enable-background:new    ;}
	.st1{fill:#6D6BAF;}
</style>
<g id="Group_46494" transform="translate(-293.694 -6467.098)">
	<path id="Path_29112" class="st0" d="M329.9,6479.6c12.1,31.5,30.8,4.4,30.8,22.9c0,18.5-15,33.5-33.5,33.5s-33.5-15-33.5-33.5
		C293.7,6484,317.9,6448.1,329.9,6479.6z"/>
</g>
<g>
	<path class="st1" d="M25,58.1c0.9,2.4-0.7,3.3-2.3,4.1c-0.9,0.5-1.7,1-2.6,1.5c-1.4,0.7-2.5,0.4-3.3-0.8c-2.6-4.5-5.2-9-7.7-13.6
		c-0.8-1.4-0.4-2.5,1-3.4c0.8-0.5,1.7-1,2.6-1.5c2.8-1.6,3.1-1.5,5.2,0.9c1.1-0.8,2.1-1.5,3.2-2.3c2.5-1.8,5.2-2.2,8.1-1.3
		c3.2,1,6.5,1.7,9.9,1.2c2.6-0.4,3.5,0.1,5.5,1.5c0.6-0.7,1.1-1.5,1.8-2.1c1.1-1.2,2.2-2.5,3.6-3.3c1-0.6,2.5-0.8,3.7-0.6
		c1.7,0.2,2.3,1.4,1.8,3c-0.3,1.2-0.8,2.3-1.4,3.3c-2.7,4.6-6,8.6-10.4,11.7c-1.7,1.2-3.5,1.8-5.6,1.7c-3.6-0.1-7.3,0-10.9,0
		C26.5,58.1,25.9,58.1,25,58.1z M31.1,48.7c2,0,3.9,0.1,5.7,0c1.1,0,2.3-0.1,3.2-0.5c0.9-0.4,1.6-1.3,2.4-2c-1-0.3-2.1-1.1-3.1-0.9
		c-3.8,0.6-7.4-0.1-11-1.3c-2.1-0.7-4.1-0.4-5.8,1c-0.9,0.7-1.7,1.4-2.6,2c-0.7,0.5-0.8,1-0.3,1.7c1.2,1.9,2.3,3.9,3.4,5.9
		c0.5,0.9,1.1,1.1,2,1.1c4.2,0,8.4-0.1,12.6,0c2.1,0.1,3.8-0.6,5.4-1.9c3.8-3.1,6.9-6.8,9.3-11.1c0.3-0.6,0.5-1.3,0.8-2
		c-0.1-0.2-0.2-0.3-0.4-0.5c-0.9,0.5-1.9,0.8-2.5,1.4c-1.2,1.2-2.3,2.6-3.4,3.9c-1.7,2.1-3.3,4.3-6.1,4.8c-3.1,0.5-6.3,0.6-9.5,0.8
		C31.1,50.2,31.1,49.6,31.1,48.7z M11.3,48.1c2.6,4.6,5.1,9,7.7,13.5c1.4-0.8,2.5-1.4,3.8-2.2c-2.6-4.6-5.1-9-7.7-13.5
		C13.8,46.6,12.6,47.3,11.3,48.1z"/>
	<path class="st1" d="M55.5,36.5c-0.7-0.3-1.3-0.5-2.1-0.9c3-5.9,3.4-12,0.4-18c-1.9-3.9-5-6.8-8.9-8.7c-8-3.8-17.4-1.5-22.9,5.5
		c-5.1,6.5-6,16.5,1.2,24.8c-0.8,0.4-1.5,0.7-2.2,1C14.7,34,13,21.6,20.4,12.5c7.1-8.7,20-10.3,29.2-3.6
		C59.7,16.4,60,29.2,55.5,36.5z"/>
	<path class="st1" d="M18.3,54.6c0.7,0.9,1.3,1.4,1.7,2c0.5,0.9,1.7,2,0.4,2.9c-1.5,0.9-1.9-0.7-2.5-1.6c-0.3-0.5-0.7-1-0.7-1.6
		C17.3,55.9,17.8,55.4,18.3,54.6z"/>
	<g>
		<path class="st1" d="M31.1,15.6h13.8v0c-0.8,1.2-1.3,1.9-1.4,2h-3.7c0.5,0.6,0.8,1.3,1,2.2h3.9c0,0,0.1,0,0.1,0.1
			c-0.9,1.3-1.3,2-1.3,2h-2.5c-0.1,0.7-0.4,1.5-1,2.4c-0.8,1-1.5,1.6-2.2,1.9c-1.3,0.6-2.6,1-3.8,1v0c0,0.1,2.8,3.4,8.3,9.8h-3.6
			c-5.4-6.3-8.1-9.4-8.1-9.4v-1.9l0-0.1c0.5,0.1,1,0.1,1.7,0.1c3,0,4.9-1,5.6-2.9c0.1-0.3,0.2-0.6,0.2-0.9h-8.2c0,0-0.1,0-0.1-0.1
			c0.9-1.3,1.4-2,1.4-2h6.5v0c-0.4-0.8-1.1-1.3-2.2-1.8c-0.8-0.2-1.4-0.4-2.1-0.4h-3.6v-0.1C30.6,16.3,31,15.6,31.1,15.6z"/>
	</g>
</g>
</svg>
