<?xml version="1.0" encoding="utf-8"?>
<!-- Generator: Adobe Illustrator 26.2.0, SVG Export Plug-In . SVG Version: 6.00 Build 0)  -->
<svg version="1.1" id="Layer_1" xmlns="http://www.w3.org/2000/svg" xmlns:xlink="http://www.w3.org/1999/xlink" x="0px" y="0px"
	 viewBox="0 0 67 68.9" style="enable-background:new 0 0 67 68.9;" xml:space="preserve">
<style type="text/css">
	.st0{opacity:0.408;fill:#CBFFED;enable-background:new    ;}
	.st1{fill:#FFFFFF;}
	.st2{fill:#05429B;}
</style>
<g id="Group_46240" transform="translate(-0.001 3.866)">
	<path id="Path_18876" class="st0" d="M36.2,8.6C48.3,40.1,67,13,67,31.5C67,50,52,65,33.5,65S0,50,0,31.5C0,13,24.2-22.9,36.2,8.6z
		"/>
</g>
<g>
	<path d="M54.6,28.2c1.3,0,2.6,0,3.8,0c0.7,0,1.5-0.1,2.2-0.1c0.5,0,0.9,0.2,0.9,0.8c-0.1,4,0.3,7.9-0.3,11.9
		c-1,5.8-3.5,10.8-8.1,14.6c-1.6,1.3-3.4,2.2-5.5,2.5c-1,0.1-2.1-0.1-3-0.4c-3.3-1-5.8-3.2-7.7-6c-1.1-1.5-1.9-3.2-2.8-4.9
		c-0.3-0.5-0.5-0.7-1-0.7c-7.9,0-15.9,0-23.8,0c-2.7,0-4.1-1.4-4.1-4.1c0-8.8,0-17.5,0-26.3c0-2.8,1.5-4.3,4.3-4.3
		c13.6,0,27.1,0,40.7,0c2.7,0,4.2,1.6,4.2,4.2c0,4,0,7.9,0,11.9C54.6,27.5,54.6,27.7,54.6,28.2z M32.9,42.2c-2.4,0-4.7,0-7,0
		c-4.7,0-9.3,0-14,0c-0.5,0-1.1-0.3-1.5-0.7c-0.8-0.7-0.7-3.9,0-4.8c0.5-0.6,1.1-0.8,1.9-0.8c6.4,0,12.8,0,19.2,0c0.3,0,0.6,0,0.9,0
		c0-2.3,0-4.5,0-6.8c0-0.9,0.3-1.2,1.2-1.1c0.7,0,1.4,0.1,2,0.1c3.6,0.2,7.1-0.4,10.4-2c0.7-0.4,1.3-0.4,2,0
		c1.6,0.8,3.2,1.3,5.1,1.6c0-0.3,0-0.6,0-0.8c0-3.8,0-7.7,0-11.5c0-1.9-0.9-2.8-2.8-2.8c-5.5,0-11,0-16.5,0c-8.1,0-16.2,0-24.3,0
		c-1.6,0-2.5,0.9-2.6,2.4c0,9,0,18.1,0,27.1c0,1.2,0.8,2,2,2c2,0,4,0,6,0c4.7,0,9.5,0,14.2,0c1.4,0,2.8,0,4.3,0
		C33.2,43.5,33.1,42.9,32.9,42.2z M59.9,29.7c-0.2,0-0.3,0-0.5,0c-4.2,0.3-8.3-0.3-12.1-2.1c-0.2-0.1-0.5-0.1-0.7,0
		c-3.8,1.7-7.8,2.4-12,2c-0.2,0-0.4,0-0.7,0c0,2.7-0.1,5.3,0,8c0.2,5,1.8,9.5,4.8,13.4c2,2.5,4.4,4.4,7.6,5.1c0.4,0.1,0.8,0.1,1.2,0
		c2.1-0.4,4-1.4,5.6-2.9c3.8-3.5,6-7.9,6.6-13c0.4-3.4,0.2-6.9,0.3-10.3C60,29.9,60,29.8,59.9,29.7z M32.3,37.5c-0.3,0-0.6,0-0.9,0
		c-6,0-11.9,0-17.9,0c-2.4,0-2.1-0.4-2.1,2.1c0,0.9,0,1,1,1c6.5,0,12.9,0,19.4,0c0.2,0,0.5,0,0.7,0C32.5,39.6,32.4,38.6,32.3,37.5z"
		/>
	<path class="st1" d="M32.9,42.2c0.2,0.7,0.4,1.3,0.6,2c-1.5,0-2.9,0-4.3,0c-4.7,0-9.5,0-14.2,0c-2,0-4,0-6,0c-1.2,0-2-0.8-2-2
		c0-9,0-18.1,0-27.1c0-1.5,1-2.4,2.6-2.4c8.1,0,16.2,0,24.3,0c5.5,0,11,0,16.5,0c1.9,0,2.8,0.9,2.8,2.8c0,3.8,0,7.7,0,11.5
		c0,0.3,0,0.5,0,0.8c-1.8-0.3-3.5-0.8-5.1-1.6c-0.7-0.4-1.3-0.3-2,0c-3.3,1.6-6.8,2.2-10.4,2c-0.7,0-1.4-0.1-2-0.1
		c-0.9-0.1-1.2,0.2-1.2,1.1c0,2.2,0,4.5,0,6.8c-0.3,0-0.6,0-0.9,0c-6.4,0-12.8,0-19.2,0c-0.7,0-1.4,0.2-1.9,0.8
		c-0.7,0.8-0.7,4,0,4.8c0.4,0.4,1,0.7,1.5,0.7c4.7,0,9.3,0,14,0C28.2,42.2,30.5,42.2,32.9,42.2z M12.4,16.6c-0.4,0-0.7,0-1,0
		c-1,0.1-1.6,0.7-1.7,1.7c0,1.2,0,2.5,0,3.7c0,0.9,0.7,1.6,1.6,1.6c1.3,0.1,2.6,0.1,3.9,0c0.9,0,1.5-0.7,1.5-1.6
		c0-0.2,0-0.5,0.1-0.7c0.3,0,0.6,0,0.9,0c1.1,0,1.8-0.7,1.8-1.8c0-1.2,0-2.3,0-3.5c0-0.8-0.4-1.5-1.1-1.6c-1.6-0.1-3.3-0.1-4.9,0
		c-0.6,0-0.9,0.7-1,1.3C12.4,16,12.4,16.3,12.4,16.6z M36.8,17C36.8,17,36.8,17,36.8,17c3.4,0,6.8,0,10.2,0c0.2,0,0.4,0,0.6,0
		c0.5-0.1,0.8-0.4,0.7-0.8c-0.1-0.3-0.4-0.5-0.7-0.7c-0.1-0.1-0.3,0-0.5,0c-6.8,0-13.5,0-20.3,0c-0.2,0-0.5-0.1-0.7,0
		c-0.3,0.2-0.6,0.5-0.6,0.7c0,0.3,0.3,0.6,0.6,0.8c0.2,0.1,0.5,0,0.7,0C30.1,17,33.5,17,36.8,17z M36.9,24.3
		C36.9,24.3,36.9,24.3,36.9,24.3c3.4,0,6.8,0,10.2,0c0.2,0,0.3,0,0.5,0c0.5-0.1,0.8-0.4,0.7-0.8c-0.1-0.3-0.4-0.5-0.7-0.7
		c-0.1-0.1-0.4,0-0.6,0c-6.8,0-13.6,0-20.4,0c-0.2,0-0.4-0.1-0.5,0c-0.3,0.2-0.6,0.5-0.6,0.7c0,0.3,0.3,0.6,0.6,0.8
		c0.2,0.1,0.5,0,0.7,0C30.2,24.3,33.6,24.3,36.9,24.3z M36.8,20.7c3.4,0,6.7,0,10.1,0c0.2,0,0.5,0.1,0.7,0c0.3-0.2,0.6-0.5,0.6-0.8
		c0-0.3-0.4-0.5-0.7-0.7c-0.1-0.1-0.3,0-0.5,0c-6.8,0-13.6,0-20.4,0c-0.2,0-0.4-0.1-0.6,0c-0.3,0.2-0.6,0.5-0.6,0.7
		c0,0.3,0.3,0.6,0.5,0.8c0.2,0.1,0.5,0.1,0.8,0.1C30.1,20.7,33.5,20.7,36.8,20.7z M24.8,29.6C24.8,29.6,24.8,29.6,24.8,29.6
		c0.5,0,1.1,0.1,1.6,0c0.3,0,0.6-0.3,0.7-0.6c0.1-0.4-0.2-0.6-0.7-0.6c-1.1,0-2.2,0-3.3,0c-0.4,0-0.8,0.2-0.7,0.6
		c0.1,0.2,0.4,0.5,0.7,0.6C23.8,29.6,24.3,29.6,24.8,29.6z M18.9,28.4C18.9,28.4,18.9,28.4,18.9,28.4c-0.6,0-1.1-0.1-1.7,0
		c-0.2,0-0.4,0.4-0.6,0.6c0.2,0.2,0.4,0.6,0.6,0.6c1.1,0.1,2.2,0,3.4,0c0.4,0,0.7-0.2,0.7-0.6c0-0.5-0.3-0.6-0.7-0.6
		C20,28.4,19.4,28.4,18.9,28.4z M13,29.6C13,29.6,13,29.6,13,29.6c0.6,0,1.1,0,1.7,0c0.4,0,0.7-0.2,0.7-0.6c0-0.2-0.4-0.6-0.6-0.6
		c-1.1-0.1-2.2-0.1-3.4,0c-0.2,0-0.4,0.4-0.7,0.6c0.2,0.2,0.4,0.6,0.7,0.6C11.9,29.6,12.4,29.6,13,29.6z"/>
	<path class="st1" d="M59.9,29.7c0.1,0.1,0.1,0.2,0.1,0.2c-0.1,3.4,0.1,6.9-0.3,10.3c-0.6,5.1-2.8,9.5-6.6,13
		c-1.6,1.5-3.4,2.5-5.6,2.9c-0.4,0.1-0.8,0.1-1.2,0c-3.2-0.7-5.6-2.6-7.6-5.1c-3.1-3.9-4.7-8.4-4.8-13.4c-0.1-2.6,0-5.2,0-8
		c0.2,0,0.5,0,0.7,0c4.2,0.3,8.2-0.3,12-2c0.2-0.1,0.5-0.1,0.7,0c3.9,1.8,7.9,2.4,12.1,2.1C59.6,29.7,59.8,29.7,59.9,29.7z
		 M40.6,38.3c-1.7,0.3-2.2,0.9-2.2,2.6c0,2.2,0,4.3,0,6.5c0,2.4,1.5,3.9,4,3.9c3,0,6,0,9,0c2.4,0,3.9-1.5,3.9-3.9c0-2.1,0-4.2,0-6.3
		c0-1.9-0.4-2.4-2.3-2.8c0.1-1.8-0.4-3.5-1.6-4.9c-1.3-1.4-2.9-2.1-4.8-2C43.1,31.5,41.1,33.8,40.6,38.3z"/>
	<path class="st1" d="M32.3,37.5c0.1,1.1,0.2,2,0.3,3.1c-0.3,0-0.5,0-0.7,0c-6.5,0-12.9,0-19.4,0c-1,0-1,0-1-1
		c0-2.5-0.3-2.1,2.1-2.1c6,0,11.9,0,17.9,0C31.7,37.5,32,37.5,32.3,37.5z"/>
	<path d="M12.4,16.6c0-0.4,0-0.6,0.1-0.9c0.1-0.6,0.5-1.2,1-1.3c1.6-0.1,3.3-0.1,4.9,0c0.7,0.1,1.1,0.8,1.1,1.6c0,1.2,0,2.3,0,3.5
		c0,1-0.8,1.7-1.8,1.8c-0.3,0-0.6,0-0.9,0c0,0.3,0,0.5-0.1,0.7c-0.1,0.9-0.7,1.5-1.5,1.6c-1.3,0.1-2.6,0.1-3.9,0
		c-0.9,0-1.5-0.7-1.6-1.6c0-1.2,0-2.5,0-3.7c0-0.9,0.7-1.6,1.7-1.7C11.7,16.6,12,16.6,12.4,16.6z M14,17.8c0,0.5,0,0.9,0,1.4
		c0,0.4,0.1,0.6,0.5,0.6c1,0,1.9,0,2.9,0c0.4,0,0.5-0.1,0.5-0.5c0-1,0-2,0-2.9c0-0.2-0.3-0.4-0.5-0.5c-1,0-1.9,0-2.9,0
		c-0.2,0-0.5,0.3-0.5,0.5C14,16.9,14,17.4,14,17.8z M15.1,21.3c-2.5,0.3-2.8-1.2-2.7-3.1c-0.4,0-0.8,0-1.2,0c0,1.2,0,2.3,0,3.5
		c0,0.1,0.3,0.4,0.5,0.4c0.9,0,1.9,0,2.8,0C15.1,22.1,15.3,21.9,15.1,21.3z"/>
	<path d="M36.8,17c-3.4,0-6.7,0-10.1,0c-0.2,0-0.5,0.1-0.7,0c-0.3-0.2-0.6-0.5-0.6-0.8c0-0.2,0.4-0.5,0.6-0.7c0.2-0.1,0.5,0,0.7,0
		c6.8,0,13.5,0,20.3,0c0.2,0,0.4-0.1,0.5,0c0.3,0.2,0.6,0.5,0.7,0.7c0.1,0.4-0.2,0.7-0.7,0.8c-0.2,0-0.4,0-0.6,0
		C43.6,17,40.2,17,36.8,17C36.8,17,36.8,17,36.8,17z"/>
	<path d="M36.9,24.3c-3.4,0-6.7,0-10.1,0c-0.2,0-0.5,0.1-0.7,0c-0.3-0.2-0.6-0.5-0.6-0.8c0-0.2,0.4-0.5,0.6-0.7c0.1-0.1,0.4,0,0.5,0
		c6.8,0,13.6,0,20.4,0c0.2,0,0.4-0.1,0.6,0c0.3,0.2,0.6,0.4,0.7,0.7c0.1,0.4-0.2,0.7-0.7,0.8c-0.2,0-0.3,0-0.5,0
		C43.7,24.3,40.3,24.3,36.9,24.3C36.9,24.3,36.9,24.3,36.9,24.3z"/>
	<path d="M36.8,20.7c-3.3,0-6.7,0-10,0c-0.3,0-0.6,0.1-0.8-0.1c-0.3-0.2-0.6-0.5-0.5-0.8c0-0.3,0.4-0.5,0.6-0.7c0.1-0.1,0.4,0,0.6,0
		c6.8,0,13.6,0,20.4,0c0.2,0,0.4-0.1,0.5,0c0.3,0.2,0.7,0.5,0.7,0.7c0,0.3-0.4,0.6-0.6,0.8c-0.2,0.1-0.5,0-0.7,0
		C43.6,20.7,40.2,20.7,36.8,20.7z"/>
	<path d="M24.8,29.6c-0.5,0-1.1,0.1-1.6,0c-0.3,0-0.6-0.3-0.7-0.6c-0.1-0.4,0.2-0.6,0.7-0.6c1.1,0,2.2,0,3.3,0
		c0.4,0,0.8,0.2,0.7,0.6c-0.1,0.2-0.4,0.5-0.7,0.6C25.9,29.6,25.4,29.6,24.8,29.6C24.8,29.6,24.8,29.6,24.8,29.6z"/>
	<path d="M18.9,28.4c0.5,0,1.1,0,1.6,0c0.4,0,0.7,0.1,0.7,0.6c0,0.4-0.3,0.6-0.7,0.6c-1.1,0-2.2,0-3.4,0c-0.2,0-0.4-0.4-0.6-0.6
		c0.2-0.2,0.4-0.5,0.6-0.6C17.8,28.3,18.4,28.4,18.9,28.4C18.9,28.4,18.9,28.4,18.9,28.4z"/>
	<path d="M13,29.6c-0.5,0-1.1,0.1-1.6,0c-0.3,0-0.5-0.4-0.7-0.6c0.2-0.2,0.4-0.5,0.7-0.6c1.1-0.1,2.2-0.1,3.4,0
		c0.2,0,0.6,0.3,0.6,0.6c0.1,0.4-0.3,0.6-0.7,0.6C14.1,29.6,13.5,29.6,13,29.6C13,29.6,13,29.6,13,29.6z"/>
	<path class="st2" d="M40.6,38.3c0.5-4.5,2.5-6.8,6-6.9c1.9-0.1,3.5,0.6,4.8,2c1.3,1.4,1.7,3.1,1.6,4.9c1.9,0.4,2.3,0.9,2.3,2.8
		c0,2.1,0,4.2,0,6.3c0,2.4-1.6,3.9-3.9,3.9c-3,0-6,0-9,0c-2.4,0-4-1.5-4-3.9c0-2.2,0-4.3,0-6.5C38.4,39.2,38.9,38.6,40.6,38.3z
		 M46.8,39.9c-2,0-4,0-6,0c-0.7,0-0.9,0.2-0.9,0.9c0,2.2,0,4.4,0,6.6c0,1.5,0.8,2.3,2.4,2.3c3,0,6,0,9.1,0c1.5,0,2.3-0.8,2.3-2.3
		c0-2.2,0-4.4,0-6.6c0-0.7-0.2-0.9-0.9-0.9C50.8,40,48.8,39.9,46.8,39.9z M51.3,38.3c0.4-1.7-0.4-3.6-1.9-4.6c-1.5-1-3.6-1-5.1,0
		c-1.5,1-2.4,2.9-2,4.6C45.3,38.3,48.3,38.3,51.3,38.3z"/>
	<path class="st1" d="M14,17.8c0-0.5,0-1,0-1.5c0-0.2,0.3-0.5,0.5-0.5c1,0,1.9,0,2.9,0c0.2,0,0.5,0.3,0.5,0.5c0,1,0,2,0,2.9
		c0,0.4-0.2,0.5-0.5,0.5c-1,0-1.9,0-2.9,0c-0.4,0-0.5-0.2-0.5-0.6C14,18.8,14,18.3,14,17.8z"/>
	<path class="st1" d="M15.1,21.3c0.2,0.6,0,0.8-0.5,0.8c-0.9,0-1.9,0-2.8,0c-0.2,0-0.5-0.2-0.5-0.4c0-1.1,0-2.3,0-3.5
		c0.4,0,0.7,0,1.2,0C12.3,20.2,12.6,21.7,15.1,21.3z"/>
	<path class="st1" d="M46.8,39.9c2,0,4,0,6,0c0.7,0,0.9,0.2,0.9,0.9c0,2.2,0,4.4,0,6.6c0,1.5-0.8,2.3-2.3,2.3c-3,0-6,0-9.1,0
		c-1.5,0-2.4-0.8-2.4-2.3c0-2.2,0-4.4,0-6.6c0-0.6,0.2-0.9,0.9-0.9C42.8,40,44.8,39.9,46.8,39.9z M49.2,43.4c0-1.3-0.7-2.2-1.7-2.5
		c-1-0.3-2.1,0.1-2.7,0.9c-0.6,0.9-0.6,2,0,2.9c0.2,0.2,0.2,0.5,0.3,0.8c0,0.4,0,0.8,0,1.3c0,0.6,0.3,1.1,0.9,1.4
		c1.1,0.6,2.4-0.2,2.4-1.4c0-0.9,0-1.7,0.5-2.5C49.2,44,49.2,43.6,49.2,43.4z"/>
	<path class="st1" d="M51.3,38.3c-3,0-6,0-9,0c-0.4-1.7,0.5-3.6,2-4.6c1.5-1,3.6-1,5.1,0C50.9,34.7,51.7,36.6,51.3,38.3z"/>
	<path class="st2" d="M49.2,43.4c0,0.1,0,0.6-0.2,0.8c-0.6,0.8-0.5,1.6-0.5,2.5c-0.1,1.3-1.3,2-2.4,1.4c-0.6-0.3-0.9-0.8-0.9-1.4
		c0-0.4,0-0.8,0-1.3c0-0.3-0.1-0.5-0.3-0.8c-0.6-0.9-0.7-2,0-2.9c0.6-0.9,1.7-1.2,2.7-0.9C48.6,41.2,49.2,42.1,49.2,43.4z
		 M46.7,46.3C46.8,46.3,46.8,46.3,46.7,46.3c0.1-0.1,0.1-0.2,0.1-0.3c0-0.9-0.1-1.7,0.7-2.4c0.4-0.3,0.2-0.8-0.2-1.1
		c-0.4-0.3-0.8-0.2-1.1,0.1c-0.3,0.3-0.4,0.8,0,1.1c0.6,0.5,0.6,1,0.5,1.6C46.7,45.7,46.7,46,46.7,46.3z"/>
	<path class="st1" d="M46.7,46.3c0-0.3,0-0.6,0-0.9c0-0.6,0-1.2-0.5-1.6c-0.4-0.3-0.3-0.8,0-1.1c0.3-0.3,0.7-0.4,1.1-0.1
		c0.4,0.3,0.6,0.8,0.2,1.1c-0.8,0.7-0.7,1.5-0.7,2.4C46.9,46.1,46.8,46.2,46.7,46.3C46.8,46.3,46.8,46.3,46.7,46.3z"/>
</g>
</svg>
