<?xml version="1.0" encoding="utf-8"?>
<!-- Generator: Adobe Illustrator 26.2.0, SVG Export Plug-In . SVG Version: 6.00 Build 0)  -->
<svg version="1.1" id="Layer_1" xmlns="http://www.w3.org/2000/svg" xmlns:xlink="http://www.w3.org/1999/xlink" x="0px" y="0px"
	 viewBox="0 0 67 68.9" style="enable-background:new 0 0 67 68.9;" xml:space="preserve">
<style type="text/css">
	.st0{opacity:0.408;fill:#CBFFED;enable-background:new    ;}
	.st1{fill:#463BC6;}
</style>
<g id="Group_46240" transform="translate(-0.001 3.866)">
	<path id="Path_18876" class="st0" d="M36.2,8.6C48.3,40.1,67,13,67,31.5C67,50,52,65,33.5,65S0,50,0,31.5C0,13,24.2-22.9,36.2,8.6z
		"/>
</g>
<g>
	<path class="st1" d="M30.2,22.3c-0.9-1.5-1.7-2.9-2.6-4.3c-0.3-0.5-0.3-0.8,0.1-1.2c1.4-1.4,3-2.4,5.1-2.1c0.2,0,0.4-0.2,0.6-0.4
		c0.5-0.6,0.8-1.2,1.3-1.7c1-1,2-1,2.9,0.1c0.4,0.5,0.8,1,1.1,1.5c0.2,0.4,0.5,0.5,0.9,0.4c1.9-0.4,3.4,0.1,4.5,1.7
		c0.5,0.6,0.6,1.2,0.2,1.9c-0.6,1.2-1.1,2.4-1.7,3.6c-0.2,0.5-0.2,0.7,0.2,1c1.7,1.3,3.2,2.9,4.6,4.6c-0.4,0.4-0.8,0.7-1.2,1.1
		c-0.4-0.4-0.8-1-1.3-1.4c-1.2-1.1-2.4-2.2-3.6-3.3c-0.2-0.2-0.6-0.3-0.9-0.3c-2.8,0-5.6,0-8.5,0c-0.2,0-0.5,0-0.7,0.2
		c-3.1,2.1-5.5,5-7.5,8.2c0.2,0.1,0.4,0.1,0.5,0.2c0.2,0.3,0.4,0.6,0.4,0.9c0,0.2-0.4,0.6-0.7,0.6c-1.5,0.1-3,0-4.5,0
		c-0.5,0-0.8-0.4-0.8-0.8c0-0.5,0.3-0.8,0.8-0.8c0.5,0,1,0,1.5,0c0.5,0,0.7-0.1,1-0.6c2-3.2,4.3-6.2,7.4-8.5
		C29.6,22.7,29.9,22.5,30.2,22.3z M29.4,17.6c0.8,1.3,1.5,2.5,2.3,3.8c0.1,0.2,0.4,0.3,0.7,0.3c2.6,0,5.3,0,7.9,0
		c0.2,0,0.6-0.2,0.7-0.5c0.5-1,1-2,1.5-3c0.5-1,0.3-1.5-0.7-1.8c-0.5-0.2-1-0.2-1.5-0.2c-0.7,0.1-1.4,0.4-2.2,0.7
		c-0.4-1.2-0.9-2.4-2-3.3c-1.1,0.9-1.5,2.1-2.1,3.3C31.6,16.1,30.6,16.2,29.4,17.6z"/>
	<path class="st1" d="M19.4,46.8c0.3,3.4,1.4,6.2,4.2,8.2c0.4,0.2,0.9,0.3,1.3,0.3c7.3,0,14.6,0,22,0c0.6,0,1.2-0.3,1.7-0.6
		c2.5-1.9,3.6-4.6,3.9-7.7c0.1-0.9,0.1-1.8,0.2-2.7c0.5,0,1,0,1.6,0c0,2.5-0.3,4.9-1.2,7.2c-0.8,1.8-1.9,3.3-3.5,4.6
		c-0.8,0.6-1.7,0.9-2.7,0.9c-7.3,0-14.5,0-21.8,0c-1.2,0-2.2-0.4-3.1-1.1c-2.5-2.1-3.8-4.9-4.2-8.1c-0.1-1-0.1-1-1.1-1
		c-2.3,0-4.6,0-6.9,0c-0.2,0-0.4,0-0.6,0c-0.5,0-0.7-0.3-0.8-0.8c0-0.5,0.2-0.8,0.7-0.9c0.1,0,0.3,0,0.4,0c4.1,0,8.2,0,12.3,0
		c0.1,0,0.2,0,0.3,0c0.5,0.1,0.8,0.3,0.8,0.8c0,0.5-0.3,0.8-0.8,0.8C21.2,46.8,20.3,46.8,19.4,46.8z"/>
	<path class="st1" d="M52.8,26.2c0-0.4,0-0.8,0-1.2c-0.4,0-0.8,0-1.3-0.1c0-0.4,0-0.8,0-1.2c1.2,0,2.5,0,3.8,0c0,0.4,0,0.8,0,1.2
		c-0.4,0-0.7,0.1-1.1,0.1c0,0.4,0,0.8,0,1.2c2.9,0.4,5.1,1.7,6.7,4.2c1.1,1.8,1.5,3.8,1.1,5.9c-0.7,4.2-4.5,7.2-8.8,7.1
		c-4.2-0.1-7.8-3.4-8.3-7.7C44.5,31.5,47.3,26.8,52.8,26.2z M53.5,28.1c-3.7,0-6.8,2.9-6.8,6.6c0,3.7,2.9,6.7,6.6,6.8
		c3.7,0.1,6.7-2.9,6.8-6.5C60.2,31.2,57.3,28.1,53.5,28.1z"/>
	<path class="st1" d="M14.8,40.2c-2.9,0-5.7,0-8.6,0c-0.2,0-0.5,0.1-0.7-0.1c-0.3-0.2-0.6-0.5-0.6-0.7c0-0.3,0.3-0.6,0.5-0.8
		c0.1-0.1,0.4-0.1,0.7-0.1c5.8,0,11.6,0,17.3,0c0.2,0,0.5-0.1,0.6,0.1c0.3,0.2,0.6,0.6,0.6,0.9c0,0.2-0.4,0.5-0.7,0.7
		c-0.1,0.1-0.4,0-0.6,0C20.5,40.2,17.7,40.2,14.8,40.2z"/>
	<path class="st1" d="M11.4,33.7c-0.8,0-1.5,0-2.3,0c-0.6,0-1-0.2-1-0.8c0-0.6,0.4-0.8,1-0.9c1.6,0,3.2,0,4.7,0c0.6,0,1,0.2,1,0.8
		c0,0.6-0.4,0.8-1,0.9C13,33.7,12.2,33.7,11.4,33.7z"/>
	<path class="st1" d="M54.1,29.7c0,1.2,0,2.3,0,3.4c0,0.3,0.1,0.6,0.3,0.9c0.4,0.6,0.4,1.3-0.1,1.8c-0.5,0.4-1.2,0.4-1.7,0
		c-0.5-0.5-0.5-1.1-0.1-1.8c0.2-0.2,0.3-0.5,0.3-0.8c0-0.8,0-1.7,0-2.5C52.8,29.5,52.9,29.5,54.1,29.7z"/>
	<g>
		<path class="st1" d="M30.4,31.2h12.5v0c-0.7,1.1-1.2,1.7-1.2,1.8h-3.3c0.5,0.5,0.8,1.2,0.9,2h3.6c0,0,0.1,0,0.1,0.1
			c-0.8,1.2-1.2,1.8-1.2,1.8h-2.3c-0.1,0.6-0.3,1.4-0.9,2.2c-0.7,0.9-1.4,1.4-2,1.7c-1.2,0.6-2.4,0.9-3.5,0.9v0
			c0,0.1,2.5,3.1,7.5,8.9h-3.3c-4.9-5.7-7.3-8.6-7.3-8.6v-1.7l0-0.1c0.4,0.1,0.9,0.1,1.5,0.1c2.7,0,4.4-0.9,5.1-2.7
			c0.1-0.3,0.2-0.5,0.2-0.8h-7.4c0,0-0.1,0-0.1-0.1c0.8-1.2,1.2-1.8,1.3-1.8h5.9v0c-0.3-0.7-1-1.2-2-1.6C33.6,33.1,33,33,32.4,33
			h-3.3V33C29.9,31.8,30.4,31.2,30.4,31.2z"/>
	</g>
</g>
</svg>
