<?xml version="1.0" encoding="utf-8"?>
<!-- Generator: Adobe Illustrator 26.2.0, SVG Export Plug-In . SVG Version: 6.00 Build 0)  -->
<svg version="1.1" id="Layer_1" xmlns="http://www.w3.org/2000/svg" xmlns:xlink="http://www.w3.org/1999/xlink" x="0px" y="0px"
	 viewBox="0 0 67 68.9" style="enable-background:new 0 0 67 68.9;" xml:space="preserve">
<style type="text/css">
	.st0{opacity:0.408;fill:#CBFFED;enable-background:new    ;}
	.st1{fill:#6D6BAF;}
</style>
<g id="Group_46493" transform="translate(-293.694 -6467.098)">
	<path id="Path_29112" class="st0" d="M329.9,6479.6c12.1,31.5,30.8,4.4,30.8,22.9c0,18.5-15,33.5-33.5,33.5s-33.5-15-33.5-33.5
		C293.7,6484,317.9,6448.1,329.9,6479.6z"/>
	<g>
		<path class="st1" d="M329.6,6530.5c-1.9-0.3-3.1-1.6-4.4-2.9c-0.1-0.1-0.3-0.3-0.4-0.4c0,0-0.1,0-0.1-0.1c-1.7,1-3.5,1.2-5.4,0.2
			c-1.8-1-2.7-2.5-2.9-4.6c-1.4-0.1-2.6-0.6-3.6-1.6c-1-1-1.5-2.2-1.6-3.7c-1.6-0.1-3-0.7-3.9-2c-1.3-1.6-1.6-3.5-0.9-5.4
			c0.1-0.4,0.1-0.6-0.2-0.8c-2.4-2.4-4.9-4.8-7.3-7.2c-0.9-0.9-0.9-1.8,0-2.8c5.3-5.3,10.6-10.7,15.9-16c0.9-0.9,1.8-0.9,2.7,0
			c1.2,1.2,2.5,2.5,3.7,3.7c0.2,0.2,0.4,0.3,0.6,0.4c1.4,0.1,2.5,0.8,3.6,1.7c0.2,0.2,0.5,0.5,0.7,0.6c1.1-0.5,2-1,3.1-1.4
			c1.6-0.6,3.4-0.7,5.1-0.6c0.4,0,0.6-0.1,0.8-0.3c1.2-1.2,2.4-2.4,3.6-3.7c0.9-0.9,1.9-0.9,2.8,0c4.7,4.7,9.4,9.4,14,14.2
			c0.3,0.3,0.5,0.7,0.7,1c0,0.2,0,0.5,0,0.7c-0.4,0.5-0.7,1-1.1,1.4c-3.2,3.3-6.5,6.5-9.7,9.8c-0.1,0.1-0.3,0.3-0.4,0.4
			c2.7,3.7,0.3,8.7-4,8.9c-0.4,3.1-2.1,4.9-5.2,5.3c-0.3,1.9-0.8,3-1.9,3.9c-0.8,0.7-1.8,1.1-2.8,1.3
			C330.5,6530.5,330.1,6530.5,329.6,6530.5z M327,6524.7c0.7,0.7,1.3,1.2,1.8,1.8c0.9,0.9,2,1,2.8,0.2c0.9-0.8,0.9-2,0.1-2.9
			c-0.6-0.8-0.7-1.8,0-2.4c0.7-0.7,1.6-0.7,2.4,0c1,0.8,2,0.8,2.8,0c0.8-0.8,0.8-1.9,0-2.9c-0.2-0.3-0.4-0.6-0.5-0.9
			c-0.1-0.7,0.2-1.4,0.8-1.8c0.7-0.4,1.4-0.3,2.1,0.3c0.9,0.8,2,0.7,2.7,0c0.8-0.8,0.8-2,0-2.9c-0.5-0.5-0.9-1-1.4-1.5
			c-2.8-2.7-5.5-5.5-8.3-8.2c-0.6-0.6-1.2-1.3-1.8-2c-0.7,0.7-1.2,1.3-1.8,1.9c-2.6,2.4-6.6,2-8.7-0.9c-1.7-2.3-1.5-5.4,0.6-7.6
			c0.9-1,1.9-1.8,3-2.8c-0.5-0.4-0.9-0.8-1.3-1c-0.4-0.3-0.8-0.3-1.2,0.1c-4.6,4.6-9.2,9.3-13.7,13.9c-0.1,0.1-0.2,0.3-0.4,0.4
			c0.6,0.5,1.1,1,1.6,1.6c0.7-0.7,1.3-1.3,1.9-1.9c3-2.8,7.9-1.4,8.9,2.6c0.1,0.4,0.1,0.8,0.2,1.1c3.1,0.4,4.8,2.2,5.2,5.2
			c0.5,0.1,0.9,0.1,1.3,0.3c3.8,1.1,5.1,5.8,2.5,8.7C328.3,6523.6,327.6,6524.1,327,6524.7z M342.4,6508.6c1.7-1.6,3.3-3.2,4.9-4.7
			c-0.1-0.1-0.1-0.1-0.2-0.2c-4.1-4.1-8.2-8.3-12.3-12.4c-0.2-0.2-0.4-0.3-0.6-0.3c-2.7-0.3-5.1,0.3-7,2.2c-1.3,1.3-2.6,2.6-3.9,3.9
			c-1,1-1,2.6,0,3.6c1,1,2.4,0.9,3.5-0.1c0.8-0.8,1.7-1.7,2.5-2.5c0.9-0.9,1.8-0.9,2.8,0c2.1,2.1,4.2,4.2,6.3,6.3
			C339.7,6505.8,341.1,6507.3,342.4,6508.6z M304.5,6502.7c4.6-4.5,9.3-9.1,13.9-13.6c-0.8-0.8-1.6-1.6-2.2-2.2
			c-4.6,4.5-9.3,9.1-13.9,13.6C303.2,6501.3,303.9,6502.1,304.5,6502.7z M352.1,6499.1c-4.1-4-8.1-7.9-12.1-11.8
			c-0.7,0.7-1.5,1.4-2.3,2.3c4,3.9,8.1,7.9,12.1,11.8C350.5,6500.7,351.2,6499.9,352.1,6499.1z M309.2,6511.9c0,0,0.1,0.1,0.1,0.1
			c0,0.8,0.4,1.5,1.1,1.8c0.7,0.4,1.5,0.3,2.1-0.2c1.1-1.1,2.2-2.2,3.3-3.3c0.7-0.8,0.6-2.1-0.2-2.8c-0.8-0.7-1.9-0.7-2.7,0.1
			c-1,1-2,1.9-2.9,2.9C309.7,6510.9,309.5,6511.4,309.2,6511.9z M319.7,6522.4c0,0,0.1,0.1,0.1,0.1c0,0.8,0.4,1.5,1.1,1.8
			c0.7,0.4,1.5,0.3,2.1-0.3c1.1-1.1,2.2-2.1,3.2-3.3c0.7-0.8,0.6-2.1-0.2-2.8c-0.8-0.7-1.9-0.7-2.7,0.1c-1,1-2,1.9-2.9,2.9
			C320.1,6521.4,319.9,6522,319.7,6522.4z M314.5,6517.2c0.1,0.9,0.6,1.6,1.3,2c0.8,0.3,1.5,0.2,2.1-0.4c1.1-1,2.1-2.1,3.1-3.1
			c0.8-0.8,0.7-2-0.1-2.8c-0.8-0.8-2-0.8-2.8,0c-1,1-2,2-2.9,3C314.9,6516.2,314.7,6516.7,314.5,6517.2z"/>
		<path class="st1" d="M327,6480.7c1.4-2.5,2.8-4.8,4.2-7.2c0.4-0.8,1.1-1.1,1.9-0.9c1.2,0.3,1.7,1.5,1.1,2.6
			c-1.2,2.1-2.4,4.1-3.6,6.2c-0.6,1.1-1.3,2.3-2,3.4c-0.8,1.4-2.3,1.4-3.1,0c-0.9-1.5-1.8-3.1-2.7-4.6c-0.5-1-0.3-2,0.5-2.5
			c0.9-0.5,1.8-0.2,2.4,0.8C326.1,6479.2,326.5,6479.9,327,6480.7z"/>
	</g>
</g>
</svg>
