<?xml version="1.0" encoding="utf-8"?>
<!-- Generator: Adobe Illustrator 26.2.0, SVG Export Plug-In . SVG Version: 6.00 Build 0)  -->
<svg version="1.1" id="Layer_1" xmlns="http://www.w3.org/2000/svg" xmlns:xlink="http://www.w3.org/1999/xlink" x="0px" y="0px"
	 viewBox="0 0 67 68.9" style="enable-background:new 0 0 67 68.9;" xml:space="preserve">
<style type="text/css">
	.st0{opacity:0.408;fill:#CBFFED;enable-background:new    ;}
	.st1{fill:#FFFFFF;}
	.st2{fill:#E7E5FF;}
	.st3{fill:#382BB2;}
</style>
<g id="Group_46240" transform="translate(-0.001 3.866)">
	<path id="Path_18876" class="st0" d="M36.2,8.6C48.3,40.1,67,13,67,31.5C67,50,52,65,33.5,65S0,50,0,31.5C0,13,24.2-22.9,36.2,8.6z
		"/>
</g>
<circle class="st1" cx="46.4" cy="40.4" r="9.1"/>
<path d="M57.4,47.5c1,1,1.9,1.8,2.8,2.7c1.3,1.3,1.3,3.1,0.1,4.3c-1.2,1.2-3.1,1.1-4.3-0.1c-1.6-1.5-3.1-3.1-4.6-4.7
	c-0.3-0.3-0.5-0.3-0.8-0.2c-3.4,1.4-6.6,1.1-9.7-0.8c-0.3-0.2-0.6-0.2-1.1-0.3c0.5,2,1,3.8,1.5,5.6c1.2,0,2.5,0,3.7,0
	c2.4,0,4.2,1.5,4.6,3.9c0.2,1.1-0.2,1.5-1.3,1.5c-10.4,0-20.8,0-31.1,0c-1,0-1.3-0.3-1.3-1.3c0.1-2.1,2-4,4.1-4.1c1.4,0,2.7,0,4.1,0
	c0.2,0,0.5-0.2,0.5-0.3c0.5-1.6,0.9-3.3,1.4-4.9c0-0.1,0-0.2,0-0.3c-0.2,0-0.5,0-0.7,0c-5.2,0-10.3,0-15.5,0c-2.1,0-3.5-1.2-3.9-3.1
	c0-0.2-0.1-0.5-0.1-0.7c0-10.4,0-20.9,0-31.3c0-2.2,1.6-3.9,3.9-3.9c15.3,0,30.7,0,46,0c2.2,0,3.9,1.6,3.9,3.8c0,10.1,0,20.2,0,30.3
	C59.6,45.2,58.8,46.5,57.4,47.5z M11.2,14.9c0,8.1,0,16.2,0,24.3c0.6,0,1.3,0,1.9,0c7.6,0,15.2,0,22.8,0c0.5,0,0.6-0.1,0.7-0.6
	c0.2-1.5,0.8-2.9,1.7-4.2c3.1-4.4,9.4-5.6,13.8-2.6c0.8,0.5,1.4,1.2,2.1,1.7c0-6.2,0-12.4,0-18.7C39.8,14.9,25.5,14.9,11.2,14.9z
	 M55.3,45.3c0.1,0.1,0.2,0.2,0.3,0.3c0.5,0.5,0.6,0.5,1.2,0c0.6-0.6,0.9-1.3,0.9-2.1c0-10,0-20.1,0-30.1c0-1.3-0.8-2-2.1-2
	c-15.3,0-30.5,0-45.8,0c-1.4,0-2.1,0.8-2.1,2.1c0,10.3,0,20.7,0,31c0,1.4,0.8,2.1,2.1,2.1c9.4,0,18.7,0,28.1,0c0.2,0,0.3,0,0.6,0
	c-1.3-1.7-2-3.5-2.2-5.5c-0.3,0-0.5,0-0.8,0c-8.3,0-16.6,0-25,0c-1.1,0-1.3-0.3-1.3-1.3c0-8.5,0-16.9,0-25.4c0-1.1,0.2-1.3,1.3-1.3
	c14.7,0,29.4,0,44.2,0c1.1,0,1.4,0.3,1.4,1.4c0,7.4,0,14.8,0,22.3c0,0.2,0,0.5,0,0.7C56.9,40.1,56.6,42.8,55.3,45.3z M54.7,40.3
	c0-4.6-3.6-8.2-8.2-8.3c-4.6,0-8.3,3.7-8.3,8.2c0,4.5,3.8,8.3,8.3,8.3C51,48.5,54.7,44.9,54.7,40.3z M39.3,54
	c-0.5-1.7-0.9-3.4-1.4-5c-0.1-0.4-0.3-0.5-0.7-0.5c-3,0-5.9,0-8.9,0c-0.1,0-0.2,0-0.4,0c-0.5,1.8-1,3.6-1.5,5.5c1,0,1.8,0,2.7,0
	c0.6,0,0.9,0.4,0.9,0.9c0,0.5-0.4,0.9-1,0.9c-0.1,0-0.3,0-0.4,0c-2.8,0-5.5,0-8.3,0c-1.2,0-2.3,0.8-2.4,1.6c9.8,0,19.6,0,29.4,0
	c-0.6-1.1-1.4-1.6-2.5-1.6c-3.1,0-6.1,0-9.2,0c-0.7,0-1.2-0.4-1.2-1c0-0.6,0.4-0.9,1.2-0.9C36.9,54,38.1,54,39.3,54z M54.2,46.9
	c-0.5,0.5-1,1-1.6,1.5c1.6,1.6,3.2,3.3,4.8,4.8c0.4,0.4,1.1,0.4,1.5,0c0.4-0.4,0.5-1.1,0-1.5C57.4,50.1,55.8,48.5,54.2,46.9z"/>
<path class="st2" d="M11.2,14.9c14.4,0,28.7,0,43,0c0,6.3,0,12.5,0,18.7c-0.7-0.6-1.4-1.2-2.1-1.7c-4.5-3-10.8-1.9-13.8,2.6
	c-0.9,1.3-1.5,2.6-1.7,4.2c-0.1,0.5-0.2,0.6-0.7,0.6c-7.6,0-15.2,0-22.8,0c-0.6,0-1.2,0-1.9,0C11.2,31.1,11.2,23,11.2,14.9z
	 M17,25.5c0.9,0.9,1.8,1.8,2.7,2.7c0.6,0.6,1.1,0.6,1.7,0c1.3-1.2,2.6-2.5,3.8-3.7c1.1-1.1,2.2-2.2,3.3-3.3c2.1,2.1,4.2,4.1,6.2,6.1
	c0.7,0.7,1.1,0.7,1.8,0c0.9-0.9,1.8-1.8,2.7-2.7c0.7,0.7,1.3,1.3,1.9,1.9c0.6,0.6,1.1,0.6,1.7,0c1.3-1.3,2.6-2.6,4-4
	c0.4-0.4,0.9-0.9,1.4-1.4c0,0.5,0,0.7,0,1c0,0.8,0.3,1.2,0.9,1.2c0.6,0,1-0.4,1-1.2c0-1,0-1.9,0-2.9c0-0.8-0.4-1.2-1.2-1.2
	c-1.1,0-2.2,0-3.3,0c-0.6,0-1.1,0.4-1,1c0,0.5,0.4,0.9,1,0.9c0.3,0,0.7,0,1,0c-1.6,1.6-3.1,3.1-4.7,4.7c-0.5-0.5-1.1-1.1-1.6-1.7
	c-0.8-0.8-1.2-0.8-1.9,0c-0.9,0.9-1.7,1.8-2.6,2.7c-2.2-2.2-4.3-4.2-6.3-6.3c-0.5-0.5-1-0.5-1.5,0c-2,2.1-4.1,4.1-6.1,6.2
	c-0.4,0.4-0.7,0.8-1.1,1.2c-1-1-1.9-2-2.9-2.9c-0.5-0.5-1-0.5-1.5,0c-0.8,0.8-1.7,1.6-2.5,2.5c-0.5,0.5-0.5,1.1-0.1,1.5
	c0.4,0.4,0.9,0.4,1.5-0.1C15.7,26.9,16.4,26.2,17,25.5z M24.9,32.6c3.5,0,7.1,0,10.6,0c0.8,0,1.2-0.3,1.2-0.9c0-0.6-0.4-1-1.2-1
	c-7.1,0-14.3,0-21.4,0c-0.7,0-1.1,0.4-1.1,0.9c0,0.6,0.4,1,1.2,1C17.8,32.6,21.4,32.6,24.9,32.6z M23.8,36.3
	C23.8,36.3,23.8,36.3,23.8,36.3c1.2,0,2.5,0,3.7,0c2,0,4,0,6,0c0.6,0,1-0.4,1-0.9c0-0.5-0.4-0.9-1-0.9c-1.1,0-2.3,0-3.4,0
	c-2.4,0-4.8,0-7.2,0c-3,0-5.9,0-8.9,0c-0.5,0-0.9,0.4-1,0.9c0,0.5,0.4,0.9,0.9,0.9c0.6,0,1.2,0,1.8,0C18.5,36.3,21.2,36.3,23.8,36.3
	z"/>
<path class="st1" d="M55.3,45.3c1.3-2.5,1.7-5.1,0.9-7.9c-0.1-0.2,0-0.5,0-0.7c0-7.4,0-14.8,0-22.3c0-1.1-0.3-1.4-1.4-1.4
	c-14.7,0-29.4,0-44.2,0c-1.1,0-1.3,0.2-1.3,1.3c0,8.5,0,16.9,0,25.4c0,1.1,0.3,1.3,1.3,1.3c8.3,0,16.6,0,25,0c0.2,0,0.5,0,0.8,0
	c0.2,2,0.9,3.8,2.2,5.5c-0.3,0-0.4,0-0.6,0c-9.4,0-18.7,0-28.1,0c-1.4,0-2.1-0.8-2.1-2.1c0-10.3,0-20.7,0-31c0-1.4,0.8-2.1,2.1-2.1
	c15.3,0,30.5,0,45.8,0c1.3,0,2.1,0.7,2.1,2c0,10,0,20.1,0,30.1c0,0.8-0.3,1.6-0.9,2.1c-0.6,0.5-0.6,0.5-1.2,0
	C55.5,45.5,55.4,45.4,55.3,45.3z"/>
<path class="st1" d="M39.3,54c-1.2,0-2.4,0-3.5,0c-0.7,0-1.1,0.3-1.2,0.9c0,0.6,0.4,1,1.2,1c3.1,0,6.1,0,9.2,0c1.2,0,2,0.5,2.5,1.6
	c-9.9,0-19.6,0-29.4,0c0.1-0.9,1.2-1.6,2.4-1.6c2.8,0,5.5,0,8.3,0c0.1,0,0.3,0,0.4,0c0.6,0,0.9-0.4,1-0.9c0-0.5-0.4-0.9-0.9-0.9
	c-0.9,0-1.7,0-2.7,0c0.5-1.9,1-3.6,1.5-5.5c0.1,0,0.3,0,0.4,0c3,0,5.9,0,8.9,0c0.4,0,0.6,0.1,0.7,0.5C38.4,50.6,38.8,52.2,39.3,54z"
	/>
<path class="st1" d="M54.2,46.9c1.6,1.6,3.2,3.2,4.8,4.8c0.5,0.5,0.4,1.1,0,1.5c-0.4,0.4-1.1,0.4-1.5,0c-1.6-1.6-3.2-3.2-4.8-4.8
	C53.1,47.9,53.6,47.4,54.2,46.9z"/>
<path class="st3" d="M17,25.5c-0.7,0.7-1.3,1.3-1.9,1.9c-0.5,0.5-1,0.6-1.5,0.1c-0.4-0.4-0.4-1,0.1-1.5c0.8-0.8,1.6-1.7,2.5-2.5
	c0.5-0.5,1-0.5,1.5,0c0.9,0.9,1.8,1.8,2.9,2.9c0.4-0.4,0.7-0.8,1.1-1.2c2-2.1,4.1-4.1,6.1-6.2c0.5-0.5,1-0.4,1.5,0
	c2.1,2.1,4.2,4.2,6.3,6.3c0.9-0.9,1.7-1.8,2.6-2.7c0.8-0.8,1.2-0.8,1.9,0c0.6,0.6,1.1,1.1,1.6,1.7c1.6-1.6,3.1-3.2,4.7-4.7
	c-0.3,0-0.6,0-1,0c-0.6,0-1-0.4-1-0.9c0-0.6,0.4-1,1-1c1.1,0,2.2,0,3.3,0c0.8,0,1.2,0.4,1.2,1.2c0,1,0,1.9,0,2.9
	c0,0.8-0.3,1.2-1,1.2c-0.6,0-0.9-0.4-0.9-1.2c0-0.3,0-0.6,0-1c-0.5,0.6-1,1-1.4,1.4c-1.3,1.3-2.6,2.6-4,4c-0.6,0.6-1.1,0.6-1.7,0
	c-0.6-0.6-1.2-1.2-1.9-1.9c-0.9,0.9-1.8,1.8-2.7,2.7c-0.7,0.7-1.1,0.7-1.8,0c-2.1-2-4.1-4-6.2-6.1c-1.1,1.1-2.2,2.2-3.3,3.3
	c-1.3,1.3-2.6,2.5-3.8,3.7c-0.6,0.6-1.1,0.6-1.7,0C18.8,27.4,18,26.5,17,25.5z"/>
<path class="st3" d="M24.9,32.6c-3.6,0-7.1,0-10.7,0c-0.7,0-1.2-0.4-1.2-1c0-0.6,0.4-0.9,1.1-0.9c7.1,0,14.3,0,21.4,0
	c0.8,0,1.2,0.4,1.2,1c0,0.6-0.4,0.9-1.2,0.9C32,32.6,28.5,32.6,24.9,32.6z"/>
<path class="st3" d="M23.8,36.3c-2.7,0-5.4,0-8,0c-0.6,0-1.2,0-1.8,0c-0.5,0-0.9-0.4-0.9-0.9c0-0.5,0.4-0.9,1-0.9c3,0,5.9,0,8.9,0
	c2.4,0,4.8,0,7.2,0c1.1,0,2.3,0,3.4,0c0.6,0,1,0.4,1,0.9c0,0.5-0.4,0.9-1,0.9c-2,0-4,0-6,0C26.3,36.3,25.1,36.3,23.8,36.3
	C23.8,36.3,23.8,36.3,23.8,36.3z"/>
<g>
	<path class="st3" d="M43.1,34.9h7.5v0c-0.4,0.7-0.7,1-0.8,1.1h-2c0.3,0.3,0.5,0.7,0.6,1.2h2.1c0,0,0,0,0,0
		c-0.5,0.7-0.7,1.1-0.7,1.1h-1.4c0,0.4-0.2,0.8-0.5,1.3c-0.4,0.5-0.8,0.9-1.2,1c-0.7,0.3-1.4,0.5-2.1,0.5v0c0,0.1,1.5,1.8,4.5,5.4
		h-2c-2.9-3.4-4.4-5.1-4.4-5.2v-1l0,0c0.3,0,0.6,0.1,0.9,0.1c1.6,0,2.7-0.5,3.1-1.6c0.1-0.2,0.1-0.3,0.1-0.5h-4.5c0,0,0,0,0,0
		c0.5-0.7,0.7-1.1,0.8-1.1h3.6v0c-0.2-0.4-0.6-0.7-1.2-1C45,36.1,44.6,36,44.3,36h-2v0C42.8,35.3,43,34.9,43.1,34.9z"/>
</g>
</svg>
