<svg xmlns="http://www.w3.org/2000/svg" width="100.134" height="100.134" viewBox="0 0 100.134 100.134">
  <g id="Group_46514" data-name="Group 46514" transform="translate(-1455 -3306)">
    <g id="Group_181" data-name="Group 181" transform="translate(1455 3306)">
      <circle id="Ellipse_10" data-name="Ellipse 10" cx="50.067" cy="50.067" r="50.067" fill="#ccf2f7" opacity="0.4"/>
    </g>
    <g id="np_bank_3781420_000000" transform="translate(1478.692 3306.635)">
      <path id="Path_29119" data-name="Path 29119" d="M6.65,65.633a1.342,1.342,0,1,0,0,2.683H45.3a1.342,1.342,0,0,0,0-2.683h-3.21V51.373H45.3a1.343,1.343,0,0,0,1.342-1.342V37.8a1.341,1.341,0,0,0-.88-1.258l-19.323-7.1a1.337,1.337,0,0,0-.925,0l-19.323,7.1a1.341,1.341,0,0,0-.88,1.258V50.031a1.343,1.343,0,0,0,1.342,1.342h3.21v14.26Zm32.752,0H27.314c0-.008,0-.016,0-.024l0-14.237H39.4ZM7.992,38.742l17.981-6.606,17.984,6.606v9.947H7.992Zm4.552,12.63H24.631V65.609c0,.008,0,.016,0,.024H12.544Z" fill="#00bcd4"/>
    </g>
  </g>
</svg>
