<?xml version="1.0" encoding="utf-8"?>
<!-- Generator: Adobe Illustrator 26.2.0, SVG Export Plug-In . SVG Version: 6.00 Build 0)  -->
<svg version="1.1" id="Layer_1" xmlns="http://www.w3.org/2000/svg" xmlns:xlink="http://www.w3.org/1999/xlink" x="0px" y="0px"
	 viewBox="0 0 67 68.9" style="enable-background:new 0 0 67 68.9;" xml:space="preserve">
<style type="text/css">
	.st0{opacity:0.408;fill:#CBFFED;enable-background:new    ;}
	.st1{fill:#434A9A;}
</style>
<g id="Group_46240" transform="translate(-0.001 3.866)">
	<path id="Path_18876" class="st0" d="M36.2,8.6C48.3,40.1,67,13,67,31.5S52,65,33.5,65S0,50,0,31.5S24.2-22.9,36.2,8.6z"/>
</g>
<g>
	<path class="st1" d="M31,64.5c-0.2-0.2-0.4-0.4-0.6-0.6c-0.7-1.1-1.3-2.3-2-3.4c-0.3-0.4-0.3-0.8,0-1.3c0.7-1.1,1.3-2.3,2-3.4
		c0.3-0.5,0.6-0.7,1.1-0.7c1.3,0,2.6,0,3.9,0c0.5,0,0.9,0.2,1.1,0.7c0.6,1.1,1.3,2.3,2,3.4c0.3,0.4,0.3,0.8,0,1.3
		c-0.7,1.1-1.3,2.3-2,3.4c-0.1,0.2-0.4,0.4-0.6,0.6C34.3,64.5,32.7,64.5,31,64.5z M33.3,62.7c0.7,0,1.4,0.2,1.8-0.1
		c0.4-0.2,0.6-1,0.9-1.4c0.8-1,0.6-1.9,0-3c-0.6-1.1-1.3-1.5-2.6-1.5c-1.3,0-2,0.4-2.6,1.5c-0.7,1.1-0.6,1.9,0,3
		C31.6,62.4,32.1,63.1,33.3,62.7z"/>
	<path class="st1" d="M3.4,34.1c0.2-0.6,0.7-0.9,1.2-1.1c2-0.9,3.9-1.8,5.9-2.7c1.3-0.6,2.3,0,2.3,1.5c0,1.8,0,3.6,0,5.3
		c0,1.4-1,2-2.3,1.5c-2-0.9-4.1-1.8-6.1-2.8c-0.4-0.2-0.7-0.7-1-1C3.4,34.6,3.4,34.3,3.4,34.1z M5.7,34.4c1.9,0.8,3.6,1.6,5.4,2.4
		c0-1.6,0-3.2,0-4.9C9.3,32.8,7.6,33.6,5.7,34.4z"/>
	<path class="st1" d="M39.6,21.7c3,1.5,5.1,3.7,6.6,6.6c0.6-0.5,1.2-1,1.8-1.5c0.6-0.5,1.1-1.1,1.6-1.6c0.5-0.4,1-0.5,1.3-0.1
		c0.4,0.4,0.4,0.9-0.1,1.3c-1.2,1.2-2.2,2.4-3.7,3.2c-0.1,0.1-0.2,0.3-0.2,0.5c0.9,2.8,0.9,5.6,0,8.4c0,0.1,0.1,0.4,0.2,0.5
		c0.9,0.7,1.8,1.4,2.6,2.2c1.9,1.8,3.8,3.7,5.7,5.6c0.1,0.1,0.2,0.2,0.3,0.3c0.6,0.6,1.2,0.6,1.6,0.2c0.5-0.5,0.4-1.1-0.2-1.6
		c-0.8-0.8-1.6-1.6-2.4-2.4c-1-1-2-2-2.9-2.9c-0.8-0.8-1.3-1.8-1.3-3.1c0-2,0-4,0-5.9c0-1.2,0.4-2.2,1.3-3c1.7-1.7,3.4-3.3,5-5
		c0.1-0.1,0.2-0.2,0.3-0.3c0.5-0.5,0.6-1.2,0.1-1.6c-0.4-0.4-1-0.4-1.6,0.1c-0.6,0.5-1.1,1.1-1.7,1.7c-0.1,0.1-0.2,0.2-0.3,0.3
		c-0.4,0.3-0.9,0.3-1.2-0.1c-0.3-0.4-0.4-0.8,0-1.2c0.8-0.8,1.5-1.6,2.4-2.3c1.1-0.9,2.8-0.7,3.8,0.3c1,1.1,1,2.7-0.1,3.8
		c-1.7,1.8-3.5,3.5-5.3,5.3c-0.7,0.7-1,1.4-1,2.4c0,1.8,0,3.6,0,5.4c0,0.8,0.3,1.5,0.9,2.1c1.8,1.8,3.6,3.6,5.4,5.4
		c0.9,0.9,1,2.1,0.5,3.1c-0.5,1-1.6,1.7-2.7,1.6c-0.8-0.1-1.4-0.4-2-1c-2.1-2.1-4.2-4.2-6.4-6.3c-0.6-0.6-1.2-1-1.9-1.6
		c-1.5,2.9-3.6,5.1-6.6,6.6c0.6,0.7,1.1,1.4,1.7,2c2.1,2.1,4.2,4.2,6.3,6.4c1.1,1.1,1.2,2.5,0.4,3.7c-1,1.4-3,1.6-4.3,0.3
		c-1.7-1.7-3.5-3.4-5.2-5.2c-0.7-0.7-1.4-1-2.4-1c-1.8,0-3.6,0-5.5,0c-0.8,0-1.5,0.3-2,0.9c-1.8,1.8-3.6,3.6-5.4,5.4
		c-0.9,0.9-2.1,1-3.1,0.6c-1-0.5-1.7-1.6-1.6-2.7c0.1-0.6,0.4-1.3,0.7-1.7c0.8-0.9,1.7-1.7,2.5-2.6c0.4-0.4,0.9-0.4,1.3-0.1
		c0.4,0.3,0.4,0.9,0,1.3c-0.8,0.8-1.5,1.6-2.3,2.3c-0.5,0.6-0.6,1.1-0.2,1.6c0.5,0.5,1.1,0.4,1.6-0.1c1.7-1.7,3.5-3.4,5.2-5.2
		c0.9-0.9,2-1.4,3.4-1.4c1.9,0,3.7,0,5.6,0c1.3,0,2.4,0.4,3.4,1.4c1.7,1.7,3.4,3.5,5.2,5.2c0.3,0.3,0.8,0.5,1.1,0.4
		c0.9-0.1,1.1-1.1,0.4-1.8c-1.4-1.4-2.8-2.9-4.3-4.3c-0.3-0.3-0.7-0.7-1-1c-1.1-1.2-2.1-2.3-3.2-3.6C37,48.1,36,48.3,35,48.4
		c-1.8,0.2-3.6,0.1-5.3-0.5c-0.5-0.2-0.8-0.1-1.1,0.4c-0.8,1.1-1.7,2.1-2.6,3c-0.4,0.4-0.9,0.3-1.2,0c-0.4-0.3-0.4-0.9,0-1.3
		c0.5-0.5,1-1,1.4-1.5c0.4-0.5,0.8-1,1.2-1.6c-2.9-1.5-5-3.6-6.5-6.5c-0.6,0.5-1.3,1-1.8,1.5c-2.2,2.1-4.3,4.3-6.4,6.4
		c-0.7,0.7-1.6,1.1-2.6,0.9c-1.1-0.2-1.8-0.9-2.2-1.9c-0.3-1.1-0.1-2,0.7-2.8c1.7-1.8,3.5-3.5,5.2-5.2c0.7-0.7,1-1.4,1-2.4
		c0-1.7,0-3.4,0-5.2c0-1-0.3-1.8-1-2.5c-1.8-1.7-3.5-3.5-5.2-5.2c-0.9-0.9-1-2.1-0.5-3.1c0.5-1,1.6-1.7,2.7-1.6c0.8,0,1.4,0.4,2,1
		c2.1,2.1,4.3,4.3,6.4,6.4c0.5,0.5,1.2,1,1.8,1.5c1.5-2.9,3.6-5,6.6-6.5c-0.6-0.7-1-1.3-1.6-1.9c-2.1-2.2-4.3-4.3-6.4-6.4
		c-1.2-1.2-1.2-3,0-4.1c1.1-1,2.7-1,3.7-0.1c0.6,0.6,1.2,1.2,1.8,1.8c0.4,0.4,0.4,0.9,0,1.3c-0.4,0.3-0.8,0.3-1.3-0.1
		c-0.5-0.5-1-1-1.5-1.4c-0.6-0.6-1.2-0.7-1.7-0.2c-0.5,0.5-0.4,1.1,0.2,1.7c1.6,1.6,3.2,3.2,4.8,4.8c1.2,1.2,2.6,2.4,3.4,4
		c3-1,6.1-1,9,0c2.3-3.3,5.5-5.8,8.2-8.7c0.1-0.2,0.3-0.3,0.4-0.5c0.3-0.4,0.3-1-0.1-1.3c-0.4-0.4-0.9-0.4-1.3-0.1
		c-0.2,0.1-0.3,0.3-0.4,0.4c-1.7,1.7-3.4,3.3-5,5c-0.9,1-2,1.4-3.4,1.4c-1.9,0-3.8,0-5.7,0c-1.8,0-3-1-4-2.3
		c-0.3-0.4-0.2-0.8,0.1-1.1c0.3-0.3,0.7-0.3,1.1-0.1c0.3,0.2,0.6,0.5,0.8,0.8c0.6,0.7,1.3,0.9,2.2,0.9c1.8,0,3.6,0,5.5,0
		c0.9,0,1.6-0.3,2.2-0.9c1.8-1.8,3.5-3.6,5.3-5.3c0.8-0.8,1.7-1,2.8-0.7c1.1,0.3,1.7,1.1,1.9,2.2c0.2,1-0.2,1.9-0.9,2.7
		c-2.1,2.1-4.2,4.2-6.3,6.3C40.7,20.4,40.2,21,39.6,21.7z M39.2,45.3c0.2-0.1,0.4-0.2,0.6-0.3c2.9-1.8,4.7-4.3,5.6-7.5
		c0.3-0.9,0.2-0.9-0.6-1.4c-3.7-2-4.2-7.1-1.7-9.2c0,0,0-0.1,0-0.1c-1.9-2.3-4.2-3.8-7.1-4.4c0.2,0.7,0.5,1.3,0.6,2
		c0.2,2-1,3.3-2.5,4.3c-0.5,0.3-1,0.2-1.3-0.2c-0.3-0.4-0.2-0.9,0.3-1.3c0.5-0.4,1-0.8,1.3-1.3c0.6-0.8,0.6-1.8-0.1-2.6
		c-0.7-1-1.7-1.4-3-1.1c-5.6,1.1-9.6,5.3-10.3,11.1c0,0.4,0.1,0.6,0.5,0.7c1.9,0.6,2.6,0.1,2.8-1.9c0.1-0.9,0.2-1.9,0.5-2.8
		c0.4-1.3,1.6-2,3-1.9c0.6,0.1,1.2,0.2,1.8,0.3c0.6,0.1,0.9,0.6,0.8,1.1c-0.1,0.5-0.5,0.8-1.1,0.6c-0.5-0.1-1-0.2-1.4-0.3
		c-0.7-0.1-1.2,0.2-1.4,0.9c-0.1,0.3-0.1,0.6-0.2,1c-0.1,0.7-0.1,1.4-0.2,2.2c-0.3,1.8-1.5,2.8-3.3,2.7c-0.5,0-1-0.1-1.4-0.2
		c-0.2,1.8,1.7,6,3.1,6.8c0.1-0.2,0.2-0.4,0.3-0.6c0.7-1.5,1.8-2.4,3.5-2.6c1.8-0.2,3.2,0.4,4.2,2c0.2,0.3,0.4,0.6,0.6,0.9
		c0.5,0.7,1.1,0.9,1.9,0.8c0.2,0,0.5-0.1,0.7-0.2c1.4-0.3,2.6,0.3,3.2,1.6C39,44.7,39.1,45,39.2,45.3z M10.5,47.9
		c0.4-0.3,0.7-0.4,1-0.7c2.1-2.1,4.1-4.2,6.2-6.2c0.7-0.6,1.4-1.2,2.1-1.7c0.2-0.2,0.3-0.3,0.2-0.6c-0.9-2.8-0.9-5.6,0-8.4
		c0.1-0.3,0-0.4-0.2-0.6c-0.7-0.5-1.5-1.1-2.1-1.7c-1.6-1.6-3.2-3.2-4.8-4.8c-0.6-0.6-1.1-1.1-1.7-1.6c-0.4-0.4-1-0.4-1.4,0
		c-0.4,0.4-0.4,1,0,1.4c0.1,0.1,0.2,0.3,0.4,0.4c1.7,1.7,3.4,3.4,5.1,5.1c0.9,0.9,1.3,1.9,1.3,3.2c0,1.9,0,3.8,0,5.7
		c0,1.3-0.4,2.4-1.4,3.3c-1.7,1.7-3.4,3.4-5.1,5.1c-0.2,0.2-0.4,0.3-0.4,0.5c-0.1,0.3-0.1,0.8,0,1C9.7,47.4,10.1,47.6,10.5,47.9z
		 M33.5,46.9c1-0.2,2.1-0.3,3.1-0.5c1-0.2,1.1-0.6,0.5-1.5c-0.2-0.2-0.5-0.3-0.8-0.4c-0.3,0-0.6,0.1-1,0.2c-1.5,0.3-2.7-0.1-3.7-1.4
		c-0.3-0.4-0.5-0.8-0.8-1.1c-0.4-0.4-0.8-0.7-1.2-0.9c-1.7-0.6-3.2,0.4-3.6,2.3c-0.1,0.4,0,0.6,0.3,0.9C28.5,46,30.9,46.8,33.5,46.9
		z M44.2,28.4c-1,1.1-1,2.2-0.7,3.4c0.3,1.3,1.1,2.2,2.3,2.8C45.8,32.4,45.3,30.3,44.2,28.4z"/>
	<path class="st1" d="M54.2,34.4c0-1,0-2,0-3c0-1,0.6-1.6,1.6-1.6c2.1,0,4.2,0,6.3,0c0.9,0,1.5,0.6,1.5,1.6c0,2.1,0,4.2,0,6.3
		c0,0.9-0.6,1.5-1.5,1.6c-2.1,0-4.2,0-6.3,0c-0.9,0-1.5-0.6-1.5-1.5C54.1,36.5,54.2,35.5,54.2,34.4z M56,31.5c0,2,0,3.9,0,5.8
		c2,0,3.9,0,5.8,0c0-2,0-3.9,0-5.8C59.8,31.5,57.9,31.5,56,31.5z"/>
	<path class="st1" d="M33.5,4.4c2.6,0,4.7,2.1,4.7,4.7c0,2.6-2.2,4.7-4.7,4.7c-2.6,0-4.6-2.1-4.6-4.7C28.8,6.5,30.9,4.4,33.5,4.4z
		 M33.5,12c1.6,0,2.9-1.3,2.9-2.9c0-1.6-1.3-2.9-2.9-2.9c-1.6,0-3,1.3-3,2.9C30.6,10.7,31.9,12,33.5,12z"/>
	<path class="st1" d="M34.9,38.8c-2.5,0-3.7-1.5-3-3.5c0.3-0.8,0.8-1.3,1.6-1.5c0.9-0.2,1.5-0.7,2-1.4c0.7-0.9,1.7-1.2,2.7-0.7
		c0.6,0.3,1.2,0.8,1.6,1.3c1,1.3,0.9,2.7-0.4,3.8C38.1,38.2,36.4,38.7,34.9,38.8z M34.8,37c1-0.1,2.2-0.4,3.2-1.1
		c1.1-0.7,1.1-1.7,0-2.4c-0.4-0.3-0.7-0.3-1,0.2c-0.6,0.9-1.6,1.5-2.7,1.8c-0.2,0.1-0.5,0.3-0.6,0.5C33.3,36.7,33.7,37.1,34.8,37z"
		/>
</g>
</svg>
