<?xml version="1.0" encoding="utf-8"?>
<!-- Generator: Adobe Illustrator 26.2.0, SVG Export Plug-In . SVG Version: 6.00 Build 0)  -->
<svg version="1.1" id="Layer_1" xmlns="http://www.w3.org/2000/svg" xmlns:xlink="http://www.w3.org/1999/xlink" x="0px" y="0px"
	 viewBox="0 0 67 68.9" style="enable-background:new 0 0 67 68.9;" xml:space="preserve">
<style type="text/css">
	.st0{opacity:0.408;fill:#CBFFED;enable-background:new    ;}
	.st1{fill:#434A9A;}
</style>
<g id="Group_46240" transform="translate(-0.001 3.866)">
	<path id="Path_18876" class="st0" d="M36.2,8.6C48.3,40.1,67,13,67,31.5S52,65,33.5,65S0,50,0,31.5S24.2-22.9,36.2,8.6z"/>
</g>
<g>
	<path class="st1" d="M12.4,5c1.1,0.4,2.2,0.8,3.3,1.2C15.8,6,15.9,5.7,16,5.5c3,1,6,2,9,3c-0.1,0.3-0.1,0.5-0.2,0.8
		c1.2,0.4,2.3,0.8,3.5,1.2c-1.1,1.7-2.4,3.1-4,4.2c-1.3,0.9-2.8,1.4-4.4,1.2c-0.4-0.1-0.8,0.2-1.3,0.4c0.4,0.4,0.7,0.8,1,1.2
		c2.9,3.2,6.4,5.4,10.3,7.2c0.3,0.1,0.5,0.3,0.8,0.4c0.9,0.2,1.2,0.8,1.4,1.5c0.8,2.3,1.6,4.5,2.4,6.7c0.5,0,0.9,0,1.4,0
		c0.7-2,1.6-4,2.2-6.1c0.4-1.3,1.1-2,2.3-2.5c3.9-1.6,7.4-3.9,10.2-7c1.1-1.2,2-2.6,3-3.9c0.1-0.1,0.2-0.3,0.3-0.4
		c0.2-0.1,0.5-0.1,0.8-0.2c0,0.3,0.2,0.6,0.1,0.8c-0.4,0.6-0.8,1.2-1.2,1.8c-0.1,0.1-0.1,0.2-0.2,0.3c0.4,0.3,0.7,0.6,1,0.9
		c0.5,0.6,0.5,0.8,0.1,1.4c-2.6,3.3-5.9,5.8-9.6,7.8c-1.2,0.6-2.4,1.2-3.6,1.7c-0.4,0.2-0.5,0.3-0.5,0.7c0,3.5,0,7,0,10.5
		c0,2.1,0.3,4.1,0.5,6.2c0.3,3.5,0.6,7.1,0.9,10.6c0.1,1.6,0.3,3.3,0.4,4.9c0.1,1.6-0.8,2.9-2.3,3c-1.5,0.1-2.7-1-2.8-2.6
		c-0.4-5.5-0.9-11.1-1.4-16.6c-0.1-0.7-0.1-1.3-0.2-2c-0.5,0-0.9,0-1.4,0c-0.1,1.5-0.3,3-0.4,4.4c-0.3,4.1-0.7,8.2-1,12.2
		c-0.1,0.7-0.1,1.4-0.2,2.1c-0.1,1.5-1.4,2.6-2.8,2.4c-1.5-0.1-2.4-1.4-2.3-2.9c0.4-5.5,0.8-11,1.4-16.4c0.5-5.3,0.4-10.6,0.4-15.9
		c0-0.4-0.1-0.5-0.5-0.7c-3.6-1.5-7-3.5-10-6.2c-0.2-0.2-0.4-0.3-0.7-0.4c-1.8-0.6-3.7-1.2-5.5-1.8c-0.2-0.1-0.4-0.1-0.6-0.2
		c0.1-0.3,0.2-0.5,0.3-0.8c0.5,0.2,1,0.3,1.5,0.5c0.1-0.3,0.2-0.5,0.3-0.9c0.5,0.2,1,0.3,1.5,0.4c0,0,0.1,0,0.1-0.1
		c-0.9-1.2-1.1-2.3,0.4-3.2c-0.5-0.4-0.9-0.9-1.3-1.2c-1.4-0.9-2.1-2.3-2.6-3.9c-0.5-1.7-0.6-3.5-0.6-5.2C12.2,5,12.3,5,12.4,5z
		 M37,35.4c0-0.9-0.8-1.7-1.7-1.7c-1,0-1.7,0.8-1.7,1.8c0,0.9,0.8,1.7,1.7,1.7C36.2,37.1,37,36.3,37,35.4z M21.4,14.7
		c2.2-0.5,3.7-2.1,5.2-3.8c-0.8-0.3-1.5-0.5-2.1-0.7C23.4,11.8,22.4,13.3,21.4,14.7z M15.3,12.8c0-1.9,0-3.7,0-5.6
		c-0.6-0.2-1.3-0.4-2.1-0.7C13.4,8.9,13.7,11,15.3,12.8z M16.6,7.2c-0.3,1.6-0.5,3.1-0.1,4.7c0.2-0.1,0.3-0.3,0.4-0.4
		c0.1-1.4,0.2-2.7,0.3-4.1c0,0,0-0.1,0-0.1C16.9,7.2,16.8,7.2,16.6,7.2z"/>
	<path class="st1" d="M39.9,19.5c0,2.5-2.1,4.6-4.6,4.6c-2.6,0-4.7-2.1-4.7-4.7c0-2.6,2.1-4.6,4.6-4.6
		C37.9,14.8,39.9,16.9,39.9,19.5z M34.4,21.9c0.7,0.6,1.4,1.1,2.3,0.9c1.1-0.3,1.5-1.1,2-2.1C37.3,21.6,35.9,21.8,34.4,21.9z"/>
	<path class="st1" d="M37.7,25.3c-0.8,2.2-1.6,4.4-2.5,6.8c-0.8-2.3-1.6-4.5-2.5-6.8C34.5,25.3,36.1,25.3,37.7,25.3z"/>
</g>
</svg>
