<?xml version="1.0" encoding="utf-8"?>
<!-- Generator: Adobe Illustrator 26.2.0, SVG Export Plug-In . SVG Version: 6.00 Build 0)  -->
<svg version="1.1" id="Layer_1" xmlns="http://www.w3.org/2000/svg" xmlns:xlink="http://www.w3.org/1999/xlink" x="0px" y="0px"
	 viewBox="0 0 67 68.9" style="enable-background:new 0 0 67 68.9;" xml:space="preserve">
<style type="text/css">
	.st0{opacity:0.408;fill:#CBFFED;enable-background:new    ;}
	.st1{fill:#434A9A;}
</style>
<g id="Group_46240" transform="translate(-0.001 3.866)">
	<path id="Path_18876" class="st0" d="M36.2,8.6C48.3,40.1,67,13,67,31.5C67,50,52,65,33.5,65S0,50,0,31.5C0,13,24.2-22.9,36.2,8.6z
		"/>
</g>
<g>
	<path class="st1" d="M16,26c0.3-1.4,0.5-2.9,1-4.2C19.7,13.8,27.6,8.9,35.9,10c7.8,1,13.7,6.9,14.9,14.6c0.5,3.3-0.1,6.5-1.5,9.5
		c-0.3,0.7-1,0.9-1.6,0.7c-0.6-0.2-0.9-0.9-0.7-1.5c0.4-1.2,0.9-2.3,1.1-3.5c0.9-5.1-0.6-9.5-4.3-13c-4.4-4.3-9.7-5.5-15.5-3.4
		c-5.7,2-9,6.2-9.9,12.2c-0.5,3,0.3,5.8,1.5,8.5c1.9,4.3,4.5,8.1,7.5,11.8c1.6,2,3.3,3.8,5,5.7c0.3,0.3,0.6,0.5,1,0.9
		c0.3-0.3,0.5-0.7,0.8-1c3-3.1,5.7-6.6,8.1-10.1c0.4-0.5,0.8-0.8,1.4-0.7c0.9,0.2,1.3,1.1,0.7,2c-0.6,1-1.3,1.9-2,2.8
		c-2.2,3-4.5,5.9-7.2,8.4c-1.7,1.6-2.1,1.6-3.9,0c-3.4-3.1-6.2-6.7-8.8-10.4c-2.4-3.5-4.5-7.1-5.8-11.1c-0.4-1.2-0.6-2.4-0.9-3.6
		C16,27.7,16,26.8,16,26z"/>
	<path class="st1" d="M47,53.5c-0.7-0.4-1.3-0.8-2-1.1c-1.1-0.4-2.2-0.7-3.3-1c-0.2-0.1-0.5-0.1-0.7-0.2c-0.6-0.2-1-0.9-0.9-1.4
		c0.1-0.6,0.7-1.1,1.3-1c2.4,0.4,4.8,0.9,6.8,2.5c1.4,1.2,1.4,2.9,0.1,4.2c-1.4,1.3-3.2,1.9-5,2.3c-4.6,1.1-9.3,1.3-14,0.9
		c-2.5-0.2-5-0.6-7.4-1.5c-1-0.4-2-0.8-2.8-1.5c-1.9-1.4-1.8-3.4,0.1-4.8c1.5-1.1,3.3-1.6,5.1-2c0.2-0.1,0.5-0.1,0.7-0.1
		c0.8-0.1,1.4,0.3,1.5,1c0.1,0.7-0.3,1.3-1,1.5c-1.1,0.3-2.2,0.6-3.3,1c-0.6,0.2-1.1,0.5-1.6,0.8c-0.5,0.3-0.5,0.7,0,1
		c1,0.5,2,1,3,1.3c3.9,1.1,7.8,1.3,11.8,1.1c3.2-0.1,6.3-0.5,9.3-1.6C45.5,54.7,46.3,54.4,47,53.5z"/>
	<path class="st1" d="M33.5,18.8c4.4-0.1,8.3,3.6,8.3,8.1c0.1,4.5-3.6,8.4-8,8.4c-4.6,0.1-8.4-3.6-8.4-8.1
		C25.3,22.5,28.8,18.8,33.5,18.8z M33.6,21.3c-3.1,0-5.8,2.6-5.8,5.8c0,3.1,2.6,5.8,5.7,5.8c3.1,0,5.8-2.7,5.8-5.8
		C39.3,23.8,36.8,21.3,33.6,21.3z"/>
	<path class="st1" d="M47.7,37.1c0,0.7-0.6,1.3-1.2,1.3c-0.6,0-1.2-0.6-1.2-1.2c0-0.7,0.6-1.2,1.2-1.2C47.1,36,47.7,36.5,47.7,37.1z
		"/>
</g>
</svg>
