<?xml version="1.0" encoding="utf-8"?>
<!-- Generator: Adobe Illustrator 26.2.0, SVG Export Plug-In . SVG Version: 6.00 Build 0)  -->
<svg version="1.1" id="Layer_1" xmlns="http://www.w3.org/2000/svg" xmlns:xlink="http://www.w3.org/1999/xlink" x="0px" y="0px"
	 viewBox="0 0 67 68.9" style="enable-background:new 0 0 67 68.9;" xml:space="preserve">
<style type="text/css">
	.st0{opacity:0.408;fill:#CBFFED;enable-background:new    ;}
	.st1{fill:#434A9A;}
</style>
<g id="Group_46240" transform="translate(-0.001 3.866)">
	<path id="Path_18876" class="st0" d="M36.2,8.6C48.3,40.1,67,13,67,31.5S52,65,33.5,65S0,50,0,31.5S24.2-22.9,36.2,8.6z"/>
</g>
<g>
	<path class="st1" d="M22.6,34.4c7.1,0,11.8,7.4,8.6,13.6c-2.2,4.1-4.8,8.1-7.2,12c-0.8,1.3-1.8,1.4-2.6,0c-2.5-4-5.2-8-7.3-12.2
		C10.9,41.7,15.6,34.4,22.6,34.4z M22.3,58.9c0.2,0,0.4,0,0.6,0c2.3-4,4.8-7.9,6.9-12c1.7-3.2,0.5-7.1-2.4-9.3
		c-2.8-2.2-6.8-2.1-9.7,0.1c-2.9,2.2-4,6.1-2.3,9.3C17.6,51.1,20,55,22.3,58.9z"/>
	<path class="st1" d="M26.2,60c0.3-1.2,1-1.3,2.1-1.2c2.4,0.4,4.9,0.5,7.4,0.5c-2.4-1.8-5.2-1.6-8-1.5c0.3-1.2,0.8-1.8,2-1.8
		c3-0.1,5.7,0.5,8.2,2.1c0.5,0.3,1.4,0.4,2,0.3c8.1-2.3,13.6-7.4,16.9-15.1c0.7-1.7,1.7-3.2,2.7-4.8C57.8,53.7,41.7,64.7,26.2,60z"
		/>
	<path class="st1" d="M29.5,9.5c-2.1,0.7-4.3,1.4-6.4,2.2c-0.3,0.1-0.5,1-0.5,1.6c0,1.9,0.2,3.7-1.9,5.3c1.3-2.8,1.4-5.2,0.3-7.8
		C27.4,7.6,33.9,7,40.6,8.8c-0.3,1.8-1.4,1.4-2.6,1.2c-1.1,2.7-3,4.2-6,4.5c-1,0.1-2,1-3,1.4c-1.1,0.4-2.3,0.8-3.5,1
		c-0.5,0.1-1.3-0.4-1.5-0.8c-0.2-0.4,0.1-1.4,0.5-1.7c1.1-0.9,2.4-1.5,3.6-2.3c0.7-0.5,1.3-1.1,1.9-1.7C29.9,10.1,29.7,9.8,29.5,9.5
		z M31.5,9.6c0.4,3.8-3.3,3.8-5.1,5.5c0.3,0,0.5-0.1,0.8-0.2c2.2-0.9,4.4-1.7,6.6-2.6c1.2-0.5,2.1-1.3,2.4-2.8
		C34.5,9.6,33.1,9.6,31.5,9.6z"/>
	<path class="st1" d="M20.3,14.3c-0.2,0.9-0.3,1.9-0.7,2.7c-1.6,2.8-3.2,5.5-4.9,8.2c-0.7,1.1-1.5,1.1-2.2,0
		c-1.7-2.7-3.4-5.4-4.9-8.2c-1.3-2.4-0.6-5.3,1.3-7.2c1.9-1.9,4.8-2.5,7.2-1.6C18.4,9.2,20.1,11.6,20.3,14.3z M13.5,24.2
		c1.6-2.8,3.1-5.2,4.5-7.7c1.1-2.1,0.5-4.6-1.4-6c-1.8-1.4-4.4-1.4-6.2,0c-1.8,1.5-2.5,3.9-1.3,6C10.4,19,11.8,21.4,13.5,24.2z"/>
	<path class="st1" d="M60.2,32.3c-0.2,0.8-0.2,1.7-0.6,2.4c-1.6,2.9-3.3,5.7-5.1,8.5c-0.7,1-1.5,1-2.1,0c-1.7-2.8-3.5-5.5-5-8.4
		c-1.2-2.4-0.5-5.3,1.4-7.2c1.9-1.9,4.8-2.5,7.3-1.5C58.5,27.2,60.1,29.6,60.2,32.3z M53.5,42.2c1.7-2.9,3.2-5.3,4.5-7.9
		c1.1-2,0.3-4.5-1.5-5.9c-1.8-1.4-4.3-1.4-6.1-0.1c-1.8,1.4-2.6,3.8-1.6,5.8C50.2,36.8,51.8,39.3,53.5,42.2z"/>
	<path class="st1" d="M14.8,53.3C6.4,45.7,4.8,32,9.2,23.8c0.6,0.7,0.6,0.7-0.1,5.5c0.6,0.1,1.1,0.1,1.7,0.3
		c1.6,0.4,2.4,1.5,2.5,3.1c0.1,1.4,0.2,2.7,0.2,4.1c0,0.6-0.4,1.1-0.6,1.7c-0.2,0-0.4,0-0.6,0c-0.3-1.1-0.6-2.3-0.7-3.4
		c-0.1-0.7,0-1.5,0-2.2c0-1.1-0.7-1.6-1.7-1.7c-1.1-0.1-1.3,0.6-1.3,1.5c-0.3,4.6,0.6,9,2.7,13.1C12.5,48.2,13.6,50.7,14.8,53.3z"/>
	<path class="st1" d="M46.4,7.8c3.8,0,6.5,3.9,5,7.4c-1.1,2.4-2.6,4.6-4,6.9c-0.6,1-1.4,1-2,0c-1.4-2.2-2.8-4.4-3.9-6.7
		C39.8,11.8,42.5,7.8,46.4,7.8z M46.4,20.8c1.3-2.2,2.4-4,3.4-5.9c0.8-1.7,0.4-3.5-1-4.6c-1.3-1.1-3.2-1.1-4.6,0
		c-1.4,1.1-1.9,3-1.1,4.6C44,16.7,45.1,18.5,46.4,20.8z"/>
	<path class="st1" d="M36.8,22.5c-0.1,0.3-0.2,1.1-0.5,1.8c-1.2,2.1-2.4,4.3-3.7,6.3c-0.7,1.2-1.5,1.2-2.2,0
		c-1.4-2.2-2.7-4.3-3.9-6.6c-1-2-0.4-4.5,1.2-6c1.7-1.5,3.6-2,5.8-1.1C35.5,17.7,36.8,19.7,36.8,22.5z M31.4,29.5
		c1.3-2.3,2.5-4.2,3.4-6.2c0.8-1.6,0.2-3.4-1.2-4.4c-1.3-1-3-1-4.3-0.1c-1.4,1-2.1,2.8-1.4,4.4C28.9,25.3,30.1,27.2,31.4,29.5z"/>
	<path class="st1" d="M33.5,39.8c0.4,0.6,0.9,1,1,1.6c0.5,2.2,0.8,4.3,1.3,6.5c0.3,1.3,0.6,2.7,1.1,3.9c0.4,1,1.3,1.2,2.3,0.5
		c2.4-1.6,4.3-3.3,4.4-6.6c0-2.6,1-4,3.8-7.1c1,0.8,1,1.6,0.1,2.5c-1.7,1.7-2.3,3.8-2.4,6.1c-0.2,2.7-3.4,6.4-6,7.1
		c-1.2,0.3-2.5,0.1-3.1-1c-0.8-1.5-1.5-3.2-1.7-4.9C33.7,45.6,33.7,42.8,33.5,39.8z"/>
	<path class="st1" d="M46,49.9c0.4-2,1.5-4,3.6-5.2c1.2-0.7,2.1,0,2.2,1.3c0.1,1.8-1.9,5-3.6,5.7C46.9,52.2,46,51.6,46,49.9z"/>
	<path class="st1" d="M35.5,29.7c0.3-1.5,0.8-2,2-1.8c0.8,0.2,1.6,0.2,2.4,0.1c0.5-0.1,1.3-0.5,1.3-0.7c0-0.5-0.3-1.3-0.7-1.6
		c-0.7-0.4-1.6-0.6-2.5-0.9c0.1-0.4,0.3-0.9,0.4-1.3c0.2,0,0.4-0.1,0.5-0.1c1,0.4,2.1,0.6,2.9,1.1c1.1,0.7,1.5,2,1.1,3.3
		c-0.4,1.3-1.4,1.8-2.7,1.8C38.6,29.7,37.1,29.7,35.5,29.7z"/>
	<path class="st1" d="M58,25.7c-0.8-0.8-1.6-1.6-2.2-2.5c-1-1.4-1.9-3-2.9-4.4c-0.8-1.1-0.9-1.1,0-2.5c2.5,2.7,4.4,5.7,5.6,9.1
		C58.3,25.4,58.2,25.6,58,25.7z"/>
	<path class="st1" d="M46.7,37.3c-2.7-0.8-4-2.7-4.2-5.3c-0.1-1.1,0.2-2.1,1.6-2.1c0.4,0,1,0.2,1.1,0.5c0.1,0.5,0,1.4-0.2,1.5
		c-1.4,0.5-0.5,1.3-0.3,1.8C45.3,34.9,46.1,36.1,46.7,37.3z"/>
	<path class="st1" d="M22.3,33.1c0.7-2.7,2-4.3,4-5.5c0.3,0.4,0.6,0.8,0.7,1c-1,1.4-1.8,2.6-2.8,3.8C23.9,32.7,23.2,32.7,22.3,33.1z
		"/>
	<path class="st1" d="M39.2,11.6c0.2,1.7,0.4,3.3,0.6,5.1c-1.3,1-3.1,0.7-4.6-0.9c0.7-0.1,1.2-0.2,1.8-0.2c0.6,0,1.2,0,2,0
		c0-1.4,0-2.7,0-4C39.1,11.5,39.2,11.5,39.2,11.6z"/>
	<path class="st1" d="M26.8,43.6c0,2.3-1.8,4.2-4.1,4.2c-2.3,0-4.2-1.9-4.2-4.1c0-2.3,1.8-4.2,4.1-4.2
		C24.9,39.4,26.8,41.2,26.8,43.6z M22.7,41.1c-1.4,0-2.6,1.1-2.6,2.5c0,1.3,1.1,2.4,2.4,2.5c1.4,0,2.6-1.1,2.6-2.5
		C25.1,42.3,24.1,41.2,22.7,41.1z"/>
	<path class="st1" d="M13.5,11.5c1.6,0,3,1.4,2.9,2.9c0,1.5-1.3,2.8-2.8,2.9c-1.6,0.1-3-1.3-3-2.9C10.6,12.9,11.8,11.5,13.5,11.5z
		 M15.3,14.4c-0.9-0.6-1.4-1.1-1.8-1.1c-0.4,0.1-1.1,0.7-1.1,1.1c0,0.4,0.7,1.1,1.1,1.1C13.9,15.6,14.4,15,15.3,14.4z"/>
	<path class="st1" d="M56.3,32.3c0,1.6-1.3,3-2.9,3c-1.5,0-2.9-1.3-2.9-2.8c-0.1-1.6,1.2-3,2.8-3C55,29.4,56.3,30.7,56.3,32.3z
		 M55.3,32.3c-0.9-0.6-1.4-1.2-1.8-1.1c-0.4,0.1-0.8,0.7-1.2,1.1c0.4,0.4,0.8,1.1,1.2,1.1C53.9,33.5,54.4,32.9,55.3,32.3z"/>
	<path class="st1" d="M46.3,11.1c1.1,0,2.2,1,2.1,2.1c-0.1,1.2-0.8,2-2,2c-1.3,0-2-0.7-2.1-1.9C44.2,12.1,45.2,11.1,46.3,11.1z"/>
	<path class="st1" d="M33.5,22c0,1.2-1,2.1-2.2,2c-1.2-0.1-2-0.8-1.9-2.1c0-1.2,0.8-1.9,2-2C32.5,19.8,33.5,20.8,33.5,22z"/>
</g>
</svg>
