<?xml version="1.0" encoding="utf-8"?>
<!-- Generator: Adobe Illustrator 26.2.0, SVG Export Plug-In . SVG Version: 6.00 Build 0)  -->
<svg version="1.1" id="Layer_1" xmlns="http://www.w3.org/2000/svg" xmlns:xlink="http://www.w3.org/1999/xlink" x="0px" y="0px"
	 viewBox="0 0 67 68.9" style="enable-background:new 0 0 67 68.9;" xml:space="preserve">
<style type="text/css">
	.st0{opacity:0.408;fill:#CBFFED;enable-background:new    ;}
	.st1{fill:#434A9A;}
</style>
<g id="Group_46240" transform="translate(-0.001 3.866)">
	<path id="Path_18876" class="st0" d="M36.2,8.6C48.3,40.1,67,13,67,31.5S52,65,33.5,65S0,50,0,31.5S24.2-22.9,36.2,8.6z"/>
</g>
<g>
	<path class="st1" d="M38.6,31.5c1.7,1.1,3.6,2,5.1,3.3c3.8,3.1,5.7,7.3,5.9,12.3c0,1.3-0.5,2.4-1.3,3.3c-1.3,1.5-3,2.5-4.8,3.3
		c-7,2.8-14,2.8-21-0.1c-1.5-0.6-2.9-1.7-4.1-2.7c-1.8-1.5-1.8-3.6-1.4-5.7c1.1-6.3,4.6-10.7,10.5-13.1c0.2-0.1,0.3-0.1,0.4-0.2
		c0,0,0,0,0.1-0.1c-3-2.1-4.7-5-4.6-8.7c0.1-2.8,1.2-5.2,3.3-7.1c4.1-3.7,10.4-3.3,14.1,0.9C44.2,20.6,44.2,27.7,38.6,31.5z
		 M33.1,53.6c2.1-0.3,4.2-0.5,6.2-0.9c2.6-0.6,5-1.5,7-3.4c0.8-0.7,1.3-1.6,1.1-2.7c-0.1-0.8-0.2-1.7-0.4-2.5
		c-1.6-7-8.2-11.7-15.6-11c-6.8,0.7-12.4,6.8-12.6,13.6c0,1.1,0.3,2,1.1,2.7c1.1,0.8,2.2,1.6,3.4,2.1C26.4,53,29.7,53.4,33.1,53.6z
		 M33.2,30.8c3.5,0.3,7.7-2.9,7.7-7.6c0-4.3-3.4-7.8-7.7-7.8c-4.2,0-7.7,3.5-7.7,7.7C25.4,27.9,29.7,31.1,33.2,30.8z"/>
	<path class="st1" d="M46.3,34.8c-0.6-0.5-1.1-0.9-1.7-1.5c1.2-0.8,2.3-1.5,3.5-2.3c-1.9-1.6-2.8-3.7-2.6-6.2
		c0.1-1.8,0.9-3.2,2.2-4.5c2.7-2.5,6.9-2.5,9.6,0c3,2.9,2.8,6.6-0.5,10.7c0.3,0.1,0.5,0.3,0.8,0.4c3.7,2,5.7,5.1,6.2,9.2
		c0.2,1.6-0.4,2.9-1.6,3.9c-1.9,1.6-4.2,2.4-6.6,2.7c-1.3,0.2-2.6,0.2-4,0.3c0-0.8,0-1.5,0-2.2c1.1-0.1,2.2-0.1,3.3-0.2
		c2-0.3,3.9-0.9,5.6-2.1c0.8-0.6,1.3-1.2,1.1-2.3c-0.5-3.6-2.3-6.2-5.6-7.6c-3.3-1.4-6.4-0.9-9.3,1.3C46.6,34.6,46.4,34.7,46.3,34.8
		z M52.4,30.3c2.6,0,4.8-2.1,4.8-4.8c0-2.6-2.1-4.8-4.8-4.8c-2.6,0-4.8,2.2-4.8,4.8C47.6,28.2,49.8,30.3,52.4,30.3z"/>
	<path class="st1" d="M10,31.1c-3.2-3.8-3.3-7.5-0.4-10.3c2.6-2.5,6.6-2.5,9.3-0.1c3,2.8,3,6.5-0.2,10.4c1.1,0.7,2.1,1.4,3.3,2.2
		c-0.7,0.6-1.2,1-1.7,1.5c-0.2-0.2-0.5-0.3-0.7-0.5c-2.9-2-5.9-2.3-9.1-0.8c-3.2,1.5-4.8,4.1-5.1,7.6c-0.1,1,0.5,1.6,1.2,2.1
		c1.5,1.1,3.3,1.6,5.1,1.8c1,0.1,2.1,0.2,3.2,0.3c0,0.7,0,1.3,0,2.2c-1.2-0.1-2.5,0-3.6-0.3c-1.7-0.4-3.4-0.8-5-1.5
		c-2.9-1.4-3.7-3.2-3-6.4c0.8-3.5,2.8-6,5.9-7.6C9.6,31.4,9.8,31.3,10,31.1z M18.9,25.7c0-2.5-2.1-4.6-4.6-4.6
		c-2.5,0-4.6,2.1-4.6,4.6c0,2.5,2.1,4.6,4.6,4.6C16.8,30.3,18.9,28.2,18.9,25.7z"/>
</g>
</svg>
