<svg id="Group_10938" data-name="Group 10938" xmlns="http://www.w3.org/2000/svg" width="39.412" height="44.987" viewBox="0 0 39.412 44.987">
  <path id="Path_18649" data-name="Path 18649" d="M1079.806,988.919V988.8l.608-3.149,2.131-2.512,16.507-.418L1109,993.5v23.987l-1.9,1.911-2.658-2.462-2.169,2.462-2.089-1.911V999.207l-10.511-10.048Z" transform="translate(-1070.337 -982.142)" fill="#bcc1ff" opacity="0.561"/>
  <g id="np_invoice_2628928_000000" transform="translate(0 0)">
    <path id="Path_18621" data-name="Path 18621" d="M14.425,52.089a.622.622,0,0,0,.46.31.529.529,0,0,0,.08.006.611.611,0,0,0,.442-.186l2.115-2.163L19.453,52.2a.618.618,0,0,0,.879.041l2.406-2.208,1.9,2.16a.617.617,0,0,0,.906.025l2.134-2.171L29.676,52.2a.619.619,0,0,0,.865.045l2.538-2.239,2.082,2.2h0a.621.621,0,0,0,.908-.01l1.923-2.113,1.781,2.1a.626.626,0,0,0,.483.219.619.619,0,0,0,.475-.235l2.328-2.936h0a.62.62,0,0,0,.134-.384V44.038L44.2,45.084a.618.618,0,0,0,.887,0L47,43.124l1.966,1.966a.621.621,0,0,0,.877,0l2.084-2.084v0a.618.618,0,0,0,.182-.437v-24.1a.618.618,0,0,0-.182-.437L41.5,7.62l-.008-.006a.605.605,0,0,0-.541-.188l-.043,0c-.021,0-.041,0-.062,0H26.362a4.751,4.751,0,0,0-4.746,4.746V13.7H17.442A4.752,4.752,0,0,0,12.7,18.445V48.85a.627.627,0,0,0,.078.3ZM32.74,15.812l8.353,8.336H36.248A3.513,3.513,0,0,1,32.74,20.64Zm8.92-6.281,8.355,8.336-4.847,0a3.51,3.51,0,0,1-3.508-3.508ZM22.854,12.163a3.512,3.512,0,0,1,3.508-3.508h14.06v5.7A4.749,4.749,0,0,0,45.168,19.1h5.7V42.311L49.4,43.776,47.432,41.8h0a.618.618,0,0,0-.881.006l-1.9,1.954-1.459-1.5V24.744a.618.618,0,0,0-.182-.437L32.579,13.9l-.008-.006v0a.609.609,0,0,0-.541-.188l-.043,0c-.021,0-.041,0-.062,0H22.854Zm-8.92,6.281a3.513,3.513,0,0,1,3.508-3.508H31.5v5.7a4.752,4.752,0,0,0,4.746,4.746h5.7V48.633L40.224,50.81l-1.748-2.059a.619.619,0,0,0-.46-.217.611.611,0,0,0-.468.2L35.6,50.876l-2.035-2.15a.619.619,0,0,0-.858-.037l-2.532,2.233-2.022-2.189h0a.613.613,0,0,0-.444-.2H27.7a.621.621,0,0,0-.442.184l-2.123,2.16L23.25,48.742a.62.62,0,0,0-.431-.208.626.626,0,0,0-.452.161l-2.412,2.212L18,48.738h0a.619.619,0,0,0-.9-.021l-2,2.045-1.166-2.076Z" transform="translate(-12.696 -7.418)" fill="#505be0"/>
    <path id="Path_18622" data-name="Path 18622" d="M25.31,47.136H41.89a.619.619,0,1,0,0-1.238H25.31a.619.619,0,0,0,0,1.238Z" transform="translate(-18.355 -25.571)" fill="#505be0"/>
    <path id="Path_18623" data-name="Path 18623" d="M25.31,53.972H41.89a.619.619,0,1,0,0-1.238H25.31a.619.619,0,0,0,0,1.238Z" transform="translate(-18.355 -28.796)" fill="#505be0"/>
    <path id="Path_18624" data-name="Path 18624" d="M25.31,60.808H41.89a.619.619,0,1,0,0-1.238H25.31a.619.619,0,0,0,0,1.238Z" transform="translate(-18.355 -32.021)" fill="#505be0"/>
    <path id="Path_18625" data-name="Path 18625" d="M56.113,76.312h-.654a.619.619,0,0,0,0,1.238h.654a.619.619,0,0,0,0-1.238Z" transform="translate(-32.578 -39.919)" fill="#505be0"/>
    <path id="Path_18626" data-name="Path 18626" d="M47.038,76.312h-4.15a.619.619,0,0,0,0,1.238h4.15a.619.619,0,0,0,0-1.238Z" transform="translate(-26.647 -39.919)" fill="#505be0"/>
    <path id="Path_18627" data-name="Path 18627" d="M26.858,72.681h-.023a.921.921,0,0,1-.908-.918.619.619,0,1,0-1.238,0,2.161,2.161,0,0,0,1.539,2.066v.388a.619.619,0,1,0,1.238,0v-.388a2.156,2.156,0,0,0-.619-4.222.919.919,0,1,1,.918-.92.619.619,0,1,0,1.238,0,2.159,2.159,0,0,0-1.537-2.066V66.3a.619.619,0,1,0-1.238,0v.318a2.156,2.156,0,0,0,.619,4.222.919.919,0,1,1,.01,1.839Z" transform="translate(-18.353 -34.905)" fill="#505be0"/>
  </g>
</svg>
