<svg id="Group_10936" data-name="Group 10936" xmlns="http://www.w3.org/2000/svg" width="48.243" height="48.243" viewBox="0 0 48.243 48.243">
  <g id="np_reverse_708993_000000" transform="translate(0 0)">
    <path id="Path_18639" data-name="Path 18639" d="M38.931,14.809a24.133,24.133,0,1,1-19.969,10.6l1.226,1.224a22.306,22.306,0,1,0,8.852-7.837l2.589,2.87L22.6,23.594l2.841-8.785,2.423,2.683a24.737,24.737,0,0,1,11.067-2.683Z" transform="translate(-14.809 -14.809)" fill="#0abfe2"/>
  </g>
  <g id="Group_919" data-name="Group 919" transform="translate(9.791 11.141)">
    <path id="Path_18650" data-name="Path 18650" d="M1245.031,1013.777l18.085,13.759,9.937-8.274-18.56-13.876Z" transform="translate(-1244.12 -1005.045)" fill="#aaf1ff" opacity="0.706"/>
    <g id="np_bills_2335595_000000">
      <path id="Path_18640" data-name="Path 18640" d="M37.707,29.522h.477a1.843,1.843,0,0,1-.545,1.44,1.9,1.9,0,0,1-2.323.415l-.407.443-.219-.2.378-.407-.159-.133-.151-.159-.378.407-.219-.2.407-.443a1.9,1.9,0,0,1,.292-2.339,1.823,1.823,0,0,1,1.4-.639v.477a1.48,1.48,0,0,0-1.3,2.087l1.176-1.22.216.2-1.22,1.286a1.476,1.476,0,0,0,.316.3l1.22-1.286.216.208-1.155,1.22v0a1.476,1.476,0,0,0,2-1.443Z" transform="translate(-26.772 -22.94)" fill="#0abfe2"/>
      <path id="Path_18641" data-name="Path 18641" d="M63.7,50.428l.467-.037a1.847,1.847,0,0,1-.55,1.44,1.9,1.9,0,0,1-2.3.451l-.407.443-.219-.2.383-.407-.164-.138c-.057-.052-.106-.106-.154-.159l-.378.407-.216-.2.407-.443v0a1.9,1.9,0,0,1,.292-2.339,1.828,1.828,0,0,1,1.4-.639v.475a1.481,1.481,0,0,0-1.314,2.091l1.155-1.22.219.2-1.22,1.286h0a1.386,1.386,0,0,0,.146.159,1.292,1.292,0,0,0,.17.138l1.22-1.281.216.2-1.155,1.22v0a1.474,1.474,0,0,0,2-1.443Z" transform="translate(-42.195 -35.339)" fill="#0abfe2"/>
      <path id="Path_18642" data-name="Path 18642" d="M34.962,38.965,16,24.673,26.46,16,45.437,30.283ZM17.293,24.645,34.938,37.927l9.19-7.615L26.483,17.03Z" transform="translate(-16 -16)" fill="#0abfe2"/>
      <path id="Path_18643" data-name="Path 18643" d="M35.536,58.509,16.968,44.531l.489-.652,18.054,13.6L45.1,49.531l.521.626Z" transform="translate(-16.574 -32.537)" fill="#0abfe2"/>
      <path id="Path_18644" data-name="Path 18644" d="M35.536,65.419,16.968,51.436l.489-.647L35.512,64.381,45.1,56.44l.521.626Z" transform="translate(-16.574 -36.636)" fill="#0abfe2"/>
      <path id="Path_18645" data-name="Path 18645" d="M42.888,30.238l-9.769,8.2L31.851,43.3,36.11,46.5l1.257-4.869,9.271-8.572Z" transform="translate(-25.402 -24.446)" fill="#0abfe2"/>
    </g>
  </g>
</svg>
