<svg xmlns="http://www.w3.org/2000/svg" width="46.903" height="46" viewBox="0 0 46.903 46">
  <g id="Group_10940" data-name="Group 10940" transform="translate(0.657 -0.418)">
    <path id="Path_18651" data-name="Path 18651" d="M1270.915,1167.942h-38.758s-6.28,10.976-1.37,17.44,37.089,9.5,42.28.91S1270.915,1167.942,1270.915,1167.942Z" transform="translate(-1228.677 -1155.53)" fill="#c1e3a5" opacity="0.465"/>
    <g id="np_apps_1904176_000000" transform="translate(-0.48 0.311)">
      <g id="Ellipse_3" data-name="Ellipse 3" transform="translate(-0.177 0.108)" fill="none" stroke="#65c318" stroke-width="1.5">
        <circle cx="23" cy="23" r="23" stroke="none"/>
        <circle cx="23" cy="23" r="22.25" fill="none"/>
      </g>
      <g id="Group_9" data-name="Group 9" transform="translate(9.927 14.447)" opacity="0.774">
        <path id="Path_18633" data-name="Path 18633" d="M32.124,38.721c0,4-6,4-6,0s6-4,6,0" transform="translate(-26.125 -35.721)" fill="#65c318"/>
        <path id="Path_18634" data-name="Path 18634" d="M50.874,38.721c0,4-6,4-6,0s6-4,6,0" transform="translate(-33.902 -35.721)" fill="#65c318"/>
        <path id="Path_18635" data-name="Path 18635" d="M69.624,38.721c0,4-6,4-6,0s6-4,6,0" transform="translate(-41.679 -35.721)" fill="#65c318"/>
        <path id="Path_18636" data-name="Path 18636" d="M32.124,57.471c0,4-6,4-6,0s6-4,6,0" transform="translate(-26.125 -43.498)" fill="#65c318"/>
        <path id="Path_18637" data-name="Path 18637" d="M50.874,57.471c0,4-6,4-6,0s6-4,6,0" transform="translate(-33.902 -43.498)" fill="#65c318"/>
        <path id="Path_18638" data-name="Path 18638" d="M69.624,57.471c0,4-6,4-6,0s6-4,6,0" transform="translate(-41.679 -43.498)" fill="#65c318"/>
      </g>
    </g>
  </g>
</svg>
