<svg id="Group_10937" data-name="Group 10937" xmlns="http://www.w3.org/2000/svg" width="46.474" height="46.474" viewBox="0 0 46.474 46.474">
  <g id="Ellipse_213" data-name="Ellipse 213" transform="translate(2.452 1.668)" fill="none" stroke="#d5fdee" stroke-width="5">
    <circle cx="21.177" cy="21.177" r="21.177" stroke="none"/>
    <circle cx="21.177" cy="21.177" r="18.677" fill="none"/>
  </g>
  <path id="np_time_3687658_000000" d="M29.488,6.254A23.237,23.237,0,1,0,42.059,49.038a1.1,1.1,0,0,0,.5-.7,1.125,1.125,0,0,0-.149-.847,1.107,1.107,0,0,0-1.552-.317A21.013,21.013,0,1,1,46.609,41.7a1.107,1.107,0,1,0,1.8,1.286A23.24,23.24,0,0,0,29.488,6.254Zm0,4.426A18.789,18.789,0,0,0,23,11.827a1.108,1.108,0,1,0,.764,2.081A16.605,16.605,0,1,1,15.2,21.039a1.107,1.107,0,1,0-1.9-1.129,18.812,18.812,0,1,0,16.19-9.231Zm0,4.426a1.105,1.105,0,1,0,.782.324,1.1,1.1,0,0,0-.782-.324Zm-9.374,3.888a1.107,1.107,0,1,0,.768.324A1.108,1.108,0,0,0,20.116,18.993Zm18.779,0a1.107,1.107,0,1,0,.768.324,1.108,1.108,0,0,0-.768-.324Zm-9.424.521a1.105,1.105,0,0,0-1.089,1.122v8.851a1.111,1.111,0,0,0,.326.784l6.637,6.642a1.109,1.109,0,0,0,1.569-1.569L30.6,29.031V20.636a1.109,1.109,0,0,0-1.125-1.122Zm-13.26,8.87a1.105,1.105,0,1,0,.782.324,1.1,1.1,0,0,0-.782-.324Zm26.558,0a1.105,1.105,0,1,0,.782.324,1.1,1.1,0,0,0-.782-.324ZM20.116,37.772a1.107,1.107,0,1,0,.768.324A1.108,1.108,0,0,0,20.116,37.772Zm18.779,0a1.107,1.107,0,1,0,.768.324,1.108,1.108,0,0,0-.768-.324Zm-9.405,3.89a1.105,1.105,0,1,0,.782.324,1.1,1.1,0,0,0-.782-.324Z" transform="translate(-6.254 -6.254)" fill="#06c380"/>
</svg>
