<svg xmlns="http://www.w3.org/2000/svg" width="13.216" height="15.086" viewBox="0 0 13.216 15.086">
  <g id="Group_949" data-name="Group 949" transform="translate(-80.001 -342)">
    <path id="Path_18649" data-name="Path 18649" d="M1079.806,984.8v-.04l.2-1.056.715-.842,5.535-.14,3.336,3.614v8.043l-.637.641-.891-.825-.727.825-.7-.641v-6.128l-3.525-3.369Z" transform="translate(-996.63 -640.526)" fill="#bcc1ff" opacity="0.561"/>
    <g id="np_invoice_2628928_000000" transform="translate(80.001 342)">
      <path id="Path_18621" data-name="Path 18621" d="M13.276,22.4a.209.209,0,0,0,.154.1l.027,0a.205.205,0,0,0,.148-.062l.709-.725.648.719a.207.207,0,0,0,.295.014l.807-.74.639.724a.207.207,0,0,0,.3.008l.715-.728.668.723a.207.207,0,0,0,.29.015l.851-.751.7.738h0a.208.208,0,0,0,.3,0l.645-.709.6.7a.21.21,0,0,0,.162.073.208.208,0,0,0,.159-.079l.78-.985h0a.208.208,0,0,0,.045-.129V19.7l.34.351a.207.207,0,0,0,.3,0l.64-.657.659.659a.208.208,0,0,0,.294,0l.7-.7h0a.207.207,0,0,0,.061-.147V11.122a.207.207,0,0,0-.061-.147l-3.5-3.489,0,0a.2.2,0,0,0-.181-.063H17.279a1.593,1.593,0,0,0-1.591,1.591v.515h-1.4A1.593,1.593,0,0,0,12.7,11.115v10.2a.21.21,0,0,0,.026.1Zm6.142-12.165,2.8,2.8H20.593a1.178,1.178,0,0,1-1.176-1.176Zm2.991-2.106,2.8,2.8H23.585a1.177,1.177,0,0,1-1.176-1.176ZM16.1,9.009a1.178,1.178,0,0,1,1.176-1.176h4.715V9.745a1.593,1.593,0,0,0,1.591,1.591H25.5v7.782l-.491.491-.661-.661h0a.207.207,0,0,0-.3,0l-.638.655-.489-.5V13.228a.207.207,0,0,0-.061-.147l-3.5-3.489,0,0h0a.2.2,0,0,0-.181-.063H16.1Zm-2.991,2.106a1.178,1.178,0,0,1,1.176-1.176H19v1.913a1.593,1.593,0,0,0,1.591,1.591h1.912v7.8l-.578.73-.586-.691a.207.207,0,0,0-.154-.073.2.2,0,0,0-.157.068l-.653.718-.682-.721a.207.207,0,0,0-.288-.012l-.849.749-.678-.734h0a.206.206,0,0,0-.149-.066h0a.208.208,0,0,0-.148.062l-.712.724-.631-.716a.208.208,0,0,0-.145-.07.21.21,0,0,0-.152.054L15.13,22l-.655-.727h0a.208.208,0,0,0-.3-.007l-.67.686-.391-.7Z" transform="translate(-12.696 -7.418)" fill="#fff"/>
      <path id="Path_18622" data-name="Path 18622" d="M24.9,46.313h5.56a.208.208,0,1,0,0-.415H24.9a.208.208,0,1,0,0,.415Z" transform="translate(-22.566 -39.082)" fill="#fff"/>
      <path id="Path_18623" data-name="Path 18623" d="M24.9,53.149h5.56a.208.208,0,1,0,0-.415H24.9a.208.208,0,1,0,0,.415Z" transform="translate(-22.566 -44.707)" fill="#fff"/>
      <path id="Path_18624" data-name="Path 18624" d="M24.9,59.985h5.56a.208.208,0,1,0,0-.415H24.9a.208.208,0,1,0,0,.415Z" transform="translate(-22.566 -50.332)" fill="#fff"/>
      <path id="Path_18625" data-name="Path 18625" d="M55.267,76.312h-.219a.208.208,0,1,0,0,.415h.219a.208.208,0,1,0,0-.415Z" transform="translate(-47.375 -64.109)" fill="#fff"/>
      <path id="Path_18626" data-name="Path 18626" d="M43.869,76.312H42.477a.208.208,0,0,0,0,.415h1.391a.208.208,0,0,0,0-.415Z" transform="translate(-37.031 -64.109)" fill="#fff"/>
      <path id="Path_18627" data-name="Path 18627" d="M25.415,68.03h-.008a.309.309,0,0,1-.3-.308.208.208,0,0,0-.415,0,.725.725,0,0,0,.516.693v.13a.208.208,0,0,0,.415,0v-.13A.723.723,0,0,0,25.412,67a.308.308,0,1,1,.308-.309.208.208,0,0,0,.415,0A.724.724,0,0,0,25.619,66v-.107a.208.208,0,0,0-.415,0V66a.723.723,0,0,0,.208,1.416.308.308,0,0,1,0,.617Z" transform="translate(-22.563 -55.363)" fill="#fff"/>
    </g>
  </g>
</svg>
