<svg xmlns="http://www.w3.org/2000/svg" xmlns:xlink="http://www.w3.org/1999/xlink" width="591" height="616" viewBox="0 0 591 616">
  <defs>
    <filter id="Rectangle_6055" x="0" y="0" width="591" height="616" filterUnits="userSpaceOnUse">
      <feOffset input="SourceAlpha"/>
      <feGaussianBlur stdDeviation="49.5" result="blur"/>
      <feFlood flood-color="#032a83" flood-opacity="0.161"/>
      <feComposite operator="in" in2="blur"/>
      <feComposite in="SourceGraphic"/>
    </filter>
  </defs>
  <g id="Group_10956" data-name="Group 10956" transform="translate(-21251.5 8314.5)">
    <g id="Group_733" data-name="Group 733" transform="translate(46 293)">
      <g transform="matrix(1, 0, 0, 1, 21205.5, -8607.5)" filter="url(#Rectangle_6055)">
        <rect id="Rectangle_6055-2" data-name="Rectangle 6055" width="294" height="319" rx="10" transform="translate(148.5 148.5)" fill="#fff"/>
      </g>
      <text id="Payment_Successful" data-name="Payment Successful" transform="translate(21501 -8242)" fill="#06c380" font-size="16" font-family="Montserrat-Bold, Montserrat" font-weight="700"><tspan x="-84" y="0">Payment Successful</tspan></text>
      <text id="Received_5000_" data-name="Received $5000  " transform="translate(21423 -8229)" fill="#7c828a" font-size="17" font-family="Montserrat-Regular, Montserrat"><tspan x="9" y="16">Received</tspan><tspan y="16" xml:space="preserve" font-family="Montserrat-Bold, Montserrat" font-weight="700"> $5000</tspan><tspan y="16" xml:space="preserve">  </tspan></text>
    </g>
    <g id="Group_46513" data-name="Group 46513">
      <g id="Group_1153" data-name="Group 1153" transform="translate(9 19)">
        <g id="Ellipse_219" data-name="Ellipse 219" transform="translate(21484 -8114)" fill="none" stroke="#2323b7" stroke-width="2">
          <circle cx="54" cy="54" r="54" stroke="none"/>
          <circle cx="54" cy="54" r="53" fill="none"/>
        </g>
        <g id="Group_11" data-name="Group 11" transform="translate(15575.496 -8990)">
          <path id="Path_18652" data-name="Path 18652" d="M5953.969,911.751l24.909-6.8,1.154.389.412,1.779,8.269,31.357-1.8-1.083-1.751-.516h-1.837l-.628.516-1.6,1.083-.418,1.815.683,2.538,1.339,2.245v.359l-17.057,4.652h-1.165l-.829-.286-9.674-36.846-.212-.634Z" fill="#d9dcff"/>
          <rect id="Rectangle_5974" data-name="Rectangle 5974" width="6" height="6" rx="1" transform="matrix(0.966, -0.259, 0.259, 0.966, 5964.326, 911.879)" fill="#e6c67c"/>
          <path id="np_hand-holding-secured-credit-card-over-pos-terminal_2326747_000000" d="M37.241,63.373,36.373,74.4c-.407,5.167-30.29,5.17-30.69,0L3.5,45.972l0-.034V17.107c0-6.411,35.064-6.448,35.064,0v3.417L51.33,17.1a1.423,1.423,0,0,1,1.736,1l7.661,28.592a35.346,35.346,0,0,1,6.9.567c3.192.434,9.544.728,12.149,2.02a18.885,18.885,0,0,1,4.941,4.1.47.47,0,0,1-.677.653,18.052,18.052,0,0,0-4.682-3.913c-2.413-1.2-8.847-1.521-11.858-1.931a37,37,0,0,0-6.53-.571l.912,3.41c1.982,1.572,3.756,3.356,6.107,4.367a7.178,7.178,0,0,0,2.573.656,4.748,4.748,0,0,1,.509-1.155.471.471,0,0,1,.806.485,4.8,4.8,0,0,0-.451,3.482c.273.208.547.413.824.612a3.242,3.242,0,0,0,2.358-1.7.282.282,0,0,1,.475.3,4.184,4.184,0,0,1-2.17,1.842c.325.212.656.41,1,.595A2.731,2.731,0,0,0,75.494,60a.282.282,0,0,1,.335.454,3.471,3.471,0,0,1-1.035.506,10.15,10.15,0,0,0,3.841.912.47.47,0,0,1-.034.94c-5.252-.185-8.331-3.875-12.145-6.79-1.777-1.36-3.482-2.935-5.259-4.336-.01-.007-.021-.017-.031-.024-.229-.181-.448-.349-.653-.506-4.4-3.352-9.062.195-5.386,5.252a22.345,22.345,0,0,0,2.727,3.151c1.158,1.094,2.44,2.064,3.605,3.164a62.531,62.531,0,0,1,4.654,4.911c.724.851,1.425,1.77,2.136,2.7,1.9,2.488,3.872,5.064,6.438,6.544a.469.469,0,0,1-.468.813A17.759,17.759,0,0,1,69.633,73.6a3.424,3.424,0,0,1-.516,1.326,2.266,2.266,0,0,1-3.868-.4,7.045,7.045,0,0,1-.742-3.281,10.122,10.122,0,0,1,.54-3.414c-.144-.164-.287-.331-.434-.5a4.407,4.407,0,0,0-.8,2.57c1.333,4.726-2.966,7.836-4.76,4.507A11.976,11.976,0,0,1,58.045,70.4c-1.671,2.334-4.808,2.331-5.177-1.158a12.287,12.287,0,0,1,.062-2.816c.068-.5-.021-.5-.407-.608a3.915,3.915,0,0,1-.632-.226c-1.633-.765-1.251-2.406-.793-4.364.12-.516.246-1.056.335-1.6l-13.744,3.7a1.341,1.341,0,0,1-.448.044Zm33.154-6.387a6.935,6.935,0,0,1-1.616-.3c.533.448,1.063.9,1.6,1.34a6.454,6.454,0,0,1,.014-1.035ZM43.272,37.276a.188.188,0,0,1-.325-.188l0-.007a.936.936,0,0,1,1.268-.338l.01.007a.188.188,0,0,1-.188.325l-.007,0a.563.563,0,0,0-.755.2l0,.007Zm-.854-.5a.188.188,0,0,1-.325-.188,1.928,1.928,0,0,1,2.624-.7.188.188,0,0,1-.188.325,1.556,1.556,0,0,0-2.112.564Zm-.871-.509a.188.188,0,0,1-.325-.188,2.943,2.943,0,0,1,4-1.066.188.188,0,0,1-.188.325,2.569,2.569,0,0,0-3.489.929Zm-.919-.513a.189.189,0,0,1-.328-.188,4.008,4.008,0,0,1,5.44-1.473.189.189,0,0,1-.188.328,3.627,3.627,0,0,0-4.924,1.336Zm-1.169-9.582-1.213.325.178.663,1.213-.325ZM38.1,25.951l1.213-.325-.212-.793L38.491,25a.626.626,0,0,0-.441.762Zm1.681,1.428L38.57,27.7l.188.7.817-.219c.376-.1.376-.181.284-.53Zm-.137-2.693.608,2.273.147.55c.174.653.007,1.039-.683,1.223l-.817.219.12.444a.626.626,0,0,0,.762.441l2.351-.629-.677-2.525-.161-.6a.821.821,0,0,1,.673-1.165l.967-.26-.051-.191a.623.623,0,0,0-.762-.441l-2.481.663Zm2.607,2.782L43.6,27.11l-.178-.663-1.343.359Zm1.49.185-1.343.359.28,1.046.742-.2a.623.623,0,0,0,.441-.762Zm-1.811-1.394,1.343-.359-.188-.7-.971.26c-.331.089-.362.137-.273.472Zm6.8-4.1a.283.283,0,0,1,.547-.147L51.2,29.153a.283.283,0,0,1-.547.147ZM38.344,24.451l3.636-.974a1.19,1.19,0,0,1,1.452.841l.974,3.636a1.19,1.19,0,0,1-.841,1.452l-3.636.974a1.19,1.19,0,0,1-1.452-.841L37.5,25.9a1.19,1.19,0,0,1,.841-1.452Zm.5,28.285a.283.283,0,0,1,.547-.147l1.36,5.071a.283.283,0,0,1-.547.147Zm-2.327-8.683a.283.283,0,0,1,.547-.147l1.36,5.071a.283.283,0,0,1-.547.147Zm-2.327-8.683a.283.283,0,0,1,.547-.147l1.36,5.071a.283.283,0,0,1-.547.147Zm-2.327-8.683a.283.283,0,0,1,.547-.147l1.36,5.071a.283.283,0,0,1-.547.147Zm5.765-5.905v-3.67c0-5.143-33.178-5.112-33.178,0V45.928L6.628,74.216c.147,1.92,7.484,3.175,14.469,3.185,7.388.014,14.185-1.261,14.343-3.263l.9-11.174a1.4,1.4,0,0,1-.372-.639L32.4,49.048H8.716a.282.282,0,0,1,0-.564H32.254l-.619-2.307a11.9,11.9,0,0,1-3.4.4,1.223,1.223,0,0,1-1.22-1.22V43.089a1.223,1.223,0,0,1,1.22-1.22h2.249L29.9,39.7H9.331a1.212,1.212,0,0,1-1.21-1.21V18.252a1.212,1.212,0,0,1,1.21-1.21H32.739a1.212,1.212,0,0,1,1.21,1.21v3.5l3.677-.984ZM55.608,58.514l-3.175.854a20.7,20.7,0,0,1-.41,2.078c-.362,1.555-.666,2.86.273,3.3a2.026,2.026,0,0,0,2.385-.441A6.037,6.037,0,0,0,56,62.413a8.71,8.71,0,0,0,.772-2.642q-.6-.6-1.162-1.254ZM31.393,45.276l-.66-2.457h-2.5a.28.28,0,0,0-.277.277v2.269a.28.28,0,0,0,.277.277,10.951,10.951,0,0,0,3.161-.366Zm-1.743-6.51-2.026-7.559A6.883,6.883,0,0,1,21,35.434a7.057,7.057,0,1,1,5.471-11.513,1.439,1.439,0,0,1,.578-.314l5.953-1.6V18.256a.269.269,0,0,0-.267-.267H9.331a.269.269,0,0,0-.267.267V38.5a.269.269,0,0,0,.267.267H29.647Zm-2.3-8.591-1.3-4.829a1.411,1.411,0,0,1,.079-.95A6.491,6.491,0,1,0,21,34.87a6.234,6.234,0,0,0,6.342-4.7ZM60.676,50.108l-8.509-31.76a.476.476,0,0,0-.581-.335Q39.443,21.268,27.3,24.519a.476.476,0,0,0-.335.581l9.91,36.981a.476.476,0,0,0,.581.335l17.5-4.706c-.2-.249-.39-.5-.574-.755-4.149-5.707,1.08-10.361,6.3-6.852Zm5.1,18.576a9.467,9.467,0,0,0-.318,2.56,6.111,6.111,0,0,0,.622,2.833,1.337,1.337,0,0,0,2.276.321,3.436,3.436,0,0,0,.444-1.832c-.437-.55-.861-1.107-1.285-1.661-.581-.759-1.155-1.51-1.736-2.221Zm-3.233-9.076a.282.282,0,0,1-.3-.478,2.872,2.872,0,0,0,1.07-1.135.281.281,0,0,1,.5.26,3.426,3.426,0,0,1-1.268,1.353Zm-7.361-5.17a.281.281,0,0,1,.506-.246,2.611,2.611,0,0,0,2.8,1.64c1.1-.29,2.58-2.023,1.418-3.113a.282.282,0,0,1,.386-.41c1.51,1.422-.123,3.66-1.661,4.07a3.15,3.15,0,0,1-3.448-1.941ZM63.1,68.389a4.874,4.874,0,0,1,.885-1.763c-.967-1.059-1.968-2.088-3.007-3.076a9.088,9.088,0,0,0-1.063,1.982A18.44,18.44,0,0,0,58.93,69,12.51,12.51,0,0,0,59.9,73.97c1.312,2.437,4.449-.533,2.717-4.685a.471.471,0,0,1,.253-.615c.236-.1.144.031.229-.28Zm-3.882-3.615a9.26,9.26,0,0,1,1.07-1.869c-.882-.81-1.811-1.548-2.689-2.348a10.211,10.211,0,0,1-.748,2.249A6.983,6.983,0,0,1,55.314,65a3.743,3.743,0,0,1-.817.578c-.591.294-.537.294-.619.906a11.77,11.77,0,0,0-.065,2.665c.318,3,2.823,2.1,3.844.106a8.133,8.133,0,0,0,.8-3.38,5.852,5.852,0,0,0-.021-.7.473.473,0,0,1,.431-.509.464.464,0,0,1,.342.109ZM17.977,27.666a.282.282,0,0,1,.4-.4l.014.014a1.6,1.6,0,0,1,0,2.228l-.014.014a.282.282,0,0,1-.4-.4l.01-.01a1.027,1.027,0,0,0,0-1.435l-.01-.01Zm1.234-1.22a.282.282,0,0,1,.4-.4,3.343,3.343,0,0,1,0,4.688.282.282,0,0,1-.4-.4,2.778,2.778,0,0,0,0-3.892Zm1.258-1.24a.282.282,0,0,1,.4-.4,5.122,5.122,0,0,1-.01,7.18.282.282,0,0,1-.4-.4,4.554,4.554,0,0,0,.01-6.383ZM21.75,23.88a.282.282,0,0,1,.4-.4,6.982,6.982,0,0,1,.027,9.8.282.282,0,0,1-.4-.4,6.41,6.41,0,0,0-.027-9ZM12.629,37.586a.189.189,0,0,1-.267.267L10.22,35.71a.189.189,0,0,1,.267-.267Zm-1.305.007a.189.189,0,0,1-.267.267l-.878-.878a.189.189,0,0,1,.267-.267Zm2.563,5.225H9.362a.28.28,0,0,0-.277.277,1.991,1.991,0,0,0,.567,1.627c.6.53,1.825.919,4.234.919a.28.28,0,0,0,.277-.277V43.095a.28.28,0,0,0-.277-.277Zm-4.524-.943h4.524a1.223,1.223,0,0,1,1.22,1.22v2.269a1.223,1.223,0,0,1-1.22,1.22c-2.672,0-4.09-.489-4.853-1.155a2.8,2.8,0,0,1-.892-2.334A1.223,1.223,0,0,1,9.362,41.875Zm9.424,0h4.524a1.223,1.223,0,0,1,1.22,1.22v2.269a1.223,1.223,0,0,1-1.22,1.22H18.786a1.223,1.223,0,0,1-1.22-1.22V43.095A1.223,1.223,0,0,1,18.786,41.875Zm4.524.943H18.786a.28.28,0,0,0-.277.277v2.269a.28.28,0,0,0,.277.277h4.524a.28.28,0,0,0,.277-.277V43.095A.28.28,0,0,0,23.311,42.818Zm4.237,26.47h4.1a1.151,1.151,0,0,1,1.148,1.148V72.49a1.151,1.151,0,0,1-1.148,1.148h-4.1A1.151,1.151,0,0,1,26.4,72.49V70.437a1.151,1.151,0,0,1,1.148-1.148Zm4.1.943h-4.1a.206.206,0,0,0-.205.205V72.49a.206.206,0,0,0,.205.205h4.1a.206.206,0,0,0,.205-.205V70.437A.206.206,0,0,0,31.645,70.231ZM19,69.288h4.1a1.151,1.151,0,0,1,1.148,1.148V72.49A1.151,1.151,0,0,1,23.1,73.639H19a1.151,1.151,0,0,1-1.148-1.148V70.437A1.151,1.151,0,0,1,19,69.288Zm4.1.943H19a.206.206,0,0,0-.205.205V72.49A.206.206,0,0,0,19,72.7h4.1a.206.206,0,0,0,.205-.205V70.437A.206.206,0,0,0,23.1,70.231Zm-12.644-.943h4.1A1.151,1.151,0,0,1,15.7,70.437V72.49a1.151,1.151,0,0,1-1.148,1.148h-4.1A1.151,1.151,0,0,1,9.307,72.49V70.437A1.151,1.151,0,0,1,10.455,69.288Zm4.1.943h-4.1a.206.206,0,0,0-.205.205V72.49a.206.206,0,0,0,.205.205h4.1a.206.206,0,0,0,.205-.205V70.437A.206.206,0,0,0,14.553,70.231Zm13-6.793h4.1A1.151,1.151,0,0,1,32.8,64.586V66.64a1.151,1.151,0,0,1-1.148,1.148h-4.1A1.151,1.151,0,0,1,26.4,66.64V64.586a1.151,1.151,0,0,1,1.148-1.148Zm4.1.943h-4.1a.206.206,0,0,0-.205.205V66.64a.206.206,0,0,0,.205.205h4.1a.206.206,0,0,0,.205-.205V64.586A.206.206,0,0,0,31.649,64.381Zm-12.644-.943h4.1a1.151,1.151,0,0,1,1.148,1.148V66.64A1.151,1.151,0,0,1,23.1,67.788h-4.1a1.151,1.151,0,0,1-1.148-1.148V64.586A1.151,1.151,0,0,1,19.005,63.438Zm4.1.943h-4.1a.206.206,0,0,0-.205.205V66.64a.206.206,0,0,0,.205.205h4.1a.206.206,0,0,0,.205-.205V64.586A.206.206,0,0,0,23.1,64.381Zm-12.644-.943h4.1A1.151,1.151,0,0,1,15.7,64.586V66.64a1.151,1.151,0,0,1-1.148,1.148h-4.1A1.151,1.151,0,0,1,9.31,66.64V64.586a1.151,1.151,0,0,1,1.148-1.148Zm4.1.943h-4.1a.206.206,0,0,0-.205.205V66.64a.206.206,0,0,0,.205.205h4.1a.206.206,0,0,0,.205-.205V64.586A.206.206,0,0,0,14.556,64.381Zm13-6.793h4.1A1.151,1.151,0,0,1,32.8,58.736V60.79a1.151,1.151,0,0,1-1.148,1.148h-4.1a1.151,1.151,0,0,1-1.148-1.148V58.736a1.151,1.151,0,0,1,1.148-1.148Zm4.1.943h-4.1a.206.206,0,0,0-.205.205V60.79a.206.206,0,0,0,.205.205h4.1a.206.206,0,0,0,.205-.205V58.736A.206.206,0,0,0,31.652,58.531Zm-12.644-.943h4.1a1.151,1.151,0,0,1,1.148,1.148V60.79a1.151,1.151,0,0,1-1.148,1.148h-4.1A1.151,1.151,0,0,1,17.86,60.79V58.736A1.151,1.151,0,0,1,19.008,57.588Zm4.1.943h-4.1a.206.206,0,0,0-.205.205V60.79a.206.206,0,0,0,.205.205h4.1a.206.206,0,0,0,.205-.205V58.736A.206.206,0,0,0,23.106,58.531Zm-12.644-.943h4.1a1.151,1.151,0,0,1,1.148,1.148V60.79a1.151,1.151,0,0,1-1.148,1.148h-4.1A1.151,1.151,0,0,1,9.314,60.79V58.736a1.151,1.151,0,0,1,1.148-1.148Zm4.1.943h-4.1a.206.206,0,0,0-.205.205V60.79a.206.206,0,0,0,.205.205h4.1a.206.206,0,0,0,.205-.205V58.736A.206.206,0,0,0,14.559,58.531Zm13-6.793h4.1A1.151,1.151,0,0,1,32.8,52.886v2.054a1.151,1.151,0,0,1-1.148,1.148h-4.1a1.151,1.151,0,0,1-1.148-1.148V52.886a1.151,1.151,0,0,1,1.148-1.148Zm4.1.943h-4.1a.206.206,0,0,0-.205.205v2.054a.206.206,0,0,0,.205.205h4.1a.206.206,0,0,0,.205-.205V52.886A.206.206,0,0,0,31.655,52.68Zm-12.644-.943h4.1a1.151,1.151,0,0,1,1.148,1.148v2.054a1.151,1.151,0,0,1-1.148,1.148h-4.1a1.151,1.151,0,0,1-1.148-1.148V52.886A1.151,1.151,0,0,1,19.012,51.737Zm4.1.943h-4.1a.206.206,0,0,0-.205.205v2.054a.206.206,0,0,0,.205.205h4.1a.206.206,0,0,0,.205-.205V52.886A.206.206,0,0,0,23.109,52.68Zm-12.644-.943h4.1a1.151,1.151,0,0,1,1.148,1.148v2.054a1.151,1.151,0,0,1-1.148,1.148h-4.1a1.151,1.151,0,0,1-1.148-1.148V52.886a1.151,1.151,0,0,1,1.148-1.148Zm4.1.943h-4.1a.206.206,0,0,0-.205.205v2.054a.206.206,0,0,0,.205.205h4.1a.206.206,0,0,0,.205-.205V52.886A.206.206,0,0,0,14.563,52.68Z" transform="translate(5927.33 887.437)" fill="#4535cd"/>
        </g>
      </g>
      <g id="Group_1154" data-name="Group 1154" transform="translate(-12.09 37)">
        <g id="Ellipse_220" data-name="Ellipse 220" transform="translate(21605 -8095)" fill="#fff" stroke="#707070" stroke-width="1">
          <circle cx="9" cy="9" r="9" stroke="none"/>
          <circle cx="9" cy="9" r="8.5" fill="none"/>
        </g>
        <path id="np_done_1276366_000000" d="M20.09,7A12.09,12.09,0,1,0,32.18,19.09,12.108,12.108,0,0,0,20.09,7Zm5.623,9.9-6.748,6.748a1.088,1.088,0,0,1-1.575,0L13.9,20.214a1.133,1.133,0,0,1,1.6-1.6l2.642,2.642,5.96-5.96a1.119,1.119,0,0,1,1.6,0,1.172,1.172,0,0,1,0,1.6Z" transform="translate(21593 -8105)" fill="#51f7bc"/>
      </g>
    </g>
  </g>
</svg>
