<svg xmlns="http://www.w3.org/2000/svg" xmlns:xlink="http://www.w3.org/1999/xlink" width="559.918" height="622.424" viewBox="0 0 559.918 622.424">
  <defs>
    <clipPath id="clip-path">
      <rect id="Rectangle_6333" data-name="Rectangle 6333" width="349.994" height="604.592" transform="translate(0 17.732)"/>
    </clipPath>
    <filter id="Rectangle_5961" x="102.939" y="97.031" width="353.062" height="158.932" filterUnits="userSpaceOnUse">
      <feOffset input="SourceAlpha"/>
      <feGaussianBlur stdDeviation="10" result="blur"/>
      <feFlood flood-color="#010914" flood-opacity="0.294"/>
      <feComposite operator="in" in2="blur"/>
      <feComposite in="SourceGraphic"/>
    </filter>
    <radialGradient id="radial-gradient" cx="0.5" cy="0.5" r="0.5" gradientUnits="objectBoundingBox">
      <stop offset="0" stop-color="#5444de"/>
      <stop offset="1" stop-color="#5443e9"/>
    </radialGradient>
    <filter id="Rectangle_5967" x="361.535" y="137.23" width="59.866" height="59.866" filterUnits="userSpaceOnUse">
      <feOffset input="SourceAlpha"/>
      <feGaussianBlur stdDeviation="5" result="blur-2"/>
      <feFlood flood-opacity="0.161"/>
      <feComposite operator="in" in2="blur-2"/>
      <feComposite in="SourceGraphic"/>
    </filter>
    <filter id="Rectangle_5963" x="115.139" y="261.362" width="172.798" height="172.798" filterUnits="userSpaceOnUse">
      <feOffset input="SourceAlpha"/>
      <feGaussianBlur stdDeviation="5" result="blur-3"/>
      <feFlood flood-color="#003ea5" flood-opacity="0.2"/>
      <feComposite operator="in" in2="blur-3"/>
      <feComposite in="SourceGraphic"/>
    </filter>
    <filter id="Rectangle_5965" x="113.272" y="420.959" width="172.798" height="172.798" filterUnits="userSpaceOnUse">
      <feOffset input="SourceAlpha"/>
      <feGaussianBlur stdDeviation="5" result="blur-4"/>
      <feFlood flood-color="#003ea5" flood-opacity="0.2"/>
      <feComposite operator="in" in2="blur-4"/>
      <feComposite in="SourceGraphic"/>
    </filter>
    <filter id="Rectangle_5964" x="271.937" y="261.362" width="172.798" height="172.798" filterUnits="userSpaceOnUse">
      <feOffset input="SourceAlpha"/>
      <feGaussianBlur stdDeviation="5" result="blur-5"/>
      <feFlood flood-color="#003ea5" flood-opacity="0.2"/>
      <feComposite operator="in" in2="blur-5"/>
      <feComposite in="SourceGraphic"/>
    </filter>
    <filter id="Rectangle_5966" x="270.07" y="420.959" width="172.798" height="172.798" filterUnits="userSpaceOnUse">
      <feOffset input="SourceAlpha"/>
      <feGaussianBlur stdDeviation="5" result="blur-6"/>
      <feFlood flood-color="#003ea5" flood-opacity="0.2"/>
      <feComposite operator="in" in2="blur-6"/>
      <feComposite in="SourceGraphic"/>
    </filter>
  </defs>
  <g id="Group_46479" data-name="Group 46479" transform="translate(-1125.322 -4895)">
    <g id="Img" transform="translate(1125.322 4895)">
      <path id="BG" d="M335.966,575.154C117.644,575.154,0,435.656,0,279.213S89.674,0,267.68,0c234.9,0,207.99,74.7,267.68,279.213C584.526,447.665,579.063,575.154,335.966,575.154Z" transform="translate(0)" fill="#ebf5ff"/>
    </g>
    <g id="Home" transform="translate(1229.328 4895.1)" clip-path="url(#clip-path)">
      <rect id="Rectangle_5956" data-name="Rectangle 5956" width="349.994" height="604.79" rx="16" transform="translate(0 17.733)" fill="#4535cd" opacity="0.999"/>
      <path id="Rectangle_5981" data-name="Rectangle 5981" d="M21.466,0H328.528c11.856,0,21.466,4.832,21.466,10.793V381.027H0V10.793C0,4.832,9.611,0,21.466,0Z" transform="translate(0 248.263)" fill="#fafafa"/>
      <g transform="matrix(1, 0, 0, 1, -104.01, -0.1)" filter="url(#Rectangle_5961)">
        <rect id="Rectangle_5961-2" data-name="Rectangle 5961" width="293.062" height="98.932" rx="6" transform="translate(132.94 127.03)" fill="#fafaff"/>
      </g>
      <text id="Sales" transform="translate(269.729 206.13)" fill="#979eb6" font-size="12" font-family="Montserrat" font-weight="700"><tspan x="0" y="0">Sales</tspan></text>
      <g id="Group_708" data-name="Group 708" transform="translate(272.529 152.131)">
        <g transform="matrix(1, 0, 0, 1, -376.54, -152.23)" filter="url(#Rectangle_5967)">
          <rect id="Rectangle_5967-2" data-name="Rectangle 5967" width="29.866" height="29.866" rx="14.933" transform="translate(376.54 152.23)" fill="url(#radial-gradient)"/>
        </g>
        <g id="np_arrow-right_888647_000000" transform="translate(9.333 11.2)">
          <path id="Path_18647" data-name="Path 18647" d="M12.5,45.832h8.99v1.16H12.5Z" transform="translate(-12.5 -42.526)" fill="#fff"/>
          <path id="Path_18648" data-name="Path 18648" d="M54.142,29.855l-.812-.812L56.4,25.968,53.33,22.894l.812-.812,3.885,3.886Z" transform="translate(-47.648 -22.082)" fill="#fff"/>
        </g>
      </g>
      <path id="np_hand-holding-secured-credit-card-over-pos-terminal_2326747_000000" d="M34.991,59.966l-.81,10.292c-.38,4.822-28.27,4.825-28.644,0L3.5,43.726V16.785c0-5.984,32.726-6.018,32.726,0v3.189l11.915-3.2a1.328,1.328,0,0,1,1.62.933L56.911,44.4a32.989,32.989,0,0,1,6.44.529c2.979.405,8.908.679,11.339,1.885A17.625,17.625,0,0,1,79.3,50.639a.439.439,0,1,1-.632.609A16.848,16.848,0,0,0,74.3,47.6c-2.252-1.12-8.257-1.42-11.067-1.8a34.532,34.532,0,0,0-6.095-.533l.851,3.183c1.85,1.467,3.506,3.132,5.7,4.076a6.7,6.7,0,0,0,2.4.612,4.432,4.432,0,0,1,.475-1.078.44.44,0,0,1,.752.453,4.48,4.48,0,0,0-.421,3.25c.255.194.511.385.769.571a3.026,3.026,0,0,0,2.2-1.587.263.263,0,0,1,.443.28,3.905,3.905,0,0,1-2.025,1.719c.3.2.612.383.933.555a2.549,2.549,0,0,0,1.476-.477.263.263,0,0,1,.313.424,3.24,3.24,0,0,1-.966.472,9.473,9.473,0,0,0,3.585.851.439.439,0,0,1-.032.877c-4.9-.173-7.775-3.617-11.335-6.337-1.659-1.269-3.25-2.739-4.908-4.047l-.029-.022c-.214-.169-.418-.326-.609-.472-4.107-3.128-8.458.182-5.027,4.9a20.854,20.854,0,0,0,2.545,2.941c1.081,1.021,2.277,1.926,3.365,2.953a58.361,58.361,0,0,1,4.344,4.584c.676.794,1.33,1.652,1.994,2.52,1.773,2.322,3.614,4.726,6.009,6.108a.438.438,0,1,1-.437.759,16.575,16.575,0,0,1-4.28-3.818,3.2,3.2,0,0,1-.482,1.238,2.115,2.115,0,0,1-3.61-.373,6.575,6.575,0,0,1-.693-3.062,9.447,9.447,0,0,1,.5-3.186c-.134-.153-.268-.309-.405-.467a4.113,4.113,0,0,0-.747,2.4c1.244,4.411-2.768,7.313-4.443,4.206a11.177,11.177,0,0,1-.941-3.741c-1.56,2.178-4.487,2.176-4.832-1.081a11.467,11.467,0,0,1,.058-2.628c.063-.467-.02-.467-.38-.567a3.654,3.654,0,0,1-.59-.211c-1.524-.714-1.168-2.246-.74-4.073.112-.482.23-.986.313-1.493L35.409,59.924a1.252,1.252,0,0,1-.418.041Zm30.943-5.961a6.473,6.473,0,0,1-1.508-.28c.5.418.992.84,1.493,1.251a6.023,6.023,0,0,1,.013-.966ZM40.62,35.61a.175.175,0,0,1-.3-.175v-.007a.874.874,0,0,1,1.183-.315l.009.007a.175.175,0,0,1-.175.3h-.007a.525.525,0,0,0-.7.187v.007Zm-.8-.467a.175.175,0,0,1-.3-.175,1.8,1.8,0,0,1,2.449-.653.175.175,0,0,1-.175.3,1.452,1.452,0,0,0-1.971.526Zm-.813-.475a.175.175,0,0,1-.3-.175A2.747,2.747,0,0,1,42.44,33.5a.175.175,0,0,1-.175.3,2.4,2.4,0,0,0-3.256.867Zm-.858-.479a.176.176,0,1,1-.306-.175,3.741,3.741,0,0,1,5.077-1.375.176.176,0,1,1-.175.306,3.385,3.385,0,0,0-4.6,1.247Zm-1.091-8.943-1.132.3.166.619,1.132-.3Zm-1.268-.206,1.132-.3-.2-.74-.569.156a.584.584,0,0,0-.412.711Zm1.569,1.333-1.13.3.175.653.763-.2c.351-.093.351-.169.265-.495Zm-.128-2.513.567,2.121.137.513c.162.609.007.97-.637,1.141l-.763.2.112.414a.584.584,0,0,0,.711.412l2.194-.587-.632-2.357-.15-.56a.766.766,0,0,1,.628-1.087l.9-.243-.048-.178a.581.581,0,0,0-.711-.412l-2.316.619Zm2.433,2.6,1.259-.334L40.76,25.5l-1.253.335Zm1.391.173-1.253.335.261.976.693-.187a.581.581,0,0,0,.412-.711Zm-1.69-1.3,1.253-.335-.175-.653-.906.243c-.309.083-.338.128-.255.441ZM45.714,21.5a.264.264,0,1,1,.511-.137l1.795,6.665a.264.264,0,1,1-.511.137ZM36.021,23.64l3.394-.909a1.111,1.111,0,0,1,1.355.785l.909,3.394a1.111,1.111,0,0,1-.785,1.355l-3.394.909a1.111,1.111,0,0,1-1.355-.785l-.912-3.4a1.111,1.111,0,0,1,.785-1.355Zm.467,26.4A.264.264,0,1,1,37,49.9l1.269,4.733a.264.264,0,1,1-.511.137Zm-2.172-8.1a.264.264,0,1,1,.511-.137L36.1,46.53a.264.264,0,0,1-.511.137Zm-2.172-8.1a.264.264,0,0,1,.511-.137l1.269,4.733a.264.264,0,0,1-.511.137Zm-2.172-8.1a.264.264,0,1,1,.511-.137l1.269,4.733a.264.264,0,0,1-.511.137Zm5.381-5.511V16.79c0-4.8-30.966-4.771-30.966,0V43.685l2.033,26.4c.137,1.792,6.985,2.963,13.5,2.973,6.9.013,13.239-1.177,13.387-3.045l.84-10.429a1.307,1.307,0,0,1-.347-.6L30.473,46.6H8.368a.263.263,0,0,1,0-.526H30.337l-.578-2.153a11.107,11.107,0,0,1-3.173.373,1.141,1.141,0,0,1-1.139-1.139V41.035A1.141,1.141,0,0,1,26.586,39.9h2.1l-.545-2.024H8.942a1.131,1.131,0,0,1-1.129-1.129V17.854a1.131,1.131,0,0,1,1.129-1.129H30.789a1.131,1.131,0,0,1,1.129,1.129v3.267L35.35,20.2ZM52.133,55.431l-2.963.8a19.318,19.318,0,0,1-.383,1.939c-.338,1.451-.622,2.669.255,3.08a1.891,1.891,0,0,0,2.226-.412A5.634,5.634,0,0,0,52.5,59.07,8.129,8.129,0,0,0,53.22,56.6q-.56-.56-1.085-1.17Zm-22.6-12.355-.616-2.293H26.584a.261.261,0,0,0-.259.259v2.118a.261.261,0,0,0,.259.259,10.221,10.221,0,0,0,2.95-.342ZM27.906,37l-1.891-7.055a6.424,6.424,0,0,1-6.182,3.945,6.586,6.586,0,1,1,5.106-10.745,1.343,1.343,0,0,1,.539-.293l5.556-1.493v-3.5a.251.251,0,0,0-.249-.249H8.942a.251.251,0,0,0-.249.249V36.752A.251.251,0,0,0,8.942,37H27.9ZM25.76,28.982l-1.213-4.507a1.317,1.317,0,0,1,.074-.887,6.058,6.058,0,1,0-4.787,9.776,5.818,5.818,0,0,0,5.919-4.387Zm31.1,18.6L48.922,17.944a.444.444,0,0,0-.542-.313Q37.046,20.669,25.713,23.7a.444.444,0,0,0-.313.542L34.649,58.76a.444.444,0,0,0,.542.313l16.333-4.392c-.187-.232-.364-.467-.536-.7-3.872-5.326,1.008-9.67,5.88-6.4Zm4.76,17.337a8.835,8.835,0,0,0-.3,2.389,5.7,5.7,0,0,0,.581,2.644,1.248,1.248,0,0,0,2.124.3,3.207,3.207,0,0,0,.414-1.71c-.408-.513-.8-1.033-1.2-1.55-.542-.708-1.078-1.409-1.62-2.073Zm-3.017-8.471a.263.263,0,1,1-.28-.446,2.681,2.681,0,0,0,1-1.059.263.263,0,0,1,.467.243,3.2,3.2,0,0,1-1.183,1.263Zm-6.87-4.825a.263.263,0,1,1,.472-.23,2.437,2.437,0,0,0,2.613,1.531c1.027-.271,2.408-1.888,1.323-2.905a.263.263,0,0,1,.36-.383c1.409,1.327-.115,3.416-1.55,3.8a2.94,2.94,0,0,1-3.218-1.812Zm7.39,13.021A4.549,4.549,0,0,1,59.952,63c-.9-.988-1.837-1.949-2.806-2.871a8.482,8.482,0,0,0-.992,1.85,17.21,17.21,0,0,0-.919,3.237,11.676,11.676,0,0,0,.905,4.639c1.225,2.274,4.152-.5,2.536-4.373a.44.44,0,0,1,.236-.574c.22-.093.134.029.214-.261ZM55.5,61.274a8.642,8.642,0,0,1,1-1.744c-.823-.756-1.69-1.445-2.51-2.191a9.53,9.53,0,0,1-.7,2.1,6.517,6.517,0,0,1-1.435,2.048,3.494,3.494,0,0,1-.763.539c-.552.274-.5.274-.578.846a10.985,10.985,0,0,0-.061,2.487c.3,2.8,2.635,1.96,3.588.1a7.591,7.591,0,0,0,.747-3.155,5.46,5.46,0,0,0-.02-.653.441.441,0,0,1,.4-.475.433.433,0,0,1,.319.1ZM17.012,26.64a.264.264,0,1,1,.373-.373l.013.013a1.493,1.493,0,0,1,0,2.079l-.013.013A.264.264,0,0,1,17.012,28l.009-.009a.959.959,0,0,0,0-1.339l-.009-.009ZM18.163,25.5a.264.264,0,1,1,.373-.373,3.12,3.12,0,0,1,0,4.375.264.264,0,1,1-.373-.373,2.593,2.593,0,0,0,0-3.632Zm1.174-1.157a.264.264,0,1,1,.373-.373,4.78,4.78,0,0,1-.009,6.7.264.264,0,1,1-.373-.373,4.25,4.25,0,0,0,.009-5.957Zm1.2-1.238a.264.264,0,1,1,.373-.373,6.516,6.516,0,0,1,.025,9.147.264.264,0,1,1-.373-.373A5.983,5.983,0,0,0,20.533,23.107ZM12.02,35.9a.176.176,0,0,1-.249.249l-2-2a.176.176,0,0,1,.249-.249Zm-1.218.007a.176.176,0,0,1-.249.249l-.819-.819a.176.176,0,0,1,.249-.249Zm2.392,4.877H8.971a.261.261,0,0,0-.259.259,1.858,1.858,0,0,0,.529,1.519c.56.495,1.7.858,3.952.858a.261.261,0,0,0,.259-.259V41.041a.261.261,0,0,0-.259-.259ZM8.972,39.9h4.222a1.141,1.141,0,0,1,1.139,1.139v2.118A1.141,1.141,0,0,1,13.194,44.3c-2.494,0-3.817-.456-4.529-1.078a2.613,2.613,0,0,1-.833-2.178A1.141,1.141,0,0,1,8.971,39.9Zm8.8,0H21.99a1.141,1.141,0,0,1,1.139,1.139v2.118A1.141,1.141,0,0,1,21.99,44.3H17.767a1.141,1.141,0,0,1-1.139-1.139V41.041A1.141,1.141,0,0,1,17.767,39.9Zm4.222.88H17.767a.261.261,0,0,0-.259.259v2.118a.261.261,0,0,0,.259.259h4.222a.261.261,0,0,0,.259-.259V41.041a.261.261,0,0,0-.258-.259Zm3.954,24.7h3.827a1.074,1.074,0,0,1,1.071,1.071v1.917a1.074,1.074,0,0,1-1.071,1.071H25.944a1.074,1.074,0,0,1-1.071-1.071V66.559a1.074,1.074,0,0,1,1.071-1.071Zm3.827.88H25.944a.192.192,0,0,0-.191.191v1.917a.192.192,0,0,0,.191.191h3.827a.192.192,0,0,0,.191-.191V66.559a.192.192,0,0,0-.194-.192Zm-11.8-.88h3.827a1.074,1.074,0,0,1,1.071,1.071v1.917a1.074,1.074,0,0,1-1.071,1.072H17.966a1.074,1.074,0,0,1-1.071-1.071V66.559a1.074,1.074,0,0,1,1.071-1.072Zm3.827.88H17.966a.192.192,0,0,0-.191.191v1.917a.192.192,0,0,0,.191.2h3.827a.192.192,0,0,0,.191-.191V66.559a.192.192,0,0,0-.191-.192Zm-11.8-.88h3.827a1.074,1.074,0,0,1,1.068,1.072v1.916a1.074,1.074,0,0,1-1.071,1.071H9.988A1.074,1.074,0,0,1,8.92,68.475V66.559a1.074,1.074,0,0,1,1.071-1.072Zm3.827.88H9.992a.192.192,0,0,0-.191.191v1.917a.192.192,0,0,0,.191.191h3.827a.192.192,0,0,0,.191-.191V66.559a.192.192,0,0,0-.194-.192Zm12.133-6.34h3.827A1.074,1.074,0,0,1,30.846,61.1v1.917a1.074,1.074,0,0,1-1.071,1.071H25.948a1.074,1.074,0,0,1-1.075-1.071V61.1a1.074,1.074,0,0,1,1.071-1.071Zm3.827.88H25.952a.192.192,0,0,0-.191.191v1.917a.192.192,0,0,0,.191.191h3.827a.192.192,0,0,0,.191-.191V61.1a.192.192,0,0,0-.2-.191Zm-11.8-.88H21.8A1.074,1.074,0,0,1,22.876,61.1v1.917a1.074,1.074,0,0,1-1.083,1.071H17.966a1.074,1.074,0,0,1-1.071-1.071V61.1a1.074,1.074,0,0,1,1.076-1.071Zm3.827.88H17.978a.192.192,0,0,0-.191.191v1.917a.192.192,0,0,0,.191.191H21.8A.192.192,0,0,0,22,63.015V61.1a.192.192,0,0,0-.2-.191ZM10,60.027H13.83A1.074,1.074,0,0,1,14.886,61.1v1.917a1.074,1.074,0,0,1-1.071,1.071H9.988a1.074,1.074,0,0,1-1.066-1.071V61.1a1.074,1.074,0,0,1,1.071-1.071Zm3.827.88H10a.192.192,0,0,0-.191.191v1.917a.192.192,0,0,0,.191.191H13.83a.192.192,0,0,0,.191-.191V61.1a.192.192,0,0,0-.2-.191Zm12.133-6.34H29.79a1.074,1.074,0,0,1,1.057,1.071v1.917a1.074,1.074,0,0,1-1.071,1.071H25.948a1.074,1.074,0,0,1-1.071-1.071V55.639a1.074,1.074,0,0,1,1.071-1.071Zm3.827.88H25.963a.192.192,0,0,0-.191.191v1.917a.192.192,0,0,0,.191.191H29.79a.192.192,0,0,0,.191-.191V55.639a.192.192,0,0,0-.206-.191Zm-11.8-.88h3.827a1.074,1.074,0,0,1,1.071,1.071v1.917a1.074,1.074,0,0,1-1.071,1.071H17.989A1.074,1.074,0,0,1,16.9,57.556V55.639a1.074,1.074,0,0,1,1.071-1.071Zm3.827.88H17.989a.192.192,0,0,0-.191.191v1.917a.192.192,0,0,0,.191.191h3.827a.192.192,0,0,0,.191-.191V55.639a.192.192,0,0,0-.208-.191Zm-11.8-.88h3.827a1.074,1.074,0,0,1,1.071,1.071v1.917a1.074,1.074,0,0,1-1.071,1.071H10.015a1.074,1.074,0,0,1-1.088-1.071V55.639A1.074,1.074,0,0,1,10,54.567Zm3.827.88H10.015a.192.192,0,0,0-.191.191v1.917a.192.192,0,0,0,.191.191h3.827a.192.192,0,0,0,.191-.191V55.639a.192.192,0,0,0-.211-.191Zm12.133-6.34H29.8a1.074,1.074,0,0,1,1.045,1.071V52.1a1.074,1.074,0,0,1-1.071,1.071H25.948A1.074,1.074,0,0,1,24.877,52.1V50.179a1.074,1.074,0,0,1,1.071-1.071Zm3.827.88H25.974a.192.192,0,0,0-.191.191V52.1a.192.192,0,0,0,.191.191H29.8a.192.192,0,0,0,.191-.191V50.179a.192.192,0,0,0-.215-.192ZM18,49.107h3.827A1.074,1.074,0,0,1,22.9,50.179V52.1a1.074,1.074,0,0,1-1.071,1.071H18A1.074,1.074,0,0,1,16.929,52.1V50.179a1.074,1.074,0,0,1,1.049-1.072Zm3.827.88H18a.192.192,0,0,0-.191.191V52.1a.192.192,0,0,0,.191.191h3.827a.192.192,0,0,0,.191-.191V50.179a.192.192,0,0,0-.217-.192Zm-11.8-.88h3.827a1.074,1.074,0,0,1,1.071,1.071V52.1a1.074,1.074,0,0,1-1.071,1.071H10.026A1.074,1.074,0,0,1,8.954,52.1V50.179a1.074,1.074,0,0,1,1.071-1.071Zm3.827.88H10.026a.192.192,0,0,0-.191.191V52.1a.192.192,0,0,0,.191.191h3.827a.192.192,0,0,0,.191-.191V50.179a.192.192,0,0,0-.218-.192Z" transform="translate(53.274 134.921)"/>
      <g id="Group_705" data-name="Group 705" transform="translate(26.133 58.799)">
        <g id="Rectangle_5959" data-name="Rectangle 5959" fill="#58d9ac" stroke="rgba(255,255,255,0.5)" stroke-width="1">
          <rect width="44.799" height="44.799" rx="7" stroke="none"/>
          <rect x="0.5" y="0.5" width="43.799" height="43.799" rx="6.5" fill="none"/>
        </g>
        <path id="np_home_986901_000000" d="M25.008,15.223,13.5,23.695,15.494,26.4l1.422-1.046V37.149H33.1V25.355L34.518,26.4l1.994-2.707Zm3.672,14.065L25.005,32.95l-3.671-3.661a2.1,2.1,0,0,1,3.056-2.871l.616.653.616-.653a2.1,2.1,0,1,1,3.058,2.871Z" transform="translate(-2.145 -3.991)" fill="#505be0"/>
      </g>
      <g id="Group_11" data-name="Group 11" transform="translate(56.774 147.205)">
        <path id="Path_18652" data-name="Path 18652" d="M5953.955,911.3l23.249-6.346,1.077.363.385,1.66,7.718,29.266-1.68-1.011-1.634-.482h-1.714l-.586.482-1.493,1.011-.39,1.694.638,2.369,1.25,2.1v.335l-15.92,4.342h-1.087l-.774-.267-9.028-34.389-.2-.592Z" transform="translate(-5932.359 -900.07)" fill="#d9dcff"/>
        <rect id="Rectangle_5974" data-name="Rectangle 5974" width="5.6" height="5.6" rx="1" transform="translate(31.263 11.346) rotate(-15.009)" fill="#e6c67c"/>
        <path id="np_hand-holding-secured-credit-card-over-pos-terminal_2326747_000000-2" data-name="np_hand-holding-secured-credit-card-over-pos-terminal_2326747_000000" d="M34.991,59.966l-.81,10.292c-.38,4.822-28.27,4.825-28.644,0L3.5,43.726V16.785c0-5.984,32.726-6.018,32.726,0v3.189l11.915-3.2a1.328,1.328,0,0,1,1.62.933L56.911,44.4a32.989,32.989,0,0,1,6.44.529c2.979.405,8.908.679,11.339,1.885A17.625,17.625,0,0,1,79.3,50.639a.439.439,0,1,1-.632.609A16.848,16.848,0,0,0,74.3,47.6c-2.252-1.12-8.257-1.42-11.067-1.8a34.532,34.532,0,0,0-6.095-.533l.851,3.183c1.85,1.467,3.506,3.132,5.7,4.076a6.7,6.7,0,0,0,2.4.612,4.432,4.432,0,0,1,.475-1.078.44.44,0,0,1,.752.453,4.48,4.48,0,0,0-.421,3.25c.255.194.511.385.769.571a3.026,3.026,0,0,0,2.2-1.587.263.263,0,0,1,.443.28,3.905,3.905,0,0,1-2.025,1.719c.3.2.612.383.933.555a2.549,2.549,0,0,0,1.476-.477.263.263,0,0,1,.313.424,3.24,3.24,0,0,1-.966.472,9.473,9.473,0,0,0,3.585.851.439.439,0,0,1-.032.877c-4.9-.173-7.775-3.617-11.335-6.337-1.659-1.269-3.25-2.739-4.908-4.047l-.029-.022c-.214-.169-.418-.326-.609-.472-4.107-3.128-8.458.182-5.027,4.9a20.854,20.854,0,0,0,2.545,2.941c1.081,1.021,2.277,1.926,3.365,2.953a58.361,58.361,0,0,1,4.344,4.584c.676.794,1.33,1.652,1.994,2.52,1.773,2.322,3.614,4.726,6.009,6.108a.438.438,0,1,1-.437.759,16.575,16.575,0,0,1-4.28-3.818,3.2,3.2,0,0,1-.482,1.238,2.115,2.115,0,0,1-3.61-.373,6.575,6.575,0,0,1-.693-3.062,9.447,9.447,0,0,1,.5-3.186c-.134-.153-.268-.309-.405-.467a4.113,4.113,0,0,0-.747,2.4c1.244,4.411-2.768,7.313-4.443,4.206a11.177,11.177,0,0,1-.941-3.741c-1.56,2.178-4.487,2.176-4.832-1.081a11.467,11.467,0,0,1,.058-2.628c.063-.467-.02-.467-.38-.567a3.654,3.654,0,0,1-.59-.211c-1.524-.714-1.168-2.246-.74-4.073.112-.482.23-.986.313-1.493L35.409,59.924a1.252,1.252,0,0,1-.418.041Zm30.943-5.961a6.473,6.473,0,0,1-1.508-.28c.5.418.992.84,1.493,1.251a6.023,6.023,0,0,1,.013-.966ZM40.62,35.61a.175.175,0,0,1-.3-.175v-.007a.874.874,0,0,1,1.183-.315l.009.007a.175.175,0,0,1-.175.3h-.007a.525.525,0,0,0-.7.187v.007Zm-.8-.467a.175.175,0,0,1-.3-.175,1.8,1.8,0,0,1,2.449-.653.175.175,0,0,1-.175.3,1.452,1.452,0,0,0-1.971.526Zm-.813-.475a.175.175,0,0,1-.3-.175A2.747,2.747,0,0,1,42.44,33.5a.175.175,0,0,1-.175.3,2.4,2.4,0,0,0-3.256.867Zm-.858-.479a.176.176,0,1,1-.306-.175,3.741,3.741,0,0,1,5.077-1.375.176.176,0,1,1-.175.306,3.385,3.385,0,0,0-4.6,1.247Zm-1.091-8.943-1.132.3.166.619,1.132-.3Zm-1.268-.206,1.132-.3-.2-.74-.569.156a.584.584,0,0,0-.412.711Zm1.569,1.333-1.13.3.175.653.763-.2c.351-.093.351-.169.265-.495Zm-.128-2.513.567,2.121.137.513c.162.609.007.97-.637,1.141l-.763.2.112.414a.584.584,0,0,0,.711.412l2.194-.587-.632-2.357-.15-.56a.766.766,0,0,1,.628-1.087l.9-.243-.048-.178a.581.581,0,0,0-.711-.412l-2.316.619Zm2.433,2.6,1.259-.334L40.76,25.5l-1.253.335Zm1.391.173-1.253.335.261.976.693-.187a.581.581,0,0,0,.412-.711Zm-1.69-1.3,1.253-.335-.175-.653-.906.243c-.309.083-.338.128-.255.441ZM45.714,21.5a.264.264,0,1,1,.511-.137l1.795,6.665a.264.264,0,1,1-.511.137ZM36.021,23.64l3.394-.909a1.111,1.111,0,0,1,1.355.785l.909,3.394a1.111,1.111,0,0,1-.785,1.355l-3.394.909a1.111,1.111,0,0,1-1.355-.785l-.912-3.4a1.111,1.111,0,0,1,.785-1.355Zm.467,26.4A.264.264,0,1,1,37,49.9l1.269,4.733a.264.264,0,1,1-.511.137Zm-2.172-8.1a.264.264,0,1,1,.511-.137L36.1,46.53a.264.264,0,0,1-.511.137Zm-2.172-8.1a.264.264,0,0,1,.511-.137l1.269,4.733a.264.264,0,0,1-.511.137Zm-2.172-8.1a.264.264,0,1,1,.511-.137l1.269,4.733a.264.264,0,0,1-.511.137Zm5.381-5.511V16.79c0-4.8-30.966-4.771-30.966,0V43.685l2.033,26.4c.137,1.792,6.985,2.963,13.5,2.973,6.9.013,13.239-1.177,13.387-3.045l.84-10.429a1.307,1.307,0,0,1-.347-.6L30.473,46.6H8.368a.263.263,0,0,1,0-.526H30.337l-.578-2.153a11.107,11.107,0,0,1-3.173.373,1.141,1.141,0,0,1-1.139-1.139V41.035A1.141,1.141,0,0,1,26.586,39.9h2.1l-.545-2.024H8.942a1.131,1.131,0,0,1-1.129-1.129V17.854a1.131,1.131,0,0,1,1.129-1.129H30.789a1.131,1.131,0,0,1,1.129,1.129v3.267L35.35,20.2ZM52.133,55.431l-2.963.8a19.318,19.318,0,0,1-.383,1.939c-.338,1.451-.622,2.669.255,3.08a1.891,1.891,0,0,0,2.226-.412A5.634,5.634,0,0,0,52.5,59.07,8.129,8.129,0,0,0,53.22,56.6q-.56-.56-1.085-1.17Zm-22.6-12.355-.616-2.293H26.584a.261.261,0,0,0-.259.259v2.118a.261.261,0,0,0,.259.259,10.221,10.221,0,0,0,2.95-.342ZM27.906,37l-1.891-7.055a6.424,6.424,0,0,1-6.182,3.945,6.586,6.586,0,1,1,5.106-10.745,1.343,1.343,0,0,1,.539-.293l5.556-1.493v-3.5a.251.251,0,0,0-.249-.249H8.942a.251.251,0,0,0-.249.249V36.752A.251.251,0,0,0,8.942,37H27.9ZM25.76,28.982l-1.213-4.507a1.317,1.317,0,0,1,.074-.887,6.058,6.058,0,1,0-4.787,9.776,5.818,5.818,0,0,0,5.919-4.387Zm31.1,18.6L48.922,17.944a.444.444,0,0,0-.542-.313Q37.046,20.669,25.713,23.7a.444.444,0,0,0-.313.542L34.649,58.76a.444.444,0,0,0,.542.313l16.333-4.392c-.187-.232-.364-.467-.536-.7-3.872-5.326,1.008-9.67,5.88-6.4Zm4.76,17.337a8.835,8.835,0,0,0-.3,2.389,5.7,5.7,0,0,0,.581,2.644,1.248,1.248,0,0,0,2.124.3,3.207,3.207,0,0,0,.414-1.71c-.408-.513-.8-1.033-1.2-1.55-.542-.708-1.078-1.409-1.62-2.073Zm-3.017-8.471a.263.263,0,1,1-.28-.446,2.681,2.681,0,0,0,1-1.059.263.263,0,0,1,.467.243,3.2,3.2,0,0,1-1.183,1.263Zm-6.87-4.825a.263.263,0,1,1,.472-.23,2.437,2.437,0,0,0,2.613,1.531c1.027-.271,2.408-1.888,1.323-2.905a.263.263,0,0,1,.36-.383c1.409,1.327-.115,3.416-1.55,3.8a2.94,2.94,0,0,1-3.218-1.812Zm7.39,13.021A4.549,4.549,0,0,1,59.952,63c-.9-.988-1.837-1.949-2.806-2.871a8.482,8.482,0,0,0-.992,1.85,17.21,17.21,0,0,0-.919,3.237,11.676,11.676,0,0,0,.905,4.639c1.225,2.274,4.152-.5,2.536-4.373a.44.44,0,0,1,.236-.574c.22-.093.134.029.214-.261ZM55.5,61.274a8.642,8.642,0,0,1,1-1.744c-.823-.756-1.69-1.445-2.51-2.191a9.53,9.53,0,0,1-.7,2.1,6.517,6.517,0,0,1-1.435,2.048,3.494,3.494,0,0,1-.763.539c-.552.274-.5.274-.578.846a10.985,10.985,0,0,0-.061,2.487c.3,2.8,2.635,1.96,3.588.1a7.591,7.591,0,0,0,.747-3.155,5.46,5.46,0,0,0-.02-.653.441.441,0,0,1,.4-.475.433.433,0,0,1,.319.1ZM17.012,26.64a.264.264,0,1,1,.373-.373l.013.013a1.493,1.493,0,0,1,0,2.079l-.013.013A.264.264,0,0,1,17.012,28l.009-.009a.959.959,0,0,0,0-1.339l-.009-.009ZM18.163,25.5a.264.264,0,1,1,.373-.373,3.12,3.12,0,0,1,0,4.375.264.264,0,1,1-.373-.373,2.593,2.593,0,0,0,0-3.632Zm1.174-1.157a.264.264,0,1,1,.373-.373,4.78,4.78,0,0,1-.009,6.7.264.264,0,1,1-.373-.373,4.25,4.25,0,0,0,.009-5.957Zm1.2-1.238a.264.264,0,1,1,.373-.373,6.516,6.516,0,0,1,.025,9.147.264.264,0,1,1-.373-.373A5.983,5.983,0,0,0,20.533,23.107ZM12.02,35.9a.176.176,0,0,1-.249.249l-2-2a.176.176,0,0,1,.249-.249Zm-1.218.007a.176.176,0,0,1-.249.249l-.819-.819a.176.176,0,0,1,.249-.249Zm2.392,4.877H8.971a.261.261,0,0,0-.259.259,1.858,1.858,0,0,0,.529,1.519c.56.495,1.7.858,3.952.858a.261.261,0,0,0,.259-.259V41.041a.261.261,0,0,0-.259-.259ZM8.972,39.9h4.222a1.141,1.141,0,0,1,1.139,1.139v2.118A1.141,1.141,0,0,1,13.194,44.3c-2.494,0-3.817-.456-4.529-1.078a2.613,2.613,0,0,1-.833-2.178A1.141,1.141,0,0,1,8.971,39.9Zm8.8,0H21.99a1.141,1.141,0,0,1,1.139,1.139v2.118A1.141,1.141,0,0,1,21.99,44.3H17.767a1.141,1.141,0,0,1-1.139-1.139V41.041A1.141,1.141,0,0,1,17.767,39.9Zm4.222.88H17.767a.261.261,0,0,0-.259.259v2.118a.261.261,0,0,0,.259.259h4.222a.261.261,0,0,0,.259-.259V41.041a.261.261,0,0,0-.258-.259Zm3.954,24.7h3.827a1.074,1.074,0,0,1,1.071,1.071v1.917a1.074,1.074,0,0,1-1.071,1.071H25.944a1.074,1.074,0,0,1-1.071-1.071V66.559a1.074,1.074,0,0,1,1.071-1.071Zm3.827.88H25.944a.192.192,0,0,0-.191.191v1.917a.192.192,0,0,0,.191.191h3.827a.192.192,0,0,0,.191-.191V66.559a.192.192,0,0,0-.194-.192Zm-11.8-.88h3.827a1.074,1.074,0,0,1,1.071,1.071v1.917a1.074,1.074,0,0,1-1.071,1.072H17.966a1.074,1.074,0,0,1-1.071-1.071V66.559a1.074,1.074,0,0,1,1.071-1.072Zm3.827.88H17.966a.192.192,0,0,0-.191.191v1.917a.192.192,0,0,0,.191.2h3.827a.192.192,0,0,0,.191-.191V66.559a.192.192,0,0,0-.191-.192Zm-11.8-.88h3.827a1.074,1.074,0,0,1,1.068,1.072v1.916a1.074,1.074,0,0,1-1.071,1.071H9.988A1.074,1.074,0,0,1,8.92,68.475V66.559a1.074,1.074,0,0,1,1.071-1.072Zm3.827.88H9.992a.192.192,0,0,0-.191.191v1.917a.192.192,0,0,0,.191.191h3.827a.192.192,0,0,0,.191-.191V66.559a.192.192,0,0,0-.194-.192Zm12.133-6.34h3.827A1.074,1.074,0,0,1,30.846,61.1v1.917a1.074,1.074,0,0,1-1.071,1.071H25.948a1.074,1.074,0,0,1-1.075-1.071V61.1a1.074,1.074,0,0,1,1.071-1.071Zm3.827.88H25.952a.192.192,0,0,0-.191.191v1.917a.192.192,0,0,0,.191.191h3.827a.192.192,0,0,0,.191-.191V61.1a.192.192,0,0,0-.2-.191Zm-11.8-.88H21.8A1.074,1.074,0,0,1,22.876,61.1v1.917a1.074,1.074,0,0,1-1.083,1.071H17.966a1.074,1.074,0,0,1-1.071-1.071V61.1a1.074,1.074,0,0,1,1.076-1.071Zm3.827.88H17.978a.192.192,0,0,0-.191.191v1.917a.192.192,0,0,0,.191.191H21.8A.192.192,0,0,0,22,63.015V61.1a.192.192,0,0,0-.2-.191ZM10,60.027H13.83A1.074,1.074,0,0,1,14.886,61.1v1.917a1.074,1.074,0,0,1-1.071,1.071H9.988a1.074,1.074,0,0,1-1.066-1.071V61.1a1.074,1.074,0,0,1,1.071-1.071Zm3.827.88H10a.192.192,0,0,0-.191.191v1.917a.192.192,0,0,0,.191.191H13.83a.192.192,0,0,0,.191-.191V61.1a.192.192,0,0,0-.2-.191Zm12.133-6.34H29.79a1.074,1.074,0,0,1,1.057,1.071v1.917a1.074,1.074,0,0,1-1.071,1.071H25.948a1.074,1.074,0,0,1-1.071-1.071V55.639a1.074,1.074,0,0,1,1.071-1.071Zm3.827.88H25.963a.192.192,0,0,0-.191.191v1.917a.192.192,0,0,0,.191.191H29.79a.192.192,0,0,0,.191-.191V55.639a.192.192,0,0,0-.206-.191Zm-11.8-.88h3.827a1.074,1.074,0,0,1,1.071,1.071v1.917a1.074,1.074,0,0,1-1.071,1.071H17.989A1.074,1.074,0,0,1,16.9,57.556V55.639a1.074,1.074,0,0,1,1.071-1.071Zm3.827.88H17.989a.192.192,0,0,0-.191.191v1.917a.192.192,0,0,0,.191.191h3.827a.192.192,0,0,0,.191-.191V55.639a.192.192,0,0,0-.208-.191Zm-11.8-.88h3.827a1.074,1.074,0,0,1,1.071,1.071v1.917a1.074,1.074,0,0,1-1.071,1.071H10.015a1.074,1.074,0,0,1-1.088-1.071V55.639A1.074,1.074,0,0,1,10,54.567Zm3.827.88H10.015a.192.192,0,0,0-.191.191v1.917a.192.192,0,0,0,.191.191h3.827a.192.192,0,0,0,.191-.191V55.639a.192.192,0,0,0-.211-.191Zm12.133-6.34H29.8a1.074,1.074,0,0,1,1.045,1.071V52.1a1.074,1.074,0,0,1-1.071,1.071H25.948A1.074,1.074,0,0,1,24.877,52.1V50.179a1.074,1.074,0,0,1,1.071-1.071Zm3.827.88H25.974a.192.192,0,0,0-.191.191V52.1a.192.192,0,0,0,.191.191H29.8a.192.192,0,0,0,.191-.191V50.179a.192.192,0,0,0-.215-.192ZM18,49.107h3.827A1.074,1.074,0,0,1,22.9,50.179V52.1a1.074,1.074,0,0,1-1.071,1.071H18A1.074,1.074,0,0,1,16.929,52.1V50.179a1.074,1.074,0,0,1,1.049-1.072Zm3.827.88H18a.192.192,0,0,0-.191.191V52.1a.192.192,0,0,0,.191.191h3.827a.192.192,0,0,0,.191-.191V50.179a.192.192,0,0,0-.217-.192Zm-11.8-.88h3.827a1.074,1.074,0,0,1,1.071,1.071V52.1a1.074,1.074,0,0,1-1.071,1.071H10.026A1.074,1.074,0,0,1,8.954,52.1V50.179a1.074,1.074,0,0,1,1.071-1.071Zm3.827.88H10.026a.192.192,0,0,0-.191.191V52.1a.192.192,0,0,0,.191.191h3.827a.192.192,0,0,0,.191-.191V50.179a.192.192,0,0,0-.218-.192Z" transform="translate(-3.5 -12.285)" fill="#4535cd"/>
      </g>
      <g transform="matrix(1, 0, 0, 1, -104.01, -0.1)" filter="url(#Rectangle_5963)">
        <rect id="Rectangle_5963-2" data-name="Rectangle 5963" width="142.798" height="142.798" rx="6" transform="translate(130.14 276.36)" fill="#fff"/>
      </g>
      <g transform="matrix(1, 0, 0, 1, -104.01, -0.1)" filter="url(#Rectangle_5965)">
        <rect id="Rectangle_5965-2" data-name="Rectangle 5965" width="142.798" height="142.798" rx="6" transform="translate(128.27 435.96)" fill="#fff"/>
      </g>
      <g transform="matrix(1, 0, 0, 1, -104.01, -0.1)" filter="url(#Rectangle_5964)">
        <rect id="Rectangle_5964-2" data-name="Rectangle 5964" width="142.798" height="142.798" rx="6" transform="translate(286.94 276.36)" fill="#fff"/>
      </g>
      <g transform="matrix(1, 0, 0, 1, -104.01, -0.1)" filter="url(#Rectangle_5966)">
        <rect id="Rectangle_5966-2" data-name="Rectangle 5966" width="142.798" height="142.798" rx="6" transform="translate(285.07 435.96)" fill="#fff"/>
      </g>
      <text id="Customers" transform="translate(60.666 404.927)" fill="#9a9cb8" font-size="12" font-family="Montserrat" font-weight="700" opacity="0.997"><tspan x="0" y="0">Customers</tspan></text>
      <text id="Admin" transform="translate(72.799 563.591)" fill="#9a9cb8" font-size="12" font-family="Montserrat" font-weight="700" opacity="0.997"><tspan x="0" y="0">Admin</tspan></text>
      <text id="Apps" transform="translate(235.196 563.591)" fill="#0c1b55" font-size="12" font-family="Montserrat" font-weight="700" opacity="0.427"><tspan x="0" y="0">Apps</tspan></text>
      <text id="Report" transform="translate(231.463 404.927)" fill="#0c1b55" font-size="12" font-family="Montserrat" font-weight="700" opacity="0.427"><tspan x="0" y="0">Report</tspan></text>
      <g id="Group_35" data-name="Group 35" transform="translate(224.845 479.726)">
        <path id="Path_18651" data-name="Path 18651" d="M1279.787,1167.942h-46.946s-7.607,13.294-1.66,21.125,44.923,11.511,51.21,1.1S1279.787,1167.942,1279.787,1167.942Z" transform="translate(-1228.909 -1153.063)" fill="#c1e3a5" opacity="0.465"/>
        <g id="np_apps_1904176_000000" transform="translate(0.085 0)">
          <g id="Ellipse_3" data-name="Ellipse 3" transform="translate(0 0)" fill="none" stroke="#65c318" stroke-width="1.5">
            <circle cx="28" cy="28" r="28" stroke="none"/>
            <circle cx="28" cy="28" r="27.25" fill="none"/>
          </g>
          <g id="Group_9" data-name="Group 9" transform="translate(11.076 17.721)" opacity="0.774">
            <path id="Path_18633" data-name="Path 18633" d="M33.391,39.355c0,4.843-7.266,4.843-7.266,0s7.266-4.846,7.266,0" transform="translate(-26.125 -35.722)" fill="#65c318"/>
            <path id="Path_18634" data-name="Path 18634" d="M52.141,39.355c0,4.843-7.266,4.843-7.266,0s7.266-4.846,7.266,0" transform="translate(-31.584 -35.722)" fill="#65c318"/>
            <path id="Path_18635" data-name="Path 18635" d="M70.891,39.355c0,4.843-7.266,4.843-7.266,0s7.266-4.846,7.266,0" transform="translate(-37.043 -35.722)" fill="#65c318"/>
            <path id="Path_18636" data-name="Path 18636" d="M33.391,58.105c0,4.843-7.266,4.843-7.266,0s7.266-4.846,7.266,0" transform="translate(-26.125 -41.182)" fill="#65c318"/>
            <path id="Path_18637" data-name="Path 18637" d="M52.141,58.105c0,4.843-7.266,4.843-7.266,0s7.266-4.846,7.266,0" transform="translate(-31.584 -41.182)" fill="#65c318"/>
            <path id="Path_18638" data-name="Path 18638" d="M70.891,58.105c0,4.843-7.266,4.843-7.266,0s7.266-4.846,7.266,0" transform="translate(-37.043 -41.182)" fill="#65c318"/>
          </g>
        </g>
      </g>
      <g id="Group_34" data-name="Group 34" transform="translate(67.667 475.06)">
        <g id="Ellipse_4" data-name="Ellipse 4" transform="translate(14.465 13.532)" fill="none" stroke="#cbffed" stroke-width="8">
          <circle cx="14" cy="14" r="14" stroke="none"/>
          <circle cx="14" cy="14" r="18" fill="none"/>
        </g>
        <path id="icons8-settings" d="M49.805,15.811a.811.811,0,0,0-.653.54c-.92,2.678-2.655,4.127-5.155,4.312-3.028.219-5.056-1.184-6.214-4.3a.808.808,0,0,0-.952-.507,28.427,28.427,0,0,0-8.346,3.5.807.807,0,0,0-.3,1.032c1.307,2.77,1.014,5.069-.912,7.026-1.952,1.985-4.264,2.319-7.074,1.027a.809.809,0,0,0-1.027.315,28.169,28.169,0,0,0-3.4,8.371.808.808,0,0,0,.51.941c2.808,1.027,4.206,2.828,4.269,5.5.066,2.779-1.307,4.676-4.193,5.8a.809.809,0,0,0-.493.945,28.072,28.072,0,0,0,3.5,8.292.813.813,0,0,0,1.018.311c2.72-1.213,4.971-.893,6.885.969,1.96,1.908,2.333,4.18,1.127,6.944a.81.81,0,0,0,.321,1.016,28.279,28.279,0,0,0,8.338,3.4.69.69,0,0,0,.152.016.925.925,0,0,0,.787-.5,1.634,1.634,0,0,0,.093-.2,5.844,5.844,0,0,1,5.362-3.962h.084a5.834,5.834,0,0,1,5.548,3.827,1.129,1.129,0,0,0,1.468.713,28.439,28.439,0,0,0,7.587-3.139c.1-.06.2-.125.287-.187l.093-.06a.811.811,0,0,0,.3-1.005c-1.12-2.52-.9-4.644.682-6.485C61.425,58,63.816,57.528,66.8,58.8a.81.81,0,0,0,1.007-.318,28.117,28.117,0,0,0,3.453-8.307.809.809,0,0,0-.5-.944c-2.776-1.063-4.153-2.863-4.207-5.5-.059-2.778,1.317-4.672,4.2-5.787a.811.811,0,0,0,.513-.84,25.4,25.4,0,0,0-3.547-8.55.811.811,0,0,0-.952-.2c-2.74,1.284-5.026.97-6.984-.964s-2.291-4.262-.993-7.081a.81.81,0,0,0-.312-1.027A28.056,28.056,0,0,0,50.1,15.828a.8.8,0,0,0-.3-.018Zm.618,1.763A26.443,26.443,0,0,1,57.035,20.3a7.187,7.187,0,0,0,1.612,8.237,7.159,7.159,0,0,0,8.2,1.541,28.8,28.8,0,0,1,2.711,6.6,7.213,7.213,0,0,0-4.621,7.078,7.11,7.11,0,0,0,4.583,6.7,26.542,26.542,0,0,1-2.744,6.58,7.467,7.467,0,0,0-9.711,9.691,26.846,26.846,0,0,1-6.614,2.734,7.433,7.433,0,0,0-13.679.029,26.594,26.594,0,0,1-6.618-2.7,7.171,7.171,0,0,0-1.75-8.083,7.2,7.2,0,0,0-8.014-1.56,26.444,26.444,0,0,1-2.776-6.567,7.45,7.45,0,0,0-.093-13.776A26.521,26.521,0,0,1,20.2,30.2a7.181,7.181,0,0,0,8.232-1.648,7.156,7.156,0,0,0,1.514-8.184,26.815,26.815,0,0,1,6.6-2.762,7.46,7.46,0,0,0,13.876-.028Zm-7.834,8.057q-.829.036-1.648.148a.4.4,0,0,0,.054.8.431.431,0,0,0,.055,0,17.3,17.3,0,0,1,3.161-.138.373.373,0,0,0,.421-.384.4.4,0,0,0-.382-.421,16.393,16.393,0,0,0-1.659-.009Zm-3.324.548a.413.413,0,0,0-.161.007A17.962,17.962,0,0,0,26.619,37.537a.4.4,0,0,0,.243.514.423.423,0,0,0,.136.023.405.405,0,0,0,.38-.266,17.215,17.215,0,0,1,2.482-4.578l1.693,2.509c-.116.177-.241.346-.35.529a14.255,14.255,0,0,0-1.569,10.869,14.49,14.49,0,0,0,.88,2.47l-2.987.154a16.115,16.115,0,0,1-.625-1.929.4.4,0,1,0-.779.2,16.906,16.906,0,0,0,3.089,6.276.393.393,0,0,0,.05.062,18.307,18.307,0,0,0,9.215,6.143,19.241,19.241,0,0,0,4.866.786h.023c.194.006.388.022.581.022a17.33,17.33,0,0,0,11.831-4.556.4.4,0,1,0-.545-.593,16.265,16.265,0,0,1-5.818,3.446l.234-2.918a.386.386,0,0,0-.013-.112A14.347,14.347,0,0,0,57.443,40.06a14.493,14.493,0,0,0-.807-2.3l2.925-.312a17.258,17.258,0,0,1,.611,1.914.4.4,0,0,0,.389.3.41.41,0,0,0,.1-.011.4.4,0,0,0,.29-.489A17.94,17.94,0,0,0,49.441,26.627a.4.4,0,1,0-.264.762A17.226,17.226,0,0,1,53.7,29.77l-3.882.939A14.234,14.234,0,0,0,40,29.694a14.48,14.48,0,0,0-2.427.861l-.316-2.932a17.218,17.218,0,0,1,2.044-.661.4.4,0,0,0-.036-.787Zm-2.78,1.773.315,2.925a.374.374,0,0,0,.018.055,14.156,14.156,0,0,0-2.147,1.387l-.852-2.864a17.126,17.126,0,0,1,2.666-1.5Zm-3.36,2L34,32.88a14.29,14.29,0,0,0-1.96,2.147l-1.65-2.445a17.139,17.139,0,0,1,2.743-2.624Zm10.406.093a2.307,2.307,0,1,0,.006,0ZM54.5,30.4a17.116,17.116,0,0,1,2.452,2.5l-3.173.523a.393.393,0,0,0-.112.043,14.413,14.413,0,0,0-2.781-2.183Zm2.987,3.2a17.136,17.136,0,0,1,1.741,3.072l-2.971.321a14.165,14.165,0,0,0-1.943-2.855l3.107-.514A.388.388,0,0,0,57.5,33.6ZM60.6,47.1a.4.4,0,0,0-.32.307,17.266,17.266,0,0,1-.987,3.007.4.4,0,1,0,.738.321,18.057,18.057,0,0,0,1.035-3.147A.405.405,0,0,0,60.6,47.1ZM30.907,50.393a14.154,14.154,0,0,0,1.618,2.4l-2.827.84a16.13,16.13,0,0,1-1.835-3.08Zm28.084,1.232a.405.405,0,0,0-.394.207,17.485,17.485,0,0,1-1.175,1.875.4.4,0,0,0,.653.472,18.556,18.556,0,0,0,1.237-1.96A.407.407,0,0,0,59,51.625ZM33.108,53.454a14.373,14.373,0,0,0,2.675,2.2L33.159,57a16.836,16.836,0,0,1-2.911-2.7Zm3.453,2.68a14.415,14.415,0,0,0,3.267,1.334l-1.96,1.877a.386.386,0,0,0-.07.1,18.13,18.13,0,0,1-3.884-1.923l2.553-1.307a.393.393,0,0,0,.1-.079Zm12.258.793-.238,2.952a17.09,17.09,0,0,1-4.561.629l1.387-2.582a.385.385,0,0,0,.032-.106,13.543,13.543,0,0,0,3.38-.891Zm-8.111.747a14.161,14.161,0,0,0,2.8.28c.33,0,.662-.015.993-.038L43.117,60.49a18.511,18.511,0,0,1-4.412-.752l-.063-.021,1.971-1.886a.384.384,0,0,0,.1-.157Z" transform="translate(-15.752 -15.804)" fill="#58d9ac" stroke="#57d9ab" stroke-width="0.5"/>
        <g id="np_people_1366628_000000" transform="translate(21.476 21.69)">
          <path id="Path_18689" data-name="Path 18689" d="M42.143,35.612a3.76,3.76,0,1,0-5.8,3.156,6.367,6.367,0,0,0-4.137,5.04h1A5.31,5.31,0,0,1,38.381,39.4v-.03a3.767,3.767,0,0,0,3.762-3.76Zm-6.533,0a2.772,2.772,0,1,1,2.771,2.773A2.772,2.772,0,0,1,35.61,35.612Z" transform="translate(-32.207 -31.847)" fill="#57d8aa"/>
          <path id="Path_18690" data-name="Path 18690" d="M59.519,56.721H57.983V55.184H56.99v1.537H55.457v.988H56.99v1.537h.988V57.71h1.536Z" transform="translate(-47.799 -47.494)" fill="#57d8aa"/>
        </g>
      </g>
      <g id="Group_32" data-name="Group 32" transform="translate(223.996 320.128)">
        <g id="Rectangle_6000" data-name="Rectangle 6000" transform="matrix(0.934, 0.358, -0.358, 0.934, 14.084, 0)" fill="#c3f5ff" stroke="rgba(10,191,226,0.5)" stroke-width="0.5">
          <rect width="50.709" height="39.299" rx="8" stroke="none"/>
          <rect x="0.25" y="0.25" width="50.209" height="38.799" rx="7.75" fill="none"/>
        </g>
        <g id="Rectangle_5999" data-name="Rectangle 5999" transform="translate(4.155 6.791)" fill="#fff" stroke="#0abfe2" stroke-width="1.5">
          <rect width="51.333" height="40.133" rx="7" stroke="none"/>
          <rect x="0.75" y="0.75" width="49.833" height="38.633" rx="6.25" fill="none"/>
        </g>
        <path id="Path_18699" data-name="Path 18699" d="M59.734,44.58a.467.467,0,0,0,.467.467H74.262a.47.47,0,0,0,0-.941H60.2a.467.467,0,0,0-.467.467Z" transform="translate(-26.346 -23.532)" fill="#0abfe2" stroke="#0abfe2" stroke-width="1"/>
        <path id="Path_18700" data-name="Path 18700" d="M60.822,51.953H73.759a.47.47,0,0,0,0-.941H60.822a.469.469,0,0,0,0,.938Z" transform="translate(-26.573 -26.06)" fill="#0abfe2" stroke="#0abfe2" stroke-width="1"/>
        <path id="Path_18701" data-name="Path 18701" d="M73.808,57.918H60.947a.47.47,0,1,0,0,.941h12.86a.47.47,0,1,0,0-.941Z" transform="translate(-26.618 -28.589)" fill="#0abfe2" stroke="#0abfe2" stroke-width="1"/>
        <path id="Path_18702" data-name="Path 18702" d="M69.41,64.82H60.575a.47.47,0,1,0,0,.941H69.41a.47.47,0,0,0,0-.941Z" transform="translate(-26.482 -31.115)" fill="#0abfe2" stroke="#0abfe2" stroke-width="1"/>
        <g id="Group_31" data-name="Group 31" transform="translate(9.735 17.528)">
          <path id="Path_18704" data-name="Path 18704" d="M14342.408-7050.069v8.026h8.452l-.347-2.651-1.479-2.41-2.111-1.988-2.924-1.129Z" transform="translate(-14331.091 7050.694)" fill="#0abfe2"/>
          <path id="Path_18703" data-name="Path 18703" d="M14310-7040.78l-.17,8.451h8.581l-.531,2.916-2.082,3.08-2.3,1.488-2.575.8h-2.578l-2.441-1.1-2.042-1.665-1.214-1.856-.839-1.369-.094-2.605.437-2.646,1.273-2.146,1.587-1.731,2.269-1.2Z" transform="translate(-14301.259 7043.772)" fill="#c3f5ff"/>
          <path id="np_pi-chart_1820790_000000" d="M21.5,15.066h-.4a8.7,8.7,0,1,0,8.7,8.7v-.4H21.5Zm7.473,9.1A7.891,7.891,0,1,1,20.7,15.894v8.273ZM23.768,12.4h-.4v9.1h9.074v-.4a8.68,8.68,0,0,0-8.673-8.7Zm.4,8.3V13.226A7.909,7.909,0,0,1,31.641,20.7Z" transform="translate(-12.398 -12.4)" fill="#0abfe2"/>
        </g>
      </g>
      <text id="Pioneer_Kirana_Store_Grocery" data-name="Pioneer Kirana Store &amp; Grocery" transform="translate(82.132 75.532)" fill="#fff" font-size="13" font-family="Montserrat" font-weight="500"><tspan x="0" y="0">Pioneer Kirana </tspan><tspan x="0" y="16">Store &amp; Grocery</tspan></text>
      <g id="Group_932" data-name="Group 932" transform="translate(78.399 538.525)">
        <g id="Group_933" data-name="Group 933" transform="translate(0)">
          <rect id="Rectangle_6062" data-name="Rectangle 6062" width="35.466" height="12.133" rx="6.067" fill="#fdc805"/>
          <text id="Update" transform="translate(3.774 7.867)" font-size="6" font-family="Montserrat" font-weight="500"><tspan x="0" y="0">UPDATE</tspan></text>
        </g>
      </g>
      <g id="Component_31_8" data-name="Component 31 – 8" transform="translate(73.446 323.143)">
        <g id="Group_1463" data-name="Group 1463" transform="translate(0 0)">
          <g id="Group_1459" data-name="Group 1459" transform="translate(45.978 51.3) rotate(-169)" opacity="0.678">
            <path id="Path_19032" data-name="Path 19032" d="M0,8.377V0L.56,1.625,2.116,3.007H42.269l3.218-1.382V5.152L42.741,7.373H18.114L15.179,10.5l-9.52.763H2.112L1.141,10.5Z" transform="translate(0.594 31.328)" fill="#dddeff"/>
            <g id="np_music-folder_775630_000000" transform="translate(0 0)">
              <rect id="Rectangle_6175" data-name="Rectangle 6175" width="45.733" height="33.599" rx="3" transform="translate(0.332 0.777)" fill="#dddeff"/>
              <path id="Path_19025" data-name="Path 19025" d="M43.176,39.225h-24.1c-.765,0-1.12.537-1.68,1.486-.647,1.091-1.453,2.445-3.392,2.445H3.662C1.643,43.157,0,40.81,0,37.924V4.312C0,1.934,1.643,0,3.662,0H43.176c2.02,0,3.662,1.934,3.662,4.312V33.985c0,2.887-1.643,5.236-3.66,5.236Zm2.463-9.16V4.305a2.743,2.743,0,0,0-2.468-2.946H3.658A2.743,2.743,0,0,0,1.192,4.308V30.8A2.743,2.743,0,0,0,3.66,33.746H43.176A2.743,2.743,0,0,0,45.639,30.8Zm0,3.9a3.36,3.36,0,0,1-2.468,1.148H3.66a3.36,3.36,0,0,1-2.468-1.148v3.96c0,2.1,1.129,3.868,2.468,3.868H14c1.307,0,1.811-.857,2.4-1.848s1.239-2.083,2.673-2.083h24.1c1.338,0,2.468-1.773,2.468-3.868Z" fill="#dddeff"/>
            </g>
            <g id="np_people_3095670_000000" transform="translate(11.923 12.603)">
              <path id="Path_19027" data-name="Path 19027" d="M0,0V.28A3,3,0,0,0,3,3.25H5.579A3,3,0,0,0,8.587.28V0h-.8V.28a2.218,2.218,0,0,1-2.208,2.2H3A2.218,2.218,0,0,1,.8.28V0Z" transform="translate(7.203 0)" fill="#dddeff"/>
              <path id="Path_19029" data-name="Path 19029" d="M0,1.1A2.928,2.928,0,0,0,2.759,3.128H5.212A2.879,2.879,0,0,0,8.094.245V0H7.327V.245A2.093,2.093,0,0,1,5.213,2.333H2.76A2.081,2.081,0,0,1,.767.889Z" transform="translate(14.899 2.269)" fill="#dddeff"/>
              <path id="Path_19031" data-name="Path 19031" d="M0,0V.245A2.879,2.879,0,0,0,2.882,3.128H5.335A2.928,2.928,0,0,0,8.094,1.1L7.327.889A2.079,2.079,0,0,1,5.335,2.333H2.882A2.093,2.093,0,0,1,.767.245V0Z" transform="translate(0 2.269)" fill="#dddeff"/>
              <circle id="Ellipse_277" data-name="Ellipse 277" cx="2.73" cy="2.73" r="2.73" transform="translate(8.647 4.164)" fill="#dddeff"/>
              <circle id="Ellipse_279" data-name="Ellipse 279" cx="2.73" cy="2.73" r="2.73" transform="translate(15.927 5.984)" fill="#dddeff"/>
              <circle id="Ellipse_278" data-name="Ellipse 278" cx="2.73" cy="2.73" r="2.73" transform="translate(1.367 5.984)" fill="#dddeff"/>
            </g>
          </g>
        </g>
        <g id="Group_1460" data-name="Group 1460" transform="translate(0.287 2.588)">
          <path id="Path_19032-2" data-name="Path 19032" d="M14242.2,7584.507v8.377l.561-1.625,1.557-1.382h40.154l3.218,1.382v-3.527l-2.746-2.223H14260.3l-2.934-3.124-9.521-.762h-3.547l-.972.762Z" transform="translate(-14241.601 -7581.059)" fill="#dddeff"/>
          <g id="np_music-folder_775630_000000-2" data-name="np_music-folder_775630_000000" transform="translate(0 0)">
            <rect id="Rectangle_6175-2" data-name="Rectangle 6175" width="45.733" height="33.599" rx="3" transform="translate(0.332 8.777)" fill="#fff"/>
            <path id="Path_19025-2" data-name="Path 19025" d="M63.778,30.219h-24.1c-.765,0-1.12-.537-1.68-1.486-.647-1.091-1.453-2.445-3.392-2.445H24.264c-2.02,0-3.662,2.346-3.662,5.232V65.125c0,2.378,1.643,4.312,3.662,4.312H63.778c2.02,0,3.662-1.934,3.662-4.312V35.452c0-2.887-1.643-5.236-3.66-5.236Zm2.461,9.157v25.76a2.743,2.743,0,0,1-2.468,2.946H24.258a2.743,2.743,0,0,1-2.468-2.946V38.643A2.743,2.743,0,0,1,24.258,35.7h39.52a2.743,2.743,0,0,1,2.468,2.946Zm0-3.9a3.36,3.36,0,0,0-2.464-1.151H24.262a3.36,3.36,0,0,0-2.468,1.148V31.516c0-2.1,1.129-3.868,2.468-3.868H34.6c1.307,0,1.811.857,2.4,1.848s1.239,2.083,2.673,2.083h24.1c1.338,0,2.468,1.773,2.468,3.868Z" transform="translate(-20.602 -26.288)" fill="#9488f7"/>
          </g>
          <g id="np_people_3095670_000000-2" data-name="np_people_3095670_000000" transform="translate(11.923 19.107)">
            <path id="Path_19027-2" data-name="Path 19027" d="M31.332,65.116v-.28a3,3,0,0,1,3-2.974h2.575a3,3,0,0,1,3,2.974v.28h-.8v-.28a2.218,2.218,0,0,0-2.207-2.207H34.336a2.218,2.218,0,0,0-2.207,2.207v.28Z" transform="translate(-24.129 -53.671)" fill="#9488f7"/>
            <path id="Path_19029-2" data-name="Path 19029" d="M64.8,54.555a2.928,2.928,0,0,1,2.759-2.023h2.453a2.879,2.879,0,0,1,2.882,2.882v.245h-.766v-.245a2.093,2.093,0,0,0-2.115-2.084H67.561a2.081,2.081,0,0,0-1.993,1.44Z" transform="translate(-49.902 -46.483)" fill="#9488f7"/>
            <path id="Path_19031-2" data-name="Path 19031" d="M0,55.659v-.245a2.879,2.879,0,0,1,2.882-2.882H5.335a2.928,2.928,0,0,1,2.759,2.023l-.766.215a2.079,2.079,0,0,0-1.993-1.44H2.882A2.093,2.093,0,0,0,.767,55.414v.245Z" transform="translate(0 -46.483)" fill="#9488f7"/>
            <circle id="Ellipse_277-2" data-name="Ellipse 277" cx="2.73" cy="2.73" r="2.73" transform="translate(8.647 1.82)" fill="#9488f7"/>
            <circle id="Ellipse_279-2" data-name="Ellipse 279" cx="2.73" cy="2.73" r="2.73" transform="translate(15.927 0)" fill="#9488f7"/>
            <circle id="Ellipse_278-2" data-name="Ellipse 278" cx="2.73" cy="2.73" r="2.73" transform="translate(1.367 0)" fill="#9488f7"/>
          </g>
        </g>
      </g>
    </g>
  </g>
</svg>
