<svg xmlns="http://www.w3.org/2000/svg" width="46.997" height="47.09" viewBox="0 0 46.997 47.09">
  <g id="Group_34" data-name="Group 34" transform="translate(0.261 0.25)">
    <g id="Ellipse_4" data-name="Ellipse 4" transform="translate(9.178 14.018)" fill="none" stroke="#cbffed" stroke-width="8">
      <ellipse cx="14.501" cy="9.078" rx="14.501" ry="9.078" stroke="none"/>
      <ellipse cx="14.501" cy="9.078" rx="18.501" ry="13.078" fill="none"/>
    </g>
    <path id="icons8-settings" d="M44.248,15.809a.68.68,0,0,0-.545.454,4.764,4.764,0,0,1-4.313,3.623c-2.533.185-4.231-1-5.2-3.615a.676.676,0,0,0-.8-.426,23.736,23.736,0,0,0-6.984,2.941.68.68,0,0,0-.253.868c1.1,2.327.848,4.259-.763,5.9-1.633,1.668-3.569,1.949-5.919.862a.676.676,0,0,0-.863.265,23.723,23.723,0,0,0-2.844,7.033.68.68,0,0,0,.427.79c2.35.865,3.52,2.376,3.573,4.618.056,2.335-1.093,3.929-3.509,4.872a.681.681,0,0,0-.412.794,23.638,23.638,0,0,0,2.93,6.967.679.679,0,0,0,.852.261c2.276-1.017,4.16-.751,5.762.814,1.641,1.6,1.95,3.512.944,5.834a.683.683,0,0,0,.269.854,23.613,23.613,0,0,0,6.977,2.857.576.576,0,0,0,.127.013.773.773,0,0,0,.659-.423,1.375,1.375,0,0,0,.08-.17,4.892,4.892,0,0,1,4.487-3.329H39a4.883,4.883,0,0,1,4.642,3.212.944.944,0,0,0,1.228.6,23.744,23.744,0,0,0,6.349-2.637c.084-.05.167-.105.24-.156l.074-.051a.683.683,0,0,0,.248-.845,4.765,4.765,0,0,1,.571-5.449c1.615-1.89,3.616-2.288,6.116-1.22a.677.677,0,0,0,.843-.267A23.677,23.677,0,0,0,62.2,44.681a.68.68,0,0,0-.417-.793c-2.323-.893-3.475-2.406-3.521-4.622-.049-2.335,1.1-3.926,3.517-4.866a.682.682,0,0,0,.429-.7,21.383,21.383,0,0,0-2.97-7.184.677.677,0,0,0-.8-.168c-2.293,1.079-4.205.814-5.844-.81s-1.919-3.578-.832-5.946a.682.682,0,0,0-.261-.865,23.425,23.425,0,0,0-7.011-2.9A.667.667,0,0,0,44.248,15.809Zm.518,1.48A22.078,22.078,0,0,1,50.3,19.581,6.055,6.055,0,0,0,51.649,26.5a5.974,5.974,0,0,0,6.858,1.3,24.249,24.249,0,0,1,2.271,5.543,6.061,6.061,0,0,0-3.867,5.948,5.973,5.973,0,0,0,3.835,5.632,22.351,22.351,0,0,1-2.3,5.528,6.259,6.259,0,0,0-8.129,8.142,22.414,22.414,0,0,1-5.535,2.3,6.21,6.21,0,0,0-11.447.024A22.2,22.2,0,0,1,27.8,58.65a6.261,6.261,0,0,0-8.171-8.1,22.267,22.267,0,0,1-2.323-5.518,6.269,6.269,0,0,0-.081-11.574A22.336,22.336,0,0,1,19.474,27.9a5.992,5.992,0,0,0,6.888-1.385,6.03,6.03,0,0,0,1.267-6.876,22.39,22.39,0,0,1,5.521-2.32,6.236,6.236,0,0,0,11.616-.027Zm-6.556,6.77q-.694.03-1.379.125a.338.338,0,0,0,.045.673.36.36,0,0,0,.046,0,14.416,14.416,0,0,1,2.645-.116.315.315,0,0,0,.352-.322.337.337,0,0,0-.319-.354C39.137,24.04,38.673,24.038,38.21,24.059Zm-2.782.46a.344.344,0,0,0-.135.007,15.053,15.053,0,0,0-10.449,9.539.338.338,0,0,0,.2.432.352.352,0,0,0,.114.02.339.339,0,0,0,.318-.224,14.483,14.483,0,0,1,2.077-3.847l1.417,2.108c-.1.149-.2.291-.293.444a12.019,12.019,0,0,0-1.313,9.133,12.208,12.208,0,0,0,.737,2.076l-2.5.129a13.579,13.579,0,0,1-.523-1.621.336.336,0,1,0-.652.166,14.228,14.228,0,0,0,2.585,5.273.33.33,0,0,0,.042.052,15.316,15.316,0,0,0,7.711,5.161,16.04,16.04,0,0,0,4.072.66l.012,0,.008,0c.162.005.325.019.486.019a14.469,14.469,0,0,0,9.9-3.828.337.337,0,0,0-.456-.5,13.6,13.6,0,0,1-4.869,2.9l.2-2.452a.326.326,0,0,0-.011-.094A12.067,12.067,0,0,0,50.64,36.184a12.211,12.211,0,0,0-.676-1.928l2.448-.265a14.543,14.543,0,0,1,.512,1.609.335.335,0,0,0,.326.254.333.333,0,0,0,.325-.42,15.051,15.051,0,0,0-9.631-10.539.339.339,0,0,0-.221.64,14.4,14.4,0,0,1,3.785,2l-3.248.789a11.868,11.868,0,0,0-8.217-.85,12.085,12.085,0,0,0-2.027.724l-.265-2.463a14.365,14.365,0,0,1,1.711-.555.338.338,0,0,0-.03-.661ZM33.1,26.012l.264,2.458a.316.316,0,0,0,.015.047,11.842,11.842,0,0,0-1.794,1.166l-.716-2.408A14.315,14.315,0,0,1,33.1,26.012ZM30.294,27.7l.729,2.454a11.989,11.989,0,0,0-1.645,1.8L28,29.9A14.367,14.367,0,0,1,30.294,27.7ZM39,27.776a11.386,11.386,0,0,1,2.8,22.41,11.332,11.332,0,0,1-13.78-8.221A11.355,11.355,0,0,1,39,27.776Zm9.183.291a14.353,14.353,0,0,1,2.047,2.094L47.58,30.6a.328.328,0,0,0-.094.036A12.067,12.067,0,0,0,45.153,28.8Zm2.5,2.692a14.414,14.414,0,0,1,1.456,2.581l-2.486.27a11.905,11.905,0,0,0-1.626-2.4l2.6-.432A.323.323,0,0,0,50.685,30.759Zm2.6,11.339a.334.334,0,0,0-.268.258,14.546,14.546,0,0,1-.826,2.527.338.338,0,0,0,.175.444.332.332,0,0,0,.134.028.336.336,0,0,0,.309-.2,15.215,15.215,0,0,0,.864-2.645.339.339,0,0,0-.388-.41ZM28.437,44.866a11.9,11.9,0,0,0,1.354,2.013l-2.365.708A13.565,13.565,0,0,1,25.89,45Zm23.5,1.035a.338.338,0,0,0-.33.174,14.7,14.7,0,0,1-.99,1.575.338.338,0,0,0,.076.471.333.333,0,0,0,.2.065.34.34,0,0,0,.273-.14A15.6,15.6,0,0,0,52.2,46.4a.338.338,0,0,0-.135-.458A.332.332,0,0,0,51.939,45.9Zm-21.66,1.537a12.034,12.034,0,0,0,2.238,1.851l-2.2,1.132a14.111,14.111,0,0,1-2.436-2.266Zm2.89,2.251a12.035,12.035,0,0,0,2.736,1.12l-1.642,1.577a.325.325,0,0,0-.058.083,15.146,15.146,0,0,1-3.256-1.611l2.136-1.1A.329.329,0,0,0,33.169,49.689Zm10.258.667-.2,2.48a14.247,14.247,0,0,1-3.816.528l1.161-2.17A.325.325,0,0,0,40.6,51.1a11.3,11.3,0,0,0,2.828-.749Zm-6.787.628a11.8,11.8,0,0,0,2.342.236c.276,0,.554-.013.831-.032l-1.158,2.163a15.434,15.434,0,0,1-3.692-.632l-.053-.017,1.65-1.585A.324.324,0,0,0,36.64,50.984Z" transform="translate(-15.75 -15.803)" fill="#58d9ac" stroke="#57d9ab" stroke-width="0.5"/>
    <g id="np_people_1366628_000000" transform="translate(16.83 17.062)">
      <path id="Path_18689" data-name="Path 18689" d="M42.5,35.747a3.9,3.9,0,1,0-6.006,3.269,6.6,6.6,0,0,0-4.286,5.22H33.24A5.5,5.5,0,0,1,38.6,39.674v-.031a3.9,3.9,0,0,0,3.9-3.9Zm-6.767,0A2.871,2.871,0,1,1,38.6,38.619,2.874,2.874,0,0,1,35.732,35.747Z" transform="translate(-32.207 -31.852)" fill="#57d8aa"/>
      <path id="Path_18690" data-name="Path 18690" d="M59.664,56.777H58.073V55.184H57.049v1.593H55.457V57.8h1.593v1.593h1.023V57.8h1.591Z" transform="translate(-47.525 -47.224)" fill="#57d8aa"/>
    </g>
  </g>
</svg>
