<svg id="Social_Icon" data-name="Social Icon" xmlns="http://www.w3.org/2000/svg" width="155.573" height="23.445" viewBox="0 0 155.573 23.445">
  <g id="Group" transform="translate(92.641)">
    <path id="Vector" d="M9.158,0C5.742,0,3.535,2.265,3.535,5.77V8.43H.478A.478.478,0,0,0,0,8.908v3.854a.478.478,0,0,0,.478.478H3.535v9.726a.478.478,0,0,0,.478.478H8a.478.478,0,0,0,.478-.478V13.241h3.574a.478.478,0,0,0,.478-.478V8.908a.478.478,0,0,0-.478-.478H8.479V6.175c0-1.084.258-1.634,1.67-1.634H12.2a.478.478,0,0,0,.478-.478V.483A.478.478,0,0,0,12.2,0Z" fill="#1d263a"/>
  </g>
  <g id="Group-2" data-name="Group" transform="translate(130.325 1.887)">
    <g id="Group-3" data-name="Group">
      <path id="Vector-2" data-name="Vector" d="M22.266,3.246A5.147,5.147,0,0,0,24.543.385a10.344,10.344,0,0,1-3.282,1.253,5.176,5.176,0,0,0-8.954,3.539,5.33,5.33,0,0,0,.12,1.18A14.651,14.651,0,0,1,1.758.944,5.177,5.177,0,0,0,3.349,7.862,5.112,5.112,0,0,1,1.01,7.224v.057a5.2,5.2,0,0,0,4.147,5.086,5.166,5.166,0,0,1-1.357.17,4.577,4.577,0,0,1-.98-.088,5.225,5.225,0,0,0,4.837,3.606,10.4,10.4,0,0,1-6.418,2.208A9.7,9.7,0,0,1,0,18.191a14.572,14.572,0,0,0,7.941,2.323A14.631,14.631,0,0,0,22.673,5.785c0-.229-.008-.45-.019-.669a10.326,10.326,0,0,0,2.594-2.687A10.792,10.792,0,0,1,22.266,3.246Z" fill="#1d263a"/>
    </g>
  </g>
  <g id="Group_4" data-name="Group 4" transform="translate(47.119 0)">
    <path id="Vector-3" data-name="Vector" d="M15.147,16.046h.006v-8.6C15.153,3.241,14.248,0,9.33,0a5.105,5.105,0,0,0-4.6,2.527H4.663V.393H0V16.046H4.855V8.3c0-2.041.387-4.014,2.914-4.014,2.49,0,2.527,2.329,2.527,4.145v7.621h4.851Z" transform="translate(8.298 7.398)" fill="#1d263a"/>
    <path id="Vector-4" data-name="Vector" d="M4.861,0V15.654H0V0Z" transform="translate(0.403 7.781)" fill="#1d263a"/>
    <path id="Vector-5" data-name="Vector" d="M0,2.816A2.839,2.839,0,0,0,2.816,5.657,2.829,2.829,0,0,0,2.816,0h0A2.816,2.816,0,0,0,0,2.816Z" fill="#1d263a"/>
  </g>
  <g id="Group_27" data-name="Group 27" transform="translate(0 0)">
    <g id="Group-4" data-name="Group">
      <g id="Group-5" data-name="Group">
        <path id="Vector-6" data-name="Vector" d="M15.2,22.11H6.91A6.917,6.917,0,0,1,0,15.2V6.91A6.917,6.917,0,0,1,6.91,0H15.2a6.917,6.917,0,0,1,6.91,6.91V15.2A6.917,6.917,0,0,1,15.2,22.11ZM6.91,2.073A4.842,4.842,0,0,0,2.073,6.91V15.2A4.842,4.842,0,0,0,6.91,20.037H15.2A4.842,4.842,0,0,0,20.037,15.2V6.91A4.842,4.842,0,0,0,15.2,2.073Z" fill="#1d263a"/>
      </g>
    </g>
    <g id="Group-6" data-name="Group" transform="translate(5.53 5.532)">
      <g id="Group-7" data-name="Group">
        <path id="Vector-7" data-name="Vector" d="M5.527,11.055a5.528,5.528,0,1,1,5.528-5.528A5.534,5.534,0,0,1,5.527,11.055Zm0-8.982A3.454,3.454,0,1,0,8.982,5.527,3.457,3.457,0,0,0,5.527,2.073Z" fill="#1d263a"/>
      </g>
    </g>
    <g id="Group-8" data-name="Group" transform="translate(16.285 4.371)">
      <g id="Group-9" data-name="Group">
        <path id="Vector-8" data-name="Vector" d="M.737,1.473A.737.737,0,1,1,1.473.737.737.737,0,0,1,.737,1.473Z" fill="#1d263a"/>
      </g>
    </g>
  </g>
</svg>
