<?xml version="1.0" encoding="utf-8"?>
<!-- Generator: Adobe Illustrator 26.2.0, SVG Export Plug-In . SVG Version: 6.00 Build 0)  -->
<svg version="1.1" id="calculator_1" xmlns="http://www.w3.org/2000/svg" xmlns:xlink="http://www.w3.org/1999/xlink" x="0px"
	 y="0px" viewBox="0 0 40 37.4" style="enable-background:new 0 0 40 37.4;" xml:space="preserve">
<style type="text/css">
	.st0{fill:none;}
	.st1{fill:#8BB329;}
	.st2{fill:#FFFFFF;}
</style>
<rect id="calculator_1_Background_Mask_2" y="0" class="st0" width="40" height="37.4"/>
<g>
	<defs>
		<rect id="SVGID_1_" y="0" width="40" height="37.4"/>
	</defs>
	<clipPath id="SVGID_00000023249692699002137920000003084611656104529297_">
		<use xlink:href="#SVGID_1_"  style="overflow:visible;"/>
	</clipPath>
</g>
<g>
	<path class="st1" d="M25.6,32.4c-0.2-1.3,0.2-2.3,0.7-3.4c0-0.1,0.1-0.2,0.2-0.2c2.8-2,4.6-4.6,5.1-8c0.6-4.6-1-8.4-4.7-11.3
		c-1.8-1.4-4-2.1-6.3-2.3c-0.3,0-0.4-0.1-0.3-0.4c0-0.2,0-0.4,0-0.6c0-0.3-0.2-0.4-0.4-0.4c-0.3,0-0.4,0.2-0.4,0.5
		c0.2-0.1,0.3-0.1,0.4-0.2c0,0,0,0,0.1,0c-0.1,0.1-0.1,0.2-0.2,0.3c-0.3,0.2-0.4,0.4-0.4,0.7c-0.5,0.1-1,0.1-1.5,0.2
		c-5.4,0.9-9.6,5.5-9.8,11c-0.2,4.4,1.6,7.9,5.2,10.4c0.1,0.1,0.3,0.3,0.4,0.4c0.5,1,0.8,2,0.6,3.2c-0.5-0.2-0.9-0.4-1.4-0.7
		c-0.3-0.2-0.5-0.2-0.9,0c-0.8,0.6-1.6,1.1-2.4,1.6c-0.3,0.2-0.4,0.2-0.7-0.1c-1.2-1.2-2.3-2.3-3.5-3.5c-0.2-0.2-0.2-0.4,0-0.6
		c0.6-0.9,1.2-1.8,1.8-2.6c0.1-0.2,0.1-0.3,0-0.5c-0.6-1-1-2.1-1.4-3.3c-0.1-0.2-0.1-0.3-0.3-0.3c-1.1-0.2-2.1-0.4-3.1-0.6
		c-0.3-0.1-0.4-0.2-0.4-0.5c0-1.6,0-3.3,0-4.9c0-0.3,0.1-0.5,0.4-0.5c1-0.2,2.1-0.4,3.1-0.6c0.2,0,0.3-0.1,0.3-0.3
		c0.3-1.2,0.8-2.2,1.4-3.3c0.1-0.2,0.1-0.3,0-0.5c-0.6-0.9-1.2-1.8-1.8-2.6C5.3,8.4,5.4,8.2,5.6,8C6.7,6.8,7.9,5.7,9,4.5
		c0.2-0.2,0.4-0.3,0.7-0.1c0.9,0.6,1.8,1.2,2.6,1.8c0.2,0.1,0.3,0.1,0.4,0c1-0.6,2.1-1.1,3.3-1.4c0.2-0.1,0.3-0.2,0.3-0.4
		c0.2-1,0.4-2.1,0.6-3.1C17.1,1.1,17.2,1,17.6,1c1.6,0,3.2,0,4.9,0c0.3,0,0.5,0.1,0.5,0.4c0.2,1,0.4,2.1,0.6,3.1
		c0,0.2,0.1,0.3,0.3,0.3c1.2,0.3,2.3,0.8,3.3,1.4c0.2,0.1,0.3,0.1,0.5,0c0.9-0.6,1.7-1.2,2.6-1.8c0.4-0.2,0.4-0.2,0.7,0.1
		c1.1,1.1,2.3,2.3,3.4,3.4c0.2,0.2,0.2,0.4,0.1,0.7c-0.6,0.9-1.2,1.7-1.8,2.6c-0.1,0.2-0.1,0.3,0,0.5c0.6,1,1,2.1,1.3,3.2
		c0.1,0.2,0.2,0.3,0.4,0.4c1,0.2,2.1,0.4,3.1,0.6c0.3,0.1,0.4,0.2,0.4,0.5c0,1.7,0,3.3,0,5c0,0.3-0.1,0.4-0.4,0.5
		c-1.1,0.2-2.1,0.4-3.2,0.6c-0.2,0-0.3,0.1-0.3,0.3c-0.3,1.2-0.8,2.3-1.4,3.3c-0.1,0.2-0.1,0.3,0,0.5c0.6,0.9,1.2,1.8,1.8,2.6
		c0.2,0.3,0.2,0.4-0.1,0.7c-1.2,1.1-2.3,2.3-3.4,3.4c-0.2,0.3-0.4,0.3-0.7,0.1c-0.8-0.6-1.7-1.1-2.5-1.7c-0.2-0.1-0.4-0.2-0.6,0
		C26.6,31.9,26.1,32.1,25.6,32.4z M29.3,31.7"/>
	<path class="st1" d="M29.6,19.1c0,2.6-0.9,4.7-2.5,6.6c-1.3,1.4-2.2,3-2.6,4.9c-0.1,0.5-0.1,0.9-0.1,1.4c0,1-0.2,2-0.8,2.8
		c-0.7,1-1.7,1.4-2.9,1.5c-1.2,0.1-2.4,0-3.4-0.8c-1.1-0.8-1.5-2-1.5-3.3c0.1-2.7-1.1-4.7-2.8-6.6c-2.9-3.3-3.3-8-1-11.6
		c2.1-3.2,5.9-4.9,9.7-4.2c3.8,0.7,6.8,3.6,7.6,7.4c0.1,0.3,0.1,0.7,0.2,1C29.5,18.6,29.5,18.9,29.6,19.1z M20,29.7
		C20,29.7,20,29.7,20,29.7c0.9,0,1.8,0,2.7,0c0.2,0,0.3,0,0.3-0.2c0.3-2,1.5-3.5,2.7-5c1.2-1.5,2-3.1,2-5c0.1-4.9-4.3-8.8-9.1-7.8
		c-2.9,0.6-5,2.3-6,5.1c-1,2.9-0.3,5.5,1.6,7.8c1.2,1.4,2.3,3,2.7,4.9c0,0.2,0.1,0.3,0.3,0.3C18.2,29.7,19.1,29.7,20,29.7z
		 M17.8,33.6c0.2,0.4,0.6,0.8,1,0.9c0.1,0,0.2,0,0.3-0.1c0.5-0.3,1.4-0.3,1.8,0c0.1,0,0.2,0.1,0.2,0.1c0.5-0.1,0.9-0.4,1.2-0.9
		C20.8,33.6,19.3,33.6,17.8,33.6z M17.4,31.5c-0.1,0.2,0,0.3,0.2,0.3c1.6,0,3.2,0,4.8,0c0.2,0,0.3-0.1,0.2-0.3
		C20.9,31.5,19.2,31.5,17.4,31.5z"/>
	<path class="st2" d="M20,29.7c-0.9,0-1.8,0-2.7,0c-0.2,0-0.3-0.1-0.3-0.3c-0.3-1.9-1.4-3.5-2.7-4.9c-2-2.3-2.6-4.9-1.6-7.8
		c1-2.8,3-4.6,6-5.1c4.8-0.9,9.3,2.9,9.1,7.8c-0.1,1.9-0.8,3.6-2,5c-1.2,1.5-2.4,3-2.7,5c0,0.2-0.1,0.2-0.3,0.2
		C21.8,29.7,20.9,29.7,20,29.7C20,29.7,20,29.7,20,29.7z M14.4,19.5c0,0.3,0,0.5,0,0.8c0,0.4,0.3,0.6,0.7,0.6c0.4,0,0.6-0.3,0.6-0.7
		c0-0.4,0-0.7,0-1.1c0.1-1.1,0.4-2.2,1.2-3c0.9-1,2-1.5,3.2-1.7c0.4-0.1,0.7-0.4,0.6-0.8c-0.1-0.4-0.4-0.6-0.9-0.5
		C16.8,13.6,14.3,15.7,14.4,19.5z"/>
	<path class="st2" d="M17.8,33.6c1.5,0,3,0,4.5,0c-0.3,0.5-0.7,0.8-1.2,0.9c-0.1,0-0.2,0-0.2-0.1c-0.4-0.3-1.3-0.3-1.8,0
		c-0.1,0.1-0.2,0.1-0.3,0.1C18.4,34.3,18,34,17.8,33.6z"/>
	<path class="st2" d="M17.4,31.5c1.7,0,3.5,0,5.2,0c0.1,0.2,0,0.3-0.2,0.3c-1.6,0-3.2,0-4.8,0C17.4,31.8,17.4,31.7,17.4,31.5z"/>
	<path class="st1" d="M14.4,19.5c0-3.7,2.4-5.9,5.4-6.4c0.5-0.1,0.8,0.1,0.9,0.5c0.1,0.4-0.2,0.7-0.6,0.8c-1.2,0.2-2.3,0.8-3.2,1.7
		c-0.8,0.9-1.1,1.9-1.2,3c0,0.4,0,0.7,0,1.1c0,0.4-0.2,0.7-0.6,0.7c-0.3,0-0.6-0.2-0.7-0.6C14.4,20,14.4,19.7,14.4,19.5z"/>
</g>
</svg>
