<?xml version="1.0" encoding="utf-8"?>
<!-- Generator: Adobe Illustrator 26.2.0, SVG Export Plug-In . SVG Version: 6.00 Build 0)  -->
<svg version="1.1" id="calculator_1" xmlns="http://www.w3.org/2000/svg" xmlns:xlink="http://www.w3.org/1999/xlink" x="0px"
	 y="0px" viewBox="0 0 40 37.4" style="enable-background:new 0 0 40 37.4;" xml:space="preserve">
<style type="text/css">
	.st0{fill:#F59C30;}
</style>
<g>
	<g>
		<path class="st0" d="M39,13.7c-0.3,0.6-0.7,1.1-1,1.7c-1.3,2.3-2.7,4.6-4,6.9c-0.2,0.4-0.3,0.4-0.7,0.1c-0.4-0.3-0.5-0.9-0.2-1.4
			c0.7-1.1,1.3-2.3,2-3.4c0.8-1.3,1.5-2.6,2.3-4c-0.3-0.2-0.6-0.3-0.9-0.5c-0.6,0.9-1.1,1.8-1.6,2.7c-2.3,3.9-4.8,7.8-7.6,11.4
			c-1,1.3-2.1,2.5-3.2,3.8c-0.3,0.3-0.6,0.5-0.9,0.7c-0.2,0.1-0.4,0.1-0.6,0c-0.1-0.1-0.2-0.3-0.2-0.5c0.2-0.8,0.4-1.7,0.6-2.5
			c1.1-3,2.6-5.8,4.1-8.5c1.9-3.5,4-6.9,6.2-10.2c0.4-0.5,0.8-1,1.3-1.4c0.6-0.6,1.3-0.7,2-0.2c0.9,0.5,1.2,1.1,1,2
			c-0.1,0.5-0.3,0.9-0.4,1.3c0.6,0.5,1.3,0.9,1.9,1.4C39,13.3,39,13.5,39,13.7z"/>
		<path class="st0" d="M19.3,2.9c-0.2,0-0.3,0-0.5,0c-4.4,0-8.7,0-13.1,0c-1.5,0-2.6,1.1-2.6,2.6c0,8.8,0,17.6,0,26.4
			c0,1.7,1,2.6,2.6,2.6c6.4,0,12.8,0,19.1,0c1.6,0,2.6-1,2.6-2.6c0-0.6,0-1.3,0-1.9c0-0.1,0-0.3,0.1-0.4c0.6-0.8,1.3-1.6,1.9-2.5
			c0,0.1,0,0.2,0,0.3c0,1.6,0,3.2,0,4.8c0,2.4-2,4.4-4.4,4.4c-6.6,0-13.1,0-19.7,0c-2.5,0-4.4-2-4.4-4.4c0-9,0-18,0-27
			c0-2.4,2-4.4,4.4-4.4c4.8,0,9.6,0,14.4,0c0.6,0,1.1,0.2,1.6,0.6c2.5,2.4,4.9,4.7,7.4,7.1c0.5,0.5,0.7,1,0.7,1.7c0,0.3,0,0.6,0,0.9
			c0.2,1.3-0.2,2.4-1,3.4c-0.4,0.5-0.7,1.1-1.1,1.7c0-1.8,0-3.6,0-5.5c-0.3,0-0.5,0-0.8,0c-1.2,0-2.4,0.1-3.6-0.1
			c-2.2-0.3-3.8-2.1-3.8-4.4c0-1,0-1.9,0-2.9C19.3,3.2,19.3,3.1,19.3,2.9z"/>
		<path class="st0" d="M15.3,18.9c2.8,0,5.6,0,8.3,0c0.1,0,0.2,0,0.3,0c0.7,0,1.2,0.4,1.2,1.1c0,0.6-0.5,1-1.2,1
			c-5.7,0-11.5,0-17.2,0c-0.7,0-1.2-0.4-1.2-1c0-0.5,0.3-1,0.8-1.1c0.2,0,0.3,0,0.5,0C9.6,18.9,12.4,18.9,15.3,18.9z"/>
		<path class="st0" d="M23.7,23.1c-0.3,0.7-0.6,1.3-1,2c0,0.1-0.3,0.1-0.4,0.1c-2.9,0-5.8,0-8.7,0c-2.3,0-4.6,0-7,0
			c-0.7,0-1.2-0.4-1.2-1c0-0.6,0.4-1,1-1.1c0.1,0,0.2,0,0.3,0c5.5,0,11,0,16.5,0C23.4,23.1,23.5,23.1,23.7,23.1z"/>
		<path class="st0" d="M21.8,27.3c-0.3,0.7-0.5,1.4-0.7,2.1c-0.1,0-0.2,0-0.3,0c-4.7,0-9.4,0-14.1,0c-0.7,0-1.1-0.4-1.2-1
			c0-0.6,0.4-1,0.9-1.1c0.1,0,0.2,0,0.3,0c4.9,0,9.8,0,14.8,0C21.5,27.3,21.6,27.3,21.8,27.3z"/>
		<path class="st0" d="M19.2,16.9c-1.6,0-3.2,0-4.9,0c-0.5,0-0.9-0.3-1-0.7c-0.1-0.4,0-0.9,0.4-1.2c0.2-0.1,0.4-0.2,0.6-0.2
			c3.2,0,6.4,0,9.7,0c0.6,0,1.1,0.5,1.1,1.1c0,0.6-0.5,1-1.1,1C22.5,16.9,20.8,16.9,19.2,16.9z"/>
	</g>
	<path class="st0" d="M14.6,11c-0.2,0.9-0.3,0.9-1.2,1c-0.5,0.1-1,0.4-1.5,0.5c-0.7,0.1-1.3,0.2-2,0.2c-0.5,0-0.7-0.5-1-1
		c-0.1-0.2-0.3-0.5-0.4-0.8c-0.2-0.3-0.5-0.3-0.7,0c-0.2,0.4-0.5,0.5-0.9,0.4c-0.2,0-0.4,0-0.5,0c-1,0-1.2-0.2-1.3-1.1
		c-0.1-1-0.2-2.1-0.2-3.2C5,6.4,5.3,6.2,5.9,6.2c0.4,0,0.9,0,1.3,0c0.2,0,0.4,0.1,0.5,0.2c0.5,0.5,1,0.4,1.6,0.1
		c0.7-0.3,1.5-0.5,2.2-1C12.3,5,13.2,5.3,14,5.8c0.5,0.4,0.9,0.8,1.7,0.5c0.4-0.2,0.9-0.1,1.3,0c0.5,0.1,0.8,0.3,0.7,0.8
		c-0.1,1.2-0.2,2.3-0.3,3.5c-0.1,0.5-0.4,0.8-0.9,0.7c-0.5,0-1.2,0.2-1.6-0.4h-0.1C14.7,11,14.7,11,14.6,11z M13,11.8
		c-0.2-0.4-0.4-0.9-0.7-1.3c-0.1-0.1,0-0.2,0.1-0.4c0.1,0.1,0.2,0.1,0.3,0.2c0.2,0.4,0.4,0.8,0.6,1.1c0.1,0.1,0.4,0.2,0.5,0.2
		c0.1-0.2,0.2-0.5,0.2-0.6c-0.5-1.1-1.2-2.1-1.8-3.2c-0.2-0.3-0.4-0.2-0.6-0.1c-0.2,0.2-0.5,0.4-0.7,0.6c-0.3,0.2-0.7,0.4-1.1,0.2
		C9.3,8.3,9.2,7.9,9.5,7.5C9.7,7.2,9.9,7,10.1,6.7C9.4,6.9,8.7,7.2,8,7.4c0,0.9,0,2,0,3c0.7,0.1,0.7,0.1,1,0.7
		c0.2,0.4,0.4,0.7,0.6,1c0.2,0.3,0.5,0.4,0.9,0.2c-0.1-0.2-0.3-0.5-0.4-0.8c-0.1-0.1,0-0.2,0-0.4c0.1,0.1,0.3,0.1,0.4,0.2
		c0.1,0.2,0.2,0.4,0.4,0.6c0.2,0.5,0.5,0.5,1,0.1c-0.2-0.4-0.4-0.7-0.6-1c-0.1-0.1,0-0.2,0-0.4c0.1,0.1,0.3,0.1,0.4,0.2
		c0.2,0.2,0.4,0.5,0.5,0.9C12.4,12.1,12.7,12.1,13,11.8z M9.8,7.9c0.4,0.4,0.5,0.4,0.9,0.2c0.2-0.2,0.5-0.4,0.7-0.6
		c0.7-0.5,1-0.5,1.4,0.2c0.5,0.9,0.9,1.6,1.4,2.5c0.1,0.3,0.3,0.4,0.7,0.2c0-1.1,0-2.3,0-3.4c0-0.1-0.1-0.2-0.2-0.3
		c-0.4-0.3-0.9-0.7-1.4-0.9c-0.7-0.3-1.4-0.4-2,0.1C10.7,6.6,10.3,7.3,9.8,7.9z M7.6,8.8c0-0.5,0-1.1,0-1.6c0-0.4-0.1-0.5-0.5-0.5
		s-0.7,0-1.1,0c-0.4,0-0.5,0.2-0.5,0.5c0.1,0.9,0.1,1.7,0.2,2.6C5.7,11,5.7,11,6.9,11c0.4,0,0.6-0.2,0.6-0.6
		C7.6,9.9,7.6,9.3,7.6,8.8z M16.1,10.3c0.1-0.2,0.2-0.3,0.2-0.4c0-0.1-0.2-0.2-0.2-0.2c-0.1,0-0.3,0.1-0.3,0.2S16,10.1,16.1,10.3z"
		/>
</g>
</svg>
