<?xml version="1.0" encoding="utf-8"?>
<!-- Generator: Adobe Illustrator 26.1.0, SVG Export Plug-In . SVG Version: 6.00 Build 0)  -->
<svg version="1.1" id="Layer_1" xmlns="http://www.w3.org/2000/svg" xmlns:xlink="http://www.w3.org/1999/xlink" x="0px" y="0px"
	 viewBox="0 0 40 41.4" style="enable-background:new 0 0 40 41.4;" xml:space="preserve">
<style type="text/css">
	.st0{fill:#F15048;}
</style>
<g id="np_broker_2472633_000000" transform="translate(-13.218 -11.899)">
	<path id="Path_19619" class="st0" d="M37,46.6h3.2v6.8H37V46.6z"/>
	<path id="Path_19620" class="st0" d="M41.3,43h3.2v10.3h-3.2V43z"/>
	<path id="Path_19621" class="st0" d="M45.6,40.8h3.3v12.6h-3.3V40.8z"/>
	<path id="Path_19622" class="st0" d="M50,37.2h3.2v16.1H50V37.2z"/>
	<path id="Path_19623" class="st0" d="M39.4,21.6c0,5.4-4,9.7-8.8,9.7s-8.8-4.4-8.8-9.7s4-9.7,8.9-9.7S39.4,16.3,39.4,21.6"/>
	<path id="Path_19624" class="st0" d="M40.2,41.8h4.3v-2.2h3.3V38c0-3.6-9.7-4.8-9.7-4.8l-5,9.2l-1.3-5.2l1.9-1.1
		c0.2-0.1,0.4-0.4,0.3-0.6c0-0.1-0.1-0.2-0.3-0.3l-2.5-1.5c-0.4-0.2-1-0.2-1.4,0l-2.5,1.5c-0.2,0.1-0.4,0.4-0.3,0.6
		c0,0.1,0.1,0.2,0.3,0.3l1.9,1.1L28,42.4l-5-9.2c0,0-9.7,1.2-9.7,4.8v14.3h22.6v-6.8h4.3L40.2,41.8z"/>
	<g>
		<path class="st0" d="M44.7,20.9h7.7v0C52,21.6,51.7,22,51.7,22h-2.1c0.3,0.3,0.5,0.7,0.6,1.2h2.2c0,0,0,0,0,0
			c-0.5,0.7-0.7,1.1-0.8,1.1h-1.4c0,0.4-0.2,0.8-0.5,1.4c-0.4,0.5-0.9,0.9-1.3,1.1c-0.8,0.4-1.5,0.5-2.2,0.5v0
			c0,0.1,1.6,1.9,4.7,5.5h-2.1c-3-3.5-4.5-5.3-4.5-5.3v-1.1l0,0c0.3,0,0.6,0.1,0.9,0.1c1.7,0,2.7-0.5,3.2-1.6
			c0.1-0.2,0.1-0.3,0.1-0.5H44c0,0,0,0,0,0c0.5-0.7,0.8-1.1,0.8-1.1h3.7v0c-0.2-0.4-0.6-0.8-1.2-1C46.7,22.1,46.3,22,46,22h-2v0
			C44.4,21.3,44.7,20.9,44.7,20.9z"/>
	</g>
</g>
</svg>
