<?xml version="1.0" encoding="utf-8"?>
<!-- Generator: Adobe Illustrator 26.2.0, SVG Export Plug-In . SVG Version: 6.00 Build 0)  -->
<svg version="1.1" id="calculator_1" xmlns="http://www.w3.org/2000/svg" xmlns:xlink="http://www.w3.org/1999/xlink" x="0px"
	 y="0px" viewBox="0 0 40 37.4" style="enable-background:new 0 0 40 37.4;" xml:space="preserve">
<style type="text/css">
	.st0{fill:none;}
	.st1{fill:#0086A5;}
</style>
<rect id="calculator_1_Background_Mask_2" y="0" class="st0" width="40" height="37.4"/>
<g>
	<path class="st1" d="M1.3,8.9c0.2-0.6,0.4-1.2,0.7-1.7c0.7-1.3,1.9-2,3.4-2.2c0.3,0,0.5,0,0.8,0c6.7,0,13.3,0,20,0
		c0.1,0,0.3,0,0.4,0c0,0.6,0,1.2,0,1.8c-0.1,0-0.3,0-0.4,0c-6.7,0-13.4,0-20.1,0c-1,0-1.8,0.3-2.4,1.1c-0.4,0.5-0.5,1-0.5,1.6
		c0,5.4,0,10.8,0,16.2c0,1.6,1.2,2.7,2.8,2.7c6.9,0,13.8,0,20.7,0c0.2,0,0.3,0,0.5,0c-0.1,0.4-0.2,0.8-0.3,1.2
		c-0.2,0.5-0.2,0.5-0.7,0.5c-6.7,0-13.5,0-20.2,0c-1.4,0-2.6-0.5-3.5-1.5c-0.5-0.6-0.9-1.3-1-2.1c0-0.1-0.1-0.2-0.1-0.3
		C1.3,20.5,1.3,14.7,1.3,8.9z"/>
	<path class="st1" d="M38.7,26.4c-0.2,0.5-0.3,1-0.5,1.4c-0.6,1.3-1.8,2.2-3.2,2.4c-0.1-0.5-0.3-1.1-0.5-1.7
		c0.2-0.1,0.5-0.1,0.7-0.2c1-0.4,1.6-1.2,1.7-2.3c0-0.2,0-0.4,0-0.5c0-5.3,0-10.6,0-15.8c0-0.8-0.2-1.6-0.9-2.1
		c-0.2-0.2-0.4-0.3-0.6-0.4C35.4,7,35.3,7,35.3,6.9c0-0.6,0-1.1,0-1.7c0.9,0.2,1.5,0.6,2.1,1.2c0.7,0.7,1.1,1.6,1.2,2.5
		c0,0,0,0.1,0,0.1C38.7,14.8,38.7,20.6,38.7,26.4z"/>
	<path class="st1" d="M34.6,3.7c0,4.8,0,9.6,0,14.4c0,0-0.1,0-0.1,0c0-0.6,0-1.2-0.6-1.5c-0.6-0.3-1.1-0.1-1.7,0.2
		c-0.3-0.5-0.6-1-1.3-1c-0.7,0-1,0.5-1.3,1c-0.5-0.3-1.1-0.6-1.7-0.2c-0.6,0.3-0.6,0.9-0.7,1.5c0-4.8,0-9.6,0-14.4
		C29.7,3.7,32.1,3.7,34.6,3.7z"/>
	<path class="st1" d="M9.7,17.9c-0.7-0.6-1.2-1.3-1.5-2.1c-0.5-1.6,0.1-3.3,1.7-3.9c1.1-0.5,2.2-0.3,3.1,0.4c1.4,1.2,1.4,3,0.6,4.3
		c-0.1,0.2-0.3,0.5-0.5,0.7c-0.2,0.2-0.3,0.4-0.5,0.7c0,0-0.1,0-0.1,0c0.1,0,0.2,0.1,0.3,0.1c1.5,0.5,2.7,1.4,3.4,2.8
		c0.2,0.3,0.3,0.7,0.4,1c0.1,0.4,0,0.7-0.5,0.9c-0.6,0.2-1.2,0.5-1.9,0.6c-1,0.1-2,0.2-2.9,0.2c0,0-0.1,0-0.2,0
		c0.4-0.4,0.7-0.7,1.1-1.1c0.4-0.4,0.4-0.4,0.2-0.9c-0.3-0.8-0.6-1.5-1-2.3c-0.1-0.2-0.1-0.4,0.1-0.6c0.1-0.1,0.1-0.2,0.2-0.2
		c-0.5,0-0.9,0-1.3,0c0,0,0.1,0.1,0.1,0.2c0.3,0.2,0.3,0.5,0.1,0.8c-0.4,0.8-0.7,1.7-1.1,2.5c-0.1,0.2,0,0.2,0.1,0.4
		c0.4,0.4,0.9,0.9,1.4,1.3c-0.1,0-0.2,0-0.2,0c-1.4,0-2.7-0.1-4.1-0.5C6.5,23,6.2,22.9,6,22.7c-0.3-0.1-0.4-0.4-0.4-0.7
		c0.1-0.7,0.4-1.3,0.8-1.8c0.8-1.1,1.8-1.8,3.1-2.2C9.6,18,9.6,18,9.7,17.9z"/>
	<path class="st1" d="M27.3,18.8c0.2,0.1,0.5,0,0.6-0.3c0.1-0.1,0.1-0.3,0.1-0.4c0-0.2,0-0.4,0-0.7c0.1-0.3,0.2-0.5,0.6-0.4
		c0.2,0,0.4,0.1,0.5,0.2c0.2,0.2,0.4,0.2,0.7,0.1c0.2-0.1,0.3-0.1,0.3-0.3c0.1-0.2,0.2-0.3,0.3-0.5c0.2-0.3,0.6-0.3,0.8,0
		c0.1,0.1,0.2,0.3,0.3,0.4c0.2,0.4,0.6,0.5,1,0.3c0.2-0.1,0.4-0.2,0.6-0.3c0.2-0.1,0.4,0.1,0.5,0.3c0,0.3,0,0.5,0,0.8
		c0,0.3,0.3,0.6,0.6,0.6c0.2,0,0.4,0,0.6,0c0.4,0,0.6,0.3,0.5,0.7c-0.1,0.2-0.2,0.4-0.3,0.6c-0.2,0.2,0,0.7,0.2,0.8
		c0.2,0.1,0.4,0.2,0.6,0.4c0.3,0.2,0.3,0.6,0,0.8c-0.1,0.1-0.3,0.2-0.4,0.3c-0.5,0.2-0.6,0.6-0.3,1c0.2,0.3,0.4,0.6,0.2,0.9
		c-0.2,0.3-0.6,0.3-0.9,0.2c-0.5,0-0.8,0.2-0.8,0.7c0,0,0,0,0,0c0,0.3,0.1,0.7-0.3,0.9c-0.3,0.2-0.7,0-0.9-0.2
		c-0.2-0.2-0.4-0.2-0.6-0.1c-0.1,0.1-0.3,0.2-0.4,0.3c-0.1,0.2-0.2,0.4-0.3,0.5c-0.3,0.3-0.6,0.2-0.8-0.1c-0.1-0.1-0.2-0.2-0.2-0.4
		c-0.1-0.3-0.2-0.4-0.5-0.4c-0.2-0.1-0.3,0-0.5,0.1c-0.2,0.1-0.4,0.2-0.7,0.3c-0.2,0.1-0.4-0.1-0.5-0.3c0-0.2-0.1-0.5,0-0.7
		c0-0.4-0.3-0.7-0.7-0.7c-0.2,0-0.5,0-0.7,0c-0.3-0.1-0.4-0.3-0.3-0.5c0.1-0.2,0.2-0.5,0.3-0.7c0.2-0.3,0.1-0.7-0.2-0.9
		c-0.2-0.1-0.3-0.2-0.5-0.3c-0.4-0.3-0.4-0.6,0-0.9c0.1-0.1,0.2-0.2,0.4-0.2c0.3-0.1,0.4-0.3,0.4-0.5c0-0.1,0-0.3-0.1-0.4
		c-0.1-0.2-0.2-0.4-0.3-0.6c-0.1-0.4,0.1-0.7,0.5-0.7C27,18.8,27.1,18.8,27.3,18.8z"/>
	<path class="st1" d="M26.6,13.7c0,0.4,0,0.8,0,1.2c0,0.1-0.1,0.1-0.2,0.2c-0.1,0-0.1,0-0.2,0c-2.8,0-5.7,0-8.5,0
		c-0.2,0-0.5-0.1-0.7-0.2c-0.3-0.1-0.3-0.4-0.3-0.7c0.1-0.3,0.2-0.5,0.5-0.6c0.1,0,0.3,0,0.4,0c2.9,0,5.8,0,8.6,0
		C26.3,13.6,26.4,13.7,26.6,13.7z"/>
	<path class="st1" d="M21.7,18.3c-1.4,0-2.7,0-4.1,0c-0.2,0-0.5-0.1-0.7-0.3c-0.4-0.4-0.2-1,0.3-1.1c0.1,0,0.3-0.1,0.4-0.1
		c2.8,0,5.7,0,8.5,0c0.3,0,0.4,0.1,0.4,0.4c0,0.1,0,0.3,0,0.4c0,0.5-0.2,0.6-0.7,0.6C24.5,18.3,23.1,18.3,21.7,18.3z"/>
	<path class="st1" d="M34.9,33.2c-0.5-0.5-0.9-1-1.4-1.6c-0.2,0.7-0.4,1.4-0.6,2.1c0,0,0,0-0.1,0c-0.1-0.4-0.3-0.9-0.4-1.3
		c-0.4-1.6-0.9-3.2-1.3-4.8c0-0.2,0-0.2,0.1-0.3c0.3-0.2,0.6-0.6,0.9-0.9c0.3,0.1,0.7,0.2,1.1,0.4c0.1,0,0.1,0.1,0.1,0.2
		c0.5,2,1.1,4,1.6,6c0,0,0,0.1,0,0.1C35,33.2,35,33.2,34.9,33.2z"/>
	<path class="st1" d="M29.6,26.4c0.3,0.3,0.6,0.6,0.8,0.9c0,0,0.1,0.1,0,0.2c-0.5,1.9-1,3.7-1.5,5.6c0,0,0,0-0.1,0.1
		c-0.2-0.5-0.4-1-0.6-1.5c-0.5,0.3-1,0.7-1.5,1c0.2-0.6,0.3-1.1,0.4-1.6c0.4-1.3,0.7-2.7,1.1-4c0.1-0.2,0.1-0.2,0.3-0.3
		C29,26.7,29.3,26.5,29.6,26.4z"/>
</g>
</svg>
