<svg xmlns="http://www.w3.org/2000/svg" width="197.481" height="81.816" viewBox="0 0 197.481 81.816">
    <defs>
        <style>
            .cls-1{fill:#1a1818}.cls-2{fill:#008fb0}
        </style>
    </defs>
    <g id="Group_1909" transform="translate(-7077.819 -4592.058)">
        <g id="Group_1907" transform="translate(7077.819 4631.546)">
            <path id="Path_19559" d="M7085.393 5187.258v22.942h-7.573V5187.262z" class="cls-1" transform="translate(-7077.819 -5175.226)"/>
            <path id="Path_19560" d="M7229.083 5188.534a18.389 18.389 0 0 0-5.194.865v16.23h-7.574v-22.939h6.708l.433 2.164a15.517 15.517 0 0 1 4.177-1.969 13.3 13.3 0 0 1 3.614-.628h1.948a6.1 6.1 0 0 1 6.492 6.492v16.879h-7.574v-15.581a1.479 1.479 0 0 0-1.515-1.515z" class="cls-1" transform="translate(-7204.327 -5170.659)"/>
            <path id="Path_19561" d="M7553.972 5083.228l-.433-2.164a15.459 15.459 0 0 1-4.176 1.97 13.314 13.314 0 0 1-3.614.627h-1.949a6.1 6.1 0 0 1-6.492-6.492v-9.955a6.37 6.37 0 0 1 6.924-6.925h8.873v-12.032h7.574v34.97zm-6.059-5.843a18.362 18.362 0 0 0 5.193-.865v-10.387h-6.492a1.53 1.53 0 0 0-1.731 1.731v8.007a1.479 1.479 0 0 0 1.515 1.515z" class="cls-1" transform="translate(-7497.536 -5048.258)"/>
            <path id="Path_19562" d="M7865.282 5187.258v22.942h-7.574v-16.23l-.009-6.708z" class="cls-1" transform="translate(-7790.193 -5175.226)"/>
            <path id="Path_19563" d="M8003.874 5205.629v7.357h-7.574v-30.3h6.708l.433 2.164a15.5 15.5 0 0 1 4.176-1.969 13.3 13.3 0 0 1 3.614-.628h1.947a6.1 6.1 0 0 1 6.492 6.492v9.954a6.371 6.371 0 0 1-6.925 6.925zm5.193-17.1a18.388 18.388 0 0 0-5.193.865v10.387h6.491a1.53 1.53 0 0 0 1.731-1.731v-8.006a1.479 1.479 0 0 0-1.515-1.515z" class="cls-2" transform="translate(-7916.797 -5170.659)"/>
            <path id="Path_19564" d="M8319.96 5183.124a132.759 132.759 0 0 1 14.282-.866 6.1 6.1 0 0 1 6.492 6.492v16.879h-6.709l-.433-2.164a15.453 15.453 0 0 1-4.177 1.969 13.289 13.289 0 0 1-3.613.627h-1.516a6.1 6.1 0 0 1-6.491-6.492v-1.948a6.1 6.1 0 0 1 6.491-6.492h8.873v-1.729a1.479 1.479 0 0 0-1.515-1.515q-2.814 0-6.211.26t-5.475.39zm8.007 16.879a18.364 18.364 0 0 0 5.193-.866v-2.6h-6.275a1.48 1.48 0 0 0-1.516 1.515v.433a1.48 1.48 0 0 0 1.516 1.515z" class="cls-2" transform="translate(-8210.465 -5170.659)"/>
            <path id="Path_19565" d="M8641.862 5187.258v22.942h-7.574V5187.262z" class="cls-2" transform="translate(-8499.562 -5175.226)"/>
            <path id="Path_19566" d="M8773.217 5204.137q8.786.65 13.85.649a1.479 1.479 0 0 0 1.515-1.515v-1.515h-9.306a6.1 6.1 0 0 1-6.491-6.492v-1.515a6.1 6.1 0 0 1 6.491-6.492h14.716v5.626h-12.118a1.515 1.515 0 1 0 0 3.03h7.79a6.1 6.1 0 0 1 6.492 6.492v1.731a6.1 6.1 0 0 1-6.492 6.492q-7.66 0-16.446-.866z" class="cls-2" transform="translate(-8626.069 -5175.226)"/>
            <path id="Path_19567" d="M9096.441 5183.124a132.805 132.805 0 0 1 14.283-.866 6.1 6.1 0 0 1 6.492 6.492v16.879h-6.709l-.433-2.164a15.453 15.453 0 0 1-4.177 1.969 13.289 13.289 0 0 1-3.613.627h-1.515a6.1 6.1 0 0 1-6.492-6.492v-1.948a6.1 6.1 0 0 1 6.492-6.492h8.872v-1.729a1.479 1.479 0 0 0-1.515-1.515q-2.814 0-6.211.26t-5.476.39zm8.008 16.879a18.369 18.369 0 0 0 5.193-.866v-2.6h-6.275a1.479 1.479 0 0 0-1.515 1.515v.433a1.479 1.479 0 0 0 1.515 1.515z" class="cls-2" transform="translate(-8919.735 -5170.659)"/>
        </g>
        <path id="Path_105" fill="#008fb0" fill-rule="evenodd" d="M7930.47 4635.065a.842.842 0 0 1 .316-.864c1.525-1.325 4.024-3.681 5.551-5 2.417-2.13 4.834-4.288 7.28-6.417a.681.681 0 0 1 .576-.086 4.7 4.7 0 0 0 2.071.432h8.747a5.3 5.3 0 0 0 .95-.086.684.684 0 0 1 .691.2c.488.518.949 1.007 1.467 1.5a1 1 0 0 1 .317.777v3.252a2.123 2.123 0 0 0 1.938 2.294 2.163 2.163 0 0 0 .218.007c1.468.058 2.964.058 4.374 0a2 2 0 0 0 2.1-2.215c-.057-1.5 0-2.964-.028-4.46a2.3 2.3 0 0 0-.2-.979 2 2 0 0 0-1.957-1.123c-1.18-.029-2.359 0-3.539-.029a1.245 1.245 0 0 1-.748-.317 10.275 10.275 0 0 1-1.237-1.266.974.974 0 0 1-.173-.575c.029-.489.142-.95.142-1.438v-8.574a4.367 4.367 0 0 0-.317-2.014.59.59 0 0 1 .173-.777c1.609-1.525 3.194-3.108 4.776-4.661a1.213 1.213 0 0 1 .921-.374c1.583 0 3.165-.029 4.748 0a2.477 2.477 0 0 0 2.534-2.419v-.17c-.028-1.641-.028-3.309 0-4.949a2.476 2.476 0 0 0-2.3-2.642 2.327 2.327 0 0 0-.233 0c-1.727-.029-3.424-.029-5.122 0a2.486 2.486 0 0 0-2.535 2.435v.183c.029 1.438.029 2.849 0 4.26a.927.927 0 0 1-.23.6c-1.9 1.871-3.8 3.74-5.728 5.611a1.02 1.02 0 0 1-.576.23c-3.05.029-6.128.029-9.178 0a.855.855 0 0 1-.576-.23c-.719-.748-1.438-1.5-2.13-2.244a1.117 1.117 0 0 1-.23-.6c-.028-1.669 0-3.367-.028-5.036a2.419 2.419 0 0 0-2.392-2.445h-5.37a2.42 2.42 0 0 0-2.388 2.388c-.029 1.813-.029 3.6 0 5.409a2.424 2.424 0 0 0 2.331 2.359c1.467.058 2.935.029 4.4.029a1.012 1.012 0 0 1 .834.345c.489.576 1.007 1.094 1.554 1.641a.466.466 0 0 1 .094.652l-.008.01a3.93 3.93 0 0 0-.518 2.043c0 2.82-.029 5.64.029 8.459a2.336 2.336 0 0 1-.921 1.956c-2.7 2.331-5.381 4.719-8.056 7.079-1.238 1.093-3.451 3.191-4.687 4.256a.658.658 0 0 1-.576.173m27.62-13.207c0 .518-.086.6-.6.6h-8.141c-.518 0-.633-.115-.633-.663v-8.143c0-.546.086-.663.663-.663h8.2c.4 0 .546.142.546.547v4.2c-.006 1.374-.006 2.758-.034 4.111zm14.127-23.911c.374 0 .518.142.518.518v4.4c0 .518-.086.6-.633.6h-4.288c-.547 0-.633-.115-.633-.633v-4.374c0-.489.058-.546.547-.546h2.216c.775 0 1.523 0 2.272.029zm-33.377 8.229c-.4 0-.547-.173-.547-.547v-4.431c0-.46.086-.547.547-.547h4.4c.46 0 .6.115.6.576v4.432a.479.479 0 0 1-.434.521.463.463 0 0 1-.113 0z" transform="translate(-776.245)"/>
        <path id="Path_106" d="M7857.813 5048.086h-5a2.237 2.237 0 0 0-2.237 2.237v5.018a2.237 2.237 0 0 0 2.237 2.237h5a2.236 2.236 0 0 0 2.236-2.237v-5.018a2.236 2.236 0 0 0-2.236-2.237zm.024 6.462a.755.755 0 0 1-.754.755h-3.536a.755.755 0 0 1-.755-.755v-3.432a.755.755 0 0 1 .755-.755h3.533a.755.755 0 0 1 .754.755z" class="cls-2" transform="translate(-705.87 -416.555)"/>
    </g>
</svg>
