<svg id="Group_953" data-name="Group 953" xmlns="http://www.w3.org/2000/svg" width="51.652" height="50.503" viewBox="0 0 51.652 50.503">
  <path id="Path_18650" data-name="Path 18650" d="M1245.031,1020.109l31.731,24.142,17.437-14.518-32.566-24.347Z" transform="translate(-1243.431 -1004.787)" fill="#00c981" opacity="0.394"/>
  <g id="np_bills_2335595_000000">
    <path id="Path_18642" data-name="Path 18642" d="M49.271,56.295,16,31.219,34.353,16l33.3,25.062Zm-31-25.126,30.959,23.3L65.354,41.112l-30.959-23.3Z" transform="translate(-16 -16)" fill="#00c981"/>
    <path id="Path_18643" data-name="Path 18643" d="M49.548,69.549,16.968,45.023l.859-1.143L49.506,67.737,66.323,53.8l.915,1.1Z" transform="translate(-16.277 -23.978)" fill="#00c981"/>
    <path id="Path_18644" data-name="Path 18644" d="M49.548,76.459,16.968,51.924l.859-1.135L49.506,74.638,66.323,60.7l.915,1.1Z" transform="translate(-16.277 -25.956)" fill="#00c981"/>
    <path id="Path_18645" data-name="Path 18645" d="M51.216,30.238,34.076,44.623l-2.225,8.529,7.473,5.624,2.206-8.544L57.8,35.193Z" transform="translate(-20.536 -20.075)" fill="#00c981"/>
  </g>
</svg>
